/* XPM */
static char *result[] = {
/* columns rows colors chars-per-pixel */
"64 64 67 1 ",
"  c #091C2B",
". c #071F31",
"X c #072233",
"o c #092335",
"O c #0B263C",
"+ c #0C293D",
"@ c #0D2C43",
"# c #0D3149",
"$ c #0E3652",
"% c #0F3A55",
"& c #0F3B58",
"* c #103752",
"= c #103A55",
"- c #113D5B",
"; c #12405F",
": c #134365",
"> c #15466C",
", c #15496E",
"< c #144A71",
"1 c #184F76",
"2 c #184F78",
"3 c #185076",
"4 c #17527D",
"5 c #19537D",
"6 c #195682",
"7 c #1A5986",
"8 c #1B5C8B",
"9 c #1C5F90",
"0 c #1B608F",
"q c #1C6294",
"w c #1D669A",
"e c #1D689E",
"r c #20699E",
"t c #1F6DA5",
"y c #1F70AA",
"u c #216DA4",
"i c #226FA9",
"p c #2571A6",
"a c #2272AC",
"s c #2972AB",
"d c #2376B2",
"f c #2378B5",
"g c #2A7AB7",
"h c #237BBA",
"j c #287CBB",
"k c #2983C4",
"l c #2785C8",
"z c #2986CA",
"x c #278BCF",
"c c #2A89CD",
"v c #3085C2",
"b c #368DC6",
"n c #338CCD",
"m c #388BC9",
"M c #2C8DD4",
"N c #2C8FD8",
"B c #328ED2",
"V c #2E90D6",
"C c #2C91DA",
"Z c #3390D5",
"A c #2E95E1",
"S c #2E99E6",
"D c #2F9BEA",
"F c #3097E5",
"G c #3299E6",
"H c #309BEA",
"J c None",
/* pixels */
"JJJJJJJJJJJJJJJJJJJJJJJJJJJJJJJJJJJJJJJJJJJJJJJJJJJJJJJJJJJJJJJJ",
"JJJJJJJJJJJJJJJJJJJJJJJJJJJJJJJJJJJJJJJJJJJJJJJJJJJJJJJJJJJJJJJJ",
"JJJJJJJJJJJJJJJJJJJJJJJJJJJBJJJJJJJJJJJJJJJJJJJJJJJJJJJJJJJJJJJJ",
"JJJJJJJJJJJJJJJJJJJJJJJJJJJBBBVZBJJJJJJJJJJJJJJJJJJJJJJJJJJJJJJJ",
"JJJJJJJJJJJJJJJJJJJJJJJJJJJJJnVCCBJJJJJJJJJJJJJJJJJJJJJJJJJJJJJJ",
"JJJJJJJJJJJJJJJJJJJJJJJJJJJJJJJBCVVZJJJJJJJJJJJJJJJJJJJJJJJJJJJJ",
"JJJJJJJJJJJJJJJJJJJJJJJJJJJJJJJJVCCMJJJJJJJJJJJJJJJJJJJJJJJJJJJJ",
"JJJJJJJJJJJJJJJJJJJJJJJJJJJppasdcMCCBJJJJJJJJJJJJJJJJJJJJJJJJJJJ",
"JJJJJJJJJJJJJJJJJJJJJJJJJJJdyadydhVNMJJJJJJJJJJJJJJJJJJJJJJJJJJJ",
"JJJJJJJJJJJJJJJJJJJJJJJJJJpydaaaadxNNBJJJJJJJJJJJJJJJJJJJJJJJJJJ",
"JJJJJJJJJJJJJJJJJJJJJJJJJpaayyyayafxCNgJJJJJJJJJJJJJJJJJJJJJJJJJ",
"JJJJJJJJJJJJJJJJJJJJJJJJJddaayt0tateAHzsJJJJJJJJJJJJJJJJJJJJJJJJ",
"JJJJJJJJJJJJJJJJJJJJJJJJpyyp87767778xShaJJJJJJJJJJJJJJJJJJJJJJJJ",
"JJJJJJJJJJJJJJJJJJJJJJJpap8766666666wAMdpJJJJJJJJJJJJJJJJJJJJJJJ",
"JJJJJJJJJJJJJJJJJJJJJpaaauq8866666668AAhaJJJJJJJJJJJJJJJJJJJJJJJ",
"JJJJJJJJJJJJJJJJJJJJJpaatwlMk06465668CSMdpJJJJJJJJJJJJJJJJJJJJJJ",
"JJJJJJJJJJJJJJJJJJJJJaaatlDSz84<<<466eANfapJJJJJJJJJJJJJJJJJJJJJ",
"JJJJJJJJJJJJJJJJJJJJJaffcDNz9<<>>><<40CVaaaJJJJJJJJJJJJJJJJJJJJJ",
"JJJJJJJJJJJJJJJJJJJJpdzNFAz9<>>>>>>&;8AxtiaJJJJJJJJJJJJJJJJJJJJJ",
"JJJJJJJJJJJJJJJJJJJJpdNSAz96<<>>,:;&&6ACkdapJJJJJJJJJJJJJJJJJJJJ",
"JJJJJJJJJJJJJJJJJJJJdhSAzq62>>>>>;&&=>cMtidaJJJJJJJJJJJJJJJJJJJJ",
"JJJJJJJJJJJJJJJJJJJJMSDz966<>>>>:&&&%-6VzyaaJJbJJJJJJJJJJJJJJJJJ",
"JJJJJJJJJJJJJJJJJJJJCDzq666<>>>>;&&%%:azkwyaJJBJJJJJJJJJJJJJJJJJ",
"JJJJJJJJJJJJJJJJJJJNDNq6666<>>>:%%%$@@:>8tyaJJVBJJJJJJJJJJJJJJJJ",
"JJJJJJJJJJJJJJJJJJBCAl86666<>>>-%%%@@@@%5eqpJBVVJJJJJJJJJJJJJJJJ",
"JJJJJJJJJJJJJJJJJJVNc966664<>>>-;%%@+++$477uJMCVJJJJJJJJJJJJJJJJ",
"JJJJJJJJJJJJJJJJJJMMd76666<>>>:-&%@+O.X:677tdMCVJJJJJJJJJJJJJJJJ",
"JJJJJJJJJJJJJJJJJBMhy76666<>>>-&&$@+.  +368tfVCMJJJJJJJJJJJJJJJJ",
"JJJJJJJJJJJJJJJJJNMft76662<<>>-&=#@+   o17tdMNCBJJJJJJJJJJJJJJJJ",
"JJJJJJJJJJJJJJJJJZMdi76666<>>>-&*@++   O37ifxCBJJJJJJJJJJJJJJJJJ",
"JJJJJJJJJJJJJJJJJMcfy76666>>>>-$=@++  o>67uyhMVJJJJJJJJJJJJJJJJJ",
"JJJJJJJJJJJJJJJJJMhai76666<>>>-&=@++  o1768yMCCJJJJJJJJJJJJJJJJJ",
"JJJJJJJJJJJJJJJJJcddi76666<>>>-&=@@O  o1667aVCMJJJJJJJJJJJJJJJJJ",
"JJJJJJJJJJJJJJJJJMdai86666<<>>-&=@@+  o1768aMCZJJJJJJJJJJJJJJJJJ",
"JJJJJJJJJJJJJJJJJMdai86666<>>>-&=@@O  o167tfMCJJJJJJJJJJJJJJJJJJ",
"JJJJJJJJJJJJJJJJJnJii76666>>>>-&=#@O+ o167acCMJJJJJJJJJJJJJJJJJJ",
"JJJJJJJJJJJJJJJJJbJpi88666>>>>&&&*@+@+#377aMCBJJJJJJJJJJJJJJJJJJ",
"JJJJJJJJJJJJJJJJJJJai9g866>>>>&&&%@@++#368aMCBJJJJJJJJJJJJJJJJJJ",
"JJJJJJJJJJJJJJJJJJJai9z966>>>>&&&%#++@#37ufNCJJJJJJJJJJJJJJJJJJJ",
"JJJJJJJJJJJJJJJJJJJpiwcl86<>,,>&=&*@#@*37ahGGJJJJJJJJJJJJJJJJJJJ",
"JJJJJJJJJJJJJJJJJJJaaacMq65<>>>&=&&===-58cSSZJJJJJJJJJJJJJJJJJJJ",
"JJJJJJJJJJJJJJJJJJJpdiwAc86<>>,&&&&&&-368MDHJJJJJJJJJJJJJJJJJJJJ",
"JJJJJJJJJJJJJJJJJJJJii9AAq6<>>>:-&&%&-66wADZJJJJJJJJJJJJJJJJJJJJ",
"JJJJJJJJJJJJJJJJJJJJai9NCq55,,>>-&&&&&4qzHSJJJJJJJJJJJJJJJJJJJJJ",
"JJJJJJJJJJJJJJJJJJJJaiqcAw665,>>:-&&&:7zSAMJJJJJJJJJJJJJJJJJJJJJ",
"JJJJJJJJJJJJJJJJJJJJsaihSV876<>>>-&&&3qADMfJJJJJJJJJJJJJJJJJJJJJ",
"JJJJJJJJJJJJJJJJJJJJJaafSAq663<>>>:&:9MSNhdJJJJJJJJJJJJJJJJJJJJJ",
"JJJJJJJJJJJJJJJJJJJJJsafGM8666<>>>>,7xSkdiiJJJJJJJJJJJJJJJJJJJJJ",
"JJJJJJJJJJJJJJJJJJJJJJafSA96664,>,<5wAAdaaJJJJJJJJJJJJJJJJJJJJJJ",
"JJJJJJJJJJJJJJJJJJJJJJpfCAq6666<,<48MAhddaJJJJJJJJJJJJJJJJJJJJJJ",
"JJJJJJJJJJJJJJJJJJJJJJJdMDcq76665669khiaapJJJJJJJJJJJJJJJJJJJJJJ",
"JJJJJJJJJJJJJJJJJJJJJJJphASz86666667qidpJJJJJJJJJJJJJJJJJJJJJJJJ",
"JJJJJJJJJJJJJJJJJJJJJJJJphSMq766678uiaapJJJJJJJJJJJJJJJJJJJJJJJJ",
"JJJJJJJJJJJJJJJJJJJJJJJJsfCFfu878tiadaduJJJJJJJJJJJJJJJJJJJJJJJJ",
"JJJJJJJJJJJJJJJJJJJJJJJJkdjFMfiiiddidapJJJJJJJJJJJJJJJJJJJJJJJJJ",
"JJJJJJJJJJJJJJJJJJJJJJJJJJdMCMfyaiadpJJJJJJJJJJJJJJJJJJJJJJJJJJJ",
"JJJJJJJJJJJJJJJJJJJJJJJJJJJjMCMdaaaiJJJJJJJJJJJJJJJJJJJJJJJJJJJJ",
"JJJJJJJJJJJJJJJJJJJJJJJJJJJnCMMhaipJmJJJJJJJJJJJJJJJJJJJJJJJJJJJ",
"JJJJJJJJJJJJJJJJJJJJJJJJJJJJMVCcfJJJnJJJJJJJJJJJJJJJJJJJJJJJJJJJ",
"JJJJJJJJJJJJJJJJJJJJJJJJJJJJJMCCMJnMNmJJJJJJJJJJJJJJJJJJJJJJJJJJ",
"JJJJJJJJJJJJJJJJJJJJJJJJJJJJJJBBCMMVBJJJJJJJJJJJJJJJJJJJJJJJJJJJ",
"JJJJJJJJJJJJJJJJJJJJJJJJJJJJJJJJBCBJJJJJJJJJJJJJJJJJJJJJJJJJJJJJ",
"JJJJJJJJJJJJJJJJJJJJJJJJJJJJJJJJJnJJJJJJJJJJJJJJJJJJJJJJJJJJJJJJ",
"JJJJJJJJJJJJJJJJJJJJJJJJJJJJJJJJJJJJJJJJJJJJJJJJJJJJJJJJJJJJJJJJ"
};
