/* XPM */
static char *_ba5bd3c46ec430890b555ae4531cd35GZUpiwB9EkmHvLZc[] = {
/* columns rows colors chars-per-pixel */
"64 64 140 2 ",
"   c #fa0000",
".  c #091D2B",
"X  c #092335",
"o  c #0C273B",
"O  c #0D293D",
"+  c #0D2C42",
"@  c #0C2E48",
"#  c #0E3049",
"$  c #0F3752",
"%  c #0F3955",
"&  c #0F3B58",
"*  c #103752",
"=  c #103956",
"-  c #103C5B",
";  c #124264",
":  c #15466C",
">  c #15486E",
",  c #154A71",
"<  c #184F77",
"1  c #185077",
"2  c #175178",
"3  c #19537C",
"4  c #195682",
"5  c #1A5986",
"6  c #1B5D8C",
"7  c #1B5F91",
"8  c #1B608F",
"9  c #1C6193",
"0  c #1C659A",
"q  c #1F699E",
"w  c #1F6BA2",
"e  c #1F71AA",
"r  c #216DA4",
"t  c #296FA3",
"y  c #216FA9",
"u  c #2471A7",
"i  c #2272AC",
"p  c #2376B2",
"a  c #2379B6",
"s  c #297AB5",
"d  c #277EBD",
"f  c #257CBC",
"g  c #247BBA",
"h  c #287DBB",
"j  c #277FC0",
"k  c #3787BF",
"l  c #2580C3",
"z  c #2882C4",
"x  c #2886C7",
"c  c #2B84C4",
"v  c #2787CB",
"b  c #2786C8",
"n  c #2986C9",
"m  c #2A87CB",
"M  c #2986CB",
"N  c #2989CB",
"B  c #2B8ACE",
"V  c #2A8ACF",
"C  c #2B8BCF",
"Z  c #2D8BCF",
"A  c #2A8ACE",
"S  c #358AC8",
"D  c #338CC9",
"F  c #378CC9",
"G  c #338CCC",
"H  c #318DCF",
"J  c #318ECF",
"K  c #338CCE",
"L  c #2A8AD0",
"P  c #2B8BD2",
"I  c #298DD1",
"U  c #2A8CD1",
"Y  c #298CD2",
"T  c #2A8CD2",
"R  c #2B8ED3",
"E  c #2C8CD2",
"W  c #2E8FD3",
"Q  c #298CD4",
"!  c #2B8DD4",
"~  c #2A8DD5",
"^  c #2B8DD5",
"/  c #2B8ED5",
"(  c #2B8ED6",
")  c #2A8ED7",
"_  c #2B8ED7",
"`  c #2C8FD5",
"'  c #2E8ED5",
"]  c #2F8FD5",
"[  c #2C8ED6",
"{  c #2F8FD6",
"}  c #2B8DD4",
"|  c #2E8FD8",
" . c #2E8FDA",
".. c #2B8FD8",
"X. c #318DD1",
"o. c #328DD0",
"O. c #328ED1",
"+. c #318DD2",
"@. c #308DD3",
"#. c #318DD3",
"$. c #338DD2",
"%. c #318ED3",
"&. c #328DD4",
"*. c #318ED4",
"=. c #318ED2",
"-. c #308DD8",
";. c #2F90D6",
":. c #2E90D6",
">. c #2B90DA",
",. c #2D91D8",
"<. c #2C90D9",
"1. c #2E90D8",
"2. c #2F91D8",
"3. c #2E90D9",
"4. c #2F91D9",
"5. c #2C90DA",
"6. c #2C91DA",
"7. c #2C90DB",
"8. c #2E92DA",
"9. c #2B91DC",
"0. c #2D93DC",
"q. c #2C92DB",
"w. c #3190D4",
"e. c #3291D9",
"r. c #2E96E1",
"t. c #2D96E3",
"y. c #2F97E4",
"u. c #2D96E1",
"i. c #2D99E7",
"p. c #2F9BE7",
"a. c #2E99E6",
"s. c #2F9BE9",
"d. c #2F9BEA",
"f. c #2F9BEC",
"g. c #2E9CEC",
"h. c #2F9CEC",
"j. c #2F9EEE",
"k. c #2F9CEA",
"l. c #309DEE",
"z. c #2F9FF1",
/* pixels */
"                                                                                                                                ",
"                                                                                                                                ",
"                                                                        F                                                       ",
"                                                                        D                                                       ",
"                                                                                                                                ",
"                                                                          J                                                     ",
"                                                        u i i i i i       J J                                                   ",
"                                                    i i i i i i i i i       J                                                   ",
"                                                    i i i i i i i i i i i   X.*.                                                ",
"                                                  i i i p p i i i i i i i     -.*.                                              ",
"                                                s m a g m i y r 6 r i i i u   ` 7.                                              ",
"                                              X.` 9.>.y.! 0 5 5 4 6 r i i i p U 7.                                              ",
"                                          *.` 7.p.s.f.h.s.N 0 6 4 4 6 r i i p L 7.X.                                            ",
"                                          | 7.! ! ! U ! s.h.t.v 6 4 4 6 r i i a ! |                                             ",
"                                        X.E B a y 9 6 9 x ! t.0.6 3 4 4 6 r i p ! 7.X.                                          ",
"                                        Z g p i 6 4 4 4 6 6 0 d 5 , , 3 4 6 y p ! 7.:.                                          ",
"                                      E B p i r 5 4 4 4 3 , > < > : : , 3 5 r p B 7.:.                                          ",
"                                    X.X.  i y 6 4 4 4 4 3 > : : : : : : ; 3 5 r d ! `                                           ",
"                                    X.  i i y 5 4 4 4 3 , > : : : - & - = ; 3 6 c >.`                                           ",
"                                    S   i i r 5 4 4 4 3 > : : : - - & & % - 1 4 0 L 7.                                          ",
"                                  k       r 6 4 4 4 4 , : : : - & - & & & = ; 3 6 U p.d                                         ",
"                                        i i 5 4 4 4 3 , : : : - = - & & & = - 3 6 U f.`                                         ",
"                                        i r 5 4 4 4 3 > : : : - & - = = = = = < 6 U h.7.                                        ",
"                                      i i 6 4 4 4 4 , : : : : - % & - $ + + @ - 5 U h.7.                                        ",
"                                      i i 5 4 4 4 3 > : : : : - % & $ + + + + # 5 U k.7.                                        ",
"                              J       i i 5 4 4 4 3 > : : : & & & = @ + + + + # 5 U k.7.                                        ",
"                              J       i y 5 4 4 4 3 > : : : - & & = + + + + O + 5 ! k.7.                                        ",
"                              J       i r 5 5 4 4 4 , : : : - & & $ + + + o . X 6 t.h.! p                                       ",
"                              J       r 6 6 h 0 4 4 , : : : - & % + + + o . . O d h.s.f i                                       ",
"                              X.    u y 5 0 B j 6 3 , : : : - & % + + O . . . + m z.p.a i                                       ",
"                              S     i y 9 c B 9 4 4 , : : : - & % + + O . . . + ` l.7.p i                                       ",
"                                    i y 0 L V 6 4 4 , : : : - & % + + O . . . + :.h.B p i                                       ",
"                                      i i ! 0.6 4 4 , : : : - - % + + O . . . O z ! q i i                                       ",
"                                      i p ) 0.9 4 4 , : : : - & % + + O . . . . = s i i i                                       ",
"                                      i p ) 0.9 4 4 , : : : - & % + + + o . . X > 6 i i i                                       ",
"                                    t i p ) 0.9 4 4 , : : : - & & * + + + o . X 1 5 y i i                                       ",
"                                      i a >.0.9 4 4 , : : : - & = * + + + + O + 3 5 y i u                                       ",
"                                      p B 0.0.9 4 4 , : : : - & & = + + + + + # 3 5 r i                                         ",
"                                      p B 0.0.9 4 4 , : : : ; - & = * @ + + O # 3 5 7 r     G                                   ",
"                                      i a >.t.9 4 4 , : : : : - = & & % $ + + # 3 5 r i     G                                   ",
"                                      i a p.t.8 4 4 , : : : : - = & & & & = = - 3 6 i i   *.`                                   ",
"                                      i a s.t.6 4 3 , : : : : - = & & - = = - 1 5 r i i Z >.X.                                  ",
"                                      c a p.t.6 4 4 3 , : : : & & - & & & = ; 3 5 u i a ! 7.                                    ",
"                                        a p.t.8 4 4 4 , : : : ; - & & & & - 3 4 5 y g L 7.:.                                    ",
"                                        a p.t.8 4 4 4 3 > : : : - & & & & - 3 4 6 i m 7.7.X.                                    ",
"                                        a p.) 6 4 4 5 3 > : : : - = = = = - 3 5 w p d | `                                       ",
"                                          7.0.7 4 4 4 4 , : : : : ; - = - ; 3 6 i a L 0.`                                       ",
"                                          d 9.0 5 4 4 4 3 > : : : : ; ; 2 4 6 r a L 0.0.E                                       ",
"                                          E s.m r 5 4 4 4 , : : : > , 3 5 w e a L >.7.X.                                        ",
"                                          7.p.d i 6 4 4 4 3 , > , 3 4 6 5 i p U 0.p.e.                                          ",
"                                          :.9.L p r 5 4 4 4 5 6 6 6 0 d w v l p.k.l.e.                                          ",
"                                          :.7.! p i r 5 4 6 x 0.0.! ! 0.! s.s.h.0.*.                                            ",
"                                            7.! p i y 6 5 6 x >.p.k.l.l.l.l.h.t.E                                               ",
"                                            w.! a i i i r 6 9 i g ! p.s.p.0.0.E                                                 ",
"                                              :.U p i i i i u i i p a a g E K                                                   ",
"                                              :.:.  u i i i i i i i i i i                                                       ",
"                                              :.`     i i i i i i i i i                                                         ",
"                                              :.7.X.    i i i i i i i i                                                         ",
"                                                *.7.X.                                                                          ",
"                                                  X.7.X.                                                                        ",
"                                                    X.:.X.X.                                                                    ",
"                                                          G                                                                     ",
"                                                                                                                                ",
"                                                                                                                                "
};
