/* XPM */
static char *result[] = {
/* columns rows colors chars-per-pixel */
"64 64 62 1 ",
"  c #091A26",
". c #091C2C",
"X c #092334",
"o c #0C273B",
"O c #0D293D",
"+ c #0D2C42",
"@ c #0C3147",
"# c #0E324B",
"$ c #0E3752",
"% c #0F3A55",
"& c #0F3B58",
"* c #103752",
"= c #103A56",
"- c #103C5B",
"; c #103F60",
": c #11405F",
"> c #124364",
", c #15466C",
"< c #15496E",
"1 c #144971",
"2 c #194C72",
"3 c #174F78",
"4 c #185077",
"5 c #17527B",
"6 c #19537D",
"7 c #195682",
"8 c #1A5986",
"9 c #1B5C8B",
"0 c #1B5F90",
"q c #1C6193",
"w c #1C6599",
"e c #206A9D",
"r c #1F6EA5",
"t c #1F72AC",
"y c #216DA5",
"u c #216FA9",
"i c #2670A7",
"p c #2372AC",
"a c #2974AB",
"s c #2376B3",
"d c #2379B6",
"f c #287CB7",
"g c #247AB9",
"h c #2583C4",
"j c #2984C4",
"k c #2A87CB",
"l c #2B8ACE",
"z c #328BC7",
"x c #338DCC",
"c c #398BC8",
"v c #2C8DD4",
"b c #2C8FD8",
"n c #318ED2",
"m c #2E90D6",
"M c #2D92DB",
"N c #3290D4",
"B c #2E96E1",
"V c #2E99E6",
"C c #2E9CEB",
"Z c #3196E0",
"A c #309DEB",
"S c None",
/* pixels */
"SSSSSSSSSSSSSSSSSSSSSSSSSSSSSSSSSSSSSSSSSSSSSSSSSSSSSSSSSSSSSSSS",
"SSSSSSSSSSSSSSSSSSSSSSSSSSSSSSSSSSSSSSSSSSSSSSSSSSSSSSSSSSSSSSSS",
"SSSSSSSSSSSSSSSSSSSSSSSSSSSSSSSSSSSSSSSSSSSSSSSSSSSSSSSSSSSSSSSS",
"SSSSSSSSSSSSSSSSSSSSSSSSSSSSSSSSSSSSSSSSSSSSSSSSSSSSSSSSSSSSSSSS",
"SSSSSSSSSSSSSSSSSSSSSSSSSSSSSSSSSSScnSSSSSSSSSSSSSSSSSSSSSSSSSSS",
"SSSSSSSSSSSSSSSSSSSSSSSSSSSSSSSSSSSSxSSSSSSSSSSSSSSSSSSSSSSSSSSS",
"SSSSSSSSSSSSSSSSSSSSSSSSSSSSSSiupppSxxSSSSSSSSSSSSSSSSSSSSSSSSSS",
"SSSSSSSSSSSSSSSSSSSSSSSSSSSSpppssppSSNnSSSSSSSSSSSSSSSSSSSSSSSSS",
"SSSSSSSSSSSSSSSSSSSSSSSSSSpupsppppppSvvSSSSSSSSSSSSSSSSSSSSSSSSS",
"SSSSSSSSSSSSSSSSSSSSSSSSSppuppppppppsdbxSSSSSSSSSSSSSSSSSSSSSSSS",
"SSSSSSSSSSSSSSSSSSSSSSSSasussuuuuupppsbbSSSSSSSSSSSSSSSSSSSSSSSS",
"SSSSSSSSSSSSSSSSSSSSSSSSssssu98889ypusvbnSSSSSSSSSSSSSSSSSSSSSSS",
"SSSSSSSSSSSSSSSSSSSSSSSsglvkw977779yppdvMSSSSSSSSSSSSSSSSSSSSSSS",
"SSSSSSSSSSSSSSSSSSSSSSbvbMBbbkw77779ypsvMSSSSSSSSSSSSSSSSSSSSSSS",
"SSSSSSSSSSSSSSSSSSSSSSMCCVCCCCb077788usvmnSSSSSSSSSSSSSSSSSSSSSS",
"SSSSSSSSSSSSSSSSSSSSNZCVvvvvlnkw67668ysbMbSSSSSSSSSSSSSSSSSSSSSS",
"SSSSSSSSSSSSSSSSSSSSvhkd0009997;<<<<68yvAMSSSSSSSSSSSSSSSSSSSSSS",
"SSSSSSSSSSSSSSSSSSSvlssy87779;;7<,,,;68wZANSSSSSSSSSSSSSSSSSSSSS",
"SSSSSSSSSSSSSSSSSSmvgpp9877777;;,,,&;479vCMSSSSSSSSSSSSSSSSSSSSS",
"SSSSSSSSSSSSSSSSSSNvptr87777;;7;>&&==>59vCMSSSSSSSSSSSSSSSSSSSSS",
"SSSSSSSSSSSSSSSSSnbSpp9777792;2,:=&&==>8vCbSSSSSSSSSSSSSSSSSSSSS",
"SSSSSSSSSSSSSSSSSNbSpt87777;22;;&&&&&=-8vCMSSSSSSSSSSSSSSSSSSSSS",
"SSSSSSSSSSSSSSSSSnvapt877772;2;;&&&=&%&8vCMSSSSSSSSSSSSSSSSSSSSS",
"SSSSSSSSSSSSSSSSSlSptt8777722;;-&&&$+@&8vCbaSSSSSSSSSSSSSSSSSSSS",
"SSSSSSSSSSSSSSSSSzSapy87777111;;=&=@OO#6MCvsSSSSSSSSSSSSSSSSSSSS",
"SSSSSSSSSSSSSSSSxSSpu97777612;,;&=@O++O:MCgtSSSSSSSSSSSSSSSSSSSS",
"SSSSSSSSSSSSSSSScSSpu8777711;2-=&$OO++O=MVspSSSSSSSSSSSSSSSSSSSS",
"SSSSSSSSSSSSSSSSSSSpp877771,1;;=$@O@OO.+bmqupSSSSSSSSSSSSSSSSSSS",
"SSSSSSSSSSSSSSSSSSSpu8777711,;;=*+O+O..+vv0usSSSSSSSSSSSSSSSSSSS",
"SSSSSSSSSSSSSSSSSSppu888771,11;==++O.. +vvqupSSSSSSSSSSSSSSSSSSS",
"SSSSSSSSSSSSSSSSSSapyqf977,,,1;=*++O.. +jvpppSSSSSSSSSSSSSSSSSSS",
"SSSSSSSSSSSSSSSSSSpu99j9761,1;;=*#++.. .*fsppSSSSSSSSSSSSSSSSSSS",
"SSSSSSSSSSSSSSSxSSiu90k9773;1;-&=#+o....X7uppSSSSSSSSSSSSSSSSSSS",
"SSSSSSSSSSSSSSSxSSSi0kb07711,,;%$++o....o6pppSSSSSSSSSSSSSSSSSSS",
"SSSSSSSSSSSSSSSxSSSu0vB077,,,,;=*#+++. X,8rppSxSSSSSSSSSSSSSSSSS",
"SSSSSSSSSSSSSSSSSSSu0vB07311,,-&&*+++o.X579tpSxSSSSSSSSSSSSSSSSS",
"SSSSSSSSSSSSSSSSSSSapbB0731,,,-&%*++++o+469riSxSSSSSSSSSSSSSSSSS",
"SSSSSSSSSSSSSSSSSSSpsbB0773;,,-&&$#++++@589iSnnSSSSSSSSSSSSSSSSS",
"SSSSSSSSSSSSSSSSSSSpsbZ0772;1,-&&=%++++#69yaSbbSSSSSSSSSSSSSSSSS",
"SSSSSSSSSSSSSSSSSSSpsbZ07722,,>&=&%%@+@28wpplMbSSSSSSSSSSSSSSSSS",
"SSSSSSSSSSSSSSSSSSSpsbMq751<,,,-=&&&$$-680pgvMxSSSSSSSSSSSSSSSSS",
"SSSSSSSSSSSSSSSSSSSisbM07761,,,-=&&&&&:58ysvMnSSSSSSSSSSSSSSSSSS",
"SSSSSSSSSSSSSSSSSSSSsmMq777<,,,>-=&&&=:68rsvMvSSSSSSSSSSSSSSSSSS",
"SSSSSSSSSSSSSSSSSSSSpMM06771<,<,-&&&&-479tsvMnSSSSSSSSSSSSSSSSSS",
"SSSSSSSSSSSSSSSSSSSSsvM07776<,,,;=-=&-68rskMmSSSSSSSSSSSSSSSSSSS",
"SSSSSSSSSSSSSSSSSSSSagMw87851<,,,;===>69udvMnSSSSSSSSSSSSSSSSSSS",
"SSSSSSSSSSSSSSSSSSSSpdVk977761,,,,==>38rdlbbSSSSSSSSSSSSSSSSSSSS",
"SSSSSSSSSSSSSSSSSSSSSsVB077776,,,,>>38rsvBbbSSSSSSSSSSSSSSSSSSSS",
"SSSSSSSSSSSSSSSSSSSSSpbMq777771,,,158qhhVAMSSSSSSSSSSSSSSSSSSSSS",
"SSSSSSSSSSSSSSSSSSSSSSfbw8777771<159qkBCCMnSSSSSSSSSSSSSSSSSSSSS",
"SSSSSSSSSSSSSSSSSSSSSSfvku87777999wkbCCCMNSSSSSSSSSSSSSSSSSSSSSS",
"SSSSSSSSSSSSSSSSSSSSSSxMvt97779jvbVCCCCMnSSSSSSSSSSSSSSSSSSSSSSS",
"SSSSSSSSSSSSSSSSSSSSSSSmvdr9779lBVVVMMMnSSSSSSSSSSSSSSSSSSSSSSSS",
"SSSSSSSSSSSSSSSSSSSSSSSmvstr089pddddsgkSSSSSSSSSSSSSSSSSSSSSSSSS",
"SSSSSSSSSSSSSSSSSSSSSSSNvstptuyussupppaSSSSSSSSSSSSSSSSSSSSSSSSS",
"SSSSSSSSSSSSSSSSSSSSSSSSbvspusppuuspppSSSSSSSSSSSSSSSSSSSSSSSSSS",
"SSSSSSSSSSSSSSSSSSSSSSSSnbSpppppuspiiSSSSSSSSSSSSSSSSSSSSSSSSSSS",
"SSSSSSSSSSSSSSSSSSSSSSSSSnlsppppsupSSSSSSSSSSSSSSSSSSSSSSSSSSSSS",
"SSSSSSSSSSSSSSSSSSSSSSSSSnMvSSSSupSSSSSSSSSSSSSSSSSSSSSSSSSSSSSS",
"SSSSSSSSSSSSSSSSSSSSSSSSSnMMmnSSSSSSSSSSSSSSSSSSSSSSSSSSSSSSSSSS",
"SSSSSSSSSSSSSSSSSSSSSSSSSSnMMMxSSSSSSSSSSSSSSSSSSSSSSSSSSSSSSSSS",
"SSSSSSSSSSSSSSSSSSSSSSSSSSSSnMnSSSSSSSSSSSSSSSSSSSSSSSSSSSSSSSSS",
"SSSSSSSSSSSSSSSSSSSSSSSSSSSSSSSSSSSSSSSSSSSSSSSSSSSSSSSSSSSSSSSS",
"SSSSSSSSSSSSSSSSSSSSSSSSSSSSSSSSSSSSSSSSSSSSSSSSSSSSSSSSSSSSSSSS"
};
