/* XPM */
static char *_bb9057698444f0bcbea9fd8f8f283f2e3jzQGJ1ZgiZLGXv[] = {
/* columns rows colors chars-per-pixel */
"64 64 149 2 ",
"   c None",
".  c #071C2C",
"X  c #091C2B",
"o  c #061F31",
"O  c #0A2234",
"+  c #0A263A",
"@  c #0C293E",
"#  c #0D2C42",
"$  c #0C2E48",
"%  c #0E314B",
"&  c #0F3752",
"*  c #0F3A56",
"=  c #0F3B59",
"-  c #103A56",
";  c #113D5B",
":  c #0F4363",
">  c #134263",
",  c #15466C",
"<  c #15486E",
"1  c #184A6E",
"2  c #154A72",
"3  c #194F76",
"4  c #184F78",
"5  c #185075",
"6  c #17517C",
"7  c #19537D",
"8  c #195682",
"9  c #175887",
"0  c #1A5986",
"q  c #1B5D8C",
"w  c #1B5F90",
"e  c #1B608F",
"r  c #1C6294",
"t  c #1D659A",
"y  c #1D689E",
"u  c #21689D",
"i  c #1E6BA2",
"p  c #1F6FA9",
"a  c #216DA4",
"s  c #216FA9",
"d  c #2571A6",
"f  c #2372AC",
"g  c #2870A8",
"h  c #2176B1",
"j  c #2276B1",
"k  c #2175B2",
"l  c #2375B2",
"z  c #2377B2",
"x  c #2377B3",
"c  c #2476B2",
"v  c #2176B4",
"b  c #2376B2",
"n  c #237AB6",
"m  c #2579B6",
"M  c #2479B5",
"N  c #2379B9",
"B  c #2479B8",
"V  c #267CBB",
"C  c #267DBC",
"Z  c #247ABA",
"A  c #287EBE",
"S  c #247EC0",
"D  c #2681C1",
"F  c #2984C4",
"G  c #2885C9",
"H  c #2886CA",
"J  c #2B87CA",
"K  c #2A86CA",
"L  c #2988CD",
"P  c #2B89CE",
"I  c #2A89CF",
"U  c #2C8ACE",
"Y  c #348BC7",
"T  c #3389C6",
"R  c #358BC9",
"E  c #358BCB",
"W  c #338CCD",
"Q  c #318CCE",
"!  c #318DCF",
"~  c #328DCE",
"^  c #338DCF",
"/  c #338DCE",
"(  c #328ECF",
")  c #338DCE",
"_  c #2A89D0",
"`  c #298BD0",
"'  c #288BD2",
"]  c #298BD2",
"[  c #2B8BD2",
"{  c #2D8CD0",
"}  c #2F8DD3",
"|  c #2B8DD4",
" . c #2B8ED5",
".. c #2A8DD7",
"X. c #2B8ED6",
"o. c #2A8FD7",
"O. c #2C8CD4",
"+. c #2D8DD5",
"@. c #2C8ED5",
"#. c #2E8FD5",
"$. c #2F8FD5",
"%. c #2F8FD6",
"&. c #2E8FD7",
"*. c #2C8DD4",
"=. c #2B8FD8",
"-. c #2B8FD9",
";. c #318ED0",
":. c #328ED1",
">. c #318ED2",
",. c #318ED3",
"<. c #318ED2",
"1. c #2E90D3",
"2. c #2E90D4",
"3. c #2E90D6",
"4. c #2A91DB",
"5. c #2B91DB",
"6. c #2C90D8",
"7. c #2D90D8",
"8. c #2C91D8",
"9. c #2D91D9",
"0. c #2C90DA",
"q. c #2C91DB",
"w. c #2B90DC",
"e. c #2B92DE",
"r. c #2C91DC",
"t. c #2C92DC",
"y. c #2C93DD",
"u. c #2C92DF",
"i. c #2F94DE",
"p. c #2E94DF",
"a. c #2C92DB",
"s. c #3390D3",
"d. c #3092DB",
"f. c #379ADD",
"g. c #3998DE",
"h. c #2F96E3",
"j. c #2D96E2",
"k. c #2E99E7",
"l. c #2D9BE7",
"z. c #2E98E6",
"x. c #2F9BE9",
"c. c #2F9BEA",
"v. c #2E9CEB",
"b. c #2F9CEB",
"n. c #2E9BEC",
"m. c #2F9CEC",
"M. c #2E9CEA",
"N. c #329AE3",
"B. c #309CEC",
/* pixels */
"                                                                                                                                ",
"                                                                                                                                ",
"                                                                                                                                ",
"                                                                                                                                ",
"                                                                                                                                ",
"                                                  :.%.%.:.                                                                      ",
"                                              ( %.9.y.5.y.{ m f f f f                                                           ",
"                                            :.9.9.%.X.e.k.y.=.P j f f f                                                         ",
"                                            %.%.(   n ` 5.k.v.9.Z j f f d                                                       ",
"                                          ( (     d f j N X.n.v.e.` v f f                                                       ",
"                                        Y (       f f f d j ` c.m.9.N f f f d                                                   ",
"                                                  f f f q 0 r J v.v.` f s f f f                                                 ",
"                                                d f f a 0 8 8 r P v.X.t q s f f f                                               ",
"                                              f f a q 0 8 8 8 8 r 9.c.J w a f f f     E                                         ",
"                                              f f q 8 8 8 8 8 8 8 t h.X.q q f f f f   (                                         ",
"                                            f f a 0 8 8 8 8 7 2 , 6 %.y.q 0 a f f f   (                                         ",
"                                            f a q 8 8 8 8 7 2 , , , 9 V q 8 q a f f   (                                         ",
"                                          f f q 8 8 8 8 7 2 , , , , , 3 6 8 8 q s f   (                                         ",
"                                E         f s 0 8 8 8 8 7 < , , , , = = > 6 8 0 s f   { :.                                      ",
"                                E         f a 0 q 8 8 8 2 , , , > ; = * * > 7 0 s f c %.3.                                      ",
"                                        f s q r C q 8 8 < , , , ; - * * * ; 4 0 a f j X.3.                                      ",
"                                        f s r J ` q 8 7 < , , > = * * * * = > 7 q a j X.1.                                      ",
"                                        f f y p.%.q 7 2 , , , ; = * - * * & = 6 0 a j X.3.                                      ",
"                                      f f j P p.t 8 7 < , , , ; * = & # # # ; 7 0 s j X.1.                                      ",
"                                      f f N e.h.w 8 8 2 , , , ; * * # # # # 1 7 0 a j ] 1.                                      ",
"                                      f j ` c.=.q 8 7 2 , , > ; * * # # # # % 6 0 a j %.9.:.                                    ",
"                                      d v e.z.t 8 8 7 2 , , = = * & # # # + + 1 8 q f %.y.3.                                    ",
"                                      f Z z.=.q 8 8 7 < , , ; * * $ # # @ o . @ 3 0 f X.9.:.                                    ",
"                                    f j ] h.t 8 8 7 2 < , , ; * & # # # + . X O 3 8 r ` 3.                                      ",
"                                    f v e.h.q 8 8 8 2 , , , ; * & # # @ . X X O 3 8 r { 3.                                      ",
"                                    d M k.h.e 8 8 8 2 , , , ; * * # # @ . X X O 3 0 A %.3.                                      ",
"                                      Z k.&.q 8 8 7 2 , , , ; = * # # @ . X X O 3 0 i X.N.                                      ",
"                                      %.p.y 8 8 8 7 2 , , , ; * * # # @ . X X O 3 q F p.N.                                      ",
"                                      p.p.e 8 8 8 7 2 , , , ; * * # # @ . X X @ 5 q ` c.9.                                      ",
"                                      B.h.e 8 8 8 7 2 , , , ; * * # # @ . X O < 8 q ] v.%.                                      ",
"                                    s.B.h.e 8 8 8 7 2 , , , ; = * $ # # @ . + 3 8 q h.c.V                                       ",
"                                    9.B.h.e 8 8 8 7 2 , , , ; * = & # # # @ # 6 8 t k.k.m                                       ",
"                                    9.m.h.w 8 8 8 7 2 , , , ; * * - # # # # % 6 r P v.X.f                                       ",
"                                    9.B.X.r 8 8 8 7 2 , , , ; * * - & $ # # % 8 J c.h.m                                         ",
"                                    9.B.&.s 0 8 8 8 2 , , , ; * * = = * $ # % q X.c.X.j                                         ",
"                                    :.B.k.j 0 8 8 8 2 , , , ; * * = = = * * 2 F v.k.N f                                         ",
"                                      d.p.j q 8 8 7 < , , , ; ; = = = * * : c 9.B.` j f                                         ",
"                                      { N f a 0 8 7 2 , , , > ; = ; = * * ; 0 t D y f f                                         ",
"                                      U j f s 0 8 8 7 < , , , = = = = ; = ; 7 8 q a f f                                         ",
"                                      U j f f q 8 8 8 2 , , , , ; = = = = ; 7 8 q f f g                                         ",
"                                      { n f f i 0 8 8 6 < , , , > = = = ; > 7 0 a f f                                           ",
"                                      %.` j f f 0 8 8 8 2 , , , , ; - = ; 6 8 0 s f f                                           ",
"                                      %.{ j f f q 8 0 8 6 < , , , , ; = > 7 8 q d f f                                           ",
"                                      :.  f f f a r D r 7 2 , , , , ; > 6 8 q a f f f     f.                                    ",
"                                      (     f f p t X.5.t 7 2 , < 2 6 7 8 0 a f f d       g.                                    ",
"                                      ;.    f f f a i y.%.q 6 2 6 7 8 8 8 q s f f                                               ",
"                                      %.:.    f f f s C y.y q 8 8 0 8 0 q a f f d     T                                         ",
"                                      { :.      f f f n y.X.F r 0 u q a s f f j   ( %.%.                                        ",
"                                      (         f f f f C k.c.P y f f j f f n P %.3.%.:.                                        ",
"                                      E         f f f f j X.m.B.z.X.S J N n ` 5.5.:.                                            ",
"                                                  f f f f Z X.c.B.B.k.y.X.X.5.5.(                                               ",
"                                                      f f f N X.h.m.m.c.e.5.5.3.                                                ",
"                                                        f f j { 9.y.y.y.9.9.3.:.                                                ",
"                                                          d     { 3.3.,.,.,.                                                    ",
"                                                                                                                                ",
"                                                                                                                                ",
"                                                                                                                                ",
"                                                                                                                                ",
"                                                                                                                                "
};
