/* XPM */
static char *_252dce8bea2485de3012968071745576HHIDziHc3Hl9bVd[] = {
/* columns rows colors chars-per-pixel */
"64 64 138 2 ",
"   c #fa0000",
".  c #071C2A",
"X  c #091D2B",
"o  c #0A2335",
"O  c #0D273A",
"+  c #0C293D",
"@  c #0D2C42",
"#  c #0C2F48",
"$  c #0E324B",
"%  c #0E3651",
"&  c #0F3955",
"*  c #0F3B58",
"=  c #103752",
"-  c #103955",
";  c #113C5B",
":  c #124365",
">  c #15466C",
",  c #15496F",
"<  c #1A496C",
"1  c #144A71",
"2  c #194E75",
"3  c #175077",
"4  c #185076",
"5  c #17537B",
"6  c #19547D",
"7  c #175782",
"8  c #195682",
"9  c #1A5986",
"0  c #1B5D8C",
"q  c #1B5F90",
"w  c #1D6294",
"e  c #1D659A",
"r  c #1E6CA3",
"t  c #216DA4",
"y  c #296FA3",
"u  c #216FA9",
"i  c #2671A6",
"p  c #2372AC",
"a  c #2275B2",
"s  c #2479B6",
"d  c #2979B5",
"f  c #237CBD",
"g  c #237BBA",
"h  c #287DBB",
"j  c #2786C9",
"k  c #2987C9",
"l  c #2886CA",
"z  c #2887CC",
"x  c #2986CA",
"c  c #2689CD",
"v  c #2789CE",
"b  c #2988CD",
"n  c #2988CE",
"m  c #2989CF",
"M  c #2A8ACE",
"N  c #2A8ACF",
"B  c #2F8ACF",
"V  c #2988CE",
"C  c #348BCA",
"Z  c #368CC9",
"A  c #338BCF",
"S  c #328DCF",
"D  c #338DCF",
"F  c #348DCD",
"G  c #378CCC",
"H  c #348DCE",
"J  c #328CCD",
"K  c #298AD1",
"L  c #2A8BD0",
"P  c #2C8BD1",
"I  c #298CD3",
"U  c #2B8DD3",
"Y  c #2C8ED2",
"T  c #2F8FD3",
"R  c #2A8CD4",
"E  c #298ED4",
"W  c #2A8FD5",
"Q  c #298DD7",
"!  c #2A8DD6",
"~  c #2A8ED6",
"^  c #2A8FD6",
"/  c #2B8ED7",
"(  c #2A8FD7",
")  c #2D8FD5",
"_  c #2E8FD5",
"`  c #2D8FD7",
"'  c #2E8ED6",
"]  c #2F8FD7",
"[  c #2C8DD4",
"{  c #2A8FD8",
"}  c #2B8FD8",
"|  c #2F8FD8",
" . c #318DD1",
".. c #308FD1",
"X. c #318FD2",
"o. c #308ED4",
"O. c #318ED5",
"+. c #318ED2",
"@. c #2F90D5",
"#. c #2E90D6",
"$. c #2B90D8",
"%. c #2B90D9",
"&. c #2B92D8",
"*. c #2A90DA",
"=. c #2B91DA",
"-. c #2A92DB",
";. c #2C90D8",
":. c #2C91D9",
">. c #2E90D8",
",. c #2C92D9",
"<. c #2C90DA",
"1. c #2C91DA",
"2. c #2C93DD",
"3. c #2C93DF",
"4. c #2B94DE",
"5. c #2C92DA",
"6. c #2D94E0",
"7. c #2C95E1",
"8. c #2D95E1",
"9. c #2F96E0",
"0. c #2D94E2",
"q. c #2D95E2",
"w. c #2D95E2",
"e. c #2E9AE6",
"r. c #2E9AE7",
"t. c #2E98E8",
"y. c #2E99E8",
"u. c #2E9AE8",
"i. c #2D9BEA",
"p. c #2F9BEA",
"a. c #2D9CEB",
"s. c #2D9CED",
"d. c #2E9CEC",
"f. c #2F9CEC",
"g. c #2E9BE9",
"h. c #3197E4",
"j. c #309AE8",
"k. c #2F9FF1",
/* pixels */
"                                                                                                                                ",
"                                                                                                                                ",
"                                                                                                                                ",
"                                                            Z                                                                   ",
"                                                  C A S o._ %._ o. .                                                            ",
"                                                         .>._ >.>.%. .                                                          ",
"                                                              T >.%.@.                                                          ",
"                                                          y a M ~ %.>.P d                                                       ",
"                                                    i i i p a a s K >.>.B                                                       ",
"                                                  i p p p p p p p g %.%.U p                                                     ",
"                                                i p p p p u u p p p _ 4.~ a i                                                   ",
"                                                p p p p t 0 0 t t 0 e 8.%.a p i                                                 ",
"                                              i p p t 0 9 8 8 9 9 8 0 _ u.f p p                                                 ",
"                                              i p u 0 8 8 8 8 8 8 8 8 e } 8.g p p                                               ",
"                                              i p t 9 6 8 8 8 8 8 8 8 8 e 8.~ a p i                                             ",
"                                            i p t 0 0 0 8 8 8 6 1 1 8 8 q 8.8.r p p                                             ",
"                                          i p p w e _ T 0 8 6 6 1 , 6 8 0 ~ u.M a p                                             ",
"                                        i p a s z ~ e.v 0 6 1 , > > 1 5 0 U f.} a p i                                           ",
"                                        i p a K 6.u.M w 8 1 > > > > > : 9 x u.~ a p p                                           ",
"                                        i p s %.f.} w 8 6 1 > > > : ; ; 5 e 8.~ p p p     H                                     ",
"                                        i a ~ f.f.j 0 6 1 > > > ; ; * * ; 9 3.x w p i     H                                     ",
"                                      i p g h.f.M w 8 6 , > > > ; ; * * & , M e 9 r p i   H                                     ",
"                                      p g ~ u.v w 8 6 1 > > > : ; - * - & : s 0 8 0 p i   S                                     ",
"                                      a U j.~ w 8 8 6 1 > > > ; - * - = @ $ 6 8 8 9 t a P _                                     ",
"                                      s r.u.x 0 8 8 6 1 > > > ; - - % @ @ @ $ 2 8 9 q p _ _                                     ",
"                                      g e.~ w 8 8 8 6 1 > > > ; - - # @ @ @ + $ 3 9 t a T >. .                                  ",
"                                      ~ u.x 0 8 8 6 1 > > > > ; & % @ @ @ O X o 3 9 u a T >.>.                                  ",
"                                     .>.>.e 8 8 8 6 1 > > > * * & @ @ @ O X . o 2 9 u a T >.|                                   ",
"                                    @.~ a 9 8 8 8 6 1 > > > ; * & @ @ + X . . o 2 9 t a U %.o.                                  ",
"                                   .>.K p 9 8 8 8 6 1 > > > ; * & @ @ + X . . o 2 8 0 p U _                                     ",
"                                  @.~ g p 9 8 8 8 6 1 > > > ; * & @ @ + X . . o 3 8 0 p ~ _                                     ",
"                                  _ ~ a t 9 8 8 8 6 1 > > > ; * & @ @ + X . . + 4 9 t g ~ _                                     ",
"                                +.%.K a u 9 8 8 8 6 1 > > > ; * & @ @ + X . o < 8 9 p K %._                                     ",
"                                _ ~ s a u 9 8 8 8 6 1 > > > ; * & @ @ + X . o 2 8 9 p ~ %._                                     ",
"                                _ ~ a p u 9 8 8 8 6 1 > > > ; * & @ @ + X . o 2 8 9 p U %. .                                    ",
"                                _ |   i u 9 8 8 8 6 1 > > > ; * & @ @ @ + X o 2 8 9 p _ @.                                      ",
"                                S o.  i u 9 8 8 8 8 1 > > > ; * * = @ @ @ + @ 5 8 9 a ~ T                                       ",
"                                  S   p u 9 8 8 8 8 1 > > > ; * * - @ @ @ + $ 3 8 0 >.3.S                                       ",
"                                  S   p u 9 8 8 8 8 1 > > > ; * * & @ @ @ @ % 5 8 e 3.>.                                        ",
"                                  S   i u 0 8 0 8 6 1 , > > ; * * - @ @ @ $ 2 8 0 x e.>.                                        ",
"                                  S     i t w h e 8 6 1 > > : ; * - - - - ; 5 8 0 3.d.>.                                        ",
"                                  S     i u w K _ 0 6 1 > > > ; - * * * * ; 6 8 e 8.7.T                                         ",
"                                  S     i u w K 8.q 6 1 > > > ; - * * * * : 6 0 ~ u.~ d                                         ",
"                                  Z     i t w K 8.e 8 5 , > > : ; * * * ; 4 7 e 8._ s                                           ",
"                                        i u w x u.x 0 6 , > > > ; * * - : 6 e ~ 8.g p                                           ",
"                                          i t r 3.8.0 6 1 > > > : ; ; ; 3 e >.j.f p p                                           ",
"                                          i p a %.8.0 8 6 , > > > > > : 9 %.k.8.a p p                                           ",
"                                          i p a ~ 3.0 8 6 1 > > > > , 5 0 8.3.g p p i                                           ",
"                                            p p f >.e 8 8 6 1 > > > 1 6 0 x r p p p                                             ",
"                                            i p s r._ 0 8 8 6 1 , 1 6 8 9 w r p p                                               ",
"                                              p a ~ 8.e 8 8 8 8 6 6 8 8 9 t p p p                                               ",
"                                              i p f 8.M w 8 8 8 8 8 9 9 0 p p p i                                               ",
"                                              i p a U u.x 0 8 8 8 0 t u p p p i                                                 ",
"                                                i p g 3.~ w 9 9 0 t p p p p i i                                                 ",
"                                                  p a g >.g p p p p p p p i                                                     ",
"                                                  i p a U 3.U s p p p p p                                                       ",
"                                                    i p s _ %.K a p p p y                                                       ",
"                                                          g ~ ~ g a a a   T @. .                                                ",
"                                                          A @.>.~ ~ ~ ~ _ %.>. .                                                ",
"                                                            S @.>.>.>.>.>.@.S                                                   ",
"                                                                 .>._ @.T                                                       ",
"                                                                  C                                                             ",
"                                                                                                                                ",
"                                                                                                                                "
};
