/* XPM */
static char *result[] = {
/* columns rows colors chars-per-pixel */
"64 64 60 1 ",
"  c #091C2B",
". c #071F31",
"X c #0A2234",
"o c #0B263A",
"O c #0C2A3E",
"+ c #0D2C42",
"@ c #0D2D48",
"# c #0E314A",
"$ c #0F3753",
"% c #0F3A56",
"& c #0F3B58",
"* c #113753",
"= c #103956",
"- c #103C5B",
"; c #124264",
": c #15466C",
"> c #15496E",
", c #154A71",
"< c #184E74",
"1 c #185075",
"2 c #16517A",
"3 c #19537D",
"4 c #175683",
"5 c #195682",
"6 c #1A5986",
"7 c #1B5D8C",
"8 c #1B5F90",
"9 c #1C6293",
"0 c #1D669A",
"q c #1D689B",
"w c #1F6CA3",
"e c #1F70A9",
"r c #216DA4",
"t c #226FA9",
"y c #2471A7",
"u c #2971A6",
"i c #2372AC",
"p c #2375B2",
"a c #2478B6",
"s c #297AB5",
"d c #247BBB",
"f c #287FBD",
"g c #2B84C5",
"h c #2A86C9",
"j c #2B89CE",
"k c #3887C1",
"l c #358AC7",
"z c #338CCD",
"x c #2B8DD4",
"c c #2C8ED8",
"v c #318ED2",
"b c #2D90D6",
"n c #2C92DB",
"m c #3090D6",
"M c #2D96E2",
"N c #2E99E6",
"B c #2E9CEB",
"V c #3099E7",
"C c #309CEB",
"Z c #fa0000",
/* pixels */
"ZZZZZZZZZZZZZZZZZZZZZZZZZZZZZZZZZZZZZZZZZZZZZZZZZZZZZZZZZZZZZZZZ",
"ZZZZZZZZZZZZZZZZZZZZZZZZZZZZZZZZZZZZZZZZZZZZZZZZZZZZZZZZZZZZZZZZ",
"ZZZZZZZZZZZZZZZZZZZZZZZZZZZZZZZZZZZZZZZZZZZZZZZZZZZZZZZZZZZZZZZZ",
"ZZZZZZZZZZZZZZZZZZZZZZZZZZZZZZZZZZZZZZZZZZZZZZZZZZZZZZZZZZZZZZZZ",
"ZZZZZZZZZZZZZZZZZZZZZZZZZZZZZZZZZZZZZZZZZZZZZZZZZZZZZZZZZZZZZZZZ",
"ZZZZZZZZZZZZZZZZZZZZZZZZZZZZZZZZZZZZZZZzZZZZZZZZZZZZZZZZZZZZZZZZ",
"ZZZZZZZZZZZZZZZZZZZZZZZZZZZZZuiiiiuZZZZlZZZZZZZZZZZZZZZZZZZZZZZZ",
"ZZZZZZZZZZZZZZZZZZZZZZZZZzZiiiiiiiiiZZZZZZZZZZZZZZZZZZZZZZZZZZZZ",
"ZZZZZZZZZZZZZZZZZZZZZZZZbnnjapaeipipiuZZZZZZZZZZZZZZZZZZZZZZZZZZ",
"ZZZZZZZZZZZZZZZZZZZZZZZmbBBBnxxpyyiiiiZZzZZZZZZZZZZZZZZZZZZZZZZZ",
"ZZZZZZZZZZZZZZZZZZZZZZbjdxnBBBnp77riiitZzZZZZZZZZZZZZZZZZZZZZZZZ",
"ZZZZZZZZZZZZZZZZZZZZZzjdeajjcBBj957wipytZzZZZZZZZZZZZZZZZZZZZZZZ",
"ZZZZZZZZZZZZZZZZZZZZzmZieie99hMBh757ripiZmvZZZZZZZZZZZZZZZZZZZZZ",
"ZZZZZZZZZZZZZZZZZZZmzZiipe7557qMMq547riiZmmZZZZZZZZZZZZZZZZZZZZZ",
"ZZZZZZZZZZZZZZZZZZZlZZiie855456gnh636wiisxvZZZZZZZZZZZZZZZZZZZZZ",
"ZZZZZZZZZZZZZZZZZZkZZZiew65544325a3,37iiidxZZZZZZZZZZZZZZZZZZZZZ",
"ZZZZZZZZZZZZZZZZZZZZZZiy755553>::<::36wiahbvZZZZZZZZZZZZZZZZZZZZ",
"ZZZZZZZZZZZZZZZZZZZZZZir65555,>:::&-;17ridxxZZZZZZZZZZZZZZZZZZZZ",
"ZZZZZZZZZZZZZZZZZZZZZit855553>::&&&&&;27eaxbZZZZZZZZZZZZZZZZZZZZ",
"ZZZZZZZZZZZZZZZZZZZZiir655553>:;&&&&%&16wpxmZZZZZZZZZZZZZZZZZZZZ",
"ZZZZZZZZZZZZZZZZZZZZit755555:::--*&&&-;5wpxxZZZZZZZZZZZZZZZZZZZZ",
"ZZZZZZZZZZZZZZZzZZZZit655552:::---&&&*-37pxxZZZZZZZZZZZZZZZZZZZZ",
"ZZZZZZZZZZZZZZZzZZZZir65555>:::-=&&%**-26ixbZZZZZZZZZZZZZZZZZZZZ",
"ZZZZZZZZZZZZZZZzZZZZt766653>:::-&&%#@@#257xbZZZZZZZZZZZZZZZZZZZZ",
"ZZZZZZZZZZZZZZZZZZZue67f743,:::&&&$+OO#147jxZZZZZZZZZZZZZZZZZZZZ",
"ZZZZZZZZZZZZZZZZZZZyw6qx932>::&&&*@++OO#27jcpZZZZZZZZZZZZZZZZZZZ",
"ZZZZZZZZZZZZZZZZZZZt87xc73>>::-&&%++Oo.X<7jMaZZZZZZZZZZZZZZZZZZZ",
"ZZZZZZZZZZZZZZZZZZZiwqn053>>::-&&$++OX X<qcMaZZZZZZZZZZZZZZZZZZZ",
"ZZZZZZZZZZZZZZZZZZZipjn953,:>:-&*@+Oo  X5gBxpZZZZZZZZZZZZZZZZZZZ",
"ZZZZZZZZZZZZZZZZZZiiaNM753,:::-&*++O.  X5xBxpZZZZZZZZZZZZZZZZZZZ",
"ZZZZZZZZZZZZZZZZZZyidNh753,:::-&*@OO   X5xBbpZZZZZZZZZZZZZZZZZZZ",
"ZZZZZZZZZZZZZZZZZZiacM0453,>::-&*@OO   X5xBxpZZZZZZZZZZZZZZZZZZZ",
"ZZZZZZZZZZZZZZZZZZZpcn7555,:::-&=++O.  X5MCxpZZZZZZZZZZZZZZZZZZZ",
"ZZZZZZZZZZZZZZZZZZZaVM7555,:::-&*@OO   X4MNfiZZZZZZZZZZZZZZZZZZZ",
"ZZZZZZZZZZZZZZZZZZZdVM8455,,::-&&+O+O  X7NcaiZZZZZZZZZZZZZZZZZZZ",
"ZZZZZZZZZZZZZZZZZZiaNc7455,:::-*$@O+O. OhBjayZZZZZZZZZZZZZZZZZZZ",
"ZZZZZZZZZZZZZZZZZZgsNj8455::::--$#O+OOO:nNweyZZZZZZZZZZZZZZZZZZZ",
"ZZZZZZZZZZZZZZZZZZZfNj8455,:::--$*#OOO$snjiiiZZZZZZZZZZZZZZZZZZZ",
"ZZZZZZZZZZZZZZZZZZZbCc7555,:::-*&&#OO++-79ipiZZZZZZZZZZZZZZZZZZZ",
"ZZZZZZZZZZZZZZZZZZZnVj7555,:::--&&=*#++#27wiuZZZZZZZZZZZZZZZZZZZ",
"ZZZZZZZZZZZZZZZZZZZmnj7555::::--&&&%$==%3yiiZZZZZZZZZZZZZZZZZZZZ",
"ZZZZZZZZZZZZZZZZZZZxnx7555,:::;-&&&&&&&;6iiiZZZZZZZZZZZZZZZZZZZZ",
"ZZZZZZZZZZZZZZZZZZZnnj7553,::::-%%&&&&-16yiyZZZZZZZZZZZZZZZZZZZZ",
"ZZZZZZZZZZZZZZZZZZZvnx75553,:::-%&&&&$;37iiZZZZZZZZZZZZZZZZZZZZZ",
"ZZZZZZZZZZZZZZZZZZZbnxw6555,::::-%%-&;16riiZZzZZZZZZZZZZZZZZZZZZ",
"ZZZZZZZZZZZZZZZZZZZvnxe75553,:::;-%%-136tiuZzvZZZZZZZZZZZZZZZZZZ",
"ZZZZZZZZZZZZZZZZZZZZnxaw65553,:::;-&;367eiZznvZZZZZZZZZZZZZZZZZZ",
"ZZZZZZZZZZZZZZZZZZZZnxpe65554,::::;;166weajnxZZZZZZZZZZZZZZZZZZZ",
"ZZZZZZZZZZZZZZZZZZZZnxpiw65553::::,3446epxnnxZZZZZZZZZZZZZZZZZZZ",
"ZZZZZZZZZZZZZZZZZZZZnxait75578,,>,3557wpdxnvvZZZZZZZZZZZZZZZZZZZ",
"ZZZZZZZZZZZZZZZZZZZZxxdeir68cc8464568waaxcnZZZZZZZZZZZZZZZZZZZZZ",
"ZZZZZZZZZZZZZZZZZZZZvnxppt77jBcwg96rtdjxncmZZZZZZZZZZZZZZZZZZZZZ",
"ZZZZZZZZZZZZZZZZZZZZvnxpeee70xBMnhwhfxMBMcxZZZZZZZZZZZZZZZZZZZZZ",
"ZZZZZZZZZZZZZZZZZZZZZzZZipittaMnNBNNCBBBcxZZZZZZZZZZZZZZZZZZZZZZ",
"ZZZZZZZZZZZZZZZZZZZZZvvZuiiptpaacMBBCBMnmZZZZZZZZZZZZZZZZZZZZZZZ",
"ZZZZZZZZZZZZZZZZZZZZZvcZZZuipeepajMnnnxvZZZZZZZZZZZZZZZZZZZZZZZZ",
"ZZZZZZZZZZZZZZZZZZZZZZvzZZZiipiipajvZzZZZZZZZZZZZZZZZZZZZZZZZZZZ",
"ZZZZZZZZZZZZZZZZZZZZZZvvZZZytyiieepZZZZZZZZZZZZZZZZZZZZZZZZZZZZZ",
"ZZZZZZZZZZZZZZZZZZZZZZZZzZZZZZZuZZZZZZZZZZZZZZZZZZZZZZZZZZZZZZZZ",
"ZZZZZZZZZZZZZZZZZZZZZZZZlZZZZZZZZZZZZZZZZZZZZZZZZZZZZZZZZZZZZZZZ",
"ZZZZZZZZZZZZZZZZZZZZZZZZZZZZZZZZZZZZZZZZZZZZZZZZZZZZZZZZZZZZZZZZ",
"ZZZZZZZZZZZZZZZZZZZZZZZZZZZZZZZZZZZZZZZZZZZZZZZZZZZZZZZZZZZZZZZZ",
"ZZZZZZZZZZZZZZZZZZZZZZZZZZZZZZZZZZZZZZZZZZZZZZZZZZZZZZZZZZZZZZZZ",
"ZZZZZZZZZZZZZZZZZZZZZZZZZZZZZZZZZZZZZZZZZZZZZZZZZZZZZZZZZZZZZZZZ"
};
