/* XPM */
static char *result[] = {
/* columns rows colors chars-per-pixel */
"64 64 67 1 ",
"  c #0A1C2C",
". c #071F32",
"X c #0A2234",
"o c #0C273C",
"O c #0C293E",
"+ c #0D2C43",
"@ c #0E334D",
"# c #0E3752",
"$ c #0F3A56",
"% c #0F3B58",
"& c #103753",
"* c #103956",
"= c #113C5B",
"- c #123F61",
"; c #134365",
": c #15466C",
"> c #15486E",
", c #18496F",
"< c #144971",
"1 c #194E74",
"2 c #195077",
"3 c #17527C",
"4 c #19537D",
"5 c #195682",
"6 c #1A5A86",
"7 c #1B5C8B",
"8 c #1B5F91",
"9 c #1A608F",
"0 c #1C6294",
"q c #1D669A",
"w c #206A9F",
"e c #1E6DA4",
"r c #216EA5",
"t c #286FA6",
"y c #216FA9",
"u c #2670A6",
"i c #2870A7",
"p c #2272AC",
"a c #2870A8",
"s c #2376B2",
"d c #2A76B1",
"f c #2479B7",
"g c #287AB5",
"h c #247BBB",
"j c #2781C0",
"k c #2985C5",
"l c #2786C8",
"z c #2986CA",
"x c #2B8ACE",
"c c #368AC6",
"v c #338DCC",
"b c #388CC9",
"n c #2C8ED4",
"m c #2C8FD8",
"M c #318ED2",
"N c #2D90D6",
"B c #2C92DB",
"V c #3291D5",
"C c #3094D9",
"Z c #2D95E1",
"A c #2E99E5",
"S c #2F9CEA",
"D c #3197E4",
"F c #349AE5",
"G c #309CEA",
"H c #309FF0",
"J c None",
/* pixels */
"JJJJJJJJJJJJJJJJJJJJJJJJJJJJJJJJJJJJJJJJJJJJJJJJJJJJJJJJJJJJJJJJ",
"JJJJJJJJJJJJJJJJJJJJJJJJJJJJJJJJJJJJJJJJJJJJJJJJJJJJJJJJJJJJJJJJ",
"JJJJJJJJJJJJJJJJJJJJJJJJJJJJJJJJJbJJJJJJJJJJJJJJJJJJJJJJJJJJJJJJ",
"JJJJJJJJJJJJJJJJJJJJJJJJJJJJJJJJJvnJJJJJJJJJJJJJJJJJJJJJJJJJJJJJ",
"JJJJJJJJJJJJJJJJJJJJJJJJJJJJJJJJJJMnVJJJJJJJJJJJJJJJJJJJJJJJJJJJ",
"JJJJJJJJJJJJJJJJJJJJJJJJJJJJJJJJJJJvnJJJJJJJJJJJJJJJJJJJJJJJJJJJ",
"JJJJJJJJJJJJJJJJJJJJJJJJJJJJJuppuuJJMMJJJJJJJJJJJJJJJJJJJJJJJJJJ",
"JJJJJJJJJJJJJJJJJJJJJJJJJJJJupppsppJnBMJJJJJJJJJJJJJJJJJJJJJJJJJ",
"JJJJJJJJJJJJJJJJJJJJJJJJJJyyspsppppphmnJJJJJJJJJJJJJJJJJJJJJJJJJ",
"JJJJJJJJJJJJJJJJJJJJJJJJJassypypppspsmmxJJJJJJJJJJJJJJJJJJJJJJJJ",
"JJJJJJJJJJJJJJJJJJJJJJJJipsyey8ryyyysxmnJJJJJJJJJJJJJJJJJJJJJJJJ",
"JJJJJJJJJJJJJJJJJJJJJJJappyr7657667ypfmmVJJJJJJJJJJJJJJJJJJJJJJJ",
"JJJJJJJJJJJJJJJJJJJJJJJypsyq5555556epsnmNJJJJJJJJJJJJJJJJJJJJJJJ",
"JJJJJJJJJJJJJJJJJJJJJJpshnnzq7555557eyhmVJJJJJJJJJJJJJJJJJJJJJJJ",
"JJJJJJJJJJJJJJJJJJJJJJfnmZSSAn75555560lANfJJJJJJJJJJJJJJJJJJJJJJ",
"JJJJJJJJJJJJJJJJJJJJJJmSSSHZZz74554555qZZnJJJJJJJJJJJJJJJJJJJJJJ",
"JJJJJJJJJJJJJJJJJJJJJFGSZBmz874<<<<3557mGVJJJJJJJJJJJJJJJJJJJJJJ",
"JJJJJJJJJJJJJJJJJJJJNBBnz8875<,::::<356qZmdJJJJJJJJJJJJJJJJJJJJJ",
"JJJJJJJJJJJJJJJJJJJMnBx075554<::::::;259ZmsJJJJJJJJJJJJJJJJJJJJJ",
"JJJJJJJJJJJJJJJJJJJxhlp65555<:::::%%$;47ZnfJJJJJJJJJJJJJJJJJJJJJ",
"JJJJJJJJJJJJJJJJJJMnss765555::::;=%=%%30ZnpJJJJJJJJJJJJJJJJJJJJJ",
"JJJJJJJJJJJJJJJJJJnnse65555<::::==%%%%-6ZNfuJJJJJJJJJJJJJJJJJJJJ",
"JJJJJJJJJJJJJJJJJMnfsy65554<::::=*%*$$$<BNsuJJJJJJJJJJJJJJJJJJJJ",
"JJJJJJJJJJJJJJJJJNnJpy65555<,::-=*%#+++;mmspuJJJJJJJJJJJJJJJJJJJ",
"JJJJJJJJJJJJJJJJJNnsyy65555<<-<-%%$+OOO=mn0ypJJJJJJJJJJJJJJJJJJJ",
"JJJJJJJJJJJJJJJJMBvsy855553<<<:=%%$OO+O%nn8yuJJJJJJJJJJJJJJJJJJJ",
"JJJJJJJJJJJJJJJJMmJpy65555<:<-=*%*++Oo +nnwypJJJJJJJJJJJJJJJJJJJ",
"JJJJJJJJJJJJJJJJBMJpy65555<:<-=*$&++OX +nnyypJJJJJJJJJJJJJJJJJJJ",
"JJJJJJJJJJJJJJJJnMJpy65555<-<<-&*+++o  ogzysuJJbJJJJJJJJJJJJJJJJ",
"JJJJJJJJJJJJJJJJbJJpy75555<,<-=*%+OO.   +50ypJJMJJJJJJJJJJJJJJJJ",
"JJJJJJJJJJJJJJJJJJipy65553::<---$+OO    +2rppJJMJJJJJJJJJJJJJJJJ",
"JJJJJJJJJJJJJJJJJJppy77555<:-<--*+Oo   X<56ypJMMJJJJJJJJJJJJJJJJ",
"JJJJJJJJJJJJJJJJJJype8h755<:::=%*+OO   X257ypJNmJJJJJJJJJJJJJJJJ",
"JJJJJJJJJJJJJJJJJJusy8xe55<:::=%*++O   X256ppJMMJJJJJJJJJJJJJJJJ",
"JJJJJJJJJJJJJJJJJJJpyqmj75<:::-%%+++O  X157ysxMJJJJJJJJJJJJJJJJJ",
"JJJJJJJJJJJJJJJJbJJpy8me55<<::=%%&++OX X16ypfnnJJJJJJJJJJJJJJJJJ",
"JJJJJJJJJJJJJJJJMJJueeBz65::::=%%&+OOOO+36ysnBnJJJJJJJJJJJJJJJJJ",
"JJJJJJJJJJJJJJJJMJJpsxSx84<:::=%%$+++++@37ysnBVJJJJJJJJJJJJJJJJJ",
"JJJJJJJJJJJJJJJJcJJpsmSm75<:::=%%*&@+++256esnmnJJJJJJJJJJJJJJJJJ",
"JJJJJJJJJJJJJJJJJJJpphAB85<:::;=*%*$++@266ysnmVJJJJJJJJJJJJJJJJJ",
"JJJJJJJJJJJJJJJJJJJupsBZ94<::::===%%***459rfnnJJJJJJJJJJJJJJJJJJ",
"JJJJJJJJJJJJJJJJJJJJufmB054:<::=*%%%%%-46usxBMJJJJJJJJJJJJJJJJJJ",
"JJJJJJJJJJJJJJJJJJJJpsBZ045>:::;=%%%==247rhmCJJJJJJJJJJJJJJJJJJJ",
"JJJJJJJJJJJJJJJJJJJJpsnZ054<::::=%%%==459pxBBJJJJJJJJJJJJJJJJJJJ",
"JJJJJJJJJJJJJJJJJJJJesmB0554<:::;=%%%=49ehCBVJJJJJJJJJJJJJJJJJJJ",
"JJJJJJJJJJJJJJJJJJJJJsnZ94544<:::==%%=4wfZSVJJJJJJJJJJJJJJJJJJJJ",
"JJJJJJJJJJJJJJJJJJJJJphBq55554:::::;==4qxSBJJJJJJJJJJJJJJJJJJJJJ",
"JJJJJJJJJJJJJJJJJJJJJpfAz95555<::::>49qNSBBJJJJJJJJJJJJJJJJJJJJJ",
"JJJJJJJJJJJJJJJJJJJJJkhAn755554<:::4qmASGBMJJJJJJJJJJJJJJJJJJJJJ",
"JJJJJJJJJJJJJJJJJJJJJJfFB055555<<47qBHGZBMJJJJJJJJJJJJJJJJJJJJJJ",
"JJJJJJJJJJJJJJJJJJJJJJgnBq5555555qmAGSBnnJJJJJJJJJJJJJJJJJJJJJJJ",
"JJJJJJJJJJJJJJJJJJJJJJJhBz7555557nZmnhzfJJJJJJJJJJJJJJJJJJJJJJJJ",
"JJJJJJJJJJJJJJJJJJJJJJJvBnpJ55550jepspspuJJJJJJJJJJJJJJJJJJJJJJJ",
"JJJJJJJJJJJJJJJJJJJJJJJJNnfpy767epppspppJJJJJJJJJJJJJJJJJJJJJJJJ",
"JJJJJJJJJJJJJJJJJJJJJJJJNBnspypyysppppiJJJJJJJJJJJJJJJJJJJJJJJJJ",
"JJJJJJJJJJJJJJJJJJJJJJJJnNnsppypsysppuJJJJJJJJJJJJJJJJJJJJJJJJJJ",
"JJJJJJJJJJJJJJJJJJJJJJJJJBAhypppyssptJJJJJJJJJJJJJJJJJJJJJJJJJJJ",
"JJJJJJJJJJJJJJJJJJJJJJJJJMGFJtspyyuaJJJJJJJJJJJJJJJJJJJJJJJJJJJJ",
"JJJJJJJJJJJJJJJJJJJJJJJJJJVGFJtiJJJJJJJJJJJJJJJJJJJJJJJJJJJJJJJJ",
"JJJJJJJJJJJJJJJJJJJJJJJJJJJVGFJJJJJJJJJJJJJJJJJJJJJJJJJJJJJJJJJJ",
"JJJJJJJJJJJJJJJJJJJJJJJJJJJJCFGFJJJJJJJJJJJJJJJJJJJJJJJJJJJJJJJJ",
"JJJJJJJJJJJJJJJJJJJJJJJJJJJJJJVFCnvJJJJJJJJJJJJJJJJJJJJJJJJJJJJJ",
"JJJJJJJJJJJJJJJJJJJJJJJJJJJJJJJvnMJJJJJJJJJJJJJJJJJJJJJJJJJJJJJJ",
"JJJJJJJJJJJJJJJJJJJJJJJJJJJJJJJJJJJJJJJJJJJJJJJJJJJJJJJJJJJJJJJJ"
};
