/* XPM */
static char *_f8844ac336e4cb3fc1c167bb533fb13w0Lnvb8RfFR6D0MZ[] = {
/* columns rows colors chars-per-pixel */
"64 64 105 2 ",
"   c #fa0000",
".  c gray9",
"X  c #181818",
"o  c #191919",
"O  c gray10",
"+  c #1B1B1B",
"@  c gray11",
"#  c #1E1E1E",
"$  c gray12",
"%  c #222222",
"&  c gray14",
"*  c #252525",
"=  c gray15",
"-  c #272727",
";  c #282828",
":  c gray16",
">  c #2A2A2A",
",  c gray17",
"<  c #2C2C2C",
"1  c #2F2F2F",
"2  c gray19",
"3  c #313131",
"4  c #323232",
"5  c gray20",
"6  c #343434",
"7  c #353535",
"8  c gray21",
"9  c #373737",
"0  c gray22",
"q  c #393939",
"w  c #3A3A3A",
"e  c #3C3C3C",
"r  c gray24",
"t  c #3E3E3E",
"y  c #3F3F3F",
"u  c gray25",
"i  c #414141",
"p  c gray26",
"a  c #434343",
"s  c #444444",
"d  c gray27",
"f  c #464646",
"g  c gray28",
"h  c #484848",
"j  c #494949",
"k  c gray29",
"l  c #4B4B4B",
"z  c #4C4C4C",
"x  c gray30",
"c  c #4E4E4E",
"v  c gray31",
"b  c #505050",
"n  c #515151",
"m  c gray32",
"M  c #535353",
"N  c gray33",
"B  c #555555",
"V  c #565656",
"C  c gray34",
"Z  c #585858",
"A  c gray35",
"S  c #5A5A5A",
"D  c #5B5B5B",
"F  c gray37",
"G  c #5F5F5F",
"H  c #606060",
"J  c #626262",
"K  c gray39",
"L  c #646464",
"P  c #656565",
"I  c gray40",
"U  c #676767",
"Y  c #686868",
"T  c DimGray",
"R  c #6A6A6A",
"E  c gray42",
"W  c #6C6C6C",
"Q  c #6D6D6D",
"!  c gray43",
"~  c #6F6F6F",
"^  c gray44",
"/  c gray46",
"(  c #767676",
")  c #777777",
"_  c gray47",
"`  c #797979",
"'  c gray48",
"]  c #7B7B7B",
"[  c #7C7C7C",
"{  c gray49",
"}  c #7E7E7E",
"|  c gray50",
" . c #808080",
".. c #818181",
"X. c gray51",
"o. c #838383",
"O. c #848484",
"+. c gray52",
"@. c #868686",
"#. c gray53",
"$. c #888888",
"%. c #898989",
"&. c gray54",
"*. c #8B8B8B",
"=. c gray55",
/* pixels */
"                                                                                                                                ",
"                                                                                                                                ",
"                                                                                                                                ",
"                                                                                                                                ",
"                                                                                                                                ",
"                                                                              [                                                 ",
"                                                          K K K K P P         [                                                 ",
"                                                  [   Y P P P P P P P P                                                         ",
"                                                [ ....[ Y Y P P P P P P P P                                                     ",
"                                              [ [ $.$.$...[ ' P K K P P P P     ..                                              ",
"                                            [ ' Q [ ..$.$.$...Y m m K P P P K   [                                               ",
"                                          [ ' Y P Y ' ' [ $.$.' N z m K P P P K   [                                             ",
"                                        [ [   P P P P N Z ) +.$.) m z m K P P P   [ [                                           ",
"                                      [ [   P P P K m z z m Z +.+.Z z z m K P P   [ ..                                          ",
"                                      [     P P P m z z z k m ) ..) m k z G P P Y ' [                                           ",
"                                    '       P P K z z z z z k g z Y g p k m K P P Q [                                           ",
"                                            P K m z z z z k p r r g r r g z G P P ) [ [                                         ",
"                                            P G z z z z k p r r r r 7 7 w g m G P Y [ [                                         ",
"                                          P K m z z z z k r r r 7 7 7 7 7 w k m K Y [ [                                         ",
"                                        P P K z z z z z k r r r 7 7 5 5 5 7 g z K Y [ [                                         ",
"                                        P K m z z z z k p r r 7 7 5 5 5 5 5 w z K Y [ [                                         ",
"                              [         P K z z z z z k r r r 7 5 5 5 5 5 5 7 k m P [ [                                         ",
"                              [         P K z z z z k p r r r 7 7 5 5 5 5 5 7 k z K [ [                                         ",
"                              [         K m z m z z k p r r r 7 5 5 5 ; - - 1 k z N ' [                                         ",
"                                      P K z m ^ m z k p r r r 7 5 5 1 - - - ; g k m ' [                                         ",
"                                      P K z Z [ N k k p r r 7 5 5 5 - - - - - 1 g m ' [ Y                                       ",
"                                      K N m [ [ m k p r r r 7 5 5 5 - - - % X # g m ' +.Y                                       ",
"                                      P K G [ Z z k p r r r 7 5 5 5 - - - X X # g Z [ +.Y                                       ",
"                                      P Y ' ..m z k p r r r 7 5 5 ; - - % X X # k ) $.[ Y                                       ",
"                                    P P Y +.+.N z k p r r r 7 5 5 - - - X X X # z [ $.[ Y                                       ",
"                                    P P Q +.) m z k p r r r 7 5 5 - - - X X . # z [ $.[ Y                                       ",
"                                    P Y [ +.Z z z k p r r r 7 5 5 - - - X X . # z [ $.[ Y                                       ",
"                                      Y [ +.N k z k p r r r 7 5 5 - - - X X X # z +.$.[ Y                                       ",
"                                      Y +.+.N k z k p r r r 7 5 5 - - - X X X # z +.$.Q P                                       ",
"                                      Y $.+.N z z k p r r r 7 5 5 - - - % X X # m +...Y P                                       ",
"                                    Y Y +.[ m z z k p r r r 7 5 5 - - - - # X - ' $.' Y P                                       ",
"                                    ) Q +.[ m z z k p r r r 7 5 5 ; - - - - - w ..+.G K P                                       ",
"                                      Q +.[ m z z k p r r r 7 5 5 5 - - - - 1 Q ..' P P P                                       ",
"                                      ..$.' m z z k p r r r 7 5 5 5 ; - - - - 7 m N K P P                                       ",
"                                      ..$.' m z z k p r r r 7 5 5 5 5 5 ; - - ; k m K P P                                       ",
"                                      ....' m z z k p r r r 7 5 5 5 5 5 5 5 5 7 z K P P                                         ",
"                                      ....' m z z k p r r r r 7 5 5 5 5 5 5 5 w z K P P                                         ",
"                                      [ ..' m k z k p r r r r 7 5 7 5 5 5 5 7 g z K P K                                         ",
"                                      [ ..' N z z z k r r r r 7 5 5 5 5 5 5 7 k m K P                                           ",
"                                      [ ..[ K z z z k p r r r r 7 5 5 5 5 w g z K P P     [                                     ",
"                                      [ ..[ P m z z z k p r r r 7 7 5 5 7 g z z K P P   [ [                                     ",
"                                        ..[ Y K z z z z k p r r r r 7 5 w k z m K P   [ ..[                                     ",
"                                        ..[ Y K m z z z k p r r r r r w g z z K P Y ' ..[                                       ",
"                                        ..[ Y P K z z z k k r r r r p k z z m K Y ' ....[                                       ",
"                                        ..[ Y P K m z z m m p p r p k z z m K P Y [ ..[ [                                       ",
"                                        ..[ Y P P K z m [ [ N z z k z z m K Y Y ' ....                                          ",
"                                        [ ..' Y P K m m ' $...G ^ N z K P Y ' [ ......                                          ",
"                                        [ ..[ P P P K m Z ' $.+...) G ) Q [ +.$...[ [                                           ",
"                                          [     P P P K K Y ....$.$.+.$.$.$.$.$...[                                             ",
"                                          [ [   P P P P P P Y Y [ ..$.=.=.$.....[                                               ",
"                                          ..[       P P P P P P Y ' ........[ [                                                 ",
"                                            [ [       P P P P P P Y ' [   [                                                     ",
"                                            [ [       P P P P P P P Y                                                           ",
"                                                [             P                                                                 ",
"                                                '                                                                               ",
"                                                                                                                                ",
"                                                                                                                                ",
"                                                                                                                                ",
"                                                                                                                                "
};
