/* XPM */
static char *result[] = {
/* columns rows colors chars-per-pixel */
"64 64 63 1 ",
"  c #071D2E",
". c #091C2B",
"X c #092334",
"o c #0B263C",
"O c #0C293D",
"+ c #0D2C43",
"@ c #0D3047",
"# c #0D324C",
"$ c #0E3753",
"% c #0F3955",
"& c #0F3B58",
"* c #113753",
"= c #103A56",
"- c #103C5B",
"; c #113F60",
": c #134365",
"> c #15466C",
", c #15486E",
"< c #19496D",
"1 c #154A71",
"2 c #194F76",
"3 c #175076",
"4 c #185077",
"5 c #17527C",
"6 c #19537C",
"7 c #195682",
"8 c #1A5A87",
"9 c #1A5C8C",
"0 c #1B5F90",
"q c #19618F",
"w c #1C6293",
"e c #1C659A",
"r c #26709E",
"t c #1E6CA4",
"y c #226DA5",
"u c #296DA2",
"i c #216FA9",
"p c #2571A5",
"a c #2871A7",
"s c #2372AC",
"d c #2871A8",
"f c #2376B2",
"g c #2379B6",
"h c #247BBB",
"j c #2984C6",
"k c #2987CA",
"l c #2589CE",
"z c #2989CD",
"x c #328DCE",
"c c #2C8DD4",
"v c #2D8FD8",
"b c #318DD3",
"n c #2C90D6",
"m c #2C91DB",
"M c #3290D5",
"N c #3293DB",
"B c #3A98DD",
"V c #2D96E1",
"C c #2E99E6",
"Z c #2E9CEA",
"A c #349AE6",
"S c #319CEA",
"D c #fa0000",
/* pixels */
"DDDDDDDDDDDDDDDDDDDDDDDDDDDDDDDDDDDDDDDDDDDDDDDDDDDDDDDDDDDDDDDD",
"DDDDDDDDDDDDDDDDDDDDDDDDDDDDDDDDDDDDDDDDDDDDDDDDDDDDDDDDDDDDDDDD",
"DDDDDDDDDDDDDDDDDDDDDDDDDDDDDDDDDDDDDDDDDDDDDDDDDDDDDDDDDDDDDDDD",
"DDDDDDDDDDDDDDDDDDDDDDDDDDDDDDDDDDDDDDDDDDDDDDDDDDDDDDDDDDDDDDDD",
"DDDDDDDDDDDDDDDDDDDDDDDDDbcnnMcnDDDDDDDDDDDDDDDDDDDDDDDDDDDDDDDD",
"DDDDDDDDDDDDDDDDDDDDDDDDbNmmmnmmbDDDDDDDDDDDDDDDDDDDDDDDDDDDDDDD",
"DDDDDDDDDDDDDDDDDDDDDDDDbvnbcnmmNcgDDDDDDDDDDDDDDDDDDDDDDDDDDDDD",
"DDDDDDDDDDDDDDDDDDDDDDDDDDDDgznmmvcfDDDDDDDDDDDDDDDDDDDDDDDDDDDD",
"DDDDDDDDDDDDDDDDDDDDDDDDDDDyffhlnmvfsDDDDDDDDDDDDDDDDDDDDDDDDDDD",
"DDDDDDDDDDDDDDDDDDDDDDDDDpsfiishzZChtiDDDDDDDDDDDDDDDDDDDDDDDDDD",
"DDDDDDDDDDDDDDDDDDDDDDDDufssfstiezZvhfdiDDDDDDDDDDDDDDDDDDDDDDDD",
"DDDDDDDDDDDDDDDDDDDDDDDdfsssiit97eVZvfsiDDDDDDDDDDDDDDDDDDDDDDDD",
"DDDDDDDDDDDDDDDDDDDDDDDssist988779lZChssdDDDDDDDDDDDDDDDDDDDDDDD",
"DDDDDDDDDDDDDDDDDDDDDDDssfy9777777wlZcffsDDDDDDDDDDDDDDDDDDDDDDD",
"DDDDDDDDDDDDDDDDDDDDDDissy977777777eVceisdDDDDDDDDDDDDDDDDDDDDDD",
"DDDDDDDDDDDDDDDDDDDDDDsft97777776250VmeissDDDDDDDDDDDDDDDDDDDDDD",
"DDDDDDDDDDDDDDDDDDDDDDss00977771>>>6jZcsssDDDDDDDDDDDDDDDDDDDDDD",
"DDDDDDDDDDDDDDDDDDDDDpfsekj9771>>>>>7mkwifsDDDDDDDDDDDDDDDDDDDDD",
"DDDDDDDDDDDDDDDDDDDDDsfzvZb071>>>>-&1ze8ussDxDDDDDDDDDDDDDDDDDDD",
"DDDDDDDDDDDDDDDDDDDDsshmZm076>>>;;-&>z079tdDbDDDDDDDDDDDDDDDDDDD",
"DDDDDDDDDDDDDDDDDDDDdflZmt7711>>;--%>f8779pDnbDDDDDDDDDDDDDDDDDD",
"DDDDDDDDDDDDDDDDDDDpshmV07761>><&&&--;:579yDnbDDDDDDDDDDDDDDDDDD",
"DDDDDDDDDDDDDDDDDDDsfcSV0771>>>;&%%%%*-68ydDccDDDDDDDDDDDDDDDDDD",
"DDDDDDDDDDDDDDDDDDDsfvZl977><<>;&-$@@+#48ysfvvDDDDDDDDDDDDDDDDDD",
"DDDDDDDDDDDDDDDDDDDdfvme7761<1;;&%++++@27qsgcvDDDDDDDDDDDDDDDDDD",
"DDDDDDDDDDDDDDDDDDushVl9661111;;%$+++O+679tfcvDDDDDDDDDDDDDDDDDD",
"DDDDDDDDDDDDDDDDDDDfcVe7771,1;;-%++++oo<78tgcbDDDDDDDDDDDDDDDDDD",
"DDDDDDDDDDDDDDDDDDDhSVq777,,1;;-%+++o .+38ihcvDDDDDDDDDDDDDDDDDD",
"DDDDDDDDDDDDDDDDDDDvSv97761>>>-%=++o .. 38slmvDDDDDDDDDDDDDDDDDD",
"DDDDDDDDDDDDDDDDDDDSAe77771>1;--=++o  .X38snmMDDDDDDDDDDDDDDDDDD",
"DDDDDDDDDDDDDDDDDDMSz97777>>11;%=++o ..X38scvDDDDDDDDDDDDDDDDDDD",
"DDDDDDDDDDDDDDDDDDNCg87777,>1;--=++o ..o38scvDDDDDDDDDDDDDDDDDDD",
"DDDDDDDDDDDDDDDDDDvms9777711>>-%=+++...<79sccDDDDDDDDDDDDDDDDDDD",
"DDDDDDDDDDDDDDDDDDvvs977771;>>--=++o..X278fcnDDDDDDDDDDDDDDDDDDD",
"DDDDDDDDDDDDDDDDDMvfi9777711>>-%=+++..X279zvnDDDDDDDDDDDDDDDDDDD",
"DDDDDDDDDDDDDDDDDMvfi97777111;;&-*++O.o278cmxDDDDDDDDDDDDDDDDDDD",
"DDDDDDDDDDDDDDDDDDzgi77777;2>>%&&*+O+o@48wcbDDDDDDDDDDDDDDDDDDDD",
"DDDDDDDDDDDDDDDDDvcfi977777;>>-%&*@++o#49kCcDDDDDDDDDDDDDDDDDDDD",
"DDDDDDDDDDDDDDDDDncfi97787;;,>-&&=++++@40VChrDDDDDDDDDDDDDDDDDDD",
"DDDDDDDDDDDDDDDDDncgd97779;7,,;&&=*++@#49VvfDDDDDDDDDDDDDDDDDDDD",
"DDDDDDDDDDDDDDDDDncgst8777,1>>&&&-&*&*-5emhfDDDDDDDDDDDDDDDDDDDD",
"DDDDDDDDDDDDDDDDDncfsi89771,>>>&=&&&&&:8vVfiDDDDDDDDDDDDDDDDDDDD",
"DDDDDDDDDDDDDDDDDcbDsswheq6,>>>&=&&&&&5emhfiDDDDDDDDDDDDDDDDDDDD",
"DDDDDDDDDDDDDDDDDDxDyywzmn93>>:&-&&=&&9nVfsdDDDDDDDDDDDDDDDDDDDD",
"DDDDDDDDDDDDDDDDDDxDDpejmmw6,>>:-&&&&:wmhfdDDDDDDDDDDDDDDDDDDDDD",
"DDDDDDDDDDDDDDDDDDxDDdtenVe5,<>>:--&-7cmffsDDDDDDDDDDDDDDDDDDDDD",
"DDDDDDDDDDDDDDDDDDxDDstwkZn9,>><,::;-7jttssDDDDDDDDDDDDDDDDDDDDD",
"DDDDDDDDDDDDDDDDDDxDDsi9eVVq6,><,,<:;:qtfsDDDDDDDDDDDDDDDDDDDDDD",
"DDDDDDDDDDDDDDDDDDxDDdstqzVe75,>,,,157tsfsDDDDDDDDDDDDDDDDDDDDDD",
"DDDDDDDDDDDDDDDDDDDDDDsswgCk971>,16670tfssDDDDDDDDDDDDDDDDDDDDDD",
"DDDDDDDDDDDDDDDDDDDDDDDsifnme77166789tssdsDDDDDDDDDDDDDDDDDDDDDD",
"DDDDDDDDDDDDDDDDDDDDDDDdsfnZve76778ytsssDDDDDDDDDDDDDDDDDDDDDDDD",
"DDDDDDDDDDDDDDDDDDDDDDDDssgmClw7789stfspDDDDDDDDDDDDDDDDDDDDDDDD",
"DDDDDDDDDDDDDDDDDDDDDDDDssfcmClq9tisfsiDDDDDBDDDDDDDDDDDDDDDDDDD",
"DDDDDDDDDDDDDDDDDDDDDDDDDssfgcVgsfssfsuDDDDBADDDDDDDDDDDDDDDDDDD",
"DDDDDDDDDDDDDDDDDDDDDDDDDDdsshcvcffsdpDxDDDDDDDDDDDDDDDDDDDDDDDD",
"DDDDDDDDDDDDDDDDDDDDDDDDDDDssfvmvlhfDDbvxDDDDDDDDDDDDDDDDDDDDDDD",
"DDDDDDDDDDDDDDDDDDDDDDDDDDDdifcnVvccvbvcDDDDDDDDDDDDDDDDDDDDDDDD",
"DDDDDDDDDDDDDDDDDDDDDDDDDDDDDDDMvvmVmnbDDDDDDDDDDDDDDDDDDDDDDDDD",
"DDDDDDDDDDDDDDDDDDDDDDDDDDDDDDDDbvvvnbDDDDDDDDDDDDDDDDDDDDDDDDDD",
"DDDDDDDDDDDDDDDDDDDDDDDDDDDDDDDDDDDDDDDDDDDDDDDDDDDDDDDDDDDDDDDD",
"DDDDDDDDDDDDDDDDDDDDDDDDDDDDDDDDDDDDDDDDDDDDDDDDDDDDDDDDDDDDDDDD",
"DDDDDDDDDDDDDDDDDDDDDDDDDDDDDDDDDDDDDDDDDDDDDDDDDDDDDDDDDDDDDDDD",
"DDDDDDDDDDDDDDDDDDDDDDDDDDDDDDDDDDDDDDDDDDDDDDDDDDDDDDDDDDDDDDDD"
};
