/* XPM */
static char *_67ec07ad931487dd1676dd1bfdde8d7WdlC0mwycLNVg6iQ[] = {
/* columns rows colors chars-per-pixel */
"64 64 143 2 ",
"   c None",
".  c #091D2B",
"X  c #081F30",
"o  c #092234",
"O  c #092539",
"+  c #0C293D",
"@  c #0D2C43",
"#  c #0C2F49",
"$  c #0E304A",
"%  c #0F3752",
"&  c #0F3A56",
"*  c #0F3B59",
"=  c #103955",
"-  c #113C5B",
";  c #113E60",
":  c #134365",
">  c #15466C",
",  c #15496E",
"<  c #18496C",
"1  c #144A71",
"2  c #184F76",
"3  c #174E78",
"4  c #185077",
"5  c #175179",
"6  c #19537C",
"7  c #195682",
"8  c #1A5986",
"9  c #1B5C8B",
"0  c #1C5F90",
"q  c #1C6395",
"w  c #1D669A",
"e  c #1F689D",
"r  c #206A9E",
"t  c #1E6AA0",
"y  c #216DA4",
"u  c #216FA9",
"i  c #2671A6",
"p  c #2871A6",
"a  c #2372AC",
"s  c #2177B4",
"d  c #2276B2",
"f  c #2378B4",
"g  c #2378B6",
"h  c #2379B7",
"j  c #247BB6",
"k  c #267BB7",
"l  c #2379B6",
"z  c #2878B5",
"x  c #2379B8",
"c  c #247ABA",
"v  c #227CBA",
"b  c #237BBB",
"n  c #2781C0",
"m  c #2982C3",
"M  c #2986C9",
"N  c #2A87C9",
"B  c #2886CA",
"V  c #2986CB",
"C  c #2986CB",
"Z  c #2888CA",
"A  c #2988CC",
"S  c #2A8ACE",
"D  c #2A8ACF",
"F  c #2B8BCF",
"G  c #2D8BCF",
"H  c #2A89CD",
"J  c #368CCB",
"K  c #318CCE",
"L  c #338DCF",
"P  c #318ECE",
"I  c #318ECF",
"U  c #338ECF",
"Y  c #348DCD",
"T  c #328CCD",
"R  c #298BD0",
"E  c #298BD1",
"W  c #2A8BD1",
"Q  c #2B8DD4",
"!  c #2B8DD5",
"~  c #288ED4",
"^  c #2A8FD4",
"/  c #2B8ED5",
"(  c #2A8ED7",
")  c #2C8DD5",
"_  c #2C8ED5",
"`  c #2F8ED4",
"'  c #2F8FD5",
"]  c #2C8FD6",
"[  c #2D8FD6",
"{  c #2E8FD6",
"}  c #2E8FD7",
"|  c #2C8ED4",
" . c #2C8ED8",
".. c #318DD0",
"X. c #318ED0",
"o. c #328FD0",
"O. c #318FD3",
"+. c #308ED5",
"@. c #328ED2",
"#. c #2D90D3",
"$. c #2F90D5",
"%. c #2C90D7",
"&. c #2D90D7",
"*. c #2E90D6",
"=. c #2F90D6",
"-. c #2E90D6",
";. c #2B91D9",
":. c #2A91DB",
">. c #2B91DB",
",. c #2B93DA",
"<. c #2C91D8",
"1. c #2C91D9",
"2. c #2C90DA",
"3. c #2C91DA",
"4. c #2D91DA",
"5. c #2C94DD",
"6. c #2C95DE",
"7. c #2D92DB",
"8. c #3090D5",
"9. c #3191D5",
"0. c #3093DE",
"q. c #3998DB",
"w. c #2E96E0",
"e. c #2E95E3",
"r. c #2E96E2",
"t. c #2D96E2",
"y. c #2F98E4",
"u. c #2E99E6",
"i. c #2E9AE6",
"p. c #2E9AE7",
"a. c #2E98E5",
"s. c #2E9BE8",
"d. c #2F9BEA",
"f. c #2F9CEA",
"g. c #2E9CEB",
"h. c #2E9DEB",
"j. c #2F9DED",
"k. c #2F9BEA",
"l. c #3196E3",
"z. c #3099E4",
"x. c #339BE5",
"c. c #3898E0",
"v. c #319BEB",
/* pixels */
"                                                                                                                                ",
"                                                                                                                                ",
"                                                                                                                                ",
"                                                                                                                                ",
"                                                    L { { *.*.8.                                                                ",
"                                              #.{ L *.*.( :.:.2.+.                                                              ",
"                                            L { ..      j W 2.2.2.G a i                                                         ",
"                                            J         i a x W 2.2.( g a a                                                       ",
"                                                      a a a x W 2.:.F d a i                                                     ",
"                                                    a a a a a d F a.:.x a a                                                     ",
"                                                i a a a y 9 8 8 w e.f.( d a p                                                   ",
"                                              a a a a y 9 7 7 7 9 C f.a.g a a                                                   ",
"                                              a a y 9 8 7 7 7 7 7 q ( a.v a a a                                                 ",
"                                              a a 9 7 7 7 7 7 7 7 9 C a.( a a a a                                               ",
"                                            a a y 8 7 7 7 7 7 7 7 7 q { 5.t y a a                                               ",
"                                            a y 9 7 7 7 7 7 7 6 1 6 8 C d.C q y a i                                             ",
"                                          a u 9 7 7 7 7 7 7 6 , > , 1 q 5.Z 0 y a a a   Y                                       ",
"                                          a u 8 9 9 7 7 6 1 , > > > > 3 j q 7 9 u a a   ..                                      ",
"                                        a a a w { { 9 7 6 , > > > > * - : 6 7 8 u a a   ..                                      ",
"                                        a a d W j.*.9 7 1 > > > : - * * * : 6 8 y a a   ..                                      ",
"                                        a a c z.e.w 8 6 , > > > - = * * = - 6 7 9 u a   L                                       ",
"                                        a g ( f.F 9 6 6 , > > : - * * * = - 5 7 8 y a   L                                       ",
"                                        d F d.2.q 7 6 , > > > - * * * * * * ; 6 8 u a   L                                       ",
"                                      a s :.e.w 7 7 6 , > > > - * = % @ @ @ $ 6 8 y a d { ..                                    ",
"                                      a g a.{ 9 7 7 6 , > > > - * = @ @ @ @ # 4 7 9 u s ( *.                                    ",
"                                      a b 5.w 7 7 7 6 1 > > : - * = @ @ @ + @ 6 7 8 u d ` {                                     ",
"                                      d e.5.9 7 7 7 6 , > > * * * % @ @ + X O 4 7 8 u d Q {                                     ",
"                                    a g a.F 9 7 7 7 1 > > > - * % # @ @ o . o , 7 8 u d Q {                                     ",
"                                    p b 2.w 7 7 7 7 1 > > > - * * @ @ + . . . + 4 8 u d Q {                                     ",
"                                      l.5.9 7 7 7 7 1 > > > - * % @ @ + . . . o 2 8 u g ( +.                                    ",
"                                    8.d.F 9 7 7 7 7 1 > > > - * * @ @ + . . . o 2 8 a F 2.{                                     ",
"                                    5.e.w 8 7 7 7 7 1 > > > - * * @ @ + . . . o 2 8 a ( 5.{                                     ",
"                                    5.5.9 7 7 7 7 7 1 > > > - * * @ @ + . . . + 5 7 q W 5...                                    ",
"                                    v.e.0 7 7 7 7 7 1 > > > - * * @ @ + . . o < 7 7 w 5.2.                                      ",
"                                    v.e.q 7 7 7 7 7 1 > > > - * * @ @ + . . o 2 7 9 C d.2.                                      ",
"                                    0.a.a 8 7 7 7 7 1 > > > - * * % @ @ + . O 2 7 9 Q f.2.                                      ",
"                                    2.a.d 8 7 7 7 7 1 > > > - * * = @ @ @ + @ 6 7 q e.f.{                                       ",
"                                    2.a.d 9 7 7 7 6 1 > > > - * * * @ @ @ @ $ 6 9 Z f.:.z                                       ",
"                                    2.5.g y 8 7 7 6 1 > > > - * * * @ @ @ @ # 6 0 e.d.`                                         ",
"                                    ` v a a 8 7 7 7 1 > > > - * * * % @ @ @ $ 5 w e.( j                                         ",
"                                  *.Q a a y 8 7 7 7 1 > > > : - * * * * = = - 0 2.a.x a                                         ",
"                                  { {   a u 8 7 7 7 6 , > > > - = * * * * * 8 A v.2.d i                                         ",
"                                  *.{   a a 9 7 7 7 7 1 > > > * * * * * - 1 C g.v.W d                                           ",
"                                  *.{   a a y 8 7 7 7 6 , > > : - * * * : d z.j.:.x a                                           ",
"                                  *.*.  a a u 9 9 8 7 6 , > > > - * * * * 6 ` d.F d a                                           ",
"                                  *.*.  a a a a m q 7 6 1 > > > - * = * - 4 q n e a a                                           ",
"                                  *.{     a a s 2.{ 9 7 6 1 > > > - = * - 6 8 q y a a                                           ",
"                                  *.*.    a a a y  .w 7 7 6 , > > : - * : 6 9 y a a a                                           ",
"                                  *.{       a a d 5.( 9 6 6 , > > > > : 6 8 y a a a                                             ",
"                                  9.`       a a a b :.e 8 6 1 > > 1 6 6 7 8 y a a i                                             ",
"                                    L       a a a d Q  .w 7 6 1 1 6 7 7 8 9 u d a         q.                                    ",
"                                    J       a a a a x a.{ q 7 7 7 7 7 9 y a a a a       x.x.                                    ",
"                                              a a a s  .v.F w r 9 8 9 y a a a a         c.                                      ",
"                                                a a a x a.f.F d y u u a a a i       T                                           ",
"                                                  a a d ( d.2.b d d a a d d       ....                                          ",
"                                                    a a x  .d.a. .W c g W ( { *.{ ..                                            ",
"                                                      a d G e.d.5.2.( ( 2.2.2.{ L                                               ",
"                                                        p   ..5.5.:.2.2.2.*.L                                                   ",
"                                                              ..*.*.2.2.:.{                                                     ",
"                                                                  o.2.*.*...                                                    ",
"                                                                                                                                ",
"                                                                                                                                ",
"                                                                                                                                ",
"                                                                                                                                "
};
