/* XPM */
static char *result[] = {
/* columns rows colors chars-per-pixel */
"64 64 237 2 ",
"   c #000000",
".  c #050B09",
"X  c #080A05",
"o  c #140804",
"O  c #05110C",
"+  c #08120E",
"@  c #02190D",
"#  c #1B1509",
"$  c #1F1B0C",
"%  c #161309",
"&  c #0C1C15",
"*  c #0B1310",
"=  c #131516",
"-  c #2B0601",
";  c #360500",
":  c #251D0D",
">  c #391808",
",  c #231E11",
"<  c #092518",
"1  c #11241B",
"2  c #1F3B1F",
"3  c #2A230F",
"4  c #26200E",
"5  c #252110",
"6  c #2B2411",
"7  c #262B15",
"8  c #342B16",
"9  c #342A14",
"0  c #3B3216",
"q  c #3A331A",
"w  c #31240E",
"e  c #0B3C26",
"r  c #163A29",
"t  c #152F23",
"y  c #393C2D",
"u  c #451A08",
"i  c #571604",
"p  c #450C00",
"a  c #671E09",
"s  c #45230D",
"d  c #59260D",
"f  c #493B1B",
"g  c #753011",
"h  c #4B3924",
"j  c #693C32",
"k  c #0C472A",
"l  c #1C4833",
"z  c #185839",
"x  c #114328",
"c  c #254C38",
"v  c #25533C",
"b  c #15673D",
"n  c #0E6138",
"m  c #22693D",
"M  c #34623A",
"N  c #5A461D",
"B  c #6B4A1F",
"V  c #4C4725",
"C  c #5D4D25",
"Z  c #564823",
"A  c #585228",
"S  c #435A35",
"D  c #545830",
"F  c #645329",
"G  c #6A562A",
"H  c #695526",
"J  c #765A26",
"K  c #634828",
"L  c #7D6A2E",
"P  c #79612D",
"I  c #7A6A36",
"U  c #6E7033",
"Y  c #265943",
"T  c #1B6D44",
"R  c #1D6A49",
"E  c #1E754B",
"W  c #1C7046",
"Q  c #1D7B54",
"!  c #2D654C",
"~  c #2C6A4C",
"^  c #23744D",
"/  c #22794F",
"(  c #277648",
")  c #297B55",
"_  c #347658",
"`  c #336D51",
"'  c #1E5640",
"]  c #6B5A53",
"[  c #527849",
"{  c #716F56",
"}  c #5B5F60",
"|  c #606060",
" . c #952909",
".. c #9C3614",
"X. c #913512",
"o. c #A43916",
"O. c #A2370F",
"+. c #831200",
"@. c #8F431A",
"#. c #AE4114",
"$. c #B74A1A",
"%. c #AB531C",
"&. c #B74C21",
"*. c #AF572B",
"=. c #86672B",
"-. c #906F2F",
";. c #8A7535",
":. c #957935",
">. c #8B7034",
",. c #A67C32",
"<. c #A0772F",
"1. c #C65B21",
"2. c #CA5D23",
"3. c #C45B2E",
"4. c #C35726",
"5. c #C65E31",
"6. c #D36B3A",
"7. c #D9733F",
"8. c #CD6634",
"9. c #876C55",
"0. c #A7614B",
"q. c #AB7362",
"w. c #DC7743",
"e. c #E17C43",
"r. c #2C845B",
"t. c #28835A",
"y. c #378757",
"u. c #3A8965",
"i. c #3B936A",
"p. c #3B9469",
"a. c #359168",
"s. c #448A59",
"d. c #558A59",
"f. c #738C43",
"g. c #718D51",
"h. c #458B64",
"j. c #45976B",
"k. c #449D74",
"l. c #479B73",
"z. c #5E9F61",
"x. c #44A37B",
"c. c #4AA57B",
"v. c #4CA97E",
"b. c #46A175",
"n. c #53AA7B",
"m. c #5BAE7C",
"M. c #55A874",
"N. c #57A670",
"B. c #65A567",
"V. c #64AD73",
"C. c #64B27C",
"Z. c #6BB57B",
"A. c #6DB476",
"S. c #74B97B",
"D. c #7BBD7C",
"F. c #79B573",
"G. c #76AC6F",
"H. c #6A9E62",
"J. c #7DC17E",
"K. c #9A833B",
"L. c #AC8134",
"P. c #A9883B",
"I. c #B7903B",
"U. c #8D9450",
"Y. c #B59944",
"T. c #A99041",
"R. c #B8A54D",
"E. c #B9B75C",
"W. c #B9A953",
"Q. c #8E887B",
"!. c #A49777",
"~. c #87AC66",
"^. c #96B368",
"/. c #80BC75",
"(. c #80BF7B",
"). c #8DBB76",
"_. c #8CB069",
"`. c #A8B663",
"'. c #E98449",
"]. c #F18E53",
"[. c #F49256",
"{. c #F79458",
"}. c #C5A647",
"|. c #D7B74F",
" X c #C5B95B",
".X c #DEBD52",
"XX c #D7BB56",
"oX c #D4AE4D",
"OX c #E1BE52",
"+X c #E3BD4F",
"@X c #C19D42",
"#X c #85C27B",
"$X c #8CC57B",
"%X c #8EC97E",
"&X c #91C87D",
"*X c #AFC873",
"=X c #E4C254",
"-X c #E4C55A",
";X c #E9C759",
":X c #E9CE63",
">X c #E6CC66",
",X c #EDD46B",
"<X c #ECD267",
"1X c #EDDA76",
"2X c #F0DC76",
"3X c #F2E17D",
"4X c #D7C662",
"5X c #36A280",
"6X c #7E8081",
"7X c #4DAC80",
"8X c #78C080",
"9X c #848888",
"0X c #B2A798",
"qX c #B4ADAB",
"wX c #9D9C92",
"eX c #C9BAA5",
"rX c #AFD383",
"tX c #9FCD80",
"yX c #C8DC87",
"uX c #E5DD88",
"iX c #DBE48E",
"pX c #D1E08B",
"aX c #DAE590",
"sX c #F5EA8C",
"dX c #F4E686",
"fX c #ECEB91",
"gX c #F7EF94",
"hX c #F8EF94",
"jX c #F7F095",
"kX c #F9F196",
"lX c #E3E78F",
"zX c #C2C0B6",
"xX c #CFCECC",
"cX c #E1E0DE",
"vX c #F9F8F6",
"bX c #D7E0E3",
"nX c None",
/* pixels */
"nXnXnXnXnXnXnXnXnXnXnXnXnXnXnXnXnXnXnXn.n.n.n.n.n.nXnXnXnXnXnXnXG G G 7 X nXnXnXnXnXnXnXnXnXnXnXnXnXnXnXnXnXnXnXnXnXnXnXnXnXnXnX",
"nXnXnXnXnXnXnXnXnXnXnXnXnXnXnXnX( y.Z.&X$X#X#X$XD.j.^ T nXnXJ G -.:.G D D 7 @ O nXnXnXnXnXnXnXnXnXnXnXnXnXnXnXnXnXnXnXnXnXnXnXnX",
"nXnXnXnXnXnXnXnXnXnXnXnXnXnX/ y.8XD.D.D.(.$X$X$X$X$XD.p.~ J -.:.L [ W E E / / e < nXnXnXnXnXnXnXnXnXnXnXnXnXnXnXnXnXnXnXnXnXnXnX",
"nXnXnXnXnXnXnXnXnXnXnXnXnXW r.! ~ a.7X7XM.z.B.D.$X$X$XJ.d.=.=.S t.j.C.C.n.x.n.a.) T nXnXnXnXnXnXnXnXnXnXnXnXnXnXnXnXnXnXnXnXnXnX",
"nXnXnXnXnXnXnXnXnXnXnXnXnXnXk   nXz v c Y t.p.S.$X$X$X%Xg.N c [ S.J.$X&XD.n.x.c.v.a.t.W nXnXnXnXnXnXnXnXnXnXnXnXnXnXnXnXnXnXnXnX",
"nXnXnXnXnXnXnXnXnXnXnXnXnXnXnXnXnXnXx Y _ m.(.$X$X$X%XJ.d.v h.#X$X$X$X$X&XA.c.c.v.7Xc.i.W nXnXnXnXnXnXnXnXnXnXnXnXnXnXnXnXnXnXnX",
"nXnXnXnXnXnXnXnXnXnXnXnXnXnXnXnXnX^ p.v.m.J.$X$X$X$X&Xz.y.A.$X$X$X$X$X$X$XZ.c.c.y.i.v.v.i.^ n n nXnXnXnXnXnXnXnXnXnXnXnXnXnXnXnX",
"nXnXnXnXnXnXnXnXnXnXnXnXnXnXnXnXnXx 7Xc.m.$X$X$X$X$XS.V./.&X$X$X$X$X$X$XZ.c.c.v.l & 1 z i.i.i.i.E nXnXnXnXnXnXnXnXnXnXnXnXnXnXnX",
"nXnXnXnXnXnXnXnXnXnXnXnXnXnXnXnXnXT c.c.m.$X$X$X$XS.C.$X$X$X$X$X$X$X#XZ.c.c.c.c.r 9 Z , + & & & @ nXnXnXnXnXnXnXnXnXnXnXnXnXnXnX",
"nXnXnXnXnXnXnXnXnXnXnXnXnXnXnXnXnXnX/ k.k.C.$X$X$XS.Z.$X$X$X$X$X#XZ.c.c.c.n.c.^ nX  f H : nXnXnXnXnXnXnXnXnXnXnXnXnXnXnXnXnXnXnX",
"nXnXnXnXnXnXnXnXnXnXnXnXnXnXnXnXnXnXnXb / x.C.$X$X$X$X$X$X#XD.C.c.7Xv.c.p.y.~ < nXnX8 C F 6 nXnXnXnXnXnXnXnXnXnXnXnXnXnXnXnXnXnX",
"nXnXnXnXnXnXnXnXnXnXnXnXnXnXnXnXnXnXnXnXnXM b.#X$X$X#XJ.8XZ.7Xn.x.y._ z 1 > - nXnXnXnX8 G G % nXnXnXnXnXnXnXnXnXnXnXnXnXnXnXnXnX",
"nXnXnXnXnXnXnXnXnXnXnXnXnXnXnXnXnXnXnXnX+.g [ l.8XS.m.) ! ! ! ` z $ u s @.2.#. .nXnXnX  K >.0 o nXnXnXnXnXnXnXnXnXnXnXnXnXnXnXnX",
"nXnXnXnXnXnXnXnXnXnXnXnXnXnXnXnXnXnXnX .O.#.%.D Y Y l @           - i X.1.2.2. .nXnXnXnX: =.-.: nXnXnXnXnXnXnXnXnXnXnXnXnXnXnXnX",
"nXnXnXnXnXnXnXnXnXnXnXnXnXnXnXnXnXnXnX .1.1.2.o.-                     o X.1.1.$.i nXnXnX  J ,.: nXnXnXnXnXnXnXnXnXnXnXnXnXnXnXnX",
"nXnXnXnXnXnXnXnXnXnXnXnXnXnXnXnXnXnX .$.1.1.@.> o                       i $.1.2.s nXnXnXnXH <.J H nXnXnXnXnXnXnXnXnXnXnXnXnXnXnX",
"nXnXnXnXnXnXnXnXnXnXnXnXnXnXnXnXnXnX .2.2.$.i             5 h f Z 5     p #.1.2.u nXnXnXnXo =.L.8 nXnXnXnXnXnXnXnXnXnXnXnXnXnXnX",
"nXnXnXnXnXnXnXnXnXnXnXnXnXnXnXnXd. .5.e.2.X.          6 Z C G G F C 5   g 1.2.d nXnXnXnXnX  J L.: nXnXnXnXnXnXnXnXnXnXnXnXnXnXnX",
"nXnXnXnXnXnXnXnXnXnXnXnXnXnX) C.U...].].6.i . =     6 C H F C h C C 5 p #.1.&.s nXnXnXnXnX  J ,.: nXnXnXnXnXnXnXnXnXnXnXnXnXnXnX",
"nXnXnXnXnXnXnXnXnXnXnXnXnXy.$X#Xg.o.].].6.i | qX  5 F F F C y * 6 6 X g 2.2.d   nXnXnXnXnX  J L.: nXnXnXnXnXnXnXnXnXnXnXnXnXnXnX",
"nXnXnXnXnXnXnXnXnXnXnX/ s.$X&XB.r ..w.].w.*.zXwX  4 G G G 9 | 9X= X a w.e.1.u   nXnXnXnXnX  J ,.: nXnXnXnXnXnXnXnXnXnXnXnXnXnXnX",
"nXnXnXnXnXnXnXnXnXnXs.Z.$X%X&Xg.X nXo.[.].w.0.] o = q q q # } qXK a w.].].#.-   nXnXnXnXnXw =.L.: nXnXnXnXnXnXnXnXnXnXnXnXnXnXnX",
"nXnXnXnXnXnXnXnXn.Z.&X&X$X$X$XB.< nX..6.{.].w.&.X.- ; ; ; ; j 0.&.w.].e.&.%.s nXnXnXnXnX  J L.B : nXnXnXnXnXnXnXnXnXnXnXnXnXnXnX",
"nXnXnXnXnXnXnXn.S.$X#XZ.$X$X$XF.^ nXnX .&.5.].].e.3.3.5.5.5.3.w.[.e.3.o.%.oXA nXnXnXnXnX3 =.-.: nXnXnXnXnXnXnXnXnXnXnXnXnXnXnXnX",
"nXnXnXnXnXnXnXn.$X$X(.n.$X$X#Xm.u.e nXnXh q.o.o.5.{.].[.].[.e.&.o...*.6.oX;.7 nXnXnXnX9 C P 0 X nXnXnXnXnXnXnXnXnXnXnXnXnXnXnXnX",
"nXnXnXnXnXnXn.J.$X#XC.D.$X$XD.c.c._   nXy zX9.> @.............0.0X9.T.OX=XN nXnXnXnX8 C F 6 nXnXnXnXnXnXnXnXnXnXnXnXnXnXnXnXnXnX",
"nXnXnXnXnXnXn.$X$X#Xn.$X$XD.n.c.7Xa.x   1 wXqX{ Q.B K 9.qX] K cXbX!.I.OX-XN nXnX  8 F M m z b b T b b b b nXnXnXnXnXnXnXnXnXnXnX",
"nXnXnXnXnXnXn.$X$XD.M.$X$XD.c.c.c.7Xk.[ f ] vXqXT.oXXXT.0X9X6XvX6X=.+XOX=XH nX. x m m z.(./.F././././.M.b.t + + nXnXnXnXnXnXnXnX",
"nXnXnXnXnX( #X$X$XF.( $XF.c.c.c.c.l.d.>.|.Y.I T.|..X.X.XT.wXcXeX@X.X.X.X=X}.d.b B.$X).$X$X$X#X(.(.(.(.F.l.p.p.p.< O nXnXnXnXnXnX",
"nXnXnXnXnXT $X$XD.V.( S.c.c.c.c.7Xh.H P..X.X.X.X.X.X.X.XOXI.L Y.OX.X.X=X}.V _ J.$X$XD.D.D.D.C.m.m.m.m.) E ^ / / k k X nXnXnXnXnX",
"nXnXnXnXnXl S.S.c.l.) a.c.c.c.c.l.d.P.;X>X>X>X>X>X>XOX.XOXOXOXOXOX.XOXY.V ) B.z.A.S.Z.C.V.m.(.$X$X$XD.n.c.v._ ! &   nXnXnXnXnXnX",
"nXnXnXnXnX+ x.x.c.c.b.r.c.c.c.b.{ W.2X3XdXhXkXkXjXsX3X>X=X.XOXE.^.E.;XN ! p.t.y.N.C.(.$X$X$X$X$X$X$Xm.c.v.! +   nXnXnXnXnXnXnXnX",
"nXnXnXnXnX+ v c.c.c.c.c.c.7XN.[ U.yXkXkXjXgXhXgXgXgXjXsX3X>X+X_.x.^.L.M ( s.V.#X$X$X$X$X$X$X$X#X&XS.n.c.Y + nXnXnXnXnXnXnXnXnXnX",
"nXnXnXnXnXnXO c.c.c.c.k.) h.c ~.tX&XyXkXgXgXgXgXgXgXgXgXgX3X=X X`. XC k t.V.&X$X$X$X$X$X$X$X$X$XZ.c.c.c nXnXnXnXnXnXnXnXnXnXnXnX",
"nXnXnXnXnXnX* c.c.c.c.c.h.D D %X#XtXlXhXkXgXhXgXgXgXgXgXgXgX,X.X=X=XU E V.$X$X$X$X$X$X$X$X$X$XA.c.c.7X& nXnXnXnXnXnXnXnXnXnXnXnX",
"nXnXnXnXnXnXnXt c.c.c.c.u.h uXpX%XrXkXgXgXgXgXgXgXgXgXgXgXgX1X+X=XU.r.b.S.$X$X$X$X$X$X$X$X$X$Xm.c.c.l.nXnXnXnXnXnXnXnXnXnXnXnXnX",
"nXnXnXnXnXnXnX* l.c.c.l.{ 1XjXjXfXfXjXgXhXgXgXgXgXgXhXgXyX&X*X.XXXf.r.c.Z.$X$X$X$X$X$X$X$X$XC.c.c.7Xt nXnXnXnXnXnXnXnXnXnXnXnXnX",
"nXnXnXnXnXnXnXnX& u.h.u.q kXfXjXjXjXgXjXkXkXhXhXjXhXgXyX$X$XA.^.f.r.c.c.Z.$X$X$X$X$X$X$X(.m.c.c.c.7X1 nXnXnXnXnXnXnXnXnXnXnXnXnX",
"nXnXnXnXnXnXnXnXnX  & ` A jXjXjXkXkXgXiXaXaXlXjXjXkXyX#X#XS.F.`.f.r.c.c.c.Z.J.#X$X&X(.D.m.c.c.c.c.u.& nXnXnXnXnXnXnXnXnXnXnXnXnX",
"nXnXnXnXnXnXnXnXnXnXnX6 =X,XjXjXhXjXrX#X$X$XrXkXjXjXaX*X^.G.`.=Xf.r.c.c.c.c.c.C.S.S.m.c.c.c.c.c.7X1 nXnXnXnXnXnXnXnXnXnXnXnXnXnX",
"nXnXnXnXnXnXnXnXnXnXnX3 OX-X3XjXkXiX#X$X$X$XrXkXjXjXsX>X.X=X.X=Xf.t.c.c.c.c.c.x.c.x.c.c.c.c.c.v.` & nXnXnXnXnXnXnXnXnXnXnXnXnXnX",
"nXnXnXnXnXnXnXnXnXnXnX3 .X.XOX1XdXiX$X$X$X&XiXkXsX,X>X|..X.X.X=XR.s.p.c.c.c.c.c.c.c.c.c.c.c.c.7X1 nXnXnXnXnXnXnXnXnXnXnXnXnXnXnX",
"nXnXnXnXnXnXnXnXnXnXnX6 =X.X=XOX;X>X^.m.m.).,X,X-X.X.X.X.X.X.X.X=Xf.t.v.c.c.c.c.c.c.c.c.c.7XY r & nXnXnXnXnXnXnXnXnXnXnXnXnXnXnX",
"nXnXnXnXnXnXnXnXnXnXnXnXC  X~..X.X.XXXE.E. X.X.X.X.X.X.X.X.X.X.X=X~.' ` 7Xc.c.c.c.c.c.c.7Xc nXnXnXnXnXnXnXnXnXnXnXnXnXnXnXnXnXnX",
"nXnXnXnXnXnXnXnXnXnXnXnX6 E.x.~.OX.XOXOX.X.X.X.X.X.X.X.X.X.X.X=X`.n.l v c.l.c.c.c.c.l.c.l nXnXnXnXnXnXnXnXnXnXnXnXnXnXnXnXnXnXnX",
"nXnXnXnXnXnXnXnXnXnXnXnX6 W.n.F.OX.X.X.X.X.X.X.XXXXXXX.X.X.X.X=X_.x.l X + ! l.j.j.l.l + nXnXnXnXnXnXnXnXnXnXnXnXnXnXnXnXnXnXnXnX",
"nXnXnXnXnXnXnXnXnXnXnXnXnX0 }.XX.X.X.X.XOX.X.X.X^.c._.=X.X.X=X=X~.c nXnXnX. . . . . nXnXnXnXnXnXnXnXnXnXnXnXnXnXnXnXnXnXnXnXnXnX",
"nXnXnXnXnXnXnXnXnXnXnXnX4 Z 0 Y.=X=X.X.X.X.X+X`.x.x.~.=X=X=X}.P.N nXnXnXnXnXnXnXnXnXnXnXnXnXnXnXnXnXnXnXnXnXnXnXnXnXnXnXnXnXnXnX",
"nXnXnXnXnXnXnXnXnXnXnX6 G C 8 6 :.T.;X=X=X=X=X XF.F.`.}.:.K.A   nXnXnXnXnXnXnXnXnXnXnXnXnXnXnXnXnXnXnXnXnXnXnXnXnXnXnXnXnXnXnXnX",
"nXnXnXnXnXnXnXnXnXnXo F C 6 nXnX  9 =.L L L L L =.L =.C     nXnXnXnXnXnXnXnXnXnXnXnXnXnXnXnXnXnXnXnXnXnXnXnXnXnXnXnXnXnXnXnXnXnX",
"nXnXnXnXnXnXnXnXnX% N H V   nXnXnXnXnXnXnXnXnXnXnXnXnXnXnXnXnXnXnXnXnXnXnXnXnXnXnXnXnXnXnXnXnXnXnXnXnXnXnXnXnXnXnXnXnXnXnXnXnXnX",
"nXnXnXnXnXnXnXnXnX% ,.J , nXnXnXnXnXnXnXnXnXnXnXnXnXnXnXnXnXnXnXnXnXnXnXnXnXnXnXnXnXnXnXnXnXnXnXnXnXnXnXnXnXnXnXnXnXnXnXnXnXnXnX",
"nXnXnXnXnXnXnXnXnX# ,.=.  nXnXnXnXnXnXnXnXnXnXnXnXnXnXnXnXnXnXnXnXnXnXnXnXnXnXnXnXnXnXnXnXnXnXnXnXnXnXnXnXnXnXnXnXnXnXnXnXnXnXnX",
"nXnXnXnXnXnXnXnXnXo J <.=.C nXnXnXnXnXnXnXnXnXnXnXnXnXnXnXnXnXnXnXnXnXnXnXnXnXnXnXnXnXnXnXnXnXnXnXnXnXnXnXnXnXnXnXnXnXnXnXnXnXnX",
"nXnXnXnXnXnXnXnXnXnX4 ,.<.H nXnX,.P.P.L.nXnXnXnXnXnXnXnXnXnXnXnXnXnXnXnXnXnXnXnXnXnXnXnXnXnXnXnXnXnXnXnXnXnXnXnXnXnXnXnXnXnXnXnX",
"nXnXnXnXnXnXnXnXnXnXX C L.<.H 9.1XfXdX-XL.P.nXnXnXnXnXnXnXnXnXnXnXnXnXnXnXnXnXnXnXnXnXnXnXnXnXnXnXnXnXnXnXnXnXnXnXnXnXnXnXnXnXnX",
"nXnXnXnXnXnXnXnXnXnXnX$ =.-.:.,XgXjXgX3X,X-XP.I nXnXnXnXnXnXnXnXnXnXnXnXnXnXnXnXnXnXnXnXnXnXnXnXnXnXnXnXnXnXnXnXnXnXnXnXnXnXnXnX",
"nXnXnXnXnXnXnXnXnXnXnXnX% L >XjXjXjXdX<X:X<X<X X;.nXnXnXnXnXnXnXnXnXnXnXnXnXnXnXnXnXnXnXnXnXnXnXnXnXnXnXnXnXnXnXnXnXnXnXnXnXnXnX",
"nXnXnXnXnXnXnXnXnXnXnXnXnXI W.sXkXgX3X<X.X.X=X:X X:.L 0 nXnXnXnXnXnXnXnXnXnXnXnXnXnXnXnXnXnXnXnXnXnXnXnXnXnXnXnXnXnXnXnXnXnXnXnX",
"nXnXnXnXnXnXnXnXnXnXnXnXnXnX=.<X3X3X,X,X;X-X.X.X.X.X=XY.H ;.P nXnXnXnXnXnXnXnXnXnXnXnXnXnXnXnXnXnXnXnXnXnXnXnXnXnXnXnXnXnXnXnXnX",
"nXnXnXnXnXnXnXnXnXnXnXnXnXnXP T.;X-X;X-X:X:X.X.X.X.X.X=X;XP.0 nXnXnXnXnXnXnXnXnXnXnXnXnXnXnXnXnXnXnXnXnXnXnXnXnXnXnXnXnXnXnXnXnX",
"nXnXnXnXnXnXnXnXnXnXnXnXnXnXnXnXH =X.X.X.X-X.X.X.X.X=XK.0 9 nXnXnXnXnXnXnXnXnXnXnXnXnXnXnXnXnXnXnXnXnXnXnXnXnXnXnXnXnXnXnXnXnXnX",
"nXnXnXnXnXnXnXnXnXnXnXnXnXnXnXnXnX6 C .X|.|.|.|..XK.3 4 nXnXnXnXnXnXnXnXnXnXnXnXnXnXnXnXnXnXnXnXnXnXnXnXnXnXnXnXnXnXnXnXnXnXnXnX",
"nXnXnXnXnXnXnXnXnXnXnXnXnXnXnXnXnXnXnX$ : # $ $ # # nXnXnXnXnXnXnXnXnXnXnXnXnXnXnXnXnXnXnXnXnXnXnXnXnXnXnXnXnXnXnXnXnXnXnXnXnXnX"
};
