/* XPM */
static char *result[] = {
/* columns rows colors chars-per-pixel */
"16 16 119 2 ",
"   c #1C170E",
".  c #172A1D",
"X  c #2B2213",
"o  c #323A22",
"O  c #323B23",
"+  c #422915",
"@  c #473819",
"#  c #46391A",
"$  c #41381F",
"%  c #6C3C21",
"&  c #753C23",
"*  c #2B412A",
"=  c #3D5834",
"-  c #5C431B",
";  c #58431C",
":  c #5B461D",
">  c #60481D",
",  c #794A30",
"<  c #67703C",
"1  c #70763F",
"2  c #7C7B3F",
"3  c #2C634A",
"4  c #326B48",
"5  c #2E6C51",
"6  c #2F7351",
"7  c #327053",
"8  c #3F7251",
"9  c #337A57",
"0  c #347759",
"q  c #357D59",
"w  c #406D4C",
"e  c #516F41",
"r  c #5B7647",
"t  c #5C7846",
"y  c #477752",
"u  c #843915",
"i  c #913E16",
"p  c #87481F",
"a  c #824E24",
"s  c #A55A33",
"d  c #846B32",
"f  c #92643A",
"g  c #857332",
"h  c #8A7D39",
"j  c #B36836",
"k  c #AF723F",
"l  c #916E50",
"z  c #B36543",
"x  c #B0795C",
"c  c #3D8866",
"v  c #688C52",
"b  c #67995F",
"n  c #549663",
"m  c #519967",
"M  c #519A6E",
"N  c #5C9B6A",
"B  c #439871",
"V  c #629E65",
"C  c #699A67",
"Z  c #4DA376",
"A  c #47A178",
"S  c #4CA479",
"D  c #58A672",
"F  c #57A977",
"G  c #5BAD7A",
"H  c #6AA86E",
"J  c #6AAA6E",
"K  c #70A064",
"L  c #72AD6D",
"P  c #6BAF73",
"I  c #6DAE70",
"U  c #6EAF71",
"Y  c #67B075",
"T  c #6EB374",
"R  c #6BB57A",
"E  c #6DB77C",
"W  c #73B375",
"Q  c #70B476",
"!  c #7CBC79",
"~  c #7EBD79",
"^  c #7FBD79",
"/  c #7DBD7A",
"(  c #7CBD7B",
")  c #A78E3E",
"_  c #849852",
"`  c #AC9342",
"'  c #AE9746",
"]  c #AC974F",
"[  c #BBA147",
"{  c #BBAA53",
"}  c #B9B459",
"|  c #85A163",
" . c #81BC77",
".. c #A9BF6C",
"X. c #C29354",
"o. c #C8AE4E",
"O. c #C4B45A",
"+. c #D0B651",
"@. c #D0B954",
"#. c #D2BB54",
"$. c #DCBE59",
"%. c #C7B363",
"&. c #82C17C",
"*. c #8BC57B",
"=. c #BECA73",
"-. c #DDC464",
";. c #D3C069",
":. c #C4C375",
">. c #C0CB72",
",. c #DDD270",
"<. c #E5CD67",
"1. c #EBD876",
"2. c #CAD683",
"3. c #E2E68E",
"4. c #E1E790",
"5. c #E3E991",
"6. c #F6ED91",
"7. c #FBF194",
"8. c None",
/* pixels */
"8.8.8.8.m Q I < t 4 8.8.8.8.8.8.",
"8.8.8.8.9 P  .K ^ F q 8.8.8.8.8.",
"8.8.8.8.8.H ~ W N y O o 8.8.8.8.",
"8.8.8.8.8.a * . X i 8.: 8.8.8.8.",
"8.8.8.8.j &   $ + u 8.> 8.8.8.8.",
"8.8.T L f z % , s p 8.- 8.8.8.8.",
"8.8.! R 8 l k x X.g = e 8.8.8.8.",
"8.n D Z | ;.-.%.{ v U / Y 6 8.8.",
"8.3 B C 2.7.6.,._ J *.&.M 8.8.8.",
"8.8.w :.5.4.3...V E ( G 0 8.8.8.",
"8.8.8.O.>.=.<.#.b A S c 8.8.8.8.",
"8.8.8.2 +.@.} o.r 5 7 8.8.8.8.8.",
"8.8.@ # 8.h 1 8.8.8.8.8.8.8.8.8.",
"8.8.; d 8.8.8.8.8.8.8.8.8.8.8.8.",
"8.8.8.] 1.$.` 8.8.8.8.8.8.8.8.8.",
"8.8.8.8.' [ ) 8.8.8.8.8.8.8.8.8."
};
