/* XPM */
static char *result[] = {
/* columns rows colors chars-per-pixel */
"16 16 126 2 ",
"   c #1B160E",
".  c #172B1E",
"X  c #222114",
"o  c #3D2A16",
"O  c #392F17",
"+  c #332E18",
"@  c #353B22",
"#  c #443519",
"$  c #40361D",
"%  c #483718",
"&  c #45381A",
"*  c #6F3E23",
"=  c #184630",
"-  c #314028",
";  c #31442B",
":  c #56421B",
">  c #5A441B",
",  c #58441D",
"<  c #5B451C",
"1  c #5A451D",
"2  c #75482D",
"3  c #66733F",
"4  c #74753D",
"5  c #296F4D",
"6  c #376D48",
"7  c #3A6E4A",
"8  c #317654",
"9  c #357759",
"0  c #377F5B",
"q  c #4B7D57",
"w  c #617844",
"e  c #707740",
"r  c #823814",
"t  c #873B15",
"y  c #834326",
"u  c #894E22",
"i  c #954F23",
"p  c #9F5835",
"a  c #80672F",
"s  c #8D7D38",
"d  c #997B34",
"f  c #AE723F",
"g  c #C35929",
"h  c #916F52",
"j  c #B76844",
"k  c #AF7757",
"l  c #37815D",
"z  c #388161",
"x  c #3C8160",
"c  c #3B8967",
"v  c #468059",
"b  c #418B5D",
"n  c #6E8951",
"m  c #60995F",
"M  c #4E9665",
"N  c #489269",
"B  c #509361",
"V  c #569C6A",
"C  c #449770",
"Z  c #479E76",
"A  c #639565",
"S  c #5FA06C",
"D  c #4DA173",
"F  c #48A277",
"G  c #53A778",
"H  c #5AAA78",
"J  c #5FB07A",
"K  c #6FA064",
"L  c #64A568",
"P  c #65A46C",
"I  c #66AB72",
"U  c #69AF76",
"Y  c #6CB172",
"T  c #6FB272",
"R  c #6FB274",
"E  c #6EB275",
"W  c #6DB578",
"Q  c #6BB67C",
"!  c #71B575",
"~  c #76B675",
"^  c #75B576",
"/  c #77B876",
"(  c #7FBB76",
")  c #76B979",
"_  c #75BB7C",
"`  c #7FBD79",
"'  c #A78D3D",
"]  c #AB913F",
"[  c #9E9041",
"{  c #9E924D",
"}  c #AD9646",
"|  c #A6914B",
" . c #B39945",
".. c #98A858",
"X. c #BBA147",
"o. c #BBAE58",
"O. c #BFB353",
"+. c #B7B45A",
"@. c #84BF79",
"#. c #BFBF73",
"$. c #C0915A",
"%. c #CDB14E",
"&. c #CDB451",
"*. c #CEB95C",
"=. c #D3BA53",
"-. c #D0BD57",
";. c #DABE55",
":. c #C8B362",
">. c #D2BF69",
",. c #86C37C",
"<. c #8CC57B",
"1. c #B3C673",
"2. c #B8C873",
"3. c #DEC15B",
"4. c #DDC665",
"5. c #C5CD72",
"6. c #C2CF7F",
"7. c #E5CF69",
"8. c #E0D676",
"9. c #EAD777",
"0. c #DEE68F",
"q. c #E7E890",
"w. c #E5EA91",
"e. c #F7EE92",
"r. c #FAF094",
"t. c None",
/* pixels */
"t.t.t.t.M E T 3 w 6 t.t.t.t.t.t.",
"t.t.t.t.8 I @.K ( J l 5 t.t.t.t.",
"t.t.t.t.t.P ` ^ S q - @ t.t.t.t.",
"t.t.t.t.t.u ; . X t t., t.t.t.t.",
"t.t.t.t.g y   $ o r t.< > t.t.t.",
"t.t.t.t.t.j * 2 p i t.1 t.t.t.t.",
"t.L t.t.t.h f k $.d O # t.t.t.t.",
"W ` V t.{ >.4.:.*.' + t.t.t.t.t.",
") ! G A 6.r.e.8.-.[ 7 R ~ Y b t.",
"B D N #.w.0.q.1.O.m / <.,.U 0 = ",
"t.z v o.5.2.7.;...F Q _ H x t.t.",
"t.t.t.4 &.=.+.%.n c Z C 9 t.t.t.",
"t.t.% & t.s e t.t.t.t.t.t.t.t.t.",
"t.t.: a t.t.t.t.t.t.t.t.t.t.t.t.",
"t.t.t.| 9.3. .t.t.t.t.t.t.t.t.t.",
"t.t.t.t.} X.] t.t.t.t.t.t.t.t.t."
};
