/* XPM */
static char *result[] = {
/* columns rows colors chars-per-pixel */
"64 64 224 2 ",
"   c #020201",
".  c #0A0602",
"X  c #0C0A05",
"o  c #0B0D0B",
"O  c #040A07",
"+  c #120D06",
"@  c #170701",
"#  c #05130C",
"$  c #0B140D",
"%  c #11120B",
"&  c #1F1A0B",
"*  c #19140A",
"=  c #0B1B13",
"-  c #161815",
";  c #280700",
":  c #370600",
">  c #360D03",
",  c #24190C",
"<  c #371709",
"1  c #251411",
"2  c #0D2318",
"3  c #062214",
"4  c #12271D",
"5  c #08341E",
"6  c #2B2411",
"7  c #2D2A19",
"8  c #352C16",
"9  c #3A3118",
"0  c #143826",
"q  c #353637",
"w  c #333026",
"e  c #440E01",
"r  c #4B1606",
"t  c #7D1C03",
"y  c #493D1D",
"u  c #43381B",
"i  c #513013",
"p  c #6B3817",
"a  c #4C3F20",
"s  c #1E4231",
"d  c #0D5834",
"f  c #135B38",
"g  c #0C482B",
"h  c #224C38",
"j  c #24523D",
"k  c #315933",
"l  c #0E6139",
"z  c #12653C",
"x  c #1B6A3E",
"c  c #16673E",
"v  c #30713E",
"b  c #56451D",
"n  c #4E4523",
"m  c #534522",
"M  c #5B4C25",
"N  c #574824",
"B  c #595E34",
"V  c #555328",
"C  c #644E26",
"Z  c #645329",
"A  c #6A582B",
"S  c #745929",
"D  c #754F28",
"F  c #5A673F",
"G  c #7A632C",
"H  c #7A672D",
"J  c #786F32",
"K  c #634C1E",
"L  c #275942",
"P  c #1B6D44",
"I  c #156940",
"U  c #1E734B",
"Y  c #1D7045",
"T  c #2C654B",
"R  c #2E694E",
"E  c #22764D",
"W  c #297749",
"Q  c #316D51",
"!  c #267C53",
"~  c #2A7C53",
"^  c #367A5B",
"/  c #367758",
"(  c #306B4F",
")  c #665C40",
"_  c #64714D",
"`  c #831B02",
"'  c #891E04",
"]  c #8A2307",
"[  c #9D3615",
"{  c #993515",
"}  c #9A310C",
"|  c #A73D13",
" . c #A1350E",
".. c #AA431C",
"X. c #A7471E",
"o. c #B44E1C",
"O. c #B44B23",
"+. c #BD5620",
"@. c #BD542A",
"#. c #A84D22",
"$. c #83682C",
"%. c #9D752E",
"&. c #94702F",
"*. c #877337",
"=. c #977A35",
"-. c #856F34",
";. c #A27931",
":. c #A07730",
">. c #B07830",
",. c #C5571F",
"<. c #C45921",
"1. c #C55B2E",
"2. c #C45A22",
"3. c #C75E31",
"4. c #D36B35",
"5. c #DB753B",
"6. c #857446",
"7. c #9B695D",
"8. c #A07C73",
"9. c #9E776E",
"0. c #2C8359",
"q. c #348659",
"w. c #348C63",
"e. c #3C8C66",
"r. c #3A8664",
"t. c #3B946A",
"y. c #3A956B",
"u. c #3F9A70",
"i. c #448D56",
"p. c #54995E",
"a. c #779354",
"s. c #42916C",
"d. c #599D61",
"f. c #459D74",
"g. c #499D72",
"h. c #428B66",
"j. c #4AA176",
"k. c #47A279",
"l. c #4AA57B",
"z. c #4CA97D",
"x. c #47A177",
"c. c #52A97B",
"v. c #5BAD7B",
"b. c #57A778",
"n. c #5CA063",
"m. c #63A667",
"M. c #76AD6D",
"N. c #68AC75",
"B. c #64B27B",
"V. c #6BB47A",
"C. c #6BB57A",
"Z. c #74BB7C",
"A. c #7BBD7B",
"S. c #77B977",
"D. c #73AF6F",
"F. c #7BC07E",
"G. c #99823A",
"H. c #A7853A",
"J. c #AF8D3D",
"K. c #C08737",
"L. c #918D45",
"P. c #AE9245",
"I. c #B6B65C",
"U. c #B2A64B",
"Y. c #A2837B",
"T. c #9FB363",
"R. c #80BF7A",
"E. c #83B773",
"W. c #84B16E",
"Q. c #ADB560",
"!. c #E8844C",
"~. c #EE8B51",
"^. c #F18E53",
"/. c #F39155",
"(. c #CBAE4D",
"). c #CEB04C",
"_. c #D3B44E",
"`. c #CAB755",
"'. c #D7B750",
"]. c #D5BB54",
"[. c #DDBD52",
"{. c #D0AF4C",
"}. c #E1BE52",
"|. c #85C17A",
" X c #8CC57B",
".X c #8EC47A",
"XX c #93C87D",
"oX c #94C87C",
"OX c #B5C66D",
"+X c #DFC156",
"@X c #E3C154",
"#X c #E4C55B",
"$X c #E7C85B",
"%X c #D9C76F",
"&X c #E9CE63",
"*X c #E6CE69",
"=X c #E6CA60",
"-X c #ECD46C",
";X c #EBD774",
":X c #F0D76C",
">X c #F3E27F",
",X c #AA948D",
"<X c #AA9D96",
"1X c #A7A29A",
"2X c #B4BBBB",
"3X c #AEACAA",
"4X c #B3D585",
"5X c #CFD786",
"6X c #DAE48D",
"7X c #E4E58E",
"8X c #F3E687",
"9X c #ECEA92",
"0X c #F6EF94",
"qX c #F8EF94",
"wX c #F7F095",
"eX c #F8F095",
"rX c #EBDF85",
"tX c #DCDAD4",
"yX c #D7D3CA",
"uX c #E2E0DC",
"iX c #DEE1E1",
"pX c #EEF1F1",
"aX c #E8E7E2",
"sX c None",
/* pixels */
"sXsXsXsXsXsXsXsXsXsXsXsXsXsXsXsXsXsXsXc.c.c.c.c.c.sXsXsXsXsXsXsXsXA G M % $ sXsXsXsXsXsXsXsXsXsXsXsXsXsXsXsXsXsXsXsXsXsXsXsXsXsX",
"sXsXsXsXsXsXsXsXsXsXsXsXsXsXsXsXW W v. X X.X X X|.v.W Y sXsXsXS G ;.J V V n # # sXsXsXsXsXsXsXsXsXsXsXsXsXsXsXsXsXsXsXsXsXsXsXsX",
"sXsXsXsXsXsXsXsXsXsXsXsXsXsXE 0.Z.A.A.Z.A. XXXXX X X Xv.E sXG ;.J J E U U U U U 3 sXsXsXsXsXsXsXsXsXsXsXsXsXsXsXsXsXsXsXsXsXsXsX",
"sXsXsXsXsXsXsXsXsXsXsXsXsXz q.T T w.l.z.z.d.d.V. X X X XN.A ;.K ! ! B.B.B.l.z.z.0.! sXsXsXsXsXsXsXsXsXsXsXsXsXsXsXsXsXsXsXsXsXsX",
"sXsXsXsXsXsXsXsXsXsXsXsXsXsXsX    d j j L ~ 0.B. X X X XR.A y j C.V. X XXXC.z.l.z.l.0.0.sXsXsXsXsXsXsXsXsXsXsXsXsXsXsXsXsXsXsXsX",
"sXsXsXsXsXsXsXsXsXsXsXsXsXsXsXsXsXsX5 L L l.Z. X X X X XC.k T Z. XXX X X X Xz.l.l.l.z.l.w.z sXsXsXsXsXsXsXsXsXsXsXsXsXsXsXsXsXsX",
"sXsXsXsXsXsXsXsXsXsXsXsXsXsXsXsXsXI y.z.z.Z. X X X X X X~ m.F. X X X X X X|.l.l.k.! l.z.l.w.z z z sXsXsXsXsXsXsXsXsXsXsXsXsXsXsX",
"sXsXsXsXsXsXsXsXsXsXsXsXsXsXsXsXsX3 f.z.z. X X X X X Xv.D..X X X X X X X Xv.l.l.f.= 4 4 Y f.t.t.e.z sXsXsXsXsXsXsXsXsXsXsXsXsXsX",
"sXsXsXsXsXsXsXsXsXsXsXsXsXsXsXsXsXf f.l.z.|. X X X Xv.F.4X X X X X X X|.c.l.l.l.f.o y n $ = = = = # sXsXsXsXsXsXsXsXsXsXsXsXsXsX",
"sXsXsXsXsXsXsXsXsXsXsXsXsXsXsXsXsXsXI u.f.c.|. X X Xc. XA. X X X|.|.c.z.l.l.z.u.f sXX M N % sXsXsXsXsXsXsXsXsXsXsXsXsXsXsXsXsXsX",
"sXsXsXsXsXsXsXsXsXsXsXsXsXsXsXsXsXsXsXz c y.c. X X X X X|.|.|.A.z.z.z.z.u.r.^ d O sX. y M M * sXsXsXsXsXsXsXsXsXsXsXsXsXsXsXsXsX",
"sXsXsXsXsXsXsXsXsXsXsXsXsXsXsXsXsXsXsXsXsXk w.A. X X XA.F.F.z.z.z.y.^ Q g < < ; sXsXsX. a S M . sXsXsXsXsXsXsXsXsXsXsXsXsXsXsXsX",
"sXsXsXsXsXsXsXsXsXsXsXsXsXsXsXsXsXsXsXsXsXt B w.Z.Z.Z.y.R T R T T 5 : r i ,.<. .sXsXsXsX. $.S 6 sXsXsXsXsXsXsXsXsXsXsXsXsXsXsXsX",
"sXsXsXsXsXsXsXsXsXsXsXsXsXsXsXsXsXsXsXsX .| <.A L j f 5             e p | <.<.<.` sXsXsX. 8 %.$.. sXsXsXsXsXsXsXsXsXsXsXsXsXsXsX",
"sXsXsXsXsXsXsXsXsXsXsXsXsXsXsXsXsXsXsX` <.2.2.2.e                       : +.<.<.| @ sXsXsX. %.%.. sXsXsXsXsXsXsXsXsXsXsXsXsXsXsX",
"sXsXsXsXsXsXsXsXsXsXsXsXsXsXsXsXsXsX' o.<.2.+.r :                       . } ,.<.+.. sXsXsXsXS ;.S Z sXsXsXsXsXsXsXsXsXsXsXsXsXsX",
"sXsXsXsXsXsXsXsXsXsXsXsXsXsXsXsXsXsX' <.<.<.]               a a a y .     t <.<.+.. sXsXsXsX& %.%.& sXsXsXsXsXsXsXsXsXsXsXsXsXsX",
"sXsXsXsXsXsXsXsXsXsXsXsXsXsXsXsXsX' o.!.2.+.@         . n N Z Z Z Z n . @ o.<.+.; sXsXsXsXsX  %.%.. sXsXsXsXsXsXsXsXsXsXsXsXsXsX",
"sXsXsXsXsXsXsXsXsXsXsXsXsXsXsXsXsX' !.^.!.' . -     o N Z Z Z N N Z N . t +.<.X.. sXsXsXsXsX. %.%.. sXsXsXsXsXsXsXsXsXsXsXsXsXsX",
"sXsXsXsXsXsXsXsXsXsXsXsXsXsXsXsXsX] !.^.!.` q uXo   M Z Z Z a 7   y . @ 2.<.+.@   sXsXsXsXsX. %.%.. sXsXsXsXsXsXsXsXsXsXsXsXsXsX",
"sXsXsXsXsXsXsXsXsXsXsXsXsXsXsXsXsX] 4.~.!...,XiXo   Z Z Z Z - 3Xq   ; [ !.4....   sXsXsXsXsX. %.%.. sXsXsXsXsXsXsXsXsXsXsXsXsXsX",
"sXsXsXsXsXsXsXsXsXsXsXsXsXsXsXsXsXsX' ~.^.~.O.9.>   9 9 9 w o 2X,X> ..~./.5.t     sXsXsXsXsXu %.;.. sXsXsXsXsXsXsXsXsXsXsXsXsXsX",
"sXsXsXsXsXsXsXsXsXsXsXsXsXsXsXsXsXsX' @.~./.~.O.O.e : : : : : 7.O.@.~.^.5.| #.. sXsXsXsXsX. :.;.b . sXsXsXsXsXsXsXsXsXsXsXsXsXsX",
"sXsXsXsXsXsXz l.B.c sXsXsXsXsXsXsXsXsXsXO.O.~./.^.3.1.1.1.1.1.1.^./.4.O.} >.+XX sXsXsXsX  9 :.G   sXsXsXsXsXsXsXsXsXsXsXsXsXsXsX",
"sXsXsXsXsXsXm.S..XsXsXsXsXsXsXsXsXsXsXsX> 8.X.....^././././.^.4...| } >.K.'.b sXsXsXsX  9 A S , sXsXsXsXsXsXsXsXsXsXsXsXsXsXsXsX",
"sXsXsXsXsXx  X|.q.sXsXsXsXsXsXsXsXsXsXsXo 2X,X1 p { [ [ [ | { { ,X,XD [.}.'.. sXsXsX. y Z M & sXsXsXsXsXsXsXsXsXsXsXsXsXsXsXsXsX",
"sXsXsXz c x |. XM.O sXsXsXsXsXsXsXsXsXsXX ) iX) 1XD C D <X<X1 <XpX2X6.}.[._.X sXsXX n Z M % sXsXsXsXsXsXsXsXsXsXsXsXsXsXsXsXsXsX",
"sXsXsXP g.A. X XE.$ sXsXsXsXsXsXsXsXsXsXZ 7 uXtX_ (.'.(.6.tXq pXaXa '.}.[.'., sX+ m Z N % sXsXsXsXsXsXsXsXsXsXsXsXsXsXsXsXsXsXsX",
"sXsXsX|. X.X.X X|.W 2 sXsXsXsXsXsXsXsXA '.(.-.*.[.}.}.[.{.6.yXtXP._.[.[.[.[.(.X M Z n . sXsXsXsXsXsXsXsXsXsXsXsXsXsXsXsXsXsXsXsX",
"sXsXz.|. XA. X X.XS.x.E sXsXsXsXsXsXZ -.'.[.[.[.[.}.[.}.}.[.*.*.[.[.[.[.[.[._.% M y . sXsXsXsXsXsXsXsXsXsXsXsXsXsXsXsXsXsXsXsXsX",
"sXsXB. X Xc.|. X Xz.j.f.2 3 sXsXsXsX*.}.#X*X*X*X*X*X#X}.[.[.}.}.}.}.[.[.[.[._.+ 8   sXsXsXsXsXsXsXsXsXsXsXsXsXsXsXsXsXsXsXsXsXsX",
"sXz. X XV.V. X X|.z.z.x.0.0.k.j 7 P.;X8X>X0XqXqXqXqX8X*X#X[.[.'.T.T.[.[.[.[._.X   sXsXsXsXsXsXi.z z i.i.sXsXsXsXsXsXsXsXsXsXsXsX",
"sXc.|.|.C.C.|..X1Xz.l.l.z.z.z._ W.OXwXwXwX0XqX0X0XqXwXeX8X;X[.].j.z.].[.[.[._.X sX    L C.p.|..Xp.p.XX Xp.p.p.z d l sXsXsXsXsXsX",
"sXz. X.X.Xb.|..Xv.l.l.l.k.k.j L.E. X4X9XwXqX0XwXqX0X0XwXwX0X&X[.Q.Q.[.}.[.[._.X     T l.i..XXX.XXXXX X XXXXX Xn.n.w.c sXsXsXsXsX",
"sXz.|..X|.0.|..Xz.k.l.l.k.F a E..X.X6X0X0XqXqX0X0XeX0X0X0X0X8X#X}.}.}.[.[.[._.$ / ^ ! j.m.v.B.v.v.v.B.|.v.v.v. X XF.w.O   sXsXsX",
"sXF..X.X|.M.0.F.z.z.l.l.f.7 5X7XoXoX0X0XqX0XqXqX0X0X0X0X0X0X9X[.[.[.[.[.[.'.(.$ Y E D.F.XXF.A.F.F.|.F.|.|.F.z.v.c.W j.r.q.$ sXsX",
"sXW |..X|.z.x j.k.k.z.x.B 5XqXqX0X9XwXqXeXeXeXqX0X0XqX0X9XoXoX].[.[.[.[.'.v W c f.j. X.X X XXX X.XXX X X X X|.F.k.P P Y U r.#   ",
"sXc A.F.z.l.x.E k.z.k.x.$ 7XqXqXqXqXqXwXeXeXwXwXeX0XwX7XXX X.Xv.].[.[.].U.x g.j.|. X X X X X X X X X X XXX X Xc.l.k.k.r.f.f g   ",
"sXz ^ l.l.l.l.l.k.y.k.q.a rX0XqXwXwXqX7X6X6X6X0X0X0X0X X|.Z.A.D.].[.[.U.W E x.z. X X X X X X X X X X XXXA.F.S.z.r.f./ = Q O   sX",
"sXsX. Q l.k.l.k.k.0.u.+ '.&X0XqX0X9X6X.X X X X0X0XwXwX4XOXW.M.[.[.[.].x k.l.j.c. X X X X X X X X XXX|.S.j.l.k.Q # s.O sX  sXsXsX",
"sXsXsXO x.l.l.l.l.l.f.% '.[.;XqXwX0X.X.XXX X.X9XwXwXwX;X+X}.}.}.[.}.'.x k.l.l.z. X.X.X X X X X X XZ. Xj.l.l.f.O sXsXsXsXsXsXsXsX",
"sXsXsXsXh l.l.l.l.l.f.% '.[.[.-X>X9X.X.X XXX5XwXwX;X-X[.[.[.[.[.+X'.a.w.k.l.l.l.B.C.XX X X X X XB.z.B.l.l.z.sXsXsXsXsXsXsXsXsXsX",
"sXsXsXsXsX0 k.l.l.z.g.% '.[.[.[.#X*XOXN.B.B.*X*X=X[.[.[.[.[.[.[.+X+XG.0.k.l.l.l.z.k.B.|.|.C.4Xv.l.l.l.l.f.s sXsXsXsXsXsXsXsXsXsX",
"sXsXsXsXsX  0 f.g.0 f./ u `.M.[.[.[.}.I.I.Q.+X+X[.[.[.+X[.[.}.[.'.+XD.c k.l.l.l.k.l.l.v.z.k.k.l.l.l.l.l.f.O sXsXsXsXsXsXsXsXsXsX",
"sXsXsXsXsXsXsXsX2 sX2 2 X ).l.N.[.[.[.}.[.[.[.[.+X[.[.[.[.[.[.[.+Xm.l.t.l.l.l.l.z.k.l.l.k.l.l.l.l.l.f.4 sXsXsXsXsXsXsXsXsXsXsXsX",
"sXsXsXsXsXsXsXsXsXsXsXsXX U.b.b.].[.}.[.[.[.+X[.+X`.].[.+X[.[.[.+Xl.s.4 k.l.l.l.l.l.l.l.l.l.l.l.l.l.s.O sXsXsXsXsXsXsXsXsXsXsXsX",
"sXsXsXsXsXsXsXsXsXsXsXsXsX, P.+X[.[.[.[.[.[.[.[.`.b.b.].[.[.+X+X].e.# sXe.s.l.l.l.l.l.l.l.l.l.e.e.r.o sXsXsXsXsXsXsXsXsXsXsXsXsX",
"sXsXsXsXsXsXsXsXsXsXsXsX& M 6 H.+X@X[.}.[.[.[.].b.l.j.].@X@X+XJ.G.+ sXsX  O / l.z.z.z.z.l.z.^ #     sXsXsXsXsXsXsXsXsXsXsXsXsXsX",
"sXsXsXsXsXsXsXsXsXsXsX, Z Z 9 + *.G.}.@X@X@X@X@XE.W.W.+XG.=.*.X   sXsXsXsX    R Q Q Q Q f.Q O sXsXsXsXsXsXsXsXsXsXsXsXsXsXsXsXsX",
"sXsXsXsXsXsXsXsXsXsX  C Z 9   sX  . H H $.$.$.J $.J H H .     sXsXsXsXsXsXsXsX          sX  sXsXsXsXsXsXsXsXsXsXsXsXsXsXsXsXsXsX",
"sXsXsXsXsXsXsXsXsXX a C Z   sXsXsXsXsXsXsXsXsXsXsXsXsXsXsXsXsXsXsXsXsXsXsXsXsXsXsXsXsXsXsXsXsXsXsXsXsXsXsXsXsXsXsXsXsXsXsXsXsXsX",
"sXsXsXsXsXsXsXsXsXX ;.$.6 sXsXsXsXsXsXsXsXsXsXsXsXsXsXsXsXsXsXsXsXsXsXsXsXsXsXsXsXsXsXsXsXsXsXsXsXsXsXsXsXsXsXsXsXsXsXsXsXsXsXsX",
"sXsXsXsXsXsXsXsXsX. %.%.  sXsXsXsXsXsXsXsXsXsXsXsXsXsXsXsXsXsXsXsXsXsXsXsXsXsXsXsXsXsXsXsXsXsXsXsXsXsXsXsXsXsXsXsXsXsXsXsXsXsXsX",
"sXsXsXsXsXsXsXsXsX. Z :.$.Z sXsXsXsXsXsXsXsXsXsXsXsXsXsXsXsXsXsXsXsXsXsXsXsXsXsXsXsXsXsXsXsXsXsXsXsXsXsXsXsXsXsXsXsXsXsXsXsXsXsX",
"sXsXsXsXsXsXsXsXsXsX+ %.;.A sXsXH.J.H.H.sXsXsXsXsXsXsXsXsXsXsXsXsXsXsXsXsXsXsXsXsXsXsXsXsXsXsXsXsXsXsXsXsXsXsXsXsXsXsXsXsXsXsXsX",
"sXsXsXsXsXsXsXsXsXsX. N ;.:.A H *X8X8X-XJ.J.sXsXsXsXsXsXsXsXsXsXsXsXsXsXsXsXsXsXsXsXsXsXsXsXsXsXsXsXsXsXsXsXsXsXsXsXsXsXsXsXsXsX",
"sXsXsXsXsXsXsXsXsXsXsX+ S %.-.+X8XeXwX8X:X-XJ.*.sXsXsXsXsXsXsXsXsXsXsXsXsXsXsXsXsXsXsXsXsXsXsXsXsXsXsXsXsXsXsXsXsXsXsXsXsXsXsXsX",
"sXsXsXsXsXsXsXsXsXsXsXsX. Z ].0XqXqXwX:X&X&X&X-XL.sXsXsXsXsXsXsXsXsXsXsXsXsXsXsXsXsXsXsXsXsXsXsXsXsXsXsXsXsXsXsXsXsXsXsXsXsXsXsX",
"sXsXsXsXsXsXsXsXsXsXsXsXsXA P.8XwXqX8X:X[.+X[.&X$X=.*.M sXsXsXsXsXsXsXsXsXsXsXsXsXsXsXsXsXsXsXsXsXsXsXsXsXsXsXsXsXsXsXsXsXsXsXsX",
"sXsXsXsXsXsXsXsXsXsXsXsXsXsXZ #X>X>X:X-X$X$X[.[.}.@X+X+XG G G.+ sXsXsXsXsXsXsXsXsXsXsXsXsXsXsXsXsXsXsXsXsXsXsXsXsXsXsXsXsXsXsXsX",
"sXsXsXsXsXsXsXsXsXsXsXsXsXsXsX=.@X#X$X#X$X-X+X[.[.[.[.}.$X}.C sXsXsXsXsXsXsXsXsXsXsXsXsXsXsXsXsXsXsXsXsXsXsXsXsXsXsXsXsXsXsXsXsX",
"sXsXsXsXsXsXsXsXsXsXsXsXsXsXsXsXn '.[.[.[.#X[.[.[.[.[.'.y u sXsXsXsXsXsXsXsXsXsXsXsXsXsXsXsXsXsXsXsXsXsXsXsXsXsXsXsXsXsXsXsXsXsX",
"sXsXsXsXsXsXsXsXsXsXsXsXsXsXsXsXsX6 9 ).'.'.'.'.'.).9 6 sXsXsXsXsXsXsXsXsXsXsXsXsXsXsXsXsXsXsXsXsXsXsXsXsXsXsXsXsXsXsXsXsXsXsXsX",
"sXsXsXsXsXsXsXsXsXsXsXsXsXsXsXsXsXsXsX& & & & & & , sXsXsXsXsXsXsXsXsXsXsXsXsXsXsXsXsXsXsXsXsXsXsXsXsXsXsXsXsXsXsXsXsXsXsXsXsXsX"
};
