/* XPM */
static char *result[] = {
/* columns rows colors chars-per-pixel */
"16 16 139 2 ",
"   c #0D0C06",
".  c #33210E",
"X  c #352D16",
"o  c #392F17",
"O  c #253D27",
"+  c #3D3621",
"@  c #3F3F23",
"#  c #45361A",
"$  c #6D3115",
"%  c #71391E",
"&  c #6B3F27",
"*  c #16462F",
"=  c #2F4429",
"-  c #36492C",
";  c #264B35",
":  c #5B441B",
">  c #5C461E",
",  c #5F481E",
"<  c #69411F",
"1  c #534C35",
"2  c #6E5423",
"3  c #605428",
"4  c #6E5928",
"5  c #7C5F31",
"6  c #6F733D",
"7  c #3C6C41",
"8  c #3B6F4B",
"9  c #3C6F4D",
"0  c #306B50",
"q  c #316D51",
"w  c #2F7351",
"e  c #387C52",
"r  c #337E5B",
"t  c #357C58",
"y  c #456A45",
"u  c #45714B",
"i  c #4D7950",
"p  c #7E7A40",
"a  c #883913",
"s  c #813B19",
"d  c #8A4820",
"f  c #814C33",
"g  c #BD5223",
"h  c #8A6F2E",
"j  c #8F7E39",
"k  c #937D36",
"l  c #BD663B",
"z  c #BE673F",
"x  c #CD6435",
"c  c #C1753F",
"v  c #8E5B45",
"b  c #9C6F50",
"n  c #BA724F",
"m  c #36825F",
"M  c #3A8463",
"N  c #638951",
"B  c #6C8C55",
"V  c #789653",
"C  c #408461",
"Z  c #428E67",
"A  c #4C8F65",
"S  c #41926E",
"D  c #45986E",
"F  c #5C9C62",
"G  c #50976B",
"H  c #549D6B",
"J  c #479871",
"K  c #479E73",
"L  c #55A16F",
"P  c #48A179",
"I  c #54A371",
"U  c #5CAC78",
"Y  c #5DAD79",
"T  c #5CAE7C",
"R  c #6BA065",
"E  c #6BA468",
"W  c #68AB71",
"Q  c #69AD73",
"!  c #68AF73",
"~  c #6AB072",
"^  c #6CB173",
"/  c #6EB072",
"(  c #6FB274",
")  c #61B17C",
"_  c #6DB378",
"`  c #6DB57A",
"'  c #6DB77B",
"]  c #70B372",
"[  c #74B170",
"{  c #76B775",
"}  c #76B878",
"|  c #72B97C",
" . c #7DBE7C",
".. c #A08B3D",
"X. c #8B914C",
"o. c #BF8A4B",
"O. c #9EAC5E",
"+. c #A3A955",
"@. c #AFAD53",
"#. c #92AA6D",
"$. c #82BC77",
"%. c #ABBE6A",
"&. c #C6A849",
"*. c #CFBB56",
"=. c #CFBC57",
"-. c #C8B459",
";. c #CBB45E",
":. c #CABB59",
">. c #D5BA52",
",. c #D3BC56",
"<. c #D5BC55",
"1. c #DEBE53",
"2. c #D8BC54",
"3. c #D6BA58",
"4. c #D8BA58",
"5. c #C3AB60",
"6. c #84C17B",
"7. c #82C17C",
"8. c #83C37D",
"9. c #86C57D",
"0. c #88C37A",
"q. c #8CC57B",
"w. c #89C47C",
"e. c #B8C476",
"r. c #BBCB75",
"t. c #B8CB77",
"y. c #D8C967",
"u. c #D0C877",
"i. c #D4D377",
"p. c #E6CE68",
"a. c #D6E38D",
"s. c #DCE38B",
"d. c #DCE58E",
"f. c #F5E788",
"g. c #F8ED8F",
"h. c #E1E890",
"j. c #F2EE94",
"k. c #F9F095",
"l. c None",
/* pixels */
"l.l.l.l.l.l.l.l.4 X l.l.l.l.l.l.",
"l.l.l.l.H ( [ 6 N i - l.l.l.l.l.",
"l.l.l.l.r Q $.R 6.Y w l.l.l.l.l.",
"l.l.l.l.l.W 8.9.' Z O = l.l.l.l.",
"l.l.l.l.l.5 u 9 ; < l.> l.l.l.l.",
"l.l.l.l.g $   o . a l.2 l.l.l.l.",
"l.l.l.l.x v + 1 & s l.: l.l.l.l.",
"l.l.F l.l.z % f l d l., l.l.l.l.",
"l.] E l.l.b c n o.h l.# l.l.l.l.",
"l. .` m p ;.4.5.3.k @ 7 l.l.l.l.",
"! { U G e.g.f.y.:.j 8 ^ } ~ e l.",
"l.L D #.d.k.j.i.>.V / 0.w._ t * ",
"l.M A u.h.a.s.%.@.I 7.q.| C l.l.",
"l.l.y -.r.t.p.1.+.K T ) J l.l.l.",
"l.l.l.X.,.<.*.2.B M P S 0 l.l.l.",
"l.l.l.3 &.=.O...l.l.q l.l.l.l.l."
};
