/* XPM */
static char *result[] = {
/* columns rows colors chars-per-pixel */
"16 16 135 2 ",
"   c #211710",
".  c #231F10",
"X  c #0E2F1F",
"o  c #322311",
"O  c #483619",
"+  c #453A1C",
"@  c #62280E",
"#  c #205538",
"$  c #285F3F",
"%  c #5D441B",
"&  c #644C1F",
"*  c #4B4223",
"=  c #4E4622",
"-  c #504A23",
";  c #51542C",
":  c #514435",
">  c #644625",
",  c #644D21",
"<  c #6F5827",
"1  c #614335",
"2  c #6F6B34",
"3  c #7C6C3C",
"4  c #75763D",
"5  c #2B5940",
"6  c #2B6346",
"7  c #2E6F4E",
"8  c #386B47",
"9  c #2E6C52",
"0  c #357C59",
"q  c #3B7C5B",
"w  c #477750",
"e  c #457F58",
"r  c #853712",
"t  c #81491F",
"y  c #834B30",
"u  c #955333",
"i  c #A34B22",
"p  c #AB4F24",
"a  c #AD5A30",
"s  c #AD5A35",
"d  c #AF5B34",
"f  c #8C7834",
"g  c #8C7835",
"h  c #B86630",
"j  c #CB6F43",
"k  c #398156",
"l  c #3D8059",
"z  c #3A8261",
"x  c #3C8664",
"c  c #3D8865",
"v  c #458E5F",
"b  c #4F905B",
"n  c #63804D",
"m  c #6F8D54",
"M  c #618F59",
"N  c #608D5A",
"B  c #679157",
"V  c #6B9D5F",
"C  c #438F68",
"Z  c #4F966B",
"A  c #539165",
"S  c #559866",
"D  c #5B9F6A",
"F  c #619D65",
"G  c #6B9D62",
"H  c #58A06E",
"J  c #4DA273",
"K  c #4CA076",
"L  c #46A179",
"P  c #52A97B",
"I  c #55AB7B",
"U  c #5CAE7B",
"Y  c #60A366",
"T  c #69A165",
"R  c #62A86C",
"E  c #6FB06F",
"W  c #67AE76",
"Q  c #60AD79",
"!  c #65B076",
"~  c #6AB277",
"^  c #6DB477",
"/  c #71B576",
"(  c #71B677",
")  c #78B875",
"_  c #75B878",
"`  c #73BD7E",
"'  c #7DBC78",
"]  c #7CBC79",
"[  c #7DBD79",
"{  c #A0883B",
"}  c #A28A3D",
"|  c #AD923E",
" . c #818848",
".. c #958E45",
"X. c #A3934D",
"o. c #B39F50",
"O. c #BBA046",
"+. c #A7AC57",
"@. c #B3A352",
"#. c #92A467",
"$. c #96B671",
"%. c #C0944D",
"&. c #CCA849",
"*. c #D3A34F",
"=. c #C7AE51",
"-. c #CDA959",
";. c #C4B556",
":. c #C8B956",
">. c #CABA58",
",. c #D4B751",
"<. c #D5B754",
"1. c #D2BD57",
"2. c #D0BD58",
"3. c #CFBD69",
"4. c #80C07B",
"5. c #84C17B",
"6. c #85C27C",
"7. c #84C37C",
"8. c #87C47D",
"9. c #88C47C",
"0. c #9CC679",
"q. c #B1C370",
"w. c #DBCC6A",
"e. c #D1D77E",
"r. c #DEDA7C",
"t. c #E0D06D",
"y. c #EBD470",
"u. c #E4E78F",
"i. c #F1E78A",
"p. c #F5E989",
"a. c #E0E790",
"s. c #E5E991",
"d. c #F0ED93",
"f. c #F7EE90",
"g. c None",
/* pixels */
"g.g.g.v ~ ( g.g.; g.g.g.g.g.g.g.",
"g.g.g.7 H [ G m F l $ g.g.g.g.g.",
"g.g.g.g.! 8.' 7.` C 6 # g.g.g.g.",
"g.g.g.g.3 N w e 5 > @ = g.g.g.g.",
"g.g.g.g.p   . * o r g.& g.g.g.g.",
"g.Y b g.j 1 O : y i g.% g.g.g.g.",
"^ ] D g.u d a s h t g.- g.g.g.g.",
"_ / I A X.-.*.%.&.2 8 T E R k g.",
"S J Z $.i.f.p.w.+.M ) 9.6.W 0 X ",
"g.c #.u.s.d.a.q.V U 5.4.Q q g.g.",
"g.g.@.r.0.e.t.:.B L P K x g.g.g.",
"g.g.4 ;.1.2.>.,.n 9 z g.g.g.g.g.",
"g.g.+ g | .. .f g.g.g.g.g.g.g.g.",
"g.g., g.g.g.g.g.g.g.g.g.g.g.g.g.",
"g.g.< 3.y.<.} g.g.g.g.g.g.g.g.g.",
"g.g.g.o.=.O.{ g.g.g.g.g.g.g.g.g."
};
