/* XPM */
static char *result[] = {
/* columns rows colors chars-per-pixel */
"16 16 142 2 ",
"   c #1E2E1F",
".  c #29211F",
"X  c #2D351F",
"o  c #3C3116",
"O  c #273B27",
"+  c #491F0B",
"@  c #5A3A17",
"#  c #7B3514",
"$  c #4E3725",
"%  c #374C2E",
"&  c #3E4A2C",
"*  c #304F31",
"=  c #5B431A",
"-  c #58431D",
";  c #494423",
":  c #4B422D",
">  c #40492A",
",  c #575125",
"<  c #565226",
"1  c #6B4826",
"2  c #6A5122",
"3  c #716B36",
"4  c #79713F",
"5  c #2A694B",
"6  c #2F684E",
"7  c #2C6F4C",
"8  c #3F6A45",
"9  c #2D7E59",
"0  c #347853",
"q  c #3B7954",
"w  c #377C5D",
"e  c #377D5D",
"r  c #506643",
"t  c #716641",
"y  c #677D47",
"u  c #A94919",
"i  c #854524",
"p  c #934620",
"a  c #984E22",
"s  c #924A2C",
"d  c #8D4E32",
"f  c #B05122",
"g  c #B85A2B",
"h  c #AE5933",
"j  c #897533",
"k  c #897637",
"l  c #BE6737",
"z  c #B3623A",
"x  c #B56742",
"c  c #C07D46",
"v  c #398060",
"b  c #3C8A67",
"n  c #4F8151",
"m  c #49875A",
"M  c #618F59",
"N  c #718F59",
"B  c #68935A",
"V  c #489361",
"C  c #4F9461",
"Z  c #45936A",
"A  c #45966E",
"S  c #509161",
"D  c #5B9661",
"F  c #549F6D",
"G  c #449E75",
"H  c #4A9F75",
"J  c #619365",
"K  c #5AA06B",
"L  c #5DA66B",
"P  c #4FA374",
"I  c #4EA376",
"U  c #4CA67B",
"Y  c #59A170",
"T  c #5BA875",
"R  c #54AA7C",
"E  c #5FB07B",
"W  c #6DA06A",
"Q  c #63A86A",
"!  c #6EAD6E",
"~  c #70A769",
"^  c #60A872",
"/  c #69B177",
"(  c #6EB578",
")  c #6EB67A",
"_  c #69B57C",
"`  c #70B173",
"'  c #75B374",
"]  c #73B574",
"[  c #72B576",
"{  c #78B371",
"}  c #7BBA76",
"|  c #7EBC79",
" . c #7CBE7C",
".. c #7BC07E",
"X. c #BA8035",
"o. c #848241",
"O. c #8F8843",
"+. c #9B8440",
"@. c #8D9751",
"#. c #A49242",
"$. c #AF9641",
"%. c #BB9F45",
"&. c #A89D57",
"*. c #B09A50",
"=. c #9DA453",
"-. c #9AA357",
";. c #BCA349",
":. c #B9A94F",
">. c #B9A451",
",. c #80BA76",
"<. c #AFBC65",
"1. c #B7BD63",
"2. c #C38546",
"3. c #D08941",
"4. c #C1A54A",
"5. c #CEAD49",
"6. c #E1BE51",
"7. c #81C07B",
"8. c #82C17A",
"9. c #82C17C",
"0. c #86C37C",
"q. c #88C37B",
"w. c #88C47B",
"e. c #B2C87C",
"r. c #DDC25A",
"t. c #DCC15C",
"y. c #E2C55E",
"u. c #CCC261",
"i. c #D1C462",
"p. c #D8C76A",
"a. c #E7D16D",
"s. c #EBD875",
"d. c #EEDD7D",
"f. c #CCD680",
"g. c #C3DA89",
"h. c #DEE48D",
"j. c #E8E083",
"k. c #EBE78B",
"l. c #F3EE93",
"z. c #F5EF94",
"x. c #F9F196",
"c. c None",
/* pixels */
"c.c.c.V ) ( c.c.c.c.c.c.c.c.c.c.",
"c.c.c.0 K 8.B y n 8 > c.c.c.c.c.",
"c.c.c.9 / w.{ ,...I q * c.c.c.c.",
"c.c.c.c.N | ' ^ Z r 1 % c.c.c.c.",
"c.c.c.f a O   & X + u @ 2 c.c.c.",
"c.Q M l x . o : $ p # c.= c.c.c.",
"c.7.` t z s i d h g c., < c.c.c.",
"[ ] E A 4 2.3.c X.3 C ~ ! L 7 c.",
"m P G W p.s.a.t.=.D } 0.9.Y 5 c.",
"c.b J e.l.x.z.f.F _ q. .T 6 c.c.",
"c.c.&.k.g.h.j.<.S U R H e c.c.c.",
"c.c.O.u.1.i.r.6.@.w v c.c.c.c.c.",
"c.c.; #.5.:.-.%.o.c.c.c.c.c.c.c.",
"c.c.- c.+.k c.c.c.c.c.c.c.c.c.c.",
"c.c.c.*.d.y.4.j c.c.c.c.c.c.c.c.",
"c.c.c.c.>.;.$.c.c.c.c.c.c.c.c.c."
};
