/* XPM */
static char *result[] = {
/* columns rows colors chars-per-pixel */
"64 64 231 2 ",
"   c #010100",
".  c #0A0401",
"X  c #0C0A04",
"o  c #040A08",
"O  c #160602",
"+  c #1D180B",
"@  c #181309",
"#  c #0B1C14",
"$  c #0D1910",
"%  c #2E0400",
"&  c #260200",
"*  c #211C0D",
"=  c #241409",
"-  c #300F09",
";  c #082718",
":  c #152517",
">  c #08321E",
",  c #2A220F",
"<  c #2C2512",
"1  c #2F2811",
"2  c #292A15",
"3  c #322A13",
"4  c #382B13",
"5  c #3B3418",
"6  c #302A14",
"7  c #1B3C2D",
"8  c #143626",
"9  c #103224",
"0  c #2A2E2E",
"q  c #323529",
"w  c #4A1103",
"e  c #7A1B03",
"r  c #423215",
"t  c #43351A",
"y  c #43391C",
"u  c #493C1D",
"i  c #4D2C18",
"p  c #793513",
"a  c #74280D",
"s  c #4E3A26",
"d  c #09452A",
"f  c #1C4333",
"g  c #095A35",
"h  c #175A39",
"j  c #174A2D",
"k  c #224A37",
"l  c #24533D",
"z  c #344E2C",
"x  c #0E6138",
"c  c #12653B",
"v  c #24693C",
"b  c #4E411E",
"n  c #5B451C",
"m  c #664B1E",
"M  c #4D4523",
"N  c #5C4C26",
"B  c #564922",
"V  c #56562D",
"C  c #634E22",
"Z  c #645329",
"A  c #685629",
"S  c #765B26",
"D  c #75522F",
"F  c #59693A",
"G  c #526734",
"H  c #7B612B",
"J  c #6F6936",
"K  c #275A43",
"L  c #305A40",
"P  c #1C6D42",
"I  c #186841",
"U  c #1D7349",
"Y  c #2B6748",
"T  c #257649",
"R  c #316C51",
"E  c #277A53",
"W  c #357758",
"Q  c #326B4F",
"!  c #4E5150",
"~  c #6A4E49",
"^  c #55754B",
"/  c #6E6D43",
"(  c #882509",
")  c #983916",
"_  c #962E0C",
"`  c #A73C18",
"'  c #A7350D",
"]  c #831300",
"[  c #98461A",
"{  c #AD471A",
"}  c #BE531E",
"|  c #B74A1B",
" . c #AD4823",
".. c #B44A22",
"X. c #BC5228",
"o. c #B95724",
"O. c #AF552C",
"+. c #82652D",
"@. c #916C2B",
"#. c #9E6728",
"$. c #8B7738",
"%. c #967C37",
"&. c #946E31",
"*. c #A57B32",
"=. c #B4742C",
"-. c #99512C",
";. c #C2541E",
":. c #C55A21",
">. c #CA5C22",
",. c #C15529",
"<. c #D46D3A",
"1. c #DA733B",
"2. c #CC6330",
"3. c #8D774F",
"4. c #A5796D",
"5. c #AA6754",
"6. c #DB7641",
"7. c #E27C45",
"8. c #2C845B",
"9. c #298156",
"0. c #378657",
"q. c #338C62",
"w. c #3B8765",
"e. c #3C946A",
"r. c #3A956A",
"t. c #369268",
"y. c #3DA37F",
"u. c #468C56",
"i. c #58865A",
"p. c #559A5E",
"a. c #548E54",
"s. c #44966C",
"d. c #549C63",
"f. c #449D73",
"g. c #479B73",
"h. c #4F956C",
"j. c #45A47B",
"k. c #4AA57B",
"l. c #4CA97E",
"z. c #47A177",
"x. c #54AB7C",
"c. c #5CAE7B",
"v. c #54A675",
"b. c #59A36A",
"n. c #69AA6B",
"m. c #74AD6E",
"M. c #65AA73",
"N. c #64B27B",
"B. c #6BB57B",
"V. c #6CB77C",
"C. c #74B97B",
"Z. c #7CBE7B",
"A. c #79B774",
"S. c #73AF6E",
"D. c #7B894F",
"F. c #7DC07E",
"G. c #9D853B",
"H. c #AD8033",
"J. c #A58B3D",
"K. c #B7903E",
"L. c #B98B3A",
"P. c #C6913B",
"I. c #918F4F",
"U. c #AD9446",
"Y. c #B79944",
"T. c #B3944F",
"R. c #BBA448",
"E. c #B4B75E",
"W. c #BCB75B",
"Q. c #938C75",
"!. c #8BB06A",
"~. c #84BE78",
"^. c #8EAE67",
"/. c #ADB264",
"(. c #EA864C",
"). c #EE8B51",
"_. c #F18E53",
"`. c #F49256",
"'. c #F79559",
"]. c #C9AB4A",
"[. c #D5B54E",
"{. c #DAB94F",
"}. c #C8B858",
"|. c #DEBD52",
" X c #D7BC58",
".X c #D1AF4B",
"XX c #E1BE52",
"oX c #84C27B",
"OX c #8CC57B",
"+X c #8DC87D",
"@X c #91C77B",
"#X c #93C97D",
"$X c #BACA76",
"%X c #E3C254",
"&X c #E3C459",
"*X c #E8C657",
"=X c #D3C97A",
"-X c #D3C872",
";X c #E4CA63",
":X c #EACE62",
">X c #E6CE68",
",X c #EDD46B",
"<X c #F2DE77",
"1X c #EFD871",
"2X c #F4E17C",
"3X c #D8C057",
"4X c #3FA781",
"5X c #4CAC81",
"6X c #42A982",
"7X c #5EB481",
"8X c #AA958F",
"9X c #B3A193",
"0X c #ACA9A7",
"qX c #CAADA5",
"wX c #B3D584",
"eX c #C7D784",
"rX c #D8DC84",
"tX c #D8E38D",
"yX c #F4E789",
"uX c #EAEA91",
"iX c #F7EF94",
"pX c #F8EF94",
"aX c #F7F095",
"sX c #FAF196",
"dX c #FEF699",
"fX c #E2E78F",
"gX c #B8C1C1",
"hX c #E8E5D9",
"jX c #E8EAEA",
"kX c #D3C5C3",
"lX c None",
/* pixels */
"lXlXlXlXlXlXlXlXlXlXlXlXlXlXlXlXlXlXlXlXlXlXlXlXlXlXlXlXlXlXlXlXlXlXlXlXlXlXlXlXlXlXlXlXlXlXlXlXlXlXlXlXlXlXlXlXlXlXlXlXlXlXlXlX",
"lXlXlXlXlXlXlXlXlXlXlXlXT c lXx.x.x.c.x.k.k.lXlXlXlXlXlXlXlXlXlXlXlXlXlXlXlXlXlXlXlXlXlXlXlXlXlXlXlXlXlXlXlXlXlXlXlXlXlXlXlXlXlX",
"lXlXlXlXlXlXlXlXlXE T u.~.0.v.Z.OXOXOXOXN.c.x.lXlXlXlXlXlXlXlXlXlXlXlXlXlXlXlXlXlXlXlXlXlXlXlXlXlXlXlXlXlXlXlXlXlXlXlXlXlXlXlXlX",
"lXlXlXlXlXlXlXx 8.f.7XF.A.Z.C.C.F.OXOXOXOX@XZ.g.U c lXlXlXlXlXlXH H S u * * lXlXlXlXlXlXlXlXlXlXlXlXlXlXlXlXlXlXlXlXlXlXlXlXlXlX",
"lXlXlXlXlXlXlXlXh c K Y 8.j.k.j.B.@X@X+XOXOX@XoXv.c lXlXlX&.+.+.J N t 3 u Z 1 < u lXlXlXlXlXlXlXlXlXlXlXlXlXlXlXlXlXlXlXlXlXlXlX",
"lXlXlXlXlXlXlXlXlX; lXlXh l s.5Xz.u.p.M.oXOXOXOXZ.0.V +.%.$.G b x > ; > 8 z z 5 B u 5 M lXlXlXlXlXlXlXlXlXlXlXlXlXlXlXlXlXlXlXlX",
"lXlXlXlXlXlXlXlXlXlXlXlXlX  9 7 K 8.q.B.oXOXOXOXOXA.J @.S q g d 8.q.q.q.t.8.I lX+ u A u   lXlXlXlXlXlXlXlXlXlXlXlXlXlXlXlXlXlXlX",
"lXlXlXlXlXlXlXlXlXlXlXlXlXd Y Q w.c.Z.OXOXOXOXOXOX~.J 4 O 9 q.r.F.F.F.N.k.j.t.U d : 5 Z t X lXlXlXlXlXlXlXlXlXlXlXlXlXlXlXlXlXlX",
"lXlXlXlXlXlXlXlXlXlXlXU z.f.z.V.oXF.OXOXOXOXOXOXoXv.Y o f h.Z.Z.oXOX@XV.j.k.k.s.s.T > , Z b @ lXlXlXlXlXlXlXlXlXlXlXlXlXlXlXlXlX",
"lXlXlXlXlXlXlXlXlXlXlX9 g.l.k.V.+XOXOXOXOXOXOXn.T T r.n.~.OXOXOXoX+XOXOXC.k.k.k.5X8.g j Z Z B : lXlXlXlXlXlXlXlXlXlXlXlXlXlXlXlX",
"lXlXlXlXlXlXlXlXlXlXlXI f.k.k.C.@XOXOXOXOXOXB.r.T A.~.OXOXOXOXOXOXOXOXV.5Xk.j.5Xl.z.t.Y V Z Z <   lXlXlXlXlXlXlXlXlXlXlXlXlXlXlX",
"lXlXlXlXlXlXlXlXlXlXlXlXP z.j.B.oXOXOXOXOXN.k.N.oXOXOXOXOXOXOXOXOXOXOXB.g.k.k.f.z.l.l.e.v M A Z 5   lXlXlXlXlXlXlXlXlXlXlXlXlXlX",
"lXlXlXlXlXlXlXlXlXlXlXlXlXe.e.z.c.oXOXOXOXc.B.OXOXOXOXOXOXOXOXOXOXoXc.k.k.k.z.c T W e.f.g.; Z J 2   lXlXlXlXlXlXlXlXlXlXlXlXlXlX",
"lXlXlXlXlXlXlXlXlXlXlXlXlXx x q.x.B.OXOXOXB.C.+XOXOXOXOXOX@XOXZ.F.v.j.k.k.k.f.# O & : U j.E E E h $ lXlXlXlXlXlXlXlXlXlXlXlXlXlX",
"lXlXlXlXlXlXlXlXlXlXlXlXlXlXlXE b.+XOXOXOXOX+XOXOXOXOXZ.C.C.N.l.z.k.k.l.l.v.q.y ( ' p d Y Q Q R h ;   lXlXlXlXlXlXlXlXlXlXlXlXlX",
"lXlXlXlXlXlXlXlXlXlXlXlXlXlXlXj 0.Z.OXOXOXZ.B.A.OXC.V.v.j.k.k.l.k.l.l.f.9.v A o.>.>.) &         @ 4   lXlXlXlXlXlXlXlXlXlXlXlXlX",
"lXlXlXlXlXlXlXlXlXlXlXlXlXlX] m F q.V.V.B.x.j.5X7X5X5X5Xr.q.5Xj.8.K f 7 $ O ;.:.:.:.;.) lXlXlX* C *.n C lXlXlXlXlXlXlXlXlXlXlXlX",
"lXlXlXlXlXlXlXlXlXlXlXe.E p ' ;.o.A 7 f e.t.l 7 7 7 7 7 j h 7 7 ;         O _ } >.:.>.[ . lXlXZ +.*.*.A lXlXlXlXlXlXlXlXlXlXlXlX",
"lXlXlXlXlXlXlXlXlX8.c.M.h e | >.>.} p . : ; o           2 M y y y u +     O e } :.:.:.[ . lXlX@ n *.@., lXlXlXlXlXlXlXlXlXlXlXlX",
"lXlXlXlXlXlXlXc p.A.oX!.p { 1.<.:.>.{ X           o y s N Z A Z Z Z N <   O { :.:.>.) = lXlXlX  r *.@.X lXlXlXlXlXlXlXlXlXlXlXlX",
"lXlXlXlXlXc T n.OX@Xn.z ( 7.).(.(.<.e . o X o   @ M Z Z Z Z Z Z Z C Z 1 & e ;.:.o.;.p   lXlXlX  r *.@.X lXlXlXlXlXlXlXlXlXlXlXlX",
"lXlXlXlXlXv.A.OXOX+Xa.= ( 7.`.)._.<.e 0 gX!   * N Z Z Z N N s : o u <   4 :.:.>.i . X lXlXlXlX  i *.@.X lXlXlXlXlXlXlXlXlXlXlXlX",
"lXlXlXlX0.OX@XOXOXOXoX^.a <.).)._.6.) 8XjX!   * Z Z Z Z <   0 0X0     w { (.2.} -     lXlXlXlX  r H.@.X lXlXlXlXlXlXlXlXlXlXlXlX",
"lXlXlXx.M.OXZ.OXOXOXOXA.Y a <.`.).).7._ 0X!   * A Z Z A <   0 gXgX0 w .._.`.(.' % lXlXlXlXlXlX  r H.@.X lXlXlXlXlXlXlXlXlXlXlXlX",
"lXlXc.C.OXoXk.oXOXOXoXV.h.( 1.'.)._.(. .4.s O @ q t y y +   0 0X8Xi a 2.).).7._ lXlXlXlXlXlXlX  r H.@.X lXlXlXlXlXlXlXlXlXlXlXlX",
"lXj.C.OXOXOXB.oXOX@XC.k.z.~ O.7.`._._.).X.| a % % % % % % % i 4. .` 6.'.).<.| w lXlXlXlXlXlXlX5 m H.@.X lXlXlXlXlXlXlXlXlXlXlXlX",
"lXN.Z.OXoXV.OXOXOXZ.N.k.g.5X^ -.,.X.X._.'.'.6.,.X.X.X.X.X.X.X.,._.'.7.2..._ w . lXlXlXlXlXlXu.a.J G G > d lXlXlXlXlXlXlXlXlXlXlX",
"k.oX@XOXC.x.OXOXOXB.z.k.5Xg.5Xi.i i 4. ...` <.'.'.`.`.'.'.'.).1... .` { =.#.. lXlXg 9.p.p.p.oXn.p.p.p.d.p.d.0.g x x lXlXlXlXlXlX",
"lXc.Z.OXoXS.u.A.@XB.z.l.k.k.k.5XK : Q.qXD 3.5.` ` ` ` ` { ` ` ` 4.#.#.].R.M R f.b.b.S.@X@X@XOXOX+X+X+X@X+X#XA.d.q.q.#     lXlXlX",
"c n.OXOX+XA.P S.V.l.k.k.k.k.k.5X^ 4 q jXhXQ.3.P.P.Y.-.9X~ ~ kXqX! K.%XG.q W l.C.+X#X@XoXc.c.F.@XF.c.c.c.c.c.C.Z.l.l.W W W l   lX",
"c m.OXOXOXA.P f.v.k.k.k.k.k.k.^ 3.].U.3.3.T.[.XXXX|.].3.8XjXhXT.U.[.%XH 9 z.T T v s.x.N.F.F.M.x.B.oXF.F.Z.oXd.T U U U U P j   lX",
"c n.+XV.l.v.f.T r.l.k.k.k.k.^ N %.&X|..X].[. XXXXXXXXX[.I./ 3..X|.%XC k 8.T S.v.n.oXoXoXOXOXoXoXoXOXOXOX@XN.z.e.g.g.e.s.f ; d   ",
"o w.x.k.k.k.k.g.k.l.k.k.k.k.F A J.|.|.|.|.|.|.|.|.|.XX%XJ.A $.|.XX%XB ; 9.x.OXOXOXOXOXOXOXOXOXOXOXOXOXOX~.N.j.5Xg.s.: o lXlXo lX",
"  Q f.j.k.k.k.k.k.f.g.j.k.l.F J.|.|.|.|.XX|.|.|.|.|.XX3X|.{.{.{.R.}.a.8.N.oXOXOXOXOXOXOXOXOXOXOXOXOXOXZ.x.j.5Xg.R o lXlXlXlXlXlX",
"lX  l s.l.k.k.k.j.q.8.l.k.h./ R.&X&X&X;X&X;X;X;X&X%X%X3X|.|.3X}.v r.l.N.OXOXOXOXOXOXOXOXOXOXOXOX~.Z.C.k.5X5Xs.K   lXlXlXlXlXlXlX",
"lXlX  k 5Xk.k.k.k.l.5Xg.i.$.3X<X2X2X2XaXaXaXaXsXiX2X2X,X&X%X}.I.0.e.l.B.OXOXOXOXOXOXOXOXOXOXOXOXC.k.k.k.5XW 7 lXlXlXlXlXlXlXlXlX",
"lXlXlX8 W k.k.k.l.w.W M.D.$X=XuXaXaXaXiXsXiXiXiXiXaXiXaXyX2XE.I z.k.k.c.A.+XOXOXZ.~.oXOXOXOXOX~.c.k.j.k.Q : lXlXlXlXlXlXlXlXlXlX",
"lXlXlXlX9 5Xk.i.^ M z wX+XOXwXtXiXiXiXiXiXaXiXiXiXiXiXaXaXdX=XP z.k.k.z.l.C.OXOXwX~.OX+X@XOXC.x.k.k.l.f.# lXlXlXlXlXlXlXlXlXlXlX",
"lXlXlXlX: f f.q = J =XwX@XOXtXsXpXiXiXiXiXiXaXiXiXiXiXiXdXdX=Xc f.k.k.k.k.k.N.OX@X@X~.N.N.N.x.j.k.k.k.k.: lXlXlXlXlXlXlXlXlXlXlX",
"lXlXlXlXlXlXF Q.T.eXdXuXtXtXuXpXiXaXiXpXiXiXiXiXiXaXiXiXdX$Xu.t.z.k.k.k.k.k.k.x.c.N.x.j.j.j.k.l.k.l.s.7 lXlXlXlXlXlXlXlXlXlXlXlX",
"lXlXlXlXlXlX* =XdXsXaXaXaXaXpXiXiXpXiXpXiXiXiXiXpXpXpXsXrXOXd.9.z.l.k.k.k.k.k.k.g.k.k.k.k.k.k.g.j.5Xs.o lXlXlXlXlXlXlXlXlXlXlXlX",
"lXlXlXlXlXlX@ =XaXiXaXaXiXiXiXuXuXiXiXiXiXiXiXiXaXaXiXwX@X@XS.P e.k.k.k.k.k.k.k.l.j.k.k.k.k.k.5XQ # lXlXlXlXlXlXlXlXlXlXlXlXlXlX",
"lXlXlXlXlX* R.|.%X1XiXiXiXiXwX@X#X#X#X#X@XtXaXiXaXaXaXuX>X X XR.: w.l.k.k.k.k.l.k.k.k.k.j.k.g.g.K   lXlXlXlXlXlXlXlXlXlXlXlXlXlX",
"lXlXlXlXlX* .XXX|.|.>XyXiXiXwXF.@X@X@XOX#XtXaXiXyXyXyX;X|.|.|.].4 R e.f.l.k.k.j.k.k.l.k.w.s.9 o o lXlXlXlXlXlXlXlXlXlXlXlXlXlXlX",
"lXlXlXlXlX* [.|.XXXXXX%X>XyX$X~.Z.Z.Z.~.rXyXyX1X|.|.XX|.|.|.|.|.[.B , z e.l.5Xl.l.s.w.Q o   lXlXlXlXlXlXlXlXlXlXlXlXlXlXlXlXlXlX",
"lXlXlXlXlX* G.[.XX}.}.|.{.|. X/.n.m.m.m.}.XXXXXX|.|.|.|.|.|.|.|.|.XX%XG.z R R W W 7     lXlXlXlXlXlXlXlXlXlXlXlXlXlXlXlXlXlXlXlX",
"lXlXlXlXlXlXo Y.*X^.M.E.|.|.XXXXXXXXXXXXXX|.|.|.XXXX|.|.|.|.|.|.|.XXW./.I.7 7 o   lXlXlXlXlXlXlXlXlXlXlXlXlXlXlXlXlXlXlXlXlXlXlX",
"lXlXlXlXlXlXX Y.*X^.6Xv.|.|.|.|.|.|.|.|.|.|.XXXXXXXXXXXX|.|.|.|.|.XX!.4X6Xf.K # lXlXlXlXlXlXlXlXlXlXlXlXlXlXlXlXlXlXlXlXlXlXlXlX",
"lXlXlXlXlXlXlXlXlXF ^ /. X|.|.|.|.|.|.|.|.XXW.!.!.!.!.}.XX|.|.|.*X*X/ f K lXlXlXlXlXlXlXlXlXlXlXlXlXlXlXlXlXlXlXlXlXlXlXlXlXlXlX",
"lXlXlXlXlXlXlXlXlX+ t S {.%X|.|.|.|.|.|.XXXX^.y.j.j.y.E.%X%X%X[.N b 1 lXlXlXlXlXlXlXlXlXlXlXlXlXlXlXlXlXlXlXlXlXlXlXlXlXlXlXlXlX",
"lXlXlXlXlXlXlX  3 N 5 o 5 y Y.%X|.|.|.|.|.|.}.E.E.E.E.3X$.4 t 5 lXlXlXlXlXlXlXlXlXlXlXlXlXlXlXlXlXlXlXlXlXlXlXlXlXlXlXlXlXlXlXlX",
"lXlXlXlXlXlXlX  y A y   lXlX, 1 1 1 3 3 3 1 3 3 3 3 3 3 * lXlXlXlXlXlXlXlXlXlXlXlXlXlXlXlXlXlXlXlXlXlXlXlXlXlXlXlXlXlXlXlXlXlXlX",
"lXlXlXlXlXlXlXX y A t   lXlXlXlXlXlXlXlXlXlXlXlXlXlXlXlXlXlXlXlXlXlXlXlXlXlXlXlXlXlXlXlXlXlXlXlXlXlXlXlXlXlXlXlXlXlXlXlXlXlXlXlX",
"lXlXlXlXlXlX. S H N M lXlXlXlXlXlXlXlXlXlXlXlXlXlXlXlXlXlXlXlXlXlXlXlXlXlXlXlXlXlXlXlXlXlXlXlXlXlXlXlXlXlXlXlXlXlXlXlXlXlXlXlXlX",
"lXlXlXlXlXlX. S *.m @ * lXlXlXlXlXlXlXlXlXlXlXlXlXlXlXlXlXlXlXlXlXlXlXlXlXlXlXlXlXlXlXlXlXlXlXlXlXlXlXlXlXlXlXlXlXlXlXlXlXlXlXlX",
"lXlXlXlXlXlXlX  C *.*.&.Z lXlXK.Y.Y.Y.K.K.K.L.lXlXlXlXlXlXlXlXlXlXlXlXlXlXlXlXlXlXlXlXlXlXlXlXlXlXlXlXlXlXlXlXlXlXlXlXlXlXlXlXlX",
"lXlXlXlXlXlXlX  1 S H.*.S lXlX;XyXaXiX2X,X,X XU.3.%.lXlXlXb 5 lXlXlXlXlXlXlXlXlXlXlXlXlXlXlXlXlXlXlXlXlXlXlXlXlXlXlXlXlXlXlXlXlX",
"lXlXlXlXlXlXlXlX  , n S *.+.Z /.dXaXiXiX<X:X:X:X:X:X:XU.$.Y.].B B $.b lXlXlXlXlXlXlXlXlXlXlXlXlXlXlXlXlXlXlXlXlXlXlXlXlXlXlXlXlX",
"lXlXlXlXlXlXlXlXlX    X u +.%.-XsXaXiXaX<X*XXX%X|.|.{.%X%X|.|.*X*XG.lXlXlXlXlXlXlXlXlXlXlXlXlXlXlXlXlXlXlXlXlXlXlXlXlXlXlXlXlXlX",
"lXlXlXlXlXlXlXlXlXlXlXlXlXN P.yXaXaXiX2X,X:X*X&X{.|.|.|.|.%X*X[.A X lXlXlXlXlXlXlXlXlXlXlXlXlXlXlXlXlXlXlXlXlXlXlXlXlXlXlXlXlXlX",
"lXlXlXlXlXlXlXlXlXlXlXlXlXlX$.}.2X2X2X,X,X;X&X&X*X|.|.|.*XJ.u u lXlXlXlXlXlXlXlXlXlXlXlXlXlXlXlXlXlXlXlXlXlXlXlXlXlXlXlXlXlXlXlX",
"lXlXlXlXlXlXlXlXlXlXlXlXlXlXlX+.J U.*X*X&X%X%X|.&X|.|.|.|.R.lXlXlXlXlXlXlXlXlXlXlXlXlXlXlXlXlXlXlXlXlXlXlXlXlXlXlXlXlXlXlXlXlXlX",
"lXlXlXlXlXlXlXlXlXlXlXlXlXlXlXlXlXlX5 ].{.[.[.[.|.].b , < , lXlXlXlXlXlXlXlXlXlXlXlXlXlXlXlXlXlXlXlXlXlXlXlXlXlXlXlXlXlXlXlXlXlX",
"lXlXlXlXlXlXlXlXlXlXlXlXlXlXlXlXlXlXlX+ + + + + + + lXlXlXlXlXlXlXlXlXlXlXlXlXlXlXlXlXlXlXlXlXlXlXlXlXlXlXlXlXlXlXlXlXlXlXlXlXlX"
};
