/* XPM */
static char *result[] = {
/* columns rows colors chars-per-pixel */
"16 16 141 2 ",
"   c #26311B",
".  c #133927",
"X  c #382E28",
"o  c #283A25",
"O  c #373C21",
"+  c #4F3B17",
"@  c #433618",
"#  c #672A0E",
"$  c #653214",
"%  c #543A27",
"&  c #2F4C33",
"*  c #294E37",
"=  c #305336",
"-  c #34603E",
";  c #58441D",
":  c #62471B",
">  c #434827",
",  c #4A412D",
"<  c #54522B",
"1  c #405D3B",
"2  c #595532",
"3  c #674F21",
"4  c #755E35",
"5  c #536537",
"6  c #606F3B",
"7  c #2A6048",
"8  c #2F7854",
"9  c #357651",
"0  c #3C7453",
"q  c #387554",
"w  c #3B7C58",
"e  c #477549",
"r  c #467956",
"t  c #4D7954",
"y  c #A64819",
"u  c #804120",
"i  c #9E4920",
"p  c #9E562A",
"a  c #955B2C",
"s  c #894C33",
"d  c #9A5435",
"f  c #857231",
"g  c #8B7B3E",
"h  c #907B35",
"j  c #B5653C",
"k  c #BC6F3D",
"l  c #BA6640",
"z  c #BD6F47",
"x  c #3F8257",
"c  c #388457",
"v  c #3F8D69",
"b  c #528051",
"n  c #578851",
"m  c #618650",
"M  c #7A8358",
"N  c #719B5C",
"B  c #4D8F64",
"V  c #45956E",
"C  c #49946B",
"Z  c #4E946A",
"A  c #49986C",
"S  c #549F69",
"D  c #439C73",
"F  c #479F76",
"G  c #7C9B60",
"H  c #47A175",
"J  c #49A077",
"K  c #4AA477",
"L  c #49A379",
"P  c #52A274",
"I  c #50A879",
"U  c #67A166",
"Y  c #69AB6F",
"T  c #78A365",
"R  c #78AF6F",
"E  c #62AB71",
"W  c #61AB72",
"Q  c #66AA70",
"!  c #66B077",
"~  c #6BB071",
"^  c #6EB271",
"/  c #6FB679",
"(  c #6FB67A",
")  c #68B57C",
"_  c #6BB67C",
"`  c #73B273",
"'  c #75B574",
"]  c #74B97B",
"[  c #74BA7B",
"{  c #7ABB78",
"}  c #7BBB78",
"|  c #7ABC7B",
" . c #7CBD7B",
".. c #7FBE7A",
"X. c #7BBE7C",
"o. c #7CBF7D",
"O. c #A38C3E",
"+. c #A7903F",
"@. c #8F824F",
"#. c #988243",
"$. c #99994E",
"%. c #899652",
"&. c #A28342",
"*. c #AB9240",
"=. c #A19A4B",
"-. c #B19742",
";. c #BE9F43",
":. c #B7885D",
">. c #BCA34A",
",. c #B9A655",
"<. c #BBB45A",
"1. c #84A269",
"2. c #80BE7A",
"3. c #A5B363",
"4. c #B4BD63",
"5. c #C58E46",
"6. c #C49753",
"7. c #C0AF55",
"8. c #D5B752",
"9. c #DDBB51",
"0. c #84C17A",
"q. c #8AC47B",
"w. c #8BC47B",
"e. c #A7C176",
"r. c #DAC25B",
"t. c #DCC25F",
"y. c #CCC261",
"u. c #D6C662",
"i. c #E3C962",
"p. c #E5C962",
"a. c #E6CF68",
"s. c #E9D87A",
"d. c #C7D683",
"f. c #C1DA88",
"g. c #EDDD80",
"h. c #DDE48C",
"j. c #E7E78E",
"k. c #EFE588",
"l. c #F8EE92",
"z. c #F8EF94",
"x. c None",
/* pixels */
"x.x.c S [ ! x.x.x.x.x.x.x.x.x.x.",
"x.x.x.w Q 0.m 5 e - O x.x.x.x.x.",
"x.x.x.A 2.} U R o.K 9 > x.x.x.x.",
"x.x.x.x ` X. .( P t 2 =   x.x.x.",
"x.x.x.a 4 * & 1 o $ y x.3 x.x.x.",
"x.^ T k l X @ , % i # x.: x.x.x.",
"] ../ M z d u s j p x.n 6 x.x.x.",
"Y E I Z @.6.5.:.&.b ~ { { W 8 . ",
"q F D G t.a.i.7.N ' w.q.] C x.x.",
"x.r 1.d.l.z.l.e.H _ | ) V x.x.x.",
"x.g s.h.f.j.k.3.B L J v x.x.x.x.",
"x.f <.y.4.u.r.9.$.0 7 x.x.x.x.x.",
"x.x.< O.;.=.%.+.x.x.x.x.x.x.x.x.",
"x.x.; x.x.x.x.x.x.x.x.x.x.x.x.x.",
"x.x.+ #.g.p.8.*.x.x.x.x.x.x.x.x.",
"x.x.x.x.,.>.-.h x.x.x.x.x.x.x.x."
};
