/* XPM */
static char *result[] = {
/* columns rows colors chars-per-pixel */
"64 64 232 2 ",
"   c #010000",
".  c #0B0401",
"X  c #070B07",
"o  c #110D05",
"O  c #120703",
"+  c #0C110B",
"@  c #03170D",
"#  c #151208",
"$  c #19150A",
"%  c #0C1B15",
"&  c #091913",
"*  c #141D19",
"=  c #240902",
"-  c #251B0D",
";  c #371808",
":  c #3B0A00",
">  c #072416",
",  c #15261B",
"<  c #0D371F",
"1  c #28220F",
"2  c #262513",
"3  c #382D14",
"4  c #3D3319",
"5  c #183628",
"6  c #0E3523",
"7  c #263329",
"8  c #1B1E21",
"9  c #471605",
"0  c #521105",
"q  c #7A1A02",
"w  c #4A3E1C",
"e  c #43381A",
"r  c #543F19",
"t  c #4B2913",
"y  c #672F11",
"u  c #752B0E",
"i  c #5F3C28",
"p  c #1D4634",
"a  c #0B5E37",
"s  c #085A35",
"d  c #104E2E",
"f  c #214937",
"g  c #29533B",
"h  c #364B2B",
"j  c #0D6239",
"k  c #14673E",
"l  c #296637",
"z  c #57461C",
"x  c #4D421D",
"c  c #664C1E",
"v  c #4E4221",
"b  c #574824",
"n  c #485A2F",
"m  c #614F28",
"M  c #64542A",
"N  c #6A582B",
"B  c #725522",
"V  c #775C28",
"C  c #6C5C37",
"Z  c #78642E",
"A  c #796731",
"S  c #6F6031",
"D  c #285B44",
"F  c #1C6D43",
"G  c #136C44",
"H  c #1B7146",
"J  c #1C734A",
"K  c #2A664A",
"L  c #23734A",
"P  c #306D51",
"I  c #267B53",
"U  c #337255",
"Y  c #377859",
"T  c #31694D",
"R  c #1E5D41",
"E  c #555049",
"W  c #4D754A",
"Q  c #667D4D",
"!  c #676564",
"~  c #851801",
"^  c #8B260B",
"/  c #932B0C",
"(  c #962A0A",
")  c #9C320D",
"_  c #953916",
"`  c #A53A14",
"'  c #A5350C",
"]  c #A9431A",
"[  c #B64B1B",
"{  c #B9531E",
"}  c #915430",
"|  c #B54A21",
" . c #B2502A",
".. c #8B6A2D",
"X. c #887335",
"o. c #977933",
"O. c #8C6D31",
"+. c #A0742B",
"@. c #A67D32",
"#. c #9F491A",
"$. c #C55A22",
"%. c #CB5D22",
"&. c #C25722",
"*. c #CC5F2B",
"=. c #D46E38",
"-. c #D3692F",
";. c #945F51",
":. c #877145",
">. c #8C7D79",
",. c #A77D71",
"<. c #A76C5C",
"1. c #DC7743",
"2. c #E27C43",
"3. c #2B8359",
"4. c #388757",
"5. c #348D63",
"6. c #3C8A66",
"7. c #3C956A",
"8. c #3F9571",
"9. c #478E57",
"0. c #53995E",
"q. c #4F9056",
"w. c #709357",
"e. c #4D8B63",
"r. c #518D63",
"t. c #45956C",
"y. c #579862",
"u. c #439770",
"i. c #439C72",
"p. c #57A167",
"a. c #46A47C",
"s. c #4AA57B",
"d. c #4BA97E",
"f. c #47A076",
"g. c #54AA7B",
"h. c #5BAD7B",
"j. c #59A772",
"k. c #6AAB6A",
"l. c #64A767",
"z. c #74B26E",
"x. c #65B27B",
"c. c #6CB67B",
"v. c #6DBA7F",
"b. c #75BA7B",
"n. c #7BBD7B",
"m. c #72B576",
"M. c #6BAE73",
"N. c #7FA55A",
"B. c #9A8238",
"V. c #A6883A",
"C. c #B08334",
"Z. c #B1933E",
"A. c #C38D3A",
"S. c #C39B3F",
"D. c #93984A",
"F. c #AC9243",
"G. c #B59943",
"H. c #A28E47",
"J. c #B9A74B",
"K. c #B2B65E",
"L. c #AEB25C",
"P. c #8E8772",
"I. c #A69C6F",
"U. c #85AB67",
"Y. c #89B06B",
"T. c #83BE79",
"R. c #9DB365",
"E. c #ABB565",
"W. c #91A25A",
"Q. c #E9854C",
"!. c #E7834B",
"~. c #EE8B52",
"^. c #F18E54",
"/. c #F49256",
"(. c #F79558",
"). c #CBAC4B",
"_. c #C4A74A",
"`. c #D4B54E",
"'. c #D9B74F",
"]. c #C6AA58",
"[. c #CBB855",
"{. c #DEBD52",
"}. c #D5BB55",
"|. c #CAB24F",
" X c #E1BE52",
".X c #85C27B",
"XX c #8CC57B",
"oX c #8FC97E",
"OX c #91C97D",
"+X c #92C87C",
"@X c #A6C470",
"#X c #E3C154",
"$X c #E3C55B",
"%X c #EAC85A",
"&X c #DAC86D",
"*X c #E9CE64",
"=X c #EBD36C",
"-X c #ECD166",
";X c #F2DD76",
":X c #EBD977",
">X c #F2E17C",
",X c #DFC55C",
"<X c #7F8687",
"1X c #4EAD81",
"2X c #52B082",
"3X c #838888",
"4X c #9B9785",
"5X c #A6A89A",
"6X c #B1B4B2",
"7X c #AC8F88",
"8X c #C2B4A8",
"9X c #C9B287",
"0X c #8DCB81",
"qX c #ADD283",
"wX c #CADD8A",
"eX c #D6E28C",
"rX c #D8E38D",
"tX c #E9E389",
"yX c #F4E584",
"uX c #F5EA8D",
"iX c #E8EA91",
"pX c #F7EF94",
"aX c #F9EF94",
"sX c #FAF195",
"dX c #F8F196",
"fX c #C9C5BE",
"gX c #E4DD8A",
"hX c #D1D4D2",
"jX c #F9FBF9",
"kX c #EAE8E3",
"lX c #DBE0E1",
"zX c None",
/* pixels */
"zXzXzXzXzXzXzXzXzXzXzXzXzXzXzXj H s.s..XXXXXx.x.+XXXXXXXXXXXXXXXXXb.a.s.s.s.d.5     > J i.k k k @ zXzXzXzXzXzXzXzXzXzXzXzXzXzXzX",
"zXzXzXzXzXzXzXzXzXzXzXzXzXzXzXzXF g.n.XXXXXX.X.XXXXXXXXXXX+X+Xc.g.g.s.s.s.s.1X,   zXzXJ a.i.u.8.F > zXzXzXzXzXzXzXzXzXzXzXzXzXzX",
"zXzXzXzXzXzXzXzXzXzXzXzXzXzXzXzXzX3..XoXXXXXXXXXXXXXXXXXx.h.h.g.a.s.s.s.1X1X3.t zXzXzX> 5 5 5 5 > X   zXzXzXzXzXzXzXzXzXzXzXzXzX",
"zXzXzXzXzXzXzXzXzXzXzXzXzXzXzXzXzXG x..XXX+Xn.x.b..Xx.x.s.a.s.s.s.s.1Xd.3.p M #.) zXzXzXzXzX    3 -   zXzXzXzXzXzXzXzXzXzXzXzXzX",
"zXzXzXzXzXzXzXzXzXzXzXzXzXzXzXzXzXv 3.x.2Xb.g.1Xh.v.1Xd.d.5.i.1Xf.I K D < t [ %.' ~ zXzXzXzX  - ..B e zXzXzXzXzXzXzXzXzXzXzXzXzX",
"zXzXzXzXzXzXzXzXzXzXzXzXzXzXzXzXzXq n U Y u.i.5.U U U U U G L Y F >       { $.$.] q zXzXzXzXzXN O.@...M zXzXzXzXzXzXzXzXzXzXzXzX",
"zXzXzXzXzXzXzXzXzXzXzXzXg.s.8.zXzX( { ; . D L >           < @           . ] $.$.%.y   zXzXzXzXv ..C...w zXzXzXzXzXzXzXzXzXzXzXzX",
"zXzXzXzXzXzXzXzXzXzXk 8.n.9.j zX( &.%.&.; .               X X X X         q [ $.%.y   zXzXzXzX  B C.r   zXzXzXzXzXzXzXzXzXzXzXzX",
"zXzXzXzXzXzXzXzXzXk z..XXX9.j zX^ $.$.$.^ =               w b b m e     . q [ $.%.y   zXzXzXzX  B C.r   zXzXzXzXzXzXzXzXzXzXzXzX",
"zXzXzXzXzXzXzXzXzXn..XoXq.H zX/ *.2.$.$.9 .         X w v m N M M m 4   . ] $.%.y o zXzXzXzXzX  B C.r   zXzXzXzXzXzXzXzXzXzXzXzX",
"zXzXzXzXzXzXzXj l .XoXoXg zXzX` 2.^.1.` =         X w M M M M M M N v . 0 { %.-.t   zXzXzXzXzX  B C.r   zXzXzXzXzXzXzXzXzXzXzXzX",
"zXzXzXzXzXzXj j 5..XXXoXw.7 : ` ^.~.~./ O ! E   + e M m M N 3 - w b $ O ' &.%.u =   zXzXzXzXzX  B C.r   zXzXzXzXzXzXzXzXzXzXzXzX",
"zXzXzXzXzXzX3.0.c.XXXXXXOXW - ` ~.~.Q.^ E lX<X  - N m M m e E 8 o 1   0 -.$.%.;     zXzXzXzXzX  B C.r   zXzXzXzXzXzXzXzXzXzXzXzX",
"zXzXzXzXzXg.c.+XXXXXXXXXOXp.h ^ 1.~.Q.| ,.kX!   - M M M M + <X<X8   9 | Q.=.[ ;   zXzXzXzXzXzX  B C.r   zXzXzXzXzXzXzXzXzXzXzXzX",
"zXzXzXzXd.c.oX.XT.XXXXXXXX2XL = ) ~.~.~.` ,.E . # v v v v O <XfX! : ] ~.~.Q.) = zXzXzXzXzXzXzX  B C.r   zXzXzXzXzXzXzXzXzXzXzXzX",
"zXzXzXa.c.XXXXT.g..XXXoXx.a.5.h ( 2.~.~.~.| ^ 0 . O . O .   <X<.~ ] ^.~.Q.$.) = zXzXzXzXzXzXzXX B C.r   zXzXzXzXzXzXzXzXzXzXzXzX",
"zXzXzXa.c.+XXXn.g.T.XXXXh.a.d.U = / 2.~.^.Q.Q. .q q q q q q ^ *.!.!.~.!.$.( A.e zXzXzXzXzXzX  B @.@.x   zXzXzXzXzXzXzXzXzXzXzXzX",
"zXzXa.c..XXXn.h.T.XXXXx.g.s.d.6.< = / ( 1././.Q.1.1.1.1.1.1.1.Q./.!.$.) ( A.x zXzXzXzXzXzXzXd l l l k d j zXzXzXzXzXzXzXzXzXzXzX",
"zXzXa.b.+XXXn.g.XXXXXXh.a.s.s.i.7.T - >. .] ` *.(./././././.2.| ' ) _ C.A.{.2 zXzXj j j j k l.l.l.l.l.k.0.a j j j zXzXzXzXzXzXzX",
"zXzXa.b.XXXXn.h.XXXXc.g.a.s.s.s.d.u.+ 6X7Xt 9 _ | | | [ | | ' } ,.;.} #X{.{.2   F 9.0.0.0.0..X+X+X+X+X+XT.0.0.3.3.6     zXzXzXzX",
"zXzXj.T.XXXXm.6.+X.Xg.a.s.s.s.s.a.t.X >.hX! n ;.u y u ;.;.y i 8XlX5XO. X#X X1 , e.n.0X0X+X+X+XoX+Xn.c.n.XX+XXXb.2XK f f 5 zXzXzX",
"zXj k.+XXX+Xz.4.k..Xg.a.s.s.s.s.d.t., 3 lX6X4XP.X.X.:.5XhX7 3XjXhXw.S.}.B.L.h U y.l.z.+X.Xn.b.b.n.x.h.x.b.n.n.l.t.5.7.8.K @ zXzX",
"zXj l.T.oXXX.Xk.F b.g.a.s.s.s.s.s.r.A 3 6XkX4XV. X X).X.hXE 6XjXP.b  X_.X t.f.I L F 4.0X.Xh.g.g.g.n.+Xn.g.g.f.L F F H H j d @ zX",
"zXzXa 0.XXm.s.i.F u.s.s.s.s.s.s.r.S `.'.X.N F. X{.{. X`.;.fXjX9XS.{.{.G., 7.L 6.b.m.s.h.XX.XXXXX.XXX.XXXXXn.s.a.a.u.t.i.K @ d   ",
"zXzX  T g.d.a.s.u.H i.d.s.s.1Xr.M S '.{.`.`.'.{.{.{.{. X`.:.C F.{. XF., e.F k..XXXXX.X.XXXXXXXXXXXXXXXXXn.g.d.d.a.5 X % zXzXzXzX",
"zXzX  T 1Xa.s.s.a.u.s.a.s.s.a.r.M N '.{.{.{.{.{.{.{.{.{.{.A b F. X XZ.X F 7.n.XXXXXXXXXXXXXXXXXXXXXXXX+Xn.s.a.d.5 zXzXzXzXzXzXzX",
"zXzXzX, P 1Xs.s.s.s.I t.a.a.1Xr.V J.{.{.{.{.{.{.{.{.{.{.{._.G.). X$XJ.d 5.b.XXXXXXXXXXXXXXXXXXXXXXXXn.h.h.s.i.5 zXzXzXzXzXzXzXzX",
"zXzXzX  f g.s.s.s.s.5.i.1Xi.1Xr.Z {.{.{.{.{.{.}.{.{.{.{. X#X X X XJ.q.6.s..XXXXXXXXXXXXXXXXXXXXXXXn.g.a.s.t.f zXzXzXzXzXzXzXzXzX",
"zXzXzX  g 1Xs.s.s.s.d.s.s.d.u.Q V.$X$X$X=X=X=X=X=X=X=X*X}.{.{.{.#XD.G s.d.T.XXXXXXXX.XXXXXXXXXXX+Xx.a.s.d.6.  zXzXzXzXzXzXzXzXzX",
"zXzXzXzXp 6.d.a.s.s.s.a.d.t.Q F.=X;X;X;XpXdXdXsXpXpXpX;X*X$X X'.`.w.3.a.g..XXXXXXXXXXXXXXXXXXX+XT.g.s.a.d.u.X zXzXzXzXzXzXzXzXzX",
"zXzXzXzX  p d.d.s.s.s.y.y.W H.:XdXdXpXpXpXpXpXpXpXpXpXpXpX;X*X*XD.H g.a.s.n.XXXXXXXXXXXXXXXXXXT.h.a.s.d.i.6.zXzXzXzXzXzXzXzXzXzX",
"zXzXzXzXzX5 s.u.s.s.u.W C w.0XqXiXsXpXpXpXpXpXpXpXpXpXpXpXpXpXpXU.J s.s.s.a.n.XXXXXXXXXXXXXXT.h.a.s.s.d.Y X zXzXzXzXzXzXzXzXzXzX",
"zXzXzXzXzXzXzX, f.i., w.T.XX.X.XqXpXdXpXpXaXpXpXpXpXpXpXdXdXdXN.3.s.s.s.s.s.s.b.XXXXXXT.XXT.g.s.s.s.i.s.Y   zXzXzXzXzXzXzXzXzXzX",
"zXzXzXzXzXzXzXzX% , I.rXuXqX.XqXiXpXpXpXpXpXpXpXpXpXpXpXdXdXdXN.I d.s.s.s.s.s.g.g.b.n.g.h.g.s.s.s.1XK * % zXzXzXzXzXzXzXzXzXzXzX",
"zXzXzXzXzXzXzXzXb I.uXsXsXiXeXiXpXpXpXpXpXpXpXaXsXpXpXpXdXdXeXq.I d.d.s.s.s.s.s.a.g.g.a.s.s.s.s.s.2XD   zXzXzXzXzXzXzXzXzXzXzXzX",
"zXzXzXzXzXzXzXzXw tXsXaXaXaXsXsXpXpXpXaXpXpXpXaXpXpXsXaXsXwX0XM.4.5.d.a.s.s.s.s.s.s.s.s.s.s.s.s.d.U , zXzXzXzXzXzXzXzXzXzXzXzXzX",
"zXzXzXzXzXzXzXzX+ gXpXpXpXaXpXsXdXaXdXaXsXsXsXaXpXpXpXpXwX0XXX0X0.J g.s.s.s.s.s.s.s.s.s.s.s.d.d.2X5   zXzXzXzXzXzXzXzXzXzXzXzXzX",
"zXzXzXzXzXzXzXzXb :XpXpXpXpXaXiXeXeXrXrXrXrXiXaXpXpXpXpXqX@XE.@XN.W Y s.s.s.s.s.s.s.s.s.s.s.s.Y Y 5 zXzXzXzXzXzXzXzXzXzXzXzXzXzX",
"zXzXzXzXzXzXzX1 {.{.:XpXaXpXsXrXT.XXXXXXT.XXwXsXpXpXpXpXuX$X{.{.,Xo.> s.s.s.s.s.s.s.s.s.s.s.6.%   zXzXzXzXzXzXzXzXzXzXzXzXzXzXzX",
"zXzXzXzXzXzXzX1 '.{.{.tXaXuXsXrXXXXXXXXX0XT.wXsXpXpXuXuX*X{.{.{.#XB., u.7.s.s.s.s.s.s.s.i.t.& zXzXzXzXzXzXzXzXzXzXzXzXzXzXzXzXzX",
"zXzXzXzXzXzXzX2 '.{.{.#X#X*X>XrXXXXXXXXXXXwXaXaXpXyX X{.{.{.{.{.{.{.B.& , t.f.i.d.s.a.i.6.% zXzXzXzXzXzXzXzXzXzXzXzXzXzXzXzXzXzX",
"zXzXzXzXzXzXzX1 {.#X{.{.}.{.#X,XK.g.g.g.d.E.*X$X$X$X{.{.{.{.{.{.{.#X{.Z.F., & & P 2XY * % zXzXzXzXzXzXzXzXzXzXzXzXzXzXzXzXzXzXzX",
"zXzXzXzXzXzXzXzXx |.U.[. X X X X{.K.K.K.L.[. X'.{.{. X X{.{.{.{.{.{. X#X{.W U U f f zXzXzXzXzXzXzXzXzXzXzXzXzXzXzXzXzXzXzXzXzXzX",
"zXzXzXzXzXzXzXzX# |.g.z.U.K. X{. X X X X X X X X{. X X X X{.{.{.{.{.{.}.Y.2X2XK , zXzXzXzXzXzXzXzXzXzXzXzXzXzXzXzXzXzXzXzXzXzXzX",
"zXzXzXzXzXzXzXzX# Z U.Y.U.K.#X{.{.{.{.{. X{.{. X X}.R.R.}. X{.{.{.{. X[.d.K K , zXzXzXzXzXzXzXzXzXzXzXzXzXzXzXzXzXzXzXzXzXzXzXzX",
"zXzXzXzXzXzXzXzXzX  O.'.#X X{.{.{.{.{.{. X{. X[.L.R.a.s.[. X{.{.{.{.%X[.U X   zXzXzXzXzXzXzXzXzXzXzXzXzXzXzXzXzXzXzXzXzXzXzXzXzX",
"zXzXzXzXzXzXzXzXzXzX  o.G.|.#X{.#X{. X X X X XR.1Xa.d.g.[.#X{.{.#X|.G.B.. zXzXzXzXzXzXzXzXzXzXzXzXzXzXzXzXzXzXzXzXzXzXzXzXzXzXzX",
"zXzXzXzXzXzXzXzXzXzXzX  . Z `.).).).).).).).).W.u.u.t.u.J.}.{.{.#XB.  . zXzXzXzXzXzXzXzXzXzXzXzXzXzXzXzXzXzXzXzXzXzXzXzXzXzXzXzX",
"zXzXzXzXzXzXzXzXzXzX    3 N v o $ $ # # # # # + + + + X # zXzXzXzXzXzXzXzXzXzXzXzXzXzXzXzXzXzXzXzXzXzXzXzXzXzXzXzXzXzXzXzXzXzXzX",
"zXzXzXzXzXzXzXzXzXzXzX  4 N 3   zXzXzXzXzXzXzXzXzXzXzXzXzXzXzXzXzXzXzXzXzXzXzXzXzXzXzXzXzXzXzXzXzXzXzXzXzXzXzXzXzXzXzXzXzXzXzXzX",
"zXzXzXzXzXzXzXzXzXzX  c B 4 + zXzXzXzXzXzXzXzXzXzXzXzXzXzXzXzXzXzXzXzXzXzXzXzXzXzXzXzXzXzXzXzXzXzXzXzXzXzXzXzXzXzXzXzXzXzXzXzXzX",
"zXzXzXzXzXzXzXzXzXzX  3 V V 3 zXzXzXzXzXzX+.+.+.+.zXzXb zXzXzXzXzXzXzXzXzXzXzXzXzXzXzXzXzXzXzXzXzXzXzXzXzXzXzXzXzXzXzXzXzXzXzXzX",
"zXzXzXzXzXzXzXzXzXzXzX  m C...t zXzXzXzX].].].].]._.,XH.,XzXzXzXzXzXzXzXzXzXzXzXzXzXzXzXzXzXzXzXzXzXzXzXzXzXzXzXzXzXzXzXzXzXzXzX",
"zXzXzXzXzXzXzXzXzXzXzX  z @.@.O.M zXzXO.gXdXdXaX>X;X=X=X=XH.X.X.N 4 e x A + zXzXzXzXzXzXzXzXzXzXzXzXzXzXzXzXzXzXzXzXzXzXzXzXzXzX",
"zXzXzXzXzXzXzXzXzXzXzX  e V ....Z o.M Z &XdXdXyX-X-X-X{.-X=X$X X{.#X{.#X`.- zXzXzXzXzXzXzXzXzXzXzXzXzXzXzXzXzXzXzXzXzXzXzXzXzXzX",
"zXzXzXzXzXzXzXzXzXzXzXzXzX  1 V @.+.Z |.uXdXsXyX-X X X X{.{.{.{.{.{.'.).).zXzXzXzXzXzXzXzXzXzXzXzXzXzXzXzXzXzXzXzXzXzXzXzXzXzXzX",
"zXzXzXzXzXzXzXzXzXzXzXzXzX    3 @.@.|.yXaXpXaXaXyX-X#X{.{.{.{.{.{.#XG.# # zXzXzXzXzXzXzXzXzXzXzXzXzXzXzXzXzXzXzXzXzXzXzXzXzXzXzX",
"zXzXzXzXzXzXzXzXzXzXzXzXzXzXzXzXzX- A }.uXaXsXyX;X=X-X-X{.{.{.{.{.#XF.  zXzXzXzXzXzXzXzXzXzXzXzXzXzXzXzXzXzXzXzXzXzXzXzXzXzXzXzX",
"zXzXzXzXzXzXzXzXzXzXzXzXzXzXzXzXzXzXzXX.&X;X;X;X*X#X$X=X#X{. X#X%XF.4 zXzXzXzXzXzXzXzXzXzXzXzXzXzXzXzXzXzXzXzXzXzXzXzXzXzXzXzXzX",
"zXzXzXzXzXzXzXzXzXzXzXzXzXzXzXzXzXzXzXm _.$X*X%X%X#X{.$X%X#X%XB.z x zXzXzXzXzXzXzXzXzXzXzXzXzXzXzXzXzXzXzXzXzXzXzXzXzXzXzXzXzXzX",
"zXzXzXzXzXzXzXzXzXzXzXzXzXzXzXzXzXzXzXzX_.#XB.V._.B. X{.X.Z A e   zXzXzXzXzXzXzXzXzXzXzXzXzXzXzXzXzXzXzXzXzXzXzXzXzXzXzXzXzXzXzX",
"zXzXzXzXzXzXzXzXzXzXzXzXzXzXzXzXzXzXzXzXzXzXzXx N # B.B.#     zXzXzXzXzXzXzXzXzXzXzXzXzXzXzXzXzXzXzXzXzXzXzXzXzXzXzXzXzXzXzXzXzX",
"zXzXzXzXzXzXzXzXzXzXzXzXzXzXzXzXzXzXzXzXzXzXzXzX        zXzXzXzXzXzXzXzXzXzXzXzXzXzXzXzXzXzXzXzXzXzXzXzXzXzXzXzXzXzXzXzXzXzXzXzX",
"zXzXzXzXzXzXzXzXzXzXzXzXzXzXzXzXzXzXzXzXzXzXzXzXzXzXzXzXzXzXzXzXzXzXzXzXzXzXzXzXzXzXzXzXzXzXzXzXzXzXzXzXzXzXzXzXzXzXzXzXzXzXzXzX"
};
