/* XPM */
static char *result[] = {
/* columns rows colors chars-per-pixel */
"16 16 141 2 ",
"   c #211B0E",
".  c #2D1A13",
"X  c #1F2F1A",
"o  c #372612",
"O  c #193324",
"+  c #123E29",
"@  c #2F3620",
"#  c #463117",
"$  c #4F3F1C",
"%  c #7A3D19",
"&  c #493D20",
"*  c #1F5036",
"=  c #264D37",
"-  c #265239",
";  c #5D461C",
":  c #60481D",
">  c #5C4835",
",  c #654D20",
"<  c #6A5122",
"1  c #76562C",
"2  c #77662D",
"3  c #666735",
"4  c #3D6241",
"5  c #2E7552",
"6  c #327155",
"7  c #317256",
"8  c #387E5E",
"9  c #387F5F",
"0  c #4A734F",
"q  c #5F7F49",
"w  c #4D7950",
"e  c #6E6245",
"r  c #736F40",
"t  c #687D4F",
"y  c #873612",
"u  c #853813",
"i  c #854A2D",
"p  c #9B4A21",
"a  c #A7522C",
"s  c #BA5629",
"d  c #B05C3A",
"f  c #8D622B",
"g  c #987E3D",
"h  c #B0603D",
"j  c #C2693D",
"k  c #825541",
"l  c #C37340",
"z  c #3D8967",
"x  c #478C58",
"c  c #568A53",
"v  c #608A51",
"b  c #64825A",
"n  c #679057",
"m  c #7F9D5C",
"M  c #45966E",
"N  c #4B956B",
"B  c #4E996E",
"V  c #5A9C63",
"C  c #439F75",
"Z  c #459C74",
"A  c #499B70",
"S  c #489B72",
"D  c #499E71",
"F  c #58A069",
"G  c #5EA269",
"H  c #4CA276",
"J  c #48A37A",
"K  c #49A37A",
"L  c #55A673",
"P  c #56A879",
"I  c #51A97C",
"U  c #57AC7C",
"Y  c #6AA063",
"T  c #60A169",
"R  c #69AB6B",
"E  c #77A269",
"W  c #61AC73",
"Q  c #6BB173",
"!  c #6DB173",
"~  c #63B17B",
"^  c #69B57B",
"/  c #6FB87B",
"(  c #76BB7C",
")  c #7BBD7A",
"_  c #7CBD7B",
"`  c #7CBE7C",
"'  c #7CBF7C",
"]  c #7DC07C",
"[  c #96803F",
"{  c #9A8339",
"}  c #9D853A",
"|  c #96974B",
" . c #B28A49",
".. c #AE9A46",
"X. c #AC9C4B",
"o. c #AF995E",
"O. c #ACA14E",
"+. c #BAA349",
"@. c #BAA64C",
"#. c #8F9E66",
"$. c #A38C60",
"%. c #A89078",
"&. c #80BF7A",
"*. c #ABBD67",
"=. c #C0AA4D",
"-. c #C9A949",
";. c #C9AD4F",
":. c #D0B24E",
">. c #C4A852",
",. c #C8B453",
"<. c #DCBD55",
"1. c #DDBF55",
"2. c #E0BF53",
"3. c #D1BE68",
"4. c #84C17B",
"5. c #87C37B",
"6. c #81C27D",
"7. c #8BC57B",
"8. c #8DC67B",
"9. c #E1C55E",
"0. c #CAC667",
"q. c #C5C76B",
"w. c #D6C663",
"e. c #E2C860",
"r. c #E5CA64",
"t. c #E0CD6A",
"y. c #E3D173",
"u. c #E2D679",
"i. c #E4D47B",
"p. c #BDD887",
"a. c #C0D484",
"s. c #CCDA87",
"d. c #D4E18C",
"f. c #F2E383",
"g. c #F3E586",
"h. c #F0EB8F",
"j. c #F3EA8E",
"k. c #F0ED93",
"l. c #F8F095",
"z. c #F9F196",
"x. c None",
/* pixels */
"x.x.x.x.F 6.] ^ H 0 @ * X x.x.x.",
"x.x.x.x.1 4 = - O % y x.< x.x.x.",
"x.x.R r s .   & o u x.x.: x.x.x.",
"x.Q &.t j k # > i p x.x.; x.x.x.",
"x._ ( A e h a d l f x.c v x x.x.",
"V ! L K b $. .%.o.q G ) ' W 5 + ",
"x.M C B X.<.1.>.| T 5.7.` N x.x.",
"x.9 S E u.g.f.t.Y / 8.4.P 6 x.x.",
"x.x.#.s.k.l.z.a.D I ~ U 8 x.x.x.",
"x.x.3.h.p.d.j.q.n Z J z x.x.x.x.",
"x.x.O.w.*.0.e.2.=.w 7 x.x.x.x.x.",
"x.x.3 ..-.@.m ,.+.x.x.x.x.x.x.x.",
"x.x.x.$ x.x.x.x.x.x.x.x.x.x.x.x.",
"x.x.x., g i.r.;.{ x.x.x.x.x.x.x.",
"x.x.x.x.[ y.9.:.} x.x.x.x.x.x.x.",
"x.x.x.x.x.x.2 x.x.x.x.x.x.x.x.x."
};
