/* XPM */
static char *result[] = {
/* columns rows colors chars-per-pixel */
"16 16 136 2 ",
"   c #182215",
".  c #15281C",
"X  c #302311",
"o  c #20311F",
"O  c #103523",
"+  c #502C1E",
"@  c #523F1B",
"#  c #7B3613",
"$  c #623C21",
"%  c #354323",
"&  c #32402B",
"*  c #2F5235",
"=  c #355738",
"-  c #56421D",
";  c #5E441A",
":  c #494624",
">  c #40452A",
",  c #554329",
"<  c #41512F",
"1  c #6D5222",
"2  c #705928",
"3  c #5C703C",
"4  c #71602A",
"5  c #7D7236",
"6  c #2E6A4F",
"7  c #3F6D47",
"8  c #2F7653",
"9  c #2B7955",
"0  c #317551",
"q  c #347658",
"w  c #417653",
"e  c #487551",
"r  c #677944",
"t  c #717E42",
"y  c #8E3F19",
"u  c #994F22",
"i  c #964C29",
"p  c #A25B3D",
"a  c #99662C",
"s  c #827A3A",
"d  c #AA603F",
"f  c #C06334",
"g  c #80724F",
"h  c #BE7141",
"j  c #3B815B",
"k  c #3B8462",
"l  c #548552",
"z  c #578A52",
"x  c #45905F",
"c  c #65875B",
"v  c #668D58",
"b  c #708455",
"n  c #6E9B5D",
"m  c #4F976B",
"M  c #4B976C",
"N  c #5B9763",
"B  c #579C6A",
"V  c #59996A",
"C  c #449972",
"Z  c #439F76",
"A  c #469D75",
"S  c #4B9E74",
"D  c #649E65",
"F  c #6B9C61",
"G  c #5CA068",
"H  c #5EA16B",
"J  c #4BA277",
"K  c #4BA47A",
"L  c #55A672",
"P  c #53AA7A",
"I  c #62A972",
"U  c #64AC72",
"Y  c #64AB76",
"T  c #64AD74",
"R  c #65AE75",
"E  c #62B27C",
"W  c #6DB579",
"Q  c #6FB67A",
"!  c #69B57C",
"~  c #75B774",
"^  c #79B572",
"/  c #78B575",
"(  c #7EB774",
")  c #7DBA77",
"_  c #7BBB79",
"`  c #79BB7A",
"'  c #7BBC79",
"]  c #7ABC7B",
"[  c #7BBD7B",
"{  c #7EBE7B",
"}  c #7FC17D",
"|  c #998238",
" . c #869653",
".. c #88995D",
"X. c #A59242",
"o. c #AF9C47",
"O. c #AB9D4A",
"+. c #B59B44",
"@. c #B69B44",
"#. c #BD9F43",
"$. c #BD954A",
"%. c #AF945B",
"&. c #BCA44D",
"*. c #B5A84F",
"=. c #A4A551",
"-. c #B5A255",
";. c #AC926F",
":. c #B9BE62",
">. c #C4A65C",
",. c #C4B35A",
"<. c #D5B857",
"1. c #D8BA54",
"2. c #E0BF53",
"3. c #C7B360",
"4. c #82C07A",
"5. c #86C27A",
"6. c #8BC57B",
"7. c #89C47C",
"8. c #AAC379",
"9. c #DAC35E",
"0. c #CAC061",
"q. c #CCC363",
"w. c #C7CB70",
"e. c #DCCC76",
"r. c #E6CC65",
"t. c #E7CE67",
"y. c #EBD36D",
"u. c #C4DB89",
"i. c #DDDD83",
"p. c #D9E28C",
"a. c #EDE78B",
"s. c #EFEA8F",
"d. c #F3E88B",
"f. c #F7EE93",
"g. c #F8EF94",
"h. c None",
/* pixels */
"h.h.h.x W Q h.h.h.h.h.h.h.h.h.h.",
"h.h.h.0 B 4.F r l 7 < h.h.h.h.h.",
"h.h.h.9 R 7.^ ( } P j = h.h.h.h.",
"h.h.h.h.N ) / I M e & * % h.h.h.",
"h.h.h.v u > . o   # h.h.1 h.h.h.",
"h.h.~ ..f + X , $ y h.h.; h.h.h.",
"h.` { Y g d i p h a h.z 3 h.h.h.",
"h.U L J b %.$.;.>.t G ' _ T 8 O ",
"h.k Z V ,.t.r.<.=.D 5.6.] m h.h.",
"h.h.c 8.s.g.f.i.H E [ ! S h.h.h.",
"h.h.3.a.u.p.d.w.n A K C q h.h.h.",
"h.h.O.0.:.q.9.2.*.w 6 h.h.h.h.h.",
"h.h.: 5 #.o. .X.s h.h.h.h.h.h.h.",
"h.h.@ - h.h.h.h.h.h.h.h.h.h.h.h.",
"h.h.h.2 e.y.1.@.4 h.h.h.h.h.h.h.",
"h.h.h.h.-.&.+.| h.h.h.h.h.h.h.h."
};
