/* XPM */
static char *result[] = {
/* columns rows colors chars-per-pixel */
"16 16 141 2 ",
"   c #271609",
".  c #261F0F",
"X  c #372218",
"o  c #0E3321",
"O  c #481F0B",
"+  c #53260F",
"@  c #443219",
"#  c #493818",
"$  c #22583B",
"%  c #5D431A",
"&  c #5C461E",
"*  c #484220",
"=  c #524620",
"-  c #53562D",
";  c #5C5429",
":  c #525433",
">  c #694F20",
",  c #60492F",
"<  c #774021",
"1  c #785E29",
"2  c #556C3C",
"3  c #7E6B2F",
"4  c #7C683B",
"5  c #2B6444",
"6  c #2C634B",
"7  c #2C644B",
"8  c #2A694C",
"9  c #2F684E",
"0  c #2D7251",
"q  c #347557",
"w  c #3F7454",
"e  c #357759",
"r  c #387C58",
"t  c #546A46",
"y  c #567745",
"u  c #5B7643",
"i  c #4A7E57",
"p  c #873D18",
"a  c #9F4015",
"s  c #A74517",
"d  c #815C27",
"f  c #985C36",
"g  c #AA5731",
"h  c #A15E39",
"j  c #97703F",
"k  c #C27B3F",
"l  c #966548",
"z  c #AA6B4D",
"x  c #3A8D64",
"c  c #40835B",
"v  c #5F8453",
"b  c #608053",
"n  c #708E54",
"m  c #67965D",
"M  c #72965F",
"N  c #719B5B",
"B  c #478F68",
"V  c #528860",
"C  c #43986F",
"Z  c #49986E",
"A  c #569466",
"S  c #529864",
"D  c #5D9D67",
"F  c #539D69",
"G  c #599C68",
"H  c #479C74",
"J  c #459E76",
"K  c #469E76",
"L  c #629E66",
"P  c #4EA277",
"I  c #4FA779",
"U  c #4DA67B",
"Y  c #57A671",
"T  c #62A76B",
"R  c #60AB73",
"E  c #64AB72",
"W  c #6BB072",
"Q  c #6EB476",
"!  c #63B27C",
"~  c #6FB579",
"^  c #7AB471",
"/  c #78B977",
"(  c #7CBB77",
")  c #71B779",
"_  c #75BA7A",
"`  c #71B97C",
"'  c #75BB7C",
"]  c #73BC7E",
"[  c #7BBC79",
"{  c #7CBD7A",
"}  c #7FBF7B",
"|  c #78BC7C",
" . c #A98F3D",
".. c #A9903E",
"X. c #95984E",
"o. c #889951",
"O. c #9B9057",
"+. c #959C52",
"@. c #9B9C50",
"#. c #AD9A4F",
"$. c #B59A43",
"%. c #B59A45",
"&. c #BCA148",
"*. c #A2A152",
"=. c #BDA650",
"-. c #BDA155",
";. c #B9A059",
":. c #94AB6D",
">. c #9EB069",
",. c #80BE79",
"<. c #BCBD60",
"1. c #B8A576",
"2. c #C1A245",
"3. c #C6A850",
"4. c #C1BD5E",
"5. c #D7BE56",
"6. c #DBBD58",
"7. c #E2BE51",
"8. c #87C27A",
"9. c #84C37C",
"0. c #84C37D",
"q. c #8CC57B",
"w. c #D0C05C",
"e. c #D6C25D",
"r. c #DFC45D",
"t. c #D2C06B",
"y. c #DFCD71",
"u. c #C7D27B",
"i. c #DED576",
"p. c #EBD570",
"a. c #EDD875",
"s. c #EED975",
"d. c #EFDE7C",
"f. c #B5D484",
"g. c #D5DF87",
"h. c #D4E18B",
"j. c #E7E489",
"k. c #EEED93",
"l. c #F8F095",
"z. c #F8F096",
"x. c None",
/* pixels */
"x.x.x.F ~ Q x.x.- x.x.x.x.x.x.x.",
"x.x.x.r E ,.m n L c 5 x.x.x.x.x.",
"x.x.x.x _ 9.( 0.] C 8 $ x.x.x.x.",
"x.x.x.x.v M b i t : x.* = x.x.x.",
"x.x.x.4 a +   . O s x.x.> x.x.x.",
"x.W ^ j g X @ , < p x.x.% x.x.x.",
") [ ' V l h f z k d x.2 y x.x.x.",
"G Y I A O.-.;.1.3.u T / { R 0 o ",
"9 J Z >.a.d.p.r.o.D 8.q.| B x.x.",
"x.w :.h.l.z.k.u.S ! } ` P 6 x.x.",
"x.x.y.g.f.j.i.<.N K U H e x.x.x.",
"x.x.*.w.4.e.5.7.+.7 q x.x.x.x.x.",
"x.x.; $.2.@.X. .x.x.x.x.x.x.x.x.",
"x.# & x.x.x.x.x.x.x.x.x.x.x.x.x.",
"x.x.1 t.s.6.%.3 x.x.x.x.x.x.x.x.",
"x.x.x.#.=.&...x.x.x.x.x.x.x.x.x."
};
