/* XPM */
static char *result[] = {
/* columns rows colors chars-per-pixel */
"64 64 235 2 ",
"   c #010101",
".  c #080302",
"X  c #0B0905",
"o  c #040C09",
"O  c #050C07",
"+  c #130F06",
"@  c #160601",
"#  c #09120D",
"$  c #05140C",
"%  c #1A150A",
"&  c #1E190B",
"*  c #161309",
"=  c #0C1712",
"-  c #151717",
";  c #231C0D",
":  c #291509",
">  c #351607",
",  c #280F06",
"<  c #0C2518",
"1  c #11261C",
"2  c #07371F",
"3  c #32250F",
"4  c #2A2513",
"5  c #3A2D14",
"6  c #352A13",
"7  c #3C3219",
"8  c #292812",
"9  c #1C3C2C",
"0  c #163527",
"q  c #0F3623",
"w  c #203E2D",
"e  c #530D00",
"r  c #451607",
"t  c #581604",
"y  c #440700",
"u  c #721E06",
"i  c #463819",
"p  c #553C19",
"a  c #79240A",
"s  c #6F2E13",
"d  c #0D472A",
"f  c #1B4232",
"g  c #155837",
"h  c #37532D",
"j  c #224A38",
"k  c #24543B",
"l  c #3A5B32",
"z  c #314929",
"x  c #14653C",
"c  c #18683E",
"v  c #0F643C",
"b  c #25673C",
"n  c #54461E",
"m  c #4F431D",
"M  c #5B4C25",
"N  c #564821",
"B  c #51512F",
"V  c #65532A",
"C  c #6B552A",
"Z  c #695828",
"A  c #755A28",
"S  c #6C5231",
"D  c #566936",
"F  c #79642C",
"G  c #796537",
"H  c #737434",
"J  c #1C5B41",
"K  c #265B43",
"L  c #325B41",
"P  c #1C6C44",
"I  c #176841",
"U  c #1D734A",
"Y  c #187148",
"T  c #2C664B",
"R  c #316A4C",
"E  c #237549",
"W  c #316D51",
"Q  c #287B53",
"!  c #35795A",
"~  c #337C4D",
"^  c #535453",
"/  c #527153",
"(  c #72764D",
")  c #625E5F",
"_  c #851901",
"`  c #882609",
"'  c #962B0B",
"]  c #873914",
"[  c #9B3414",
"{  c #97300F",
"}  c #A2360E",
"|  c #AA3E13",
" . c #974218",
".. c #8B491C",
"X. c #A74619",
"o. c #B44818",
"O. c #BC531E",
"+. c #BA572F",
"@. c #88682C",
"#. c #9A722E",
"$. c #96712E",
"%. c #8A7436",
"&. c #947A34",
"*. c #8D6E2E",
"=. c #A87D32",
"-. c #A57C32",
";. c #A9752D",
":. c #8C4737",
">. c #C65A21",
",. c #C95C22",
"<. c #C15724",
"1. c #CC6432",
"2. c #D46C38",
"3. c #D9723D",
"4. c #D57038",
"5. c #CE6228",
"6. c #C2561F",
"7. c #85754B",
"8. c #8E5447",
"9. c #DD7844",
"0. c #E37D44",
"q. c #2A8359",
"w. c #34865B",
"e. c #37814E",
"r. c #2D8B61",
"t. c #328B62",
"y. c #3C8765",
"u. c #3C946B",
"i. c #3B976C",
"p. c #3D9870",
"a. c #438A5B",
"s. c #4B935C",
"d. c #588D5B",
"f. c #669155",
"g. c #468D66",
"h. c #41926D",
"j. c #49996B",
"k. c #449D74",
"l. c #479971",
"z. c #599C61",
"x. c #659E65",
"c. c #45A37B",
"v. c #4AA57B",
"b. c #4CA97E",
"n. c #48A176",
"m. c #53AA7B",
"M. c #5BAD7B",
"N. c #58AA77",
"B. c #5AA46D",
"V. c #65A96B",
"C. c #67AD75",
"Z. c #64B37C",
"A. c #6BB57B",
"S. c #6DB67A",
"D. c #73B97B",
"F. c #7BBD7B",
"G. c #7BB875",
"H. c #73AE6E",
"J. c #7EC07E",
"K. c #9B8338",
"L. c #A8893A",
"P. c #B28739",
"I. c #BA943B",
"U. c #8F8E4D",
"Y. c #B79A43",
"T. c #B1954B",
"R. c #B8B75D",
"E. c #B2A951",
"W. c #988B73",
"Q. c #85AC68",
"!. c #9AB467",
"~. c #81BC75",
"^. c #80BF7B",
"/. c #89B56E",
"(. c #B0B767",
"). c #9F9366",
"_. c #E9864D",
"`. c #EB8C52",
"'. c #F18E54",
"]. c #F39055",
"[. c #CAA948",
"{. c #D6B64F",
"}. c #CBB958",
"|. c #DEBD52",
" X c #D5B953",
".X c #CFB04C",
"XX c #E1BE52",
"oX c #E3BD4F",
"OX c #CCBF6D",
"+X c #84C27B",
"@X c #8CC57B",
"#X c #8EC97E",
"$X c #92C97D",
"%X c #94C87C",
"&X c #B8C165",
"*X c #A9CE7C",
"=X c #E3C254",
"-X c #E3C55B",
";X c #E9C759",
":X c #F0CC58",
">X c #E9CD63",
",X c #E5CA63",
"<X c #EDD56C",
"1X c #E9D16B",
"2X c #EEDE7D",
"3X c #EAD572",
"4X c #F1DD77",
"5X c #F1D66D",
"6X c #F4E27E",
"7X c #D5CC7D",
"8X c #4DAC80",
"9X c #79C181",
"0X c #979187",
"qX c #A6A296",
"wX c #AEB2AF",
"eX c #B18B82",
"rX c #C2BEB7",
"tX c #BCD785",
"yX c #A7D081",
"uX c #98CD80",
"iX c #C5DB88",
"pX c #DCE58E",
"aX c #DDE690",
"sX c #F5EA8B",
"dX c #F2E485",
"fX c #E9EA91",
"gX c #F7EF94",
"hX c #F8EF94",
"jX c #F9F095",
"kX c #F9F296",
"lX c #C7C1B4",
"zX c #CBCECC",
"xX c #F0EEEA",
"cX c #E2E0D9",
"vX c None",
/* pixels */
"vXvXvXvXvXvXvXvXvXvXvXvXvXvXvXvXvXvXvXvXvXvXvXvXvXvXvXvXvXvXvXvXvXvXvXvXvXvXvXvXvXvXvXvXvXvXvXvXvXvXvXvXvXvXvXvXvXvXvXvXvXvXvXvX",
"vXvXvXvXvXvXvXvXvXvXvXvXvXvXvXM.m.M.M.M.m.M.vXvXvXvXvXvXvXvXvXvXvXvXvXvXvXvXvXvXvXvXvXvXvXvXvXvXvXvXvXvXvXvXvXvXvXvXvXvXvXvXvXvX",
"vXvXvXvXvXvXvXvXvXvXvXE e.e.M.+X$X@X#X+X@X@XvXvXvXvXvXvXvXvXvXA A A M ; & vXvXvXvXvXvXvXvXvXvXvXvXvXvXvXvXvXvXvXvXvXvXvXvXvXvXvX",
"vXvXvXvXvXvXvXvXvXQ Q j.9XF.D.D.D.^.$X$X@X@XA.s.q.U vXvXvXA @.#.&.D B Z C 7 ; & vXvXvXvXvXvXvXvXvXvXvXvXvXvXvXvXvXvXvXvXvXvXvXvX",
"vXvXvXvXvXvXvXvXvXq.R k K q.b.8Xv.j.s.z.S.@X@X$X+Xj.Q C @.-.H D ~ Q Q l h l l z ; vXvXvXvXvXvXvXvXvXvXvXvXvXvXvXvXvXvXvXvXvXvXvX",
"vXvXvXvXvXvXvXvXvXvXvXvXO < 9 f y.p.q.t.m.^.@X@X+XuXV.F #.p R r.l.9Xk.t.r.t.t.~ h q M X vXvXvXvXvXvXvXvXvXvXvXvXvXvXvXvXvXvXvXvX",
"vXvXvXvXvXvXvXvXvXvXvXvXvXd T W h.Z.F.F.F.@X@X@X#XQ.V 8 d.d.H.F.+X@XS.m.v.8Xm.k.q.x k o vXvXvXvXvXvXvXvXvXvXvXvXvXvXvXvXvXvXvXvX",
"vXvXvXvXvXvXvXvXvXvXvXvXY p.b.b.D.+X@X@X@X@X@X$XS.w.T y.F.$X@X@X@X@X%XF.v.v.v.v.n.i.u.g $ vXvXvXvXvXvXvXvXvXvXvXvXvXvXvXvXvXvXvX",
"vXvXvXvXvXvXvXvXvXvXvXvX0 v.v.v.F.@X@X@X@X@X@X@Xs.a.~.^.@X+X@X@X@X@X@X+Xm.v.v.v.v.v.v.k.P vXvXvXvXvXvXvXvXvXvXvXvXvXvXvXvXvXvXvX",
"vXvXvXvXvXvXvXvXvXvXvXvXP k.v.v.D.@X@X@X@X@X^.Z.S.~.$X@X@X@X@X@X@X@X$X^.m.c.b.q.P g.h.k.n.Q 2 o vXvXvXvXvXvXvXvXvXvXvXvXvXvXvXvX",
"vXvXvXvXvXvXvXvXvXvXvXvXvXP u.i.k.D.@X@X@X+XM.F.$X@X@X@X@X@X%X@X@X@XF.v.v.v.b.T   O o d ! Q U E U vXvXvXvXvXvXvXvXvXvXvXvXvXvXvX",
"vXvXvXvXvXvXvXvXvXvXvXvXvXvXv v i.Z.^.#X+X@XZ.F.@X@X@X@X@X^.+X^.F.S.v.v.v.v.n.K vXvXvX    j ! W Q d vXvXvXvXvXvXvXvXvXvXvXvXvXvX",
"vXvXvXvXvXvXvXvXvXvXvXvXvXvXvXvXt.p.A.#X@X+X@X@X@X#X+XD.D.v.A.M.v.v.v.v.v.p.g 2 vXvXvXvX  * 3 6 %   vXvXvXvXvXvXvXvXvXvXvXvXvXvX",
"vXvXvXvXvXvXvXvXvXvXvXvXvXvXvXvXvXE j.D.$X@X#XD.D.S.Z.b.v.v.v.8X8Xk.! K K q $ vXvXvXvXvXvX; C =.Z . vXvXvXvXvXvXvXvXvXvXvXvXvXvX",
"vXvXvXvXvXvXvXvXvXvXvXvXvXvXvXvXvXvXY t.A.Z.9Xr.J f f k v.m.t.J f 0 < > vXvXvXvXvXvXvXvXvX  i =.@.. vXvXvXvXvXvXvXvXvXvXvXvXvXvX",
"vXvXvXvXvXvXvXvXvXvXvXvXvXvXvXvXvXvXu i 0 0 0 V ..] ] s 0 0 C ..] ] ] o.,.5.} vXvXvXvXvXvXvXn @.#.A V vXvXvXvXvXvXvXvXvXvXvXvXvX",
"vXvXvXvXvXvXvXvXvXvXvXvXvXvXvXvX_ _ ' o. . . .O.| u : : .   , : t } >.6.>.>.O.} _ vXvXvXvXvXvXF ;.-.Z vXvXvXvXvXvXvXvXvXvXvXvXvX",
"vXvXvXvXvXvXvXvXvXvXvXvXv.v.vX_ | O.O.>.,.O.' > @ .             . @ , ` O.>.>.X._ vXvXvXvXvXvX5 -.#.; vXvXvXvXvXvXvXvXvXvXvXvXvX",
"vXvXvXvXvXvXvXvXvXc y.S.H.c vX` o.,.>.O.X.u @           X X X X X     @ X.6.,.,.]   vXvXvXvXvX3 =.$.+ vXvXvXvXvXvXvXvXvXvXvXvXvX",
"vXvXvXvXvXvXvXvXE V.@X^.z.h ` >.,.,.X.e . .         + % M M M V 7 X   . a O.,.O.s   vXvXvXvXvX3 =.$.+ vXvXvXvXvXvXvXvXvXvXvXvXvX",
"vXvXvXvXvXvXU e.G.@X$Xd.9 _ 1.0.9.<.s o .       X 7 S V M S S S Z i   , o.,.,.s   vXvXvXvXvXvX3 =.$.+ vXvXvXvXvXvXvXvXvXvXvXvXvX",
"vXvXvXvXvXw.Z.@X@X@X$Xx.i ' '.]._.+.y - ^ .   * i V V V S 7 6 N M 4 @ ' 6.,.X.r   vXvXvXvXvXvX3 =.#.+ vXvXvXvXvXvXvXvXvXvXvXvXvX",
"vXvXvXvXM.D.@X@X@X@X^.uXQ.p +.0.'.9.a S zX#   i C V C M 6 ^ ) j > r A 2.3.6.>     vXvXvXvXvXvX> =.#.+ vXvXvXvXvXvXvXvXvXvXvXvXvX",
"vXvXvXM.F.$X+XA.^.%X@X%XG.! a 9.'._.0.+.8.r . & 4 4 4 - o wXeXs a 2.'.'.3.' ,   vXvXvXvXvXvX3 A =.#.+ vXvXvXvXvXvXvXvXvXvXvXvXvX",
"vXvXc.A.@X@X+Xb.F.@X@XF.8XB.h  .9.].].0.1.1.u y e e e e e :.+.1.9.].'.2.} ;.p   vXvXvXvXvX  i P.$.5 vXvXvXvXvXvXvXvXvXvXvXvXvXvX",
"vXv.A.+X@X+XZ.G.@X@X@XD.v.v.y.4 u [ 1.].'.'.9.9.2.9.9.2.9.9.0.'.0.<.[ ' 4.{.N   vXvXvXvX  8 F #.N   vXvXvXvXvXvXvXvXvXvXvXvXvXvX",
"vXv.D.$X@X+Xm.@X@X@XD.v.v.v.k.P X ) 7.[ ` [ 9.`._._._.`.'.2.[ [ '  .[.[.|.N + vXvXvXvX  7 l b b b g c c c c c c c vXvXvXvXvXvXvX",
"vXv.D.$X@XG.n.+X@X@XZ.v.v.v.v.k.1 ) zXqX: S S A S S ( G S S qXzXW.@.XXXX|.5 vXvXvXvXb c b z.+X+X~.G.~.~.G.+XH.n.h.1 # # # vXvXvX",
"x H.@X@X$XH.E +X+XZ.v.v.v.v.v.8Xw : eXcX7.qX( F F 7.rXwX- wXxXzXW.I.|.|.|.5 vXvXP e.+X+X+X@X@X@X@X+XF.+XF.^.G.C.h.u.u.u.k o $ vX",
"c H.%X+XF.V.c D.M.n.v.v.v.v.8Xj.( M ) cXlX7..X|.-XY.7.rX^ cXxX7.F =X|.|.=X5 o R D.@X@X@XF.F.F.G.D.M.M.M.M.Z.j.E U U U Q x d 2   ",
"d B.F.M.v.p.Q t.n.v.v.v.v.v.d.B T.XX[.%.K. XXX|.XX=X[.U.rXlXE..X=X=X|.{.K.z ! N.z.V.S.G.A.M.Z.M.A.@X@X@X@X+XZ.v.b.b.! W f     vX",
"  y.b.c.v.b.n.q.p.b.v.v.v.l.V &.[.oXXXXX=X|.|.|.XX|.|. X&.&..XXX|.|.=X X* ! p.q.q.s.Z.A.+X@X@X@X@X@X@X@X@XS.v.v.v.T =   vXvXvXvX",
"vXw g.v.v.v.k.8Xv.v.v.v.b.B.V [.=X X|.|.|.|.|. X|.XX|.|.XX=XXX|.|.XX.XZ l Q w.V.F.$X@X@X@X@X@X@X@X@X@X@XF.m.b.h.j   vXvXvXvXvXvX",
"vX. K 8Xv.v.8Xv.q.i.v.c.j./ T.-X:X>X<X2X2X2X2X2X<X-X|.|.|.|.|.|.|.=XY.O U r.C.%X@X@X@X@X@X@X@X@X@X@X@XS.b.v.y.0 vXvXvXvXvXvXvXvX",
"vX  W 8Xv.v.v.v.h.n.m.d.( }.dXdXsXsXsXkXjXjXkXkXgXdX2X>XXX|.|.XXR.C.x.g w.A.@X@X@X@X@X@X@X@X@X@X$X+XC.v.v.8XW   vXvXvXvXvXvXvXvX",
"vXvX# K 8Xv.v.v.v.c./ f./.*XfXgXgXgXgXgXkXsXgXgXkXgXgXsXdXsX,XXX!.t.U p.v.F.@X@X@X@X@X@X@X@X@X@X@X^.v.v.v.c.g.vXvXvXvXvXvXvXvXvX",
"vXvX  j c.8Xv.v.n.j / /.@X@XyXfXkXgXgXgXgXkXgXgXgXgXgXkXgXkX4X:XU.x P v.v.F.$X@X@X@X@X@X@X@X@X@XF.m.v.v.8XL O vXvXvXvXvXvXvXvXvX",
"vXvXvXvX9 y.y.v.B Z Q.%X@X%XfXkXgXgXgXgXgXgXgXgXgXgXgXgXjXjXjX5XU.Y v.v.v.D.+X@X@X@X@X@X@X@X@XD.v.v.v.v.8XK   vXvXvXvXvXvXvXvXvX",
"vXvXvXvXvX  = / B (.jXpX*XyXgXhXgXgXkXgXgXgXgXgXgXgXgXgXaXaXpX,XU.Y v.v.v.v.A.F.^.@X$X@X^.F.Z.v.v.v.v.v.h.j   vXvXvXvXvXvXvXvXvX",
"vXvXvXvXvXvXvXp iXjXhXsXgXgXgXgXgXgXgXgXgXgXgXgXgXkXgXiX@X@X+X*Xf.q.v.v.v.v.v.v.M.D.D.D.m.v.v.v.v.v.v.8X0   vXvXvXvXvXvXvXvXvXvX",
"vXvXvXvXvXvXvX  OXkXkXkXgXgXkXhXkXhXhXkXhXgXgXgXjXfXtX@X@X@X+XZ.q.Y N.n.v.v.v.v.v.c.v.c.v.v.v.v.v.v.b.W 1 vXvXvXvXvXvXvXvXvXvXvX",
"vXvXvXvXvXvX* G OXsXkXkXgXgXiXtXiXtXiXtXiXgXhXgXjXaX*X&X&X&X&X(.f.f.w.n.v.v.v.v.v.v.v.v.v.v.v.v.v.b.b.1 vXvXvXvXvXvXvXvXvXvXvXvX",
"vXvXvXvXvXvX* .XXX-XdXkXgXfX@X@X+X@X+X@X%XfXhXgXkXdX>XXXXXXXXX|.=XE.c c.v.v.v.v.v.v.v.v.v.v.v.b.h.f 9 = vXvXvXvXvXvXvXvXvXvXvXvX",
"vXvXvXvXvXvX* .XXX{.-X1X6XfX%X@X@X@X@X%XaXgXgX3X,X-X X|.XX|.|.|.=X XK.d j.v.v.v.v.v.v.v.v.v.8X! 1 vXvXvXvXvXvXvXvXvXvXvXvXvXvXvX",
"vXvXvXvXvXvX% [.|.|.|.|.-X-X}.C.M.M.M.G.;X,X-X|.|.|.|.|.|.|.|.|.|.=XY.% t.v.v.v.v.v.v.v.k.v.T = vXvXvXvXvXvXvXvXvXvXvXvXvXvXvXvX",
"vXvXvXvXvXvXvX% Y.Q.!. X|.XXXX X}.}.}. X|.|.|.|.|.|.|.|.|.|.|.|.|.|.R.g.0 $ T k.l.h.l.h.0 # # vXvXvXvXvXvXvXvXvXvXvXvXvXvXvXvXvX",
"vXvXvXvXvXvXvX. Y.G.c.Q.XX|.|.|.XX|.|.|.|.|.|.XXXXXX|.|.|.|.XX|.=XR.b.b.w.1   o o o o o vXvXvXvXvXvXvXvXvXvXvXvXvXvXvXvXvXvXvXvX",
"vXvXvXvXvXvXvXO &.Q.C.!.XX|.|.|.|.|.|.|.|.|.|.}.R.}.|.|.XX|.XXXX|.R.n.e.- vXvXvXvXvXvXvXvXvXvXvXvXvXvXvXvXvXvXvXvXvXvXvXvXvXvXvX",
"vXvXvXvXvXvXvXvX  M [.=X|.|.|.|.XX|.|.|.|.|.R.N.c.Q.=XXX=X|.|.=X;XE.K O vXvXvXvXvXvXvXvXvXvXvXvXvXvXvXvXvXvXvXvXvXvXvXvXvXvXvXvX",
"vXvXvXvXvXvXvX  ; ; m L.-X=X|.|.XXXX|.|.XX Xm.c.c.H.=X=X=X;X=XL.F Z vXvXvXvXvXvXvXvXvXvXvXvXvXvXvXvXvXvXvXvXvXvXvXvXvXvXvXvXvXvX",
"vXvXvXvXvXvXX 6 M C 7 6 Z F |.=X-X=X=X=X=X=X!.&X!.&X[.Z Z Z Z 7 vXvXvXvXvXvXvXvXvXvXvXvXvXvXvXvXvXvXvXvXvXvXvXvXvXvXvXvXvXvXvXvX",
"vXvXvXvXvXvX. M Z 7 vXvXvXvXm n n n n n n n N n n n i vXvXvXvXvXvXvXvXvXvXvXvXvXvXvXvXvXvXvXvXvXvXvXvXvXvXvXvXvXvXvXvXvXvXvXvXvX",
"vXvXvXvXvX; A V V & vXvXvXvXvXvXvXvXvXvXvXvXvXvXvXvXvXvXvXvXvXvXvXvXvXvXvXvXvXvXvXvXvXvXvXvXvXvXvXvXvXvXvXvXvXvXvXvXvXvXvXvXvXvX",
"vXvXvXvXvX; #.$.6 vXvXvXvXvXvXvXvXvXvXvXvXvXvXvXvXvXvXvXvXvXvXvXvXvXvXvXvXvXvXvXvXvXvXvXvXvXvXvXvXvXvXvXvXvXvXvXvXvXvXvXvXvXvXvX",
"vXvXvXvXvX  ; $.$.5 vXvXvXvXvXvXvXvXvXvXvXvXvXvXvXvXvXvXvXvXvXvXvXvXvXvXvXvXvXvXvXvXvXvXvXvXvXvXvXvXvXvXvXvXvXvXvXvXvXvXvXvXvXvX",
"vXvXvXvXvXvXX n #.#.F V vXvXP.P.T.P.P.P.P.vXvXvXvXvXvXvXvXvXvXvXvXvXvXvXvXvXvXvXvXvXvXvXvXvXvXvXvXvXvXvXvXvXvXvXvXvXvXvXvXvXvXvX",
"vXvXvXvXvXvXvX. A =.@.V V %.3XsXgXdX<X<X>XI.%.vXvXvXvXvXvXvXvXvXvXvXvXvXvXvXvXvXvXvXvXvXvXvXvXvXvXvXvXvXvXvXvXvXvXvXvXvXvXvXvXvX",
"vXvXvXvXvXvXvX. 5 @.P.#.L.1XgXgXgXsX4X>X>X>X<XT.G G F 7 vXvXvXvXvXvXvXvXvXvXvXvXvXvXvXvXvXvXvXvXvXvXvXvXvXvXvXvXvXvXvXvXvXvXvXvX",
"vXvXvXvXvXvXvXvXvXi A L.,XhXgXgXkXsX5X=X|.XX-X1XY.Y.=X{.Z n M H A vXvXvXvXvXvXvXvXvXvXvXvXvXvXvXvXvXvXvXvXvXvXvXvXvXvXvXvXvXvXvX",
"vXvXvXvXvXvXvXvXvXvX4 vX.X(.2XgXkXsX4X<X,X-X=X|.XXXX|.|.=X:X:XK.Z vXvXvXvXvXvXvXvXvXvXvXvXvXvXvXvXvXvXvXvXvXvXvXvXvXvXvXvXvXvXvX",
"vXvXvXvXvXvXvXvXvXvXvXvXvXS -X4X6X4X>X;X;X<X=X|.|.|.XX=X|.Z n 6 vXvXvXvXvXvXvXvXvXvXvXvXvXvXvXvXvXvXvXvXvXvXvXvXvXvXvXvXvXvXvXvX",
"vXvXvXvXvXvXvXvXvXvXvXvXvXvX%. X;X-XXX XXX-XXX|.|.=XY.7 i vXvXvXvXvXvXvXvXvXvXvXvXvXvXvXvXvXvXvXvXvXvXvXvXvXvXvXvXvXvXvXvXvXvXvX",
"vXvXvXvXvXvXvXvXvXvXvXvXvXvXvX4 L. X{.{. X{.{. X|.K.8 vXvXvXvXvXvXvXvXvXvXvXvXvXvXvXvXvXvXvXvXvXvXvXvXvXvXvXvXvXvXvXvXvXvXvXvXvX",
"vXvXvXvXvXvXvXvXvXvXvXvXvXvXvXvX& & ; & & & & & % % vXvXvXvXvXvXvXvXvXvXvXvXvXvXvXvXvXvXvXvXvXvXvXvXvXvXvXvXvXvXvXvXvXvXvXvXvXvX"
};
