/* XPM */
static char *result[] = {
/* columns rows colors chars-per-pixel */
"64 64 233 2 ",
"   c #010100",
".  c #0D0A05",
"X  c #040B08",
"o  c #070604",
"O  c #120301",
"+  c #150C05",
"@  c #0A110C",
"#  c #05120C",
"$  c #14130A",
"%  c #1B150A",
"&  c #1E190B",
"*  c #171207",
"=  c #0B1912",
"-  c #171914",
";  c #2B0800",
":  c #231C0D",
">  c #390E05",
",  c #0A2619",
"<  c #11261B",
"1  c #04341E",
"2  c #2A230E",
"3  c #2C2412",
"4  c #242010",
"5  c #332B15",
"6  c #3B2C13",
"7  c #32201B",
"8  c #3D3317",
"9  c #183828",
"0  c #0D3523",
"q  c #343333",
"w  c #450800",
"e  c #470B00",
"r  c #491504",
"t  c #521704",
"y  c #5B0C00",
"u  c #771B03",
"i  c #6B1E05",
"p  c #47391B",
"a  c #54301A",
"s  c #793513",
"d  c #6F2C0F",
"f  c #41362B",
"g  c #763D31",
"h  c #0B492B",
"j  c #1C4434",
"k  c #175635",
"l  c #135331",
"z  c #224936",
"x  c #25533D",
"c  c #334A2E",
"v  c #0E6239",
"b  c #15663D",
"n  c #29643A",
"m  c #56451E",
"M  c #4C411E",
"N  c #694B1D",
"B  c #4D4422",
"V  c #5B4B24",
"C  c #554723",
"Z  c #55582E",
"A  c #654A25",
"S  c #675826",
"D  c #6B5925",
"F  c #645329",
"G  c #695629",
"H  c #765A29",
"J  c #556E36",
"K  c #7B662D",
"L  c #686438",
"P  c #716A34",
"I  c #2A5B43",
"U  c #1C6D42",
"Y  c #176A43",
"T  c #1D734A",
"R  c #2A6647",
"E  c #24764C",
"W  c #316D51",
"Q  c #277A53",
"!  c #367859",
"~  c #33704B",
"^  c #1D5940",
"/  c #4A4E4D",
"(  c #577048",
")  c #79714C",
"_  c #6B6E6E",
"`  c #841801",
"'  c #972E0D",
"]  c #9B3515",
"[  c #8D3110",
"{  c #A73C15",
"}  c #A5340C",
"|  c #A9481A",
" . c #B44718",
".. c #BB531E",
"X. c #AC501A",
"o. c #BA5628",
"O. c #B35023",
"+. c #87682D",
"@. c #926D2C",
"#. c #99732F",
"$. c #856D32",
"%. c #8A7434",
"&. c #927C36",
"*. c #987935",
"=. c #A47B31",
"-. c #AB7E32",
";. c #A0772F",
":. c #8E4E1F",
">. c #C2561F",
",. c #C55A21",
"<. c #CA5C23",
"1. c #C55A2C",
"2. c #D05F23",
"3. c #CD6536",
"4. c #D36A34",
"5. c #E07A3F",
"6. c #84794A",
"7. c #A16655",
"8. c #985947",
"9. c #DD7843",
"0. c #E17C43",
"q. c #2B845A",
"w. c #31855D",
"e. c #3C8454",
"r. c #37824E",
"t. c #348C62",
"y. c #3B8765",
"u. c #3B956B",
"i. c #3F9B70",
"p. c #2A8A63",
"a. c #3FA37E",
"s. c #458A57",
"d. c #558456",
"f. c #50965D",
"g. c #708D4D",
"h. c #45966D",
"j. c #449C74",
"k. c #439670",
"l. c #489367",
"z. c #5BA167",
"x. c #4AA57B",
"c. c #4BA97E",
"v. c #47A278",
"b. c #53AA7C",
"n. c #5CAE7B",
"m. c #5AAA76",
"M. c #5EB07D",
"N. c #64A869",
"B. c #78B26E",
"V. c #65AC76",
"C. c #64B17B",
"Z. c #6BB57B",
"A. c #6DB679",
"S. c #74BA7B",
"D. c #7CBE7C",
"F. c #76B777",
"G. c #7CAD6D",
"H. c #998339",
"J. c #AA8437",
"K. c #B3883A",
"L. c #BE983E",
"P. c #C6943D",
"I. c #939846",
"U. c #AB9243",
"Y. c #AF9849",
"T. c #91A459",
"R. c #B2A64E",
"E. c #918463",
"W. c #8DB36C",
"Q. c #81BC75",
"!. c #80BF7A",
"~. c #8EB169",
"^. c #B3BB62",
"/. c #EC874D",
"(. c #F18E53",
"). c #F49156",
"_. c #EF8B50",
"`. c #C8A94A",
"'. c #D5B54E",
"]. c #DCB44D",
"[. c #C7B958",
"{. c #D5BB54",
"}. c #DEBD52",
"|. c #D6B751",
" X c #CFAC4D",
".X c #E1BE52",
"XX c #E2BC4F",
"oX c #C09C46",
"OX c #84C17B",
"+X c #8CC57B",
"@X c #8DC47A",
"#X c #90C77C",
"$X c #92C97D",
"%X c #9CCB7F",
"&X c #ADC670",
"*X c #DCC158",
"=X c #E4C254",
"-X c #E4C55B",
";X c #E9C85A",
":X c #D9C768",
">X c #E7CC64",
",X c #ECD36A",
"<X c #EDD164",
"1X c #EBD774",
"2X c #F1DD77",
"3X c #F1D86B",
"4X c #F3E27E",
"5X c #4DAC81",
"6X c #71BD80",
"7X c #A99289",
"8X c #AEAA9D",
"9X c #B3B0AC",
"0X c #969687",
"qX c #C4B49E",
"wX c #ABD183",
"eX c #B2D484",
"rX c #C6DC89",
"tX c #D4E18C",
"yX c #DAE38D",
"uX c #E7E78E",
"iX c #F3E483",
"pX c #F5E98A",
"aX c #EBEB92",
"sX c #F7EF94",
"dX c #F8EF94",
"fX c #F7F095",
"gX c #F9F095",
"hX c #FFF89A",
"jX c #D0CBBF",
"kX c #D6D4CF",
"lX c #EFF1F0",
"zX c #E1DFDF",
"xX c None",
/* pixels */
"xXxXxXxXxXxXxXxXxXxXxXxXxXxXxXxXxXxXxXxXxXxXxXxXxXxXxXxXxXxXxXxXxXxXxXxXxXxXxXxXxXxXxXxXxXxXxXxXxXxXxXxXxXxXxXxXxXxXxXxXxXxXxXxX",
"xXxXxXxXxXxXxXxXxXxXxXxXxXxXxXxXxXxXxXxXxXxXxXxXxXxXxXxXxXxXxXxXxXxXH D F 3 + $ xXxXxXxXxXxXxXxXxXxXxXxXxXxXxXxXxXxXxXxXxXxXxXxX",
"xXxXxXxXxXxXxXxXxXxXxXxXxXxXxXxXxXn.M.n.n.n.n.n.b.xXxXxXxXxXxXH H +.=.-.$.G F p & % xXxXxXxXxXxXxXxXxXxXxXxXxXxXxXxXxXxXxXxXxXxX",
"xXxXxXxXxXxXxXxXxXxXxXxXxXxXe.s.m.!.+X+X+X+X#X#XD.z.r.Q xXxXH #.-.-.*.P P Z c Z A V 3 xXxXxXxXxXxXxXxXxXxXxXxXxXxXxXxXxXxXxXxXxX",
"xXxXxXxXxXxXxXxXxXxXxXQ E h V.S.Z.Z.Z.D.#X#X+X+X+XwX+XC.q.Z #.-.%.J J q.q.q.q.e.d.( F 6 B xXxXxXxXxXxXxXxXxXxXxXxXxXxXxXxXxXxXxX",
"xXxXxXxXxXxXxXxXxXxXxXxXxXxXxXxXv.c.5Xv.s.s.m.!.OX!.+X+XF.L ;.N n p.t.S.Z.6Xb.x.x.v.d.n F :   xXxXxXxXxXxXxXxXxXxXxXxXxXxXxXxXxX",
"xXxXxXxXxXxXxXxXxXxXxXxXxXxXxXxXQ k 9 j t.t.A.OX+X+XOX+X@XL p z l.!.D.+X+X#XOXM.x.x.x.u.R l , xXxXxXxXxXxXxXxXxXxXxXxXxXxXxXxXxX",
"xXxXxXxXxXxXxXxXxXxXxXxXxXxXxXk w.y.! y.b.!.+X+X+X+X+XOXm.R ~ z.+X#X+X+X+X+X+XS.x.x.v.x.k.i.E h xXxXxXxXxXxXxXxXxXxXxXxXxXxXxXxX",
"xXxXxXxXxXxXxXxXxXxXxXxXxXxXxX# ! c.x.n.OX+X+X+X+X+X#XF.Q N.OX+X@X+X+X+X+X+X+XA.x.x.v.T y.j.j.t.Y xXxXxXxXxXxXxXxXxXxXxXxXxXxXxX",
"xXxXxXxXxXxXxXxXxXxXxXxXxXxXxXv t.v.x.n.OX+X+X+X+X+XF.n.Q.+X+X+X+X+X+X+X+XOXC.x.x.x.j.= X $ 0 E w.l Y Y xXxXxXxXxXxXxXxXxXxXxXxX",
"xXxXxXxXxXxXxXxXxXxXxXxXxXxXxXxXv q.i.k.b.D.OX+X+XS.n.+X+X+X@X@X+X#X+XD.!.n.x.x.x.c.u.=   5 5 $ $ - ! y.Y h xXxXxXxXxXxXxXxXxXxX",
"xXxXxXxXxXxXxXxXxXxXxXxXxXxXxXxXxXxXv T u.c.OX#X+XS.C.+X+X+X+X#XOXF.S.x.x.x.c.c.v.w.h xXxXxX4 V H V .     xXxXxXxXxXxXxXxXxXxXxX",
"xXxXxXxXxXxXxXxXxXxXxXxXxXxXxXxXxXxXxXxXY p.b.wX#X+X$X+X+X+XD.F.C.x.c.c.c.u.W R ^ 1   xXxXxXxX2 %.H 3 + xXxXxXxXxXxXxXxXxXxXxXxX",
"xXxXxXxXxXxXxXxXxXxXxXxXxXxXxXxXxXxXxXxXu p E n.S.6XV.z.Z.6X5X5X5Xv.q.x ^ 0 6 a t > xXxXxXxXxX* p ;.+.& xXxXxXxXxXxXxXxXxXxXxXxX",
"xXxXxXxXxXxXxXxXxXxXxXxXxXxXxXxXxXxXxX` ` | :.c j 9 c p z j j j j 9 < r d d X.2.>.{ ` xXxXxXxXxX* ;.=.: xXxXxXxXxXxXxXxXxXxXxXxX",
"xXxXxXxXxXxXxXxXxXxXxXxXxXxXxXxXxXxX' |  .,.<.:.i ;   ;               ; r [  .,.<...` xXxXxXxXxXxXK ;.H G xXxXxXxXxXxXxXxXxXxXxX",
"xXxXxXxXxXxXxXxXxXxXxXxXxXxXxXxXxX` ' <.,.,.,.} t O                       O [ 2.,.,.| ; xXxXxXxXxXG #.-.H V xXxXxXxXxXxXxXxXxXxX",
"xXxXxXxXxXxXxXxXxXxXxXxXxXxXc.v.A } ,.,.,...3 O               o o o o       r { <.<...+ xXxXxXxXxX% #.-.p o xXxXxXxXxXxXxXxXxXxX",
"xXxXxXxXxXxXxXxXxXxXxXxXr.n.OX~ d  .<.,.>.u O           . . p V V V p +     t { ,...| + xXxXxXxXxX. @.-.6   xXxXxXxXxXxXxXxXxXxX",
"xXxXxXxXxXxXxXxXxXxXb f.OXOXB.s  .0.0.<.| O           & V V F F F F F V . o s <.<.X.. xXxXxXxXxXxX. @.-.6   xXxXxXxXxXxXxXxXxXxX",
"xXxXxXxXxXxXxXxXT E N.@X#XD.k u 9.)./.9.u o q -   o 3 F F F F p p p F f o i  .<.o.s   xXxXxXxXxXxX. @.-.6   xXxXxXxXxXxXxXxXxXxX",
"xXxXxXxXxXxXxXe.m.OX@X@X#XB.+ y O.9.(.9.] > kX/   7 G G F G p / / c 6 ; a o.4.<.s     xXxXxXxXxXxXo @.J.6   xXxXxXxXxXxXxXxXxXxX",
"xXxXxXxXxXb.A.+X+X+X@X@X@XB.0 xXu o.(.(.0.o.7.a O @ 5 5 7 5 o _ 9X8.r O./.)./. .y     xXxXxXxXxX* a #.K.6   xXxXxXxXxXxXxXxXxXxX",
"xXxXxXxXn.S.+X+XA.!.@X@X#XOXw., xX] 9.).).(.3.1.s w w e e e w g 8.1.3.(.(.0. .X.H   xXxXxXxXxXxX* =.J.m : xXxXxXxXxXxXxXxXxXxXxX",
"xXxXxXv.C.+X+X+Xb.F.+X+X!.M.x.l xXxX] { O.0.).).9.3.3.3.3.3.3.3.0.)._.4. .' .. XH.  xXxXxXxXxX$ m ;.K % xXxXxXxXxXxXxXxXxXxXxXxX",
"xXxXxXC.OX+X+XM.S.+X+X+XD.x.x.i.9 xXxXf 7X] ] ] 9.(.(.(.(.(.(.9.>.{ ] ' K.P.].H.2 xXxXxXxXxX4 m F D : xXxXxXxXxXxXxXxXxXxXxXxXxX",
"xXxXv.Z.+X+XOXb.!.+X+XD.c.x.x.c.E , o q 9X9X7 p ] ' ' ' ] ] ' ` 7.9X7XH '.=X=XK   xXxXxXxXk b n n n k b b b b b b xXxXxXxXxXxXxX",
"xXxXx.Z.+X+XOXv.!.+X+XA.x.x.x.x.j.j.I $ ) lX6.0X6.A H L 8X9Xq _ zXzX9X7.'.=X=XK o xXE b U z.OXQ.D.D.Q.Q.Q.OXA.x.h.< @ @ @ xXxXxX",
"xXv z.#X@X#XD.n B.OXC.x.x.x.x.x.5Xj.( F B kXzXE.Y.:X|. X6.kX( 8XlX8XM '.*X*X`.g.b r.!.OXOX@X+X+X@XD.!.!.!.OXD.N.i.u.u.u.x X # xX",
"xXv N.%XOXD.F.U V.M.x.x.x.x.x.x.h.( &..X X6.K `..X.X}.}.].%.9XkXqXL.'.=X=XL.M n S.@X@X+XD.D.D.D.F.n.n.n.n.n.h.E T T E E b h 0   ",
"xXh s.6XC.x.j.Q w.v.x.x.x.x.v.c.( H U..X.X}..X}.].].}.}.}..XJ.$.L.=X}.'.H.c ! m.z.z.S.A.C.V.C.n.Z.+X+X+X#XOXC.x.c.c.! W j     xX",
"xX  W 5Xx.x.x.x.w.u.v.x.x.x.c.d.6.`.;X;X-X,X1X,X1X1X1X.X}.}.}..X=X=X=X'.* ! u.q.q.f.V.Z.OX+X+X+X+X+X+X+X$XZ.v.c.x.I =   xXxXxXxX",
"xXxX9 ! 5Xj.5Xj.5Xx.5Xx.x.j.( U.>X4XiXiXiXfXgXgXgXgXpXiX1X>X}.}.}.[.T.S R Q e.N.6X$X#X+X+X+X+X@X+X+X+X+XS.n.5Xk.z   xXxXxXxXxXxX",
"xXxX  z 5X5Xj.5Xj.w.p.5Xh.( G.&XuXgXgXfXfXsXfXsXfXfXfXfXfXpXiX>XXX^.t.X U w.m.wX+X+X@X+X+X+X+X+X+X+X+XZ.b.x.! 9 xXxXxXxXxXxXxXxX",
"xXxX  I 5Xx.j.5X5Xu.5X! c ~.+X+XwXrXgXsXfXfXdXfXfXfXfXsXfXfXgX4X;X{.T.k w.A.OX+X+X+X+X+X@X+X+X+X@X+Xn.c.x.5XW   xXxXxXxXxXxXxXxX",
"xXxXxX. z 5X5Xj.j.5X( V L !.+X@XrXaXdXsXgXsXsXsXsXsXsXsXsXsXfXgX3XR.~ h.x.D.+X+X+X+X+X+X+X+X+X@X+X!.b.x.c.j.k.xXxXxXxXxXxXxXxXxX",
"xXxXxXxX9 j.5X5X5Xj.I L aXuX%X$XyXgXsXsXsXdXsXfXsXsXsXfXsXsXaXaX1XI.T v.x.D.+X+X+X+X+X+X+X@X@X@XS.b.x.x.b.I X xXxXxXxXxXxXxXxXxX",
"xXxXxXxXxX< y.y.j.( Y.dXgXdXsXaXsXsXdXsXsXsXsXdXfXsXdXsXfXuXwX+Xz.E v.x.x.S.+X+X@X@X+X@X@X@X+XS.c.x.x.x.5XI   xXxXxXxXxXxXxXxXxX",
"xXxXxXxXxXxX  X W , ) hXfXsXfXsXsXfXgXgXgXgXgXdXsXsXsXsXyXwX+X$Xf.T x.x.x.x.C.!.!.+X#X+XD.D.C.x.x.x.x.x.y.z   xXxXxXxXxXxXxXxXxX",
"xXxXxXxXxXxXxXxX  7 Y.gXsXdXsXsXgXuXtXtXtXtXtXaXfXfXgXuX+X+XD.S.f.T x.x.x.x.x.x.n.S.S.S.b.x.x.x.x.x.x.5X9   xXxXxXxXxXxXxXxXxXxX",
"xXxXxXxXxXxXxXxX  &.;X1XgXgXsXsXyXwXOX+XOX+XOXyXgXfXfXaXrX&X~.~.s.T x.x.x.x.x.x.x.v.x.x.x.x.x.x.x.x.5XW 0 xXxXxXxXxXxXxXxXxXxXxX",
"xXxXxXxXxXxXxXxX  &.=X;X2XfXfXdXwXOX+X+X+X+XOXyXgXfXfXsX1X.XXX=XR.g.w.v.x.x.x.x.x.x.x.x.x.x.x.x.x.x.5X< xXxXxXxXxXxXxXxXxXxXxXxX",
"xXxXxXxXxXxXxXxX  H.=X}.*X,X2XdXwXOX+X+X+X#XrXaXfXiX,X;XXX}.}.}.=XI.b x.x.x.x.x.x.x.x.x.x.x.x.5Xk.9 9 - xXxXxXxXxXxXxXxXxXxXxXxX",
"xXxXxXxXxXxXxXxX  &.=X}.}.}.*X>X:X~.n.n.n.V.:X>X>X*X}.}.}.}.}.}.=X*XH.j k.c.x.x.x.x.x.x.x.x.5X! < xXxXxXxXxXxXxXxXxXxXxXxXxXxXxX",
"xXxXxXxXxXxXxXxXxX& %.^.W.{.}.}.}.{.[.^.^.[.}.}.}.}.}.}.}.}.}.}.=X=XR.* e.x.x.x.x.x.x.x.j.x.R = xXxXxXxXxXxXxXxXxXxXxXxXxXxXxXxX",
"xXxXxXxXxXxXxXxXxX  H ^.v.N.{.}.}.XXXX}.=XXX}.}.}.}.}.}.}.}.}.}.*X=X[.l.9 @ I j.k.k.k.k.9 @ @ xXxXxXxXxXxXxXxXxXxXxXxXxXxXxXxXxX",
"xXxXxXxXxXxXxXxXxX  S R.m.V.{.}.}.}.}.}.=X}.}.}.*X{.[.[.}.}.}.*X*X].*Xm.y.<   X X X X X xXxXxXxXxXxXxXxXxXxXxXxXxXxXxXxXxXxXxXxX",
"xXxXxXxXxXxXxXxXxXxX@ M Y.=X}.}.}.}.}.}.}.}.}.}.{.~.v.V.{.}.}.=X=X=XR.r.= xXxXxXxXxXxXxXxXxXxXxXxXxXxXxXxXxXxXxXxXxXxXxXxXxXxXxX",
"xXxXxXxXxXxXxXxXxX$ p p 8 H.}.-X.X}.}..X}.}.XXXX~.a.v.m.{.=X=X;X`.&.$.. xXxXxXxXxXxXxXxXxXxXxXxXxXxXxXxXxXxXxXxXxXxXxXxXxXxXxXxX",
"xXxXxXxXxXxXxXxX: B G C 7 @ K K `.;X=X=X=X-X-X=X^.W.W.W.*X&.K K B   xXxXxXxXxXxXxXxXxXxXxXxXxXxXxXxXxXxXxXxXxXxXxXxXxXxXxXxXxXxX",
"xXxXxXxXxXxXxX  C G p : xXxXxXxXB D S S D S S S D D H D S + xXxXxXxXxXxXxXxXxXxXxXxXxXxXxXxXxXxXxXxXxXxXxXxXxXxXxXxXxXxXxXxXxXxX",
"xXxXxXxXxXxX+ A F G 3   xXxXxXxXxXxXxXxXxXxXxXxXxXxXxXxXxXxXxXxXxXxXxXxXxXxXxXxXxXxXxXxXxXxXxXxXxXxXxXxXxXxXxXxXxXxXxXxXxXxXxXxX",
"xXxXxXxXxXxX+ #.#.p $ xXxXxXxXxXxXxXxXxXxXxXxXxXxXxXxXxXxXxXxXxXxXxXxXxXxXxXxXxXxXxXxXxXxXxXxXxXxXxXxXxXxXxXxXxXxXxXxXxXxXxXxXxX",
"xXxXxXxXxXxX. #.=.5 xXxXxXxXxXxXxXxXxXxXxXxXxXxXxXxXxXxXxXxXxXxXxXxXxXxXxXxXxXxXxXxXxXxXxXxXxXxXxXxXxXxXxXxXxXxXxXxXxXxXxXxXxXxX",
"xXxXxXxXxXxXxX$ m +.#.+.F xXxXxXxXxXxXxXxXxXxXxXxXxXxXxXxXxXxXxXxXxXxXxXxXxXxXxXxXxXxXxXxXxXxXxXxXxXxXxXxXxXxXxXxXxXxXxXxXxXxXxX",
"xXxXxXxXxXxXxXxX  N -.@.G xXxXK.K.U.K.K.K.K.xXxXxXxXxXxXxXxXxXxXxXxXxXxXxXxXxXxXxXxXxXxXxXxXxXxXxXxXxXxXxXxXxXxXxXxXxXxXxXxXxXxX",
"xXxXxXxXxXxXxXxX  5 H J.#.F $.:XpXsXiX3X,X,XoX&.P xXxXxXxXxXxXxXxXxXxXxXxXxXxXxXxXxXxXxXxXxXxXxXxXxXxXxXxXxXxXxXxXxXxXxXxXxXxXxX",
"xXxXxXxXxXxXxXxXxXxXp H @.*.:XpXfXfXpXiX<X>X>X3XR.$.xXxXxXxXxXxXxXxXxXxXxXxXxXxXxXxXxXxXxXxXxXxXxXxXxXxXxXxXxXxXxXxXxXxXxXxXxXxX",
"xXxXxXxXxXxXxXxXxXxXxX3 K -XdXdXfXfXiX<X}.}.|.;X<X X&.%.V . xXxXxXxXxXxXxXxXxXxXxXxXxXxXxXxXxXxXxXxXxXxXxXxXxXxXxXxXxXxXxXxXxXxX",
"xXxXxXxXxXxXxXxXxXxXxXxXK U.2XdXfXpX2X,X;X>X*X}.}.}.=X=X}.$.S &.K xXxXxXxXxXxXxXxXxXxXxXxXxXxXxXxXxXxXxXxXxXxXxXxXxXxXxXxXxXxXxX",
"xXxXxXxXxXxXxXxXxXxXxXxXxXL .X2X4X3X3X,X>X,X=X}.}.}.}.}.}.=X;XH.B xXxXxXxXxXxXxXxXxXxXxXxXxXxXxXxXxXxXxXxXxXxXxXxXxXxXxXxXxXxXxX",
"xXxXxXxXxXxXxXxXxXxXxXxXxXxX%.|.-X-X-X=X}.-X}.}.}.}.}..X'.V p 2 xXxXxXxXxXxXxXxXxXxXxXxXxXxXxXxXxXxXxXxXxXxXxXxXxXxXxXxXxXxXxXxX",
"xXxXxXxXxXxXxXxXxXxXxXxXxXxXxX3 H.*X|.|.'.|.|.|.|.}.U.5 5 xXxXxXxXxXxXxXxXxXxXxXxXxXxXxXxXxXxXxXxXxXxXxXxXxXxXxXxXxXxXxXxXxXxXxX",
"xXxXxXxXxXxXxXxXxXxXxXxXxXxXxXxX& & D L.: : : & & & & xXxXxXxXxXxXxXxXxXxXxXxXxXxXxXxXxXxXxXxXxXxXxXxXxXxXxXxXxXxXxXxXxXxXxXxXxX"
};
