/* XPM */
static char *result[] = {
/* columns rows colors chars-per-pixel */
"16 16 137 2 ",
"   c #100803",
".  c #221C0E",
"X  c #221D0E",
"o  c #0E3321",
"O  c #5F250C",
"+  c #58280E",
"@  c #482B17",
"#  c #43381B",
"$  c #6C2D11",
"%  c #27482F",
"&  c #2B4C2F",
"*  c #2A583A",
"=  c #30593E",
"-  c #60461B",
";  c #75431F",
":  c #5E4920",
">  c #5C4F2E",
",  c #4B512C",
"<  c #634427",
"1  c #624B20",
"2  c #694F21",
"3  c #7D4F31",
"4  c #75662E",
"5  c #666533",
"6  c #7C6A30",
"7  c #79693A",
"8  c #2A634A",
"9  c #2C634B",
"0  c #2F654A",
"q  c #2D7251",
"w  c #347557",
"e  c #357759",
"r  c #515C42",
"t  c #406A48",
"y  c #497445",
"u  c #567040",
"i  c #527047",
"p  c #974016",
"a  c #894C31",
"s  c #A05025",
"d  c #B15525",
"f  c #847031",
"g  c #A96134",
"h  c #BD6033",
"j  c #AA6547",
"k  c #A36D4F",
"l  c #BB7D57",
"z  c #368360",
"x  c #3A8E65",
"c  c #458353",
"v  c #48845C",
"b  c #4D8D5D",
"n  c #68824C",
"m  c #7B8A4D",
"M  c #788C4C",
"N  c #698854",
"B  c #668B58",
"V  c #798E5B",
"C  c #729A5A",
"Z  c #719A5D",
"A  c #478F68",
"S  c #4B9467",
"D  c #48966D",
"F  c #5B9C66",
"G  c #589F69",
"H  c #429670",
"J  c #479C74",
"K  c #469E76",
"L  c #4FA075",
"P  c #4EA277",
"I  c #4DA67B",
"U  c #50A172",
"Y  c #50A575",
"T  c #5DA973",
"R  c #64A66A",
"E  c #67A66D",
"W  c #7CA76B",
"Q  c #60AB74",
"!  c #63B079",
"~  c #63B27B",
"^  c #67B178",
"/  c #71B374",
"(  c #78B875",
")  c #7FBB77",
"_  c #73B878",
"`  c #72B87A",
"'  c #71B97C",
"]  c #79BA78",
"[  c #7BBC79",
"{  c #7BBD7B",
"}  c #7EBD78",
"|  c #7CBE7A",
" . c #7FBF7B",
".. c #78BC7C",
"X. c #92833D",
"o. c #B4853A",
"O. c #AA903E",
"+. c #8B9757",
"@. c #929F54",
"#. c #A28E44",
"$. c #A89140",
"%. c #A59D4C",
"&. c #B29742",
"*. c #BEA34A",
"=. c #B4AC55",
"-. c #BAA658",
";. c #BEA861",
":. c #C0A549",
">. c #C6AF54",
",. c #C5BA5A",
"<. c #CBBF5E",
"1. c #D3BD56",
"2. c #D4BD57",
"3. c #DABC52",
"4. c #D2B65A",
"5. c #C0A966",
"6. c #C5B065",
"7. c #87C27A",
"8. c #80C27D",
"9. c #82C27C",
"0. c #8CC57B",
"q. c #A9CA7A",
"w. c #B2CD7C",
"e. c #DFC15A",
"r. c #E7DA79",
"t. c #EBDB7A",
"y. c #EEDB7A",
"u. c #F0DE7B",
"i. c #BCD482",
"p. c #E1DE84",
"a. c #E0E18B",
"s. c #F6EC8E",
"d. c #F8ED8E",
"f. c #E5E991",
"g. c #E9EA92",
"h. c #F3EF94",
"j. c None",
/* pixels */
"j.j.j.j.^ ` j.j.6 , j.j.j.j.j.j.",
"j.j.j.j.S / ) n Z E v * j.j.j.j.",
"j.j.j.j.x _ 9.} 8.! z % & j.j.j.",
"j.j.j.j.j.7 i t = > ; j.: j.j.j.",
"j.j.j.B d $   X . O p j.2 j.j.j.",
"j.j.( N h a @ < 3 s + j.- j.j.j.",
"j.[ { U r k g j l o.j.y u c j.j.",
"b T Y L +.6.4.5.;.M R ] | Q q o ",
"j.H D W p.d.s.u.@.F 7.0...A j.j.",
"j.8 V a.f.g.h.i.G ~  .' P 9 j.j.",
"j.j.#.r.q.w.t.<.C K I J e j.j.j.",
"j.j.5 =.1.2.,.3.%.0 w j.j.j.j.j.",
"j.j.# 4 O.$.m X.j.j.j.j.j.j.j.j.",
"j.j.1 j.j.j.j.j.j.j.j.j.j.j.j.j.",
"j.j.j.-.y.e.*.j.j.j.j.j.j.j.j.j.",
"j.j.j.j.>.:.&.f j.j.j.j.j.j.j.j."
};
