/* XPM */
static char *result[] = {
/* columns rows colors chars-per-pixel */
"64 64 239 2 ",
"   c #010100",
".  c #0D0A05",
"X  c #050C08",
"o  c #070705",
"O  c #110C05",
"+  c #150904",
"@  c #04120C",
"#  c #07150E",
"$  c #1A150A",
"%  c #1F1A0B",
"&  c #151309",
"*  c #0C1B14",
"=  c #0A1711",
"-  c #121513",
";  c #270901",
":  c #380801",
">  c #251D0C",
",  c #361508",
"<  c #311C17",
"1  c #12271D",
"2  c #09341D",
"3  c #0A2A18",
"4  c #28220F",
"5  c #2B2411",
"6  c #272412",
"7  c #352B14",
"8  c #3A2C12",
"9  c #3D3419",
"0  c #32250F",
"q  c #142B21",
"w  c #173829",
"e  c #0C3725",
"r  c #2E3429",
"t  c #410B00",
"y  c #441B09",
"u  c #46381A",
"i  c #553213",
"p  c #773514",
"a  c #6E260C",
"s  c #4C3F20",
"d  c #1B4834",
"f  c #0E5733",
"g  c #155937",
"h  c #11482C",
"j  c #224B38",
"k  c #2C5336",
"l  c #12653C",
"z  c #19683D",
"x  c #0F6239",
"c  c #246A3D",
"v  c #386035",
"b  c #55451E",
"n  c #4D411C",
"m  c #6A481F",
"M  c #4C4322",
"N  c #544523",
"B  c #5C4D26",
"V  c #5E5528",
"C  c #4C5831",
"Z  c #654B22",
"A  c #645329",
"S  c #6D592A",
"D  c #695628",
"F  c #765B28",
"G  c #6B5434",
"H  c #7E6B2E",
"J  c #76622C",
"K  c #7C6935",
"L  c #737233",
"P  c #436734",
"I  c #255942",
"U  c #186C44",
"Y  c #1E744B",
"T  c #1F7C55",
"R  c #2C644B",
"E  c #2F6A4E",
"W  c #256C47",
"Q  c #22754C",
"!  c #25764A",
"~  c #326E51",
"^  c #277D54",
"/  c #337A59",
"(  c #37794A",
")  c #185C40",
"_  c #7D564D",
"`  c #52784D",
"'  c #6E7147",
"]  c #6C5955",
"[  c #821600",
"{  c #942909",
"}  c #9B310C",
"|  c #9C3715",
" . c #882B0C",
".. c #A63B14",
"X. c #A2360F",
"o. c #A84418",
"O. c #B74A1A",
"+. c #BC541E",
"@. c #B54B23",
"#. c #B25327",
"$. c #84682C",
"%. c #936E2C",
"&. c #826D31",
"*. c #8A7738",
"=. c #947A36",
"-. c #91722E",
";. c #A37A31",
":. c #A57B32",
">. c #B36B28",
",. c #985D26",
"<. c #C2541E",
"1. c #C55A21",
"2. c #CA5D22",
"3. c #C3592C",
"4. c #C95F31",
"5. c #D26935",
"6. c #866C50",
"7. c #AB644D",
"8. c #9E6F61",
"9. c #E17C45",
"0. c #2C845B",
"q. c #2C8256",
"w. c #368659",
"e. c #34804D",
"r. c #3B8A65",
"t. c #3B926A",
"y. c #3B966C",
"u. c #3AA27F",
"i. c #4E945C",
"p. c #769455",
"a. c #48976A",
"s. c #589E65",
"d. c #449D74",
"f. c #469972",
"g. c #50936A",
"h. c #5AA36B",
"j. c #46A37A",
"k. c #4AA57B",
"l. c #4CA97E",
"z. c #48A175",
"x. c #53AA7B",
"c. c #5CAE7B",
"v. c #57A876",
"b. c #5FB17C",
"n. c #65A668",
"m. c #79AC6B",
"M. c #63B27B",
"N. c #6BB67C",
"B. c #6DB479",
"V. c #74BA7C",
"C. c #7BBD7C",
"Z. c #79B774",
"A. c #6AAE73",
"S. c #639D6A",
"D. c #7DC17E",
"F. c #9A833D",
"G. c #AD8234",
"H. c #A8863A",
"J. c #B68637",
"K. c #B1933F",
"L. c #978748",
"P. c #A38842",
"I. c #AD9342",
"U. c #BA9D44",
"Y. c #B59B43",
"T. c #A7A44A",
"R. c #B4B65D",
"E. c #BEB85B",
"W. c #BAA74A",
"Q. c #98B568",
"!. c #80BC75",
"~. c #80BF7B",
"^. c #82B371",
"/. c #88AE69",
"(. c #A7B462",
"). c #918563",
"_. c #E9854B",
"`. c #EE8B51",
"'. c #F18E53",
"]. c #F49156",
"[. c #F79559",
"{. c #C9AA4A",
"}. c #C8B24F",
"|. c #D3B44E",
" X c #DFBC4F",
".X c #CAB858",
"XX c #D7B750",
"oX c #DEBD52",
"OX c #D3BB54",
"+X c #E1BE52",
"@X c #E3BD4F",
"#X c #C7BC6A",
"$X c #CD9C41",
"%X c #84C27B",
"&X c #8CC57B",
"*X c #8FCA7E",
"=X c #91C97D",
"-X c #93C87D",
";X c #B4C66F",
":X c #DDC15E",
">X c #E3C254",
",X c #E4C65B",
"<X c #E9C759",
"1X c #CCC56B",
"2X c #E6CD65",
"3X c #E7CE69",
"4X c #EACE64",
"5X c #EDD369",
"6X c #EAD26B",
"7X c #EBD773",
"8X c #F1DA72",
"9X c #F3E27F",
"0X c #4DAC81",
"qX c #7D8889",
"wX c #83898A",
"eX c #A89E97",
"rX c #A5978B",
"tX c #B2B0AB",
"yX c #9A9FA0",
"uX c #CBB892",
"iX c #B6D685",
"pX c #A9D183",
"aX c #C4DB88",
"sX c #D9E38D",
"dX c #CDE08C",
"fX c #F3E382",
"gX c #F5E98C",
"hX c #EAEA91",
"jX c #F7EF94",
"kX c #F8EF94",
"lX c #F7F095",
"zX c #F9F195",
"xX c #FEF699",
"cX c #E7E78E",
"vX c #C8C3B6",
"bX c #D8D5D1",
"nX c #F2F3F3",
"mX c #E2E1DE",
"MX c None",
/* pixels */
"MXMXMXMXMXMXMXMXMXMXMXMXMXx.x.x.x.x.x.x.x.MXMXMXMXMXMXMXMXMXMXS S D 8 . . MXMXMXMXMXMXMXMXMXMXMXMXMXMXMXMXMXMXMXMXMXMXMXMXMXMXMX",
"MXMXMXMXMXMXMXMXMXMX! ! a.V.&X*X&X&X%X&X%Xv.e.Q U MXMXMXS F $.;.*.A C C M @ @ X MXMXMXMXMXMXMXMXMXMXMXMXMXMXMXMXMXMXMXMXMXMXMXMX",
"MXMXMXMXMXMXMXY Q w.D.C.V.C.C.C.&X*X*X&X&X&X&XV.f.Q MXF %.-.L L ! Y Q Q Y Y Y h * MXMXMXMXMXMXMXMXMXMXMXMXMXMXMXMXMXMXMXMXMXMXMX",
"MXMXMXMXMXMXMXq./ R R 0.z.0Xl.k.s.s.n.C.&X&X&X&XD.s.S ;.$.v T 0.c.M.M.b.l.k.k.r.^ ^ MXMXMXMXMXMXMXMXMXMXMXMXMXMXMXMXMXMXMXMXMXMX",
"MXMXMXMXMXMXMXMX2     f g j j I ^ ^ a.V.&X&X&X&X*X/.V s j ` N.V.&X-X&X%XM.l.j.l.l.z.0.^ Y MXMXMXMXMXMXMXMXMXMXMXMXMXMXMXMXMXMXMX",
"MXMXMXMXMXMXMXMXMXMXMXMX2 h I R d.N.%X*X&X&X&X&XD.s.v k s.%X&X*X&X&X&X&X%Xl.j.z.k.k.l.l.t.^ MXMXMXMXMXMXMXMXMXMXMXMXMXMXMXMXMXMX",
"MXMXMXMXMXMXMXMXMXMXMXl r.d.0X0XV.&X&X&X&X&X&X=Xh.^ n.C.pX&X%X&X&X&X&X&X~.x.l.l.t.q.k.j.k.d.0.l x l MXMXMXMXMXMXMXMXMXMXMXMXMXMX",
"MXMXMXMXMXMXMXMXMXMXMX# ~ 0Xd.c.%X&X&X&X&X&X&XN.M.Z.&X&XD.D.&X&X&X&X&XC.x.k.k.l.E @ 1 1 f r.d.t.t.t.^ f MXMXMXMXMXMXMXMXMXMXMXMX",
"MXMXMXMXMXMXMXMXMXMXMXf w.j.k.x.D.&X&X&X&X%Xc.B.%X&X&X&X&X&X&X&X&X&XB.k.j.j.l.0XI O s N 6 @ = * * * # @ MXMXMXMXMXMXMXMXMXMXMXMX",
"MXMXMXMXMXMXMXMXMXMXMXMXl 0.d.d.v.C.&X&X&X&Xc.V.&X&X&X&X&X&X%XC.x.k.k.k.0Xk.d.Q g MXO N A 7 o MXMXMXMXMXMXMXMXMXMXMXMXMXMXMXMXMX",
"MXMXMXMXMXMXMXMXMXMXMXMXMXMXl U t.z.V.*X&X&X&X&X&X=X&X%X~.M.l.x.l.l.z.t.r.w.g 3 MXMXo u B A u & MXMXMXMXMXMXMXMXMXMXMXMXMXMXMXMX",
"MXMXMXMXMXMXMXMXMXMXMXMXMXMXMXMXk q.v.%X&X&X&X%XD.D.D.x.l.l.z.t./ / z q , , ; MXMXMXMX  7 A F N o MXMXMXMXMXMXMXMXMXMXMXMXMXMXMX",
"MXMXMXMXMXMXMXMXMXMXMXMXMXMXMXMX[ Z ( d.pX0XD.f.^ E R E R E I e : y y p 2.1.o.{ MXMXMXMX  u %.F 5 O MXMXMXMXMXMXMXMXMXMXMXMXMXMX",
"MXMXMXMXMXMXMXMXMXMXMXMXMXMX{ X...+.,.C ) k I h #               : a } O.1.1.<.} [ MXMXMXMX& s ;.$.> MXMXMXMXMXMXMXMXMXMXMXMXMXMX",
"MXMXMXMXMXMXMXMXMXMXMXMXMXMX{ 1.2.1.2...:                           + a 2.<.2.+.a MXMXMXMXMX> ;.;.> MXMXMXMXMXMXMXMXMXMXMXMXMXMX",
"MXMXMXMXMXMXMXMXMXMXMXMXMX} O.1.2.2. ., ;                             ; | <.1.2.p   MXMXMXMXu J ;.$.D MXMXMXMXMXMXMXMXMXMXMXMXMX",
"MXMXMXMXMXMXMXMXMXMXMXMX[ ..2.1.1.X.:               o u s s s u .     ; { <.2.2.p   MXMXMXMXMX> %.:.m O MXMXMXMXMXMXMXMXMXMXMXMX",
"MXMXMXMXMXMXMXMXMXMXz. ...5.9.2.+.y             > N N A A A A A N &   y O.<.2.i + MXMXMXMXMXMXO %.:.u   MXMXMXMXMXMXMXMXMXMXMXMX",
"MXMXMXMXMXMXMXz w.b.^. .4.'.'.9.{ ; X -     o 9 B A A A B N B A B & t } 2.1.+.y   MXMXMXMXMXMXO %.J.u   MXMXMXMXMXMXMXMXMXMXMXMX",
"MXMXMXMXMXMX! n.&X%Xm.p 5.].'.9. .< yXtX  o u A A A A N r - & u .   p 2.1.+.,     MXMXMXMXMXMX+ %.:.u   MXMXMXMXMXMXMXMXMXMXMXMX",
"MXMXMXU Q e.Z.&X%XA.h a 3.9.[.9.@.8.mXyX    N D G G B O wXwXq   ; a 5._.2.O.;     MXMXMXMXMXMX. %.:.u   MXMXMXMXMXMXMXMXMXMXMXMX",
"MXMXw.i.N.&X&X&XpXp.o MX[ @.[.`.'.#.7._ ;   5 9 9 9 7 o qXvX6.t | 9.].`.5.a +   MXMXMXMXMXMX% u %.J.u   MXMXMXMXMXMXMXMXMXMXMXMX",
"MXM.C.=X=X&X&X&X=Xn.e MXMX..5.'.].].5.@.o.t : : : : : : _ 7.O.3.`.[._.4...#.> MXMXMXMXMXMXMX4 :.:.m 8 MXMXMXMXMXMXMXMXMXMXMXMXMX",
"V.%X=XC.N.%X&X&X&XV.r.* MXMX{ @.@.9.[.[.`.4.3.3.3.4.3.3.3.5.[.'.5.@.X.o.J. X5 MXMXMXMXMXMX% b ;.%.$ MXMXMXMXMXMXMXMXMXMXMXMXMXMX",
"&X&X&XV.x.%X&X&XC.c.z.d MXMXMX< 8.7.| | @.`.].].].].].].9.3.....X.>.J.$X{.b MXMXMXMXMX  5 N S S 5 . MXMXMXMXMXMXMXMXMXMXMXMXMXMX",
"&X&XB.M.C.&X&X&XV.j.l.y.w MXMX- tXtX] , m | | | X.| X.| } 8.eXrXF U.>X>XY.. MXMXMXMX. u B A n $ MXMXMXMXMXMXMXMXMXMXMXMXMXMXMXMX",
"&X&XN.b.&X&X&XN.x.j.l.l.Y 2   O G bXrX] rXF Z m 6.tXeX< ] mXnXtX7.{.>X>XU.O MXMXMX& M B v c g g z z z z U z l l z MXMXMXMXMXMXMX",
"&X&XM.v.&X&X&XM.j.l.j.z.0Xd.` A 4 tXnXtX6.{.|.OXP.).mXr tXnXtXu {.>X>X>XW.4 MX@ 3 z c c n.~.!.!.!.C.!.!.!.Z.v.z.E # # # MXMXMXMX",
"&X-Xi.e.&XD.c.j.j.k.k.k.z.` &.XX|.F.K L. XoXoXoX+X{.6.vXmXuXK.XXOX>XoX>X XK.v Y i.&X!.&X&X&X&X&X%XD.!.%X~.~.Z.h.y.t.t.y.w @ @ MX",
"C.%Xw.e.V.k.k.k.k.k.k.l.` D =.oX XOXoXoX X XoXoXoXoXXX=.&.I.oXoXoXoX>X|.*.w a.D.=X&X&XC.C.V.C.V.c.c.c.c.c.c.^ ! Y Q Q Q g h 2   ",
"j.k.r.q.t.z.l.k.k.k.k.i.L U.,X<X2X2X3X3X3X3X,X>XoXoXoXoX>X+X+X+XoX>XY.D d z.h.n.n.V.B.M.M.M.b.M.&X&X&X&X&XV.x.l.0Xd.~ E q   MXMX",
"j.k.l.y.q.z.j.k.l.d.i.7.oX9XfXfXlXlXlXlXlXlXfX7X3X,XoXoXoXE.Q.(.OX<XZ e l.0.q.e.s.M.N.&X&X&X&X&X&X&X&X&X~.k.k.0Xr.j     MXMXMXMX",
"k.k.k.l.k.0Xj.0Xi.` ).;XcXlXlXlXkXjXjXkXjXjXlXlXgXfX7X>X XQ.u.x..X-.v R q.i.B.%X&X&X-X&X&X&X&X&X&X&X&X~.M.k.0X~ w MXMXMXMXMXMXMX",
"k.k.k.k.d.^ d.R P /.%X&X-XsXlXjXjXlXjXjXjXjXjXjXlXlXjX6X>X.X(.R.OX0 e q.t.&X&X*X&X&X&X&X&X&X&X&X&X&XV.v.0Xd.j * MXMXMXMXMXMXMXMX",
"k.k.k.k.j.t.` M ' &X&X&XaXhXlXkXjXkXkXjXlXjXjXjXlXjXjXgX2X X>X X XP U v.D.&X&X&X&X&X&X&X&X&X&X&X&XN.x.k.k.d.* MXMXMXMXMXMXMXMXMX",
"k.k.k.k.k.d.6 ).cXdX-X&XsXxXjXjXlXjXlXjXjXjXjXjXjXjXjXhX2X X>X}.( r.z.N.&X&X&X&X&X&X&X&X&X&X&X&X%Xv.k.k.0Xd.MXMXMXMXMXMXMXMXMXMX",
"f.k.k.l.f.G ;XlXlXjXhXhXjXjXjXjXjXkXkXkXjXjXjXjXjXsXpX&X;X X XW.! y.j.M.&X&X&X&X&X&X&X&X&X&X&X~.c.j.k.l.a.= MXMXMXMXMXMXMXMXMXMX",
"o R r.f.r.- #XxXlXkXkXlXjXlXlXlXlXlXkXkXjXjXkXjXaX&X&X&XM.Q.T.c a.k.j.b.%X&X&X&X&X&X&X&X&X~.V.k.k.l.k.0Xr.X MXMXMXMXMXMXMXMXMXMX",
"MX    w ~ 9 1XxXjXjXkXkXlXhXsXsXsXsXhXkXjXjXjXiX&X&XV.C.B.(.T.z d.j.k.j.x.C.C.%X&X&X&X~.~.B.k.k.k.k.j.f.~ X MXMXMXMXMXMXMXMXMXMX",
"MXMXMXMX> XX<X9XlXkXkXkXcXiX&X&X&X&XaXzXjXjXjXdX;X-Xm.m.E.>XT.U d.l.k.k.k.j.z.M.V.V.V.k.k.k.k.k.k.k.0X~   MXMXMXMXMXMXMXMXMXMXMX",
"MXMXMXMX> {.>X3XgXlXlXjXpX~.&X&X&X&XiXxXlXlXzXfX3X+X+X+X+X+XT.l z.l.j.l.k.k.k.j.j.k.j.k.k.k.k.k.k.0X/ d MXMXMXMXMXMXMXMXMXMXMXMX",
"MXMXMXMX> }.+X X+X7XfXjXiX&X&X&X&XiXcXzXjX7X6X2XoXoX+XoX+X+X}.p.w.y.k.k.k.k.k.k.k.k.k.k.k.k.k.k.l.0Xj   MXMXMXMXMXMXMXMXMXMXMXMX",
"MXMXMXMX> |.>XoXoX+X,X2X1XQ.c.b.M.1X6X3X2XoXoXoXoXoXoXoXoXoX+X|.c t.l.k.k.k.k.k.k.k.k.k.k.k.l.d.j w q MXMXMXMXMXMXMXMXMXMXMXMXMX",
"MXMXMXMXMXu U.Q.Q.+XoXoX@X.XR.R.R.OXoXoXoXoXoXoXoXoX+XoXoXoX+X.Xg.d E l.k.k.k.k.k.k.k.k.k.l.r.q MXMXMXMXMXMXMXMXMXMXMXMXMXMXMXMX",
"MXMXMXMXMXo K./.j./.OX+XoX+X+X+X+X+XoXoXoXoXoXoXoX+XoXoX+X+XE.A.k.1 j k.k.k.k.k.k.k.l.d.j.R - MXMXMXMXMXMXMXMXMXMXMXMXMXMXMXMXMX",
"MXMXMXMXMX. H./.x.A.OX+XoXoXoXoXoXoXoX+XoXOXOXOXoXoXoXoXoX+XR.k.f.1   # q r.f.f.f.f.r.q X # MXMXMXMXMXMXMXMXMXMXMXMXMXMXMXMXMXMX",
"MXMXMXMXMXMX& J }.oXoXoXoXoX+XoXoXoX+XoXR.v.l.(.+X+XoXoX+X+XR.w.* MXMXMXMXX X X   X X MXMXMXMXMXMXMXMXMXMXMXMXMXMXMXMXMXMXMXMXMX",
"MXMXMXMXMX$ N 7 N Y.+X,X+XoXoXoXoXoX+X(.j.j.j.(.+X>X>X>XU.K.&.o MXMXMXMXMXMXMXMXMXMXMXMXMXMXMXMXMXMXMXMXMXMXMXMXMXMXMXMXMXMXMXMX",
"MXMXMX& 4 A A N > 6 *.=.{.<X>X>X,X>X<X.XZ.^.Z..X{.=.F.=.9   MXMXMXMXMXMXMXMXMXMXMXMXMXMXMXMXMXMXMXMXMXMXMXMXMXMXMXMXMXMXMXMXMXMX",
"MXMX  % A A u $ MXMX    A H H H H H H H H $.H &.N       MXMXMXMXMXMXMXMXMXMXMXMXMXMXMXMXMXMXMXMXMXMXMXMXMXMXMXMXMXMXMXMXMXMXMXMX",
"MXMX8 N D A & MXMXMXMXMXMXMXMXMXMXMXMXMXMXMXMXMXMXMXMXMXMXMXMXMXMXMXMXMXMXMXMXMXMXMXMXMXMXMXMXMXMXMXMXMXMXMXMXMXMXMXMXMXMXMXMXMX",
"MX  b G.F 5 . MXMXMXMXMXMXMXMXMXMXMXMXMXMXMXMXMXMXMXMXMXMXMXMXMXMXMXMXMXMXMXMXMXMXMXMXMXMXMXMXMXMXMXMXMXMXMXMXMXMXMXMXMXMXMXMXMX",
"MX  b G.%.  MXMXMXMXMXMXMXMXMXMXMXMXMXMXMXMXMXMXMXMXMXMXMXMXMXMXMXMXMXMXMXMXMXMXMXMXMXMXMXMXMXMXMXMXMXMXMXMXMXMXMXMXMXMXMXMXMXMX",
"MX  7 $.;.$.S MXMXMXMXMXMXMXMXMXMXMXMXMXMXMXMXMXMXMXMXMXMXMXMXMXMXMXMXMXMXMXMXMXMXMXMXMXMXMXMXMXMXMXMXMXMXMXMXMXMXMXMXMXMXMXMXMX",
"MXMX  8 ;.;.F MXMXMX:.P.H.H.G.MXMXMXMXMXMXMXMXMXMXMXMXMXMXMXMXMXMXMXMXMXMXMXMXMXMXMXMXMXMXMXMXMXMXMXMXMXMXMXMXMXMXMXMXMXMXMXMXMX",
"MXMXMX% Z ;.;.J S 6.3XgXgXfXoXK.J.MXMXMXMXMXMXMXMXMXMXMXMXMXMXMXMXMXMXMXMXMXMXMXMXMXMXMXMXMXMXMXMXMXMXMXMXMXMXMXMXMXMXMXMXMXMXMX",
"MXMXMXMX$ F %.&.K.2XjXjXjXjX9X5X5X{.=.K MXMXMXMXMXMXMXMXMXMXMXMXMXMXMXMXMXMXMXMXMXMXMXMXMXMXMXMXMXMXMXMXMXMXMXMXMXMXMXMXMXMXMXMX",
"MXMXMXMXMX  N I.8XzXlXlXlX9X5X4X4X4X5X.X*.MXMXMXMXMXMXMXMXMXMXMXMXMXMXMXMXMXMXMXMXMXMXMXMXMXMXMXMXMXMXMXMXMXMXMXMXMXMXMXMXMXMXMX",
"MXMXMXMXMXMXMX=..XgXlXlXgX8X4X X>XOX,X4X2XF.=.S 9 MXMXMXMXMXMXMXMXMXMXMXMXMXMXMXMXMXMXMXMXMXMXMXMXMXMXMXMXMXMXMXMXMXMXMXMXMXMXMX",
"MXMXMXMXMXMXMXB =.5X9X9X8X8X5X<X,X>X X XoX+X+X<XY.S J F.b MXMXMXMXMXMXMXMXMXMXMXMXMXMXMXMXMXMXMXMXMXMXMXMXMXMXMXMXMXMXMXMXMXMXMX",
"MXMXMXMXMXMXMXMXK H.,X,X,X,X,X<X5X,X X XoX X X>X>X<X>XS 5 MXMXMXMXMXMXMXMXMXMXMXMXMXMXMXMXMXMXMXMXMXMXMXMXMXMXMXMXMXMXMXMXMXMXMX",
"MXMXMXMXMXMXMXMXMXMXn {.>XoXoX>X>X>X>XOXoXOX>X<XF.u 9 MXMXMXMXMXMXMXMXMXMXMXMXMXMXMXMXMXMXMXMXMXMXMXMXMXMXMXMXMXMXMXMXMXMXMXMXMX",
"MXMXMXMXMXMXMXMXMXMXMX5 4 H oXOXXXXXXXXXXX|.b 5 4 MXMXMXMXMXMXMXMXMXMXMXMXMXMXMXMXMXMXMXMXMXMXMXMXMXMXMXMXMXMXMXMXMXMXMXMXMXMXMX",
"MXMXMXMXMXMXMXMXMXMXMXMXMX& % % % % % % % % MXMXMXMXMXMXMXMXMXMXMXMXMXMXMXMXMXMXMXMXMXMXMXMXMXMXMXMXMXMXMXMXMXMXMXMXMXMXMXMXMXMX"
};
