/* XPM */
static char *result[] = {
/* columns rows colors chars-per-pixel */
"16 16 151 2 ",
"   c #14110B",
".  c #17261A",
"X  c #182D1E",
"o  c #3D2310",
"O  c #3C331A",
"+  c #2C3822",
"@  c #3F3620",
"#  c #3A3D22",
"$  c #4C2510",
"%  c #443517",
"&  c #46381B",
"*  c #4B3918",
"=  c #503A18",
"-  c #683723",
";  c #6A3A21",
":  c #2F452D",
">  c #365331",
",  c #55421C",
"<  c #5D431A",
"1  c #5A431C",
"2  c #654C1E",
"3  c #78401B",
"4  c #59592E",
"5  c #44593D",
"6  c #704225",
"7  c #735826",
"8  c #526A3D",
"9  c #73672E",
"0  c #7C652E",
"q  c #7C6A2E",
"w  c #6C713B",
"e  c #2D5A41",
"r  c #2D6847",
"t  c #2A6C4D",
"y  c #306B4F",
"u  c #306C50",
"i  c #2C7350",
"p  c #327155",
"a  c #337255",
"s  c #377F54",
"d  c #367D5A",
"f  c #4D7C4B",
"g  c #52794A",
"h  c #5F7D49",
"j  c #467451",
"k  c #6B7742",
"l  c #8F3E16",
"z  c #A53C11",
"x  c #A04418",
"c  c #815126",
"v  c #89533B",
"b  c #B45F2F",
"n  c #B85E34",
"m  c #8B7D39",
"M  c #917A34",
"N  c #AE713B",
"B  c #C76230",
"V  c #9A7558",
"C  c #B26847",
"Z  c #AE724D",
"A  c #3C855F",
"S  c #3C8960",
"D  c #5B8953",
"F  c #77814F",
"G  c #648A51",
"H  c #648A56",
"J  c #408662",
"K  c #469267",
"L  c #519167",
"P  c #579265",
"I  c #439770",
"U  c #489A72",
"Y  c #559E71",
"T  c #5CA36F",
"R  c #4EA070",
"E  c #4EA173",
"W  c #46A279",
"Q  c #4AA47A",
"!  c #4DA57A",
"~  c #56A470",
"^  c #50A576",
"/  c #58A571",
"(  c #51A778",
")  c #6DA064",
"_  c #6FAB6F",
"`  c #6DAD6F",
"'  c #79AE6D",
"]  c #69AC73",
"[  c #6CB173",
"{  c #6FB77B",
"}  c #69B57C",
"|  c #70B272",
" . c #71B574",
".. c #71B576",
"X. c #72B476",
"o. c #78B776",
"O. c #79B975",
"+. c #74BA7C",
"@. c #7ABC79",
"#. c #7BBD7B",
"$. c #7CBC79",
"%. c #7CBD7A",
"&. c #7FBF7B",
"*. c #7EC07C",
"=. c #9E8A42",
"-. c #949C5E",
";. c #A49345",
":. c #AE9440",
">. c #A59E4E",
",. c #B59B46",
"<. c #B59D47",
"1. c #93A95A",
"2. c #ACA24E",
"3. c #BCA147",
"4. c #B1A14A",
"5. c #A4A65D",
"6. c #B3AF53",
"7. c #B1B35C",
"8. c #B68669",
"9. c #80BF7B",
"0. c #92B370",
"q. c #C59847",
"w. c #D2B44F",
"e. c #C1B95B",
"r. c #D2B954",
"t. c #D8BA51",
"y. c #DABC56",
"u. c #D9BF57",
"i. c #C2B364",
"p. c #CEB660",
"a. c #87C37B",
"s. c #8AC47B",
"d. c #8BC57B",
"f. c #ABC471",
"g. c #B3CD7B",
"h. c #DEC765",
"j. c #D6C36D",
"k. c #D8C76F",
"l. c #C3CC73",
"z. c #DED170",
"x. c #E8D06B",
"c. c #EDD671",
"v. c #D9E48E",
"b. c #EBE081",
"n. c #E6E68C",
"m. c #E2E790",
"M. c #EFEA90",
"N. c #EEEB91",
"B. c #F7EE93",
"V. c #FAF194",
"C. c None",
/* pixels */
"C.C.s T .. .h w g r C.C.C.C.C.C.",
"C.C.C.A X.a.) ' *.( d i C.C.C.C.",
"C.C.C.S _ 9.o.] P j + # C.C.C.C.",
"C.C.C.z c : X . o x C., 1 C.C.C.",
"C.C.F B -   O @ $ l C.C.2 C.C.C.",
"[ O.H n C ; 6 v b 3 C.= < C.C.C.",
"$.#.E 5 V N Z 8.q.9 > 8 f C.C.C.",
"~ ^ Y 5.j.h.p.i.4.D ` @.%./ t C.",
"W L 0.n.V.B.b.e.G | s.d.{ J C.C.",
"y -.M.v.m.N.g.1.R +.&.} U C.C.C.",
"C.;.z.f.l.x.u.6.K Q ! I u C.C.C.",
"C.4 2.t.r.7.w.>.e p a C.C.C.C.C.",
"% & C.M m k C.C.C.C.C.C.C.C.C.C.",
"* 7 C.C.C.C.C.C.C.C.C.C.C.C.C.C.",
"C.0 k.c.y.,.C.C.C.C.C.C.C.C.C.C.",
"C.C.=.<.3.:.q C.C.C.C.C.C.C.C.C."
};
