/* XPM */
static char *result[] = {
/* columns rows colors chars-per-pixel */
"64 64 235 2 ",
"   c #010101",
".  c #0A0301",
"X  c #0B0A04",
"o  c #050C08",
"O  c #120300",
"+  c #170903",
"@  c #09140D",
"#  c #151309",
"$  c #1E190D",
"%  c #1A150A",
"&  c #0A1C15",
"*  c #260A03",
"=  c #221D0D",
"-  c #391908",
";  c #301407",
":  c #092618",
">  c #13281B",
",  c #06321D",
"<  c #2C2511",
"1  c #2A2518",
"2  c #342B15",
"3  c #3C2F15",
"4  c #3B3319",
"5  c #2A2C17",
"6  c #173829",
"7  c #0E3223",
"8  c #273025",
"9  c #4E1806",
"0  c #771902",
"q  c #751701",
"w  c #661000",
"e  c #473A1B",
"r  c #543E19",
"t  c #50250D",
"y  c #782209",
"u  c #672E11",
"i  c #672C0E",
"p  c #413A38",
"a  c #094629",
"s  c #1C4432",
"d  c #0C5B35",
"f  c #175C3A",
"g  c #224C38",
"h  c #24543D",
"j  c #345030",
"k  c #0C6138",
"l  c #13643C",
"z  c #1A663D",
"x  c #29673C",
"c  c #37733D",
"v  c #64461A",
"b  c #5C4C25",
"n  c #554723",
"m  c #48562D",
"M  c #57552C",
"N  c #4E502C",
"B  c #64532A",
"V  c #6B562A",
"C  c #765926",
"Z  c #674F21",
"A  c #716733",
"S  c #52532A",
"D  c #285B43",
"F  c #1A6C42",
"G  c #166942",
"H  c #1B7248",
"J  c #1F794D",
"K  c #0D6640",
"L  c #2A654A",
"P  c #237244",
"I  c #22754D",
"U  c #2B7348",
"Y  c #316E52",
"T  c #257C53",
"R  c #297C54",
"E  c #37795B",
"W  c #336E4D",
"Q  c #45494A",
"!  c #674E48",
"~  c #4F724B",
"^  c #677247",
"/  c #707474",
"(  c #566163",
")  c #891C02",
"_  c #882509",
"`  c #942B0A",
"'  c #97290A",
"]  c #9A3312",
"[  c #8D3211",
"{  c #A53813",
"}  c #A3340D",
"|  c #8B3A25",
" . c #B5481A",
".. c #B04D1C",
"X. c #B44B23",
"o. c #AB5539",
"O. c #B75328",
"+. c #85652A",
"@. c #916E2E",
"#. c #97712F",
"$. c #8B7533",
"%. c #997A34",
"&. c #8B6C30",
"*. c #A77C31",
"=. c #AD722C",
"-. c #984D27",
";. c #C1551F",
":. c #C55A21",
">. c #CB5D22",
",. c #C45A26",
"<. c #D05F23",
"1. c #CB6334",
"2. c #D36C3B",
"3. c #D36B36",
"4. c #DC763C",
"5. c #897751",
"6. c #A97A69",
"7. c #996D62",
"8. c #E27D45",
"9. c #DF7A44",
"0. c #2A8358",
"q. c #348355",
"w. c #35804D",
"e. c #398863",
"r. c #3B956B",
"t. c #39956A",
"y. c #37956C",
"u. c #4D955C",
"i. c #4E8857",
"p. c #67824F",
"a. c #458E68",
"s. c #42936D",
"d. c #47986A",
"f. c #569C65",
"g. c #449C73",
"h. c #499C74",
"j. c #5CA369",
"k. c #46A37B",
"l. c #4AA57B",
"z. c #4CA97E",
"x. c #48A176",
"c. c #53AA7C",
"v. c #5BAD7B",
"b. c #56A775",
"n. c #47A16F",
"m. c #69AA69",
"M. c #74B26E",
"N. c #68AC74",
"B. c #63B17B",
"V. c #6BB57B",
"C. c #68B377",
"Z. c #74B97C",
"A. c #7CBD7B",
"S. c #77B775",
"D. c #72AE6F",
"F. c #7CC07E",
"G. c #A78638",
"H. c #B08334",
"J. c #BD8234",
"K. c #B5933D",
"L. c #9B823B",
"P. c #C58E3B",
"I. c #999E49",
"U. c #918343",
"Y. c #B79C43",
"T. c #AC9250",
"R. c #B8A64A",
"E. c #B8B75D",
"W. c #ACAC54",
"Q. c #9A8C7D",
"!. c #88AB67",
"~. c #98B366",
"^. c #83BE76",
"/. c #81BF7A",
"(. c #85B36F",
"). c #A7B461",
"_. c #ABA565",
"`. c #A59774",
"'. c #E6824B",
"]. c #E9854B",
"[. c #EE8B52",
"{. c #F18E54",
"}. c #F69458",
"|. c #C6A849",
" X c #D7B54E",
".X c #C5B959",
"XX c #DEBD52",
"oX c #D5BC54",
"OX c #D1B04A",
"+X c #E1BE51",
"@X c #E3BD4F",
"#X c #84C27B",
"$X c #8CC57B",
"%X c #8DC57B",
"&X c #92C97E",
"*X c #94C77C",
"=X c #E2C154",
"-X c #E6C559",
";X c #D2C873",
":X c #E4CA63",
">X c #E6CF6C",
",X c #EBD26A",
"<X c #EFD86F",
"1X c #EDDA79",
"2X c #F1DA74",
"3X c #E0D26E",
"4X c #38A280",
"5X c #7E8586",
"6X c #4DAC81",
"7X c #43A780",
"8X c #57B382",
"9X c #6BBA80",
"0X c #76C282",
"qX c #909086",
"wX c #A7988E",
"eX c #B3B3B1",
"rX c #ACA38D",
"tX c #CFB1AA",
"yX c #88C981",
"uX c #ABD283",
"iX c #B9D686",
"pX c #D3DB85",
"aX c #D8E28C",
"sX c #E3E68E",
"dX c #F4E889",
"fX c #E6E890",
"gX c #F7EF94",
"hX c #F8EF94",
"jX c #F7F095",
"kX c #FAF195",
"lX c #CEC5B4",
"zX c #D7D7D2",
"xX c #F6F8F9",
"cX c #D8E0E4",
"vX c None",
/* pixels */
"vXvXvXvXvXvXvXvXvXvXvXvXvXvXvXvXvXvXvXvXvXvXvXvXvXvXvXvXvXvXvXvXvXvXvXvXvXvXvXvXvXvXvXvXvXvXvXvXvXvXvXvXvXvXvXvXvXvXvXvXvXvXvXvX",
"vXvXvXvXvXvXvXvXvXvXvXvXvXvXvXvXvXvXvXvXvXvXvXvXvXvXvXvXvXvXvXvXvXB B n     vXvXvXvXvXvXvXvXvXvXvXvXvXvXvXvXvXvXvXvXvXvXvXvXvXvX",
"vXvXvXvXvXvXvXvXvXvXvXvXvXvXvXvXvXk.k.k.k.k.k.vXvXvXvXvXvXvXvXb C &.A b 2 2 X   vXvXvXvXvXvXvXvXvXvXvXvXvXvXvXvXvXvXvXvXvXvXvXvX",
"vXvXvXvXvXvXvXvXvXvXvXvXvXvXvXvXvXB.v.B.v.B.B.8XvXvXvXvXvXvXA C @.*.=.C V V 1 = # vXvXvXvXvXvXvXvXvXvXvXvXvXvXvXvXvXvXvXvXvXvXvX",
"vXvXvXvXvXvXvXvXvXvXvXvXvXF P q.B.$X$X$X$X$X%X9Xd.H F vXvXV @.*.*.G.$.$.M M b B 2 . vXvXvXvXvXvXvXvXvXvXvXvXvXvXvXvXvXvXvXvXvXvX",
"vXvXvXvXvXvXvXvXvXvXl r.I u.#X^.#X$X#X$X$X$X$X$X%XS.g.z M #.*.*.*.A z z z z M B B 2   vXvXvXvXvXvXvXvXvXvXvXvXvXvXvXvXvXvXvXvXvX",
"vXvXvXvXvXvXvXvXvXvXvXI , L v.v.c.v.v.#X$X$X$X$X%X$XZ.s.M #.*.A x U s.r.r.r.d.h.~ b n r   vXvXvXvXvXvXvXvXvXvXvXvXvXvXvXvXvXvXvX",
"vXvXvXvXvXvXvXvXvXvXvXvXvXvXvXk.l.6X6Xi.q.j.A.$X$X%X$XS.A %.v x 0.d.9XA.9Xc.l.z.d.~ m e   vXvXvXvXvXvXvXvXvXvXvXvXvXvXvXvXvXvXvX",
"vXvXvXvXvXvXvXvXvXvXvXvXvXvXvXvXE D L I T h.A.$X%X%X*X%XA v 8 q.V.F.$X$X$XC.l.k.z.y.U j : vXvXvXvXvXvXvXvXvXvXvXvXvXvXvXvXvXvXvX",
"vXvXvXvXvXvXvXvXvXvXvXvXvXvXvXvXz > > r.c.A.$X$X%X%X%XS.M > a.F.&X$X$X$X$X$Xv.k.z.z.t.F G @ vXvXvXvXvXvXvXvXvXvXvXvXvXvXvXvXvXvX",
"vXvXvXvXvXvXvXvXvXvXvXvXvXvXvXI x.h.x.l.A.$X$X$X%X%X#Xx.I s.Z.%X$X$X$X$X$X$Xv.l.l.l.x.x.g.l vXvXvXvXvXvXvXvXvXvXvXvXvXvXvXvXvXvX",
"vXvXvXvXvXvXvXvXvXvXvXvXvXvXvX6 z.l.l.A.$X$X$X$X$X%X^.I m.^.#X$X$X$X$X$X$X$Xv.l.6Xq.0.l.z.r.G vXvXvXvXvXvXvXvXvXvXvXvXvXvXvXvXvX",
"vXvXvXvXvXvXvXvXvXvXvXvXvXvXvXf z.k.z.#X$X$X$X$X%X#Xv.m.#X&X$X$X$X$X%X%X$XB.l.l.6XL : 6 6 T t.H k k vXvXvXvXvXvXvXvXvXvXvXvXvXvX",
"vXvXvXvXvXvXvXvXvXvXvXvXvXvXvXI e.l.z.V.$X$X$X$X^.V.C.$X$X$X$X$X$X$X%X%XV.k.z.l.6XD   . < , h 7 P 0.T vXvXvXvXvXvXvXvXvXvXvXvXvX",
"vXvXvXvXvXvXvXvXvXvXvXvXvXvXvXvXF t.r.k.V.$X$X$XZ.c.$X$X$X$X$X$X$X#XZ.Z.l.l.l.l.g.D   # e $ # % D E L a vXvXvXvXvXvXvXvXvXvXvXvX",
"vXvXvXvXvXvXvXvXvXvXvXvXvXvXvXvXvXl l r.l.Z.$X$XA.v.$X$X$X$X$X$X#XZ.z.z.l.l.l.x.I d vXvXX n B B =       vXvXvXvXvXvXvXvXvXvXvXvX",
"vXvXvXvXvXvXvXvXvXvXvXvXvXvXvXvXvXvXvXz r.Z.&X$X$X#X$X$X$X$X$XV.c.l.k.z.k.l.k.T ,   vXvXvX# &.C $ vXvXvXvXvXvXvXvXvXvXvXvXvXvXvX",
"vXvXvXvXvXvXvXvXvXvXvXvXvXvXvXvXvXvX) y x n.F.$X%X$X$X$X$XC.v.c.k.z.z.l.I 7 > : - w vXvXvX  V @.b = vXvXvXvXvXvXvXvXvXvXvXvXvXvX",
"vXvXvXvXvXvXvXvXvXvXvXvXvXvXvXvXvX_ { { +.W n.9X9XB.f.V.9X6Xz.6Xg.U g s , u i i 0 ) vXvXvXvX< @.#.2   vXvXvXvXvXvXvXvXvXvXvXvXvX",
"vXvXvXvXvXvXvXvXvXvXvXvXvXvXvXvXvX) ;.;.>.C W Y Y L a L Y Y Y Y f :     . ..<.<. .y vXvXvXvX  +.H.3   vXvXvXvXvXvXvXvXvXvXvXvXvX",
"vXvXvXvXvXvXvXvXvXvXvXvXvXvXvXvXvX' ;.:.;. .t                           X ..;.;.;.u   vXvXvX  +.*.r $ vXvXvXvXvXvXvXvXvXvXvXvXvX",
"vXvXvXvXvXvXvXvXvXvXvXvXvXvXvXvX' ;.:.:.>.9                             . 0  .:.<.i   vXvXvXvXB @.*.+.b vXvXvXvXvXvXvXvXvXvXvXvX",
"vXvXvXvXvXvXvXvXvXvXvXvXvXvXvXvX_ ;.:.;.} *               4 n n n 2       0 ..:.<.u   vXvXvXvXB @.H.+.B vXvXvXvXvXvXvXvXvXvXvXvX",
"vXvXvXvXvXvXvXvXvXvXvXvXvXvX~ '  .4.:.<.9 O           4 4 b V B B b <   X ] ;.,.[ - vXvXvXvXvX= C H.Z = vXvXvXvXvXvXvXvXvXvXvXvX",
"vXvXvXvXvXvXvXvXvXvXvXvXvX8X^ ] 4.[.3. .*           2 B B B B V B B n   -  .>.<.t   vXvXvXvXvX  Z H.r   vXvXvXvXvXvXvXvXvXvXvXvX",
"vXvXvXvXvXvXvXvXvXvXvXP n.0XU.{ {.{.].' O 8 >     1 B B B B n e b b 4 O _ ;.:...-   vXvXvXvXvX  C H.r   vXvXvXvXvXvXvXvXvXvXvXvX",
"vXvXvXvXvXvXvXvXvXvXz m.$X#X5.{ {.{.].` % eX/   $ B B B B M 1 o 1 e   * O.,.:.9     vXvXvXvXvX  C H.r   vXvXvXvXvXvXvXvXvXvXvXvX",
"vXvXvXvXvXvXvXvXl l m.$X&Xu.e { {.{.].` 7.xX5X  = B b B B $ / Q   X O y '.>.>.-     vXvXvXvXvX  C H.r   vXvXvXvXvXvXvXvXvXvXvXvX",
"vXvXvXvXvXvXvXG t.j.#X%X&X~ @ } X.[.[.2.o.tX( . $ B B B B # 5XeXQ O y 3.[.'. .*     vXvXvXvXvX  C H.r   vXvXvXvXvXvXvXvXvXvXvXvX",
"vXvXvXvXvXvXs.f.V.%X$X$X&Xj   vX` [.[.{.` wX(   = B B B B # 5XcX/ + } {.[.[.` *   vXvXvXvXvXvX  Z *.r   vXvXvXvXvXvXvXvXvXvXvXvX",
"vXvXvXvXvXc.V.$X*X$X$X$X&Xc o vX] [.[.[.X.6.! . # e e e e X 5XeX! 9 X.{.{.8.` * vXvXvXvXvXvXvX= +.J.r   vXvXvXvXvXvXvXvXvXvXvXvX",
"vXvXvXvXz.C.$X$X#X%X$X$X&Xu.d vX] 8.[.[.[.X.) 9 . O . O . . 7.7.) { {.{.].;.] * vXvXvXvXvXvX  +.*.#.r   vXvXvXvXvXvXvXvXvXvXvXvX",
"vXvXvXk.B.$X$X#Xv.#X$X$X$XV.L   vX] 8.].[.'.].O.q 0 0 0 q q _ 1.'.'.[.].>.] P.e vXvXvXvXvXvX  +.H.e . vXvXvXvXvXvXvXvXvXvXvXvXvX",
"vXvXvXk.V.$X%X#Xl.$X$X$XZ.6XR , vXvX{ ] 9.}.}.].2.2.2.2.2.2.2.8.}.].>.} ` =.b = vXvXvXvXvX  e #.@.<   vXvXvXvXvXvXvXvXvXvXvXvXvX",
"vXvXvXB./.$X#XB.Z.$X$X$XB.k.r.y.e.. - 7.o. ...2.}.}.}.}.}.}.8.,.X.{  .=.=. X= vXvXvXvXvXX 3 B C e X vXvXvXvXvXvXvXvXvXvXvXvXvXvX",
"vXvXl.V.#X$XA.B.Z.$X$X$XB.k.l.6Xe.&   Q.6.| y o.1.1.1.1.1.1.;.o.7.| -.=X-XXX< vXvXvXvXvXX B m m > , vXvXvXvXvXvXvXvXvXvXvXvXvXvX",
"vXvXvXk.V.%X$XA.c.$X$X$XB.k.l.l.g.G # e zXwXQ.Q.` ] [ ) | ) [ tXcX`.K.XX+XXX< vXvXvXvXvX& N U P P P P P P P x H F f vXvXvXvXvXvX",
"vXvXvXx.V.%X%X#Xx.$X$X$XB.l.l.l.k.d.M $ zXxXwXL. X X|.A zXp wXxXqXr @XXX+XXX2 vXvXvXvXl l x M.^.^.#X^.#X^.#XF.n.k.6     o vXvXvX",
"vXvXk f.$X%X*XS.R ^.$XB.l.l.l.6Xd.^ |.Y.5.5.T.OX+XXXXX|.5.eXxXlXT.Y.@XXXXXXXY.e , k U M.M.M.%X$X%X$X$X$X%X%X%XF.c.a.e.e.h   vXvX",
"vXvXk j.%X%X*XM.P ^.V.l.l.l.l.f.^ V  XXXY.U.|.+XXXXXXXXXY.`.`.T.OX=XXXXXXXXX-Xe a d.M.&X*X&X$X$X&XS.B.B.C.B.B.i.T 0.R 0.F , vXvX",
"vXvXl j.*X#XZ.N.z V.l.l.l.l.7Xa.Z %.oX+X+X+XXX XXXXXXXXXXXG.$.R.=XXXXXXXXXXX%.j i.0X*X$X$XZ.V.Z.Z.B.B.B.B.B.B.R I T T 0.J d : vX",
"vXvXa u.#XV.k.r.I t.k.l.l.l.h.p.$.-X+X-X:X:X-X:X-XXXXXXXXXXX=X=X+XXXXXXXoXY.8 q.B.D.S./.Z.v.v.c.c.A.$X$X$X$XA.c.z.z.a.e.L a a   ",
"vXvX  L 6Xl.l.l.g.H g.z.l.x.i.%.:X,X<XdXgXgXgXgXdX,X=X@XXXXXXXoXoXoXXX=XOX< E k.q.z q.c.v.#X#X#X$X^.$X$X$X/.l.l.k.x.g   o   o vX",
"vXvX  L 6Xl.l.l.k.g.k.l.z.i.5.,XdXgXgXgXgXgXgXgXgXdXdX,X=XXXXX~.b.!.+XXXOX% e.0.0.b.S./.#X$X$X$X$X$X$X$X$X/.l.l.l.s vXvXvXvXvXvX",
"vXvXvX> Y z.l.l.l.l.6X7X~ p.~.pXkXgXgXgXgXgXhXgXgXjXgXdX1X-X@X!.4XD.@X|.n W I u.S.#X$X$X$X$X$X$X$X$X$X$X/.v.l.6Xg @ vXvXvXvXvXvX",
"vXvXvX  g 6Xl.l.c.x.e.D ^ !.yXyXpXgXgXhXgXgXgXgXgXhXhXjXkX,X=X).!.).@X|.  R 0.D.&X$X$X$X$X$X$X$X$X$X$X/.B.k.h.L o vXvXvXvXvXvXvX",
"vXvXvX  h 6Xl.l.l.x.U & p.yX$X$XiXjXgXgXgXgXhXgXjXgXgXgXjXdX-XXX=X+X=X|.> F b.F.$X$X$X$X$X$X$X$X$X$X$XV.l.l.g.o vXvXvXvXvXvXvXvX",
"vXvXvX  g h.l.l.l.x.M V ~.yX#XuXjXjXgXhXgXhXgXgXgXgXhXgXgXgX>XXX+X+XXXW.P g.A.$X$X$X$X$X$X$X$X$X$X$XV.l.l.l.g.@ vXvXvXvXvXvXvXvX",
"vXvXvXvXo g 6Xl.l.h.$ _.gXiXyXuXkXgXgXgXgXhXgXgXgXgXgXgXgXgX>XXXXX@XR.U g.l.#X$X$X$X$X$X$X$X$X$X$X$XV.l.l.l.h.vXvXvXvXvXvXvXvXvX",
"vXvXvXvX  6 6Xl.h.^ _.sXkXfXaXfXgXgXhXgXgXgXhXgXkXgXgXgXuXuXoX=X=XW.c G x.l.A.$X$X$X$X$X$X$X$X$X$XZ.c.l.6Xs.6 vXvXvXvXvXvXvXvXvX",
"vXvXvXvXvX> L 6Xh.4 pXkXhXhXkXkXhXgXhXhXhXgXgXgXjXjXgXiX$X$X(.E.=XI.K e.k.l./.$X$X$X$X$X$X$X$X$XZ.c.l.l.l.e.  vXvXvXvXvXvXvXvXvX",
"vXvXvXvXvXvX> Y L o pXhXhXhXhXkXgXkXkXkXkXhXhXgXgXgXpX$X%X&Xv.~.=XI.H l.l.l.V.#X$X$X$X$X$X$X$XA.c.k.l.l.6Xs.  vXvXvXvXvXvXvXvXvX",
"vXvXvXvXvXvXvX    1 ;XhXhXgXgXhXhXfXfXfXsXgXhXgXjXsX%X$X#XA.N.).=XI.H k.l.l.l.Z./.#X$X$X$XA.A.c.l.l.l.6Xh.E o vXvXvXvXvXvXvXvXvX",
"vXvXvXvXvXvXvXvX# |.,XgXhXhXhXhXaX$X*X*X$XaXkXgXjXsX&X*Xv.c.).XX=XK.H k.l.l.l.l.l.V.$X$X#Xc.c.l.l.l.l.6XE o vXvXvXvXvXvXvXvXvXvX",
"vXvXvXvXvXvXvXvX# OX+XdXjXgXhXsXuX#X$X$X$XaXkXgXjXgXaX.X.XE.oXXX@XI.H k.l.l.l.l.l.l.v.c.c.l.l.l.l.l.l.6XE   vXvXvXvXvXvXvXvXvXvX",
"vXvXvXvXvXvXvXvX# |.XX:XdXjXhXaX#X$X$XyX#XpXhXgXjXgX>X+X+X+X@XXX=XI.H z.l.l.l.l.l.l.l.l.l.l.l.l.l.l.l.E 6 vXvXvXvXvXvXvXvXvXvXvX",
"vXvXvXvXvXvXvXvX% OX+X X>XdXdXaX%X%X%X%XuXfXgXdX1X<XXXXX+XXXXXXX@XR.i.t.n.l.l.l.l.l.l.l.l.l.l.l.l.l.6XY   vXvXvXvXvXvXvXvXvXvXvX",
"vXvXvXvXvXvXvXvX# OX+X+X+X-X2XpX*XA.A.A.pXdXdX1XXXXXXXXXXXXXXXXXXX=XR.F x.z.l.l.l.l.l.l.l.l.l.l.6Xa.e.D   vXvXvXvXvXvXvXvXvXvXvX",
"vXvXvXvXvXvXvXvX# R.XXXXXX+X+X+X.Xv.b.b..X+XXX+XXXXXXXXXXXXXXXXXXXXXW.H g.x.l.l.l.l.l.l.l.l.l.l.h.s     vXvXvXvXvXvXvXvXvXvXvXvX",
"vXvXvXvXvXvXvXvXvX< |.D.).+XXX+XoX.X.X.XXXXXXXXXXXXXXXXXXXXXXX+X=XE.b.q.> s.z.l.l.l.l.x.l.l.l.l.s o vXvXvXvXvXvXvXvXvXvXvXvXvXvX",
"vXvXvXvXvXvXvXvXvX  Y.N.N.).+X+X+X+X+X+XXXXXXXXXXXXXXXXXXXXXXX+XE.N.6Xs.@ s.6Xz.l.l.l.k.l.l.6Xg @ vXvXvXvXvXvXvXvXvXvXvXvXvXvXvX",
"vXvXvXvXvXvXvXvXvX. |.N.4X~.+XXXXXXXXXXXXXXX+X+X+X+XXXXXXXXXXX+X~.7Xs.h @ g h r.6X6X6X6Xg.D D @ vXvXvXvXvXvXvXvXvXvXvXvXvXvXvXvX",
"vXvXvXvXvXvXvXvXvXX %.!.D.).+XXXXXXX+XXXXXXXXX.XE.E.XXXX+XXXXX=X~.s.D   vX    D E E E E Y     vXvXvXvXvXvXvXvXvXvXvXvXvXvXvXvXvX",
"vXvXvXvXvXvXvXvXvXvX. U.+XXXXX+XXXXXXXXXXXXX+X).k.N.XXXXXXXXXX=X~.Y   vXvXvXvX            vXvXvXvXvXvXvXvXvXvXvXvXvXvXvXvXvXvXvX"
};
