/* XPM */
static char *result[] = {
/* columns rows colors chars-per-pixel */
"16 16 158 2 ",
"   c #09110B",
".  c #1D190D",
"X  c #2B2C19",
"o  c #392F16",
"O  c #3A3219",
"+  c #0E3622",
"@  c #44220D",
"#  c #442F16",
"$  c #49301A",
"%  c #463819",
"&  c #4D3B19",
"*  c #7F3310",
"=  c #7E3613",
"-  c #44332D",
";  c #1F4E33",
":  c #2B4329",
">  c #3F5031",
",  c #61491D",
"<  c #63491D",
"1  c #464220",
"2  c #464B25",
"3  c #544A2C",
"4  c #4F5232",
"5  c #7E4A21",
"6  c #755925",
"7  c #755C29",
"8  c #785638",
"9  c #746D36",
"0  c #69733F",
"q  c #265A41",
"w  c #285F48",
"e  c #216141",
"r  c #2E674D",
"t  c #2D684E",
"y  c #2B6E4C",
"u  c #337051",
"i  c #337255",
"p  c #307755",
"a  c #367A5C",
"s  c #387C5C",
"d  c #614F40",
"f  c #42784B",
"g  c #4D794E",
"h  c #697949",
"j  c #6C7E4F",
"k  c #8C3E18",
"l  c #B64D1C",
"z  c #9F4E26",
"x  c #9D583A",
"c  c #AD552D",
"v  c #B45C38",
"b  c #946129",
"n  c #C36538",
"m  c #D36D3E",
"M  c #C4703D",
"N  c #8A5740",
"B  c #BA6641",
"V  c #3A855F",
"C  c #3E8D6A",
"Z  c #438C5E",
"A  c #588D58",
"S  c #64844B",
"D  c #7A8748",
"F  c #6A8754",
"G  c #668B57",
"H  c #60965D",
"J  c #65945D",
"K  c #7A9F59",
"L  c #408A62",
"P  c #4A9167",
"I  c #4C966C",
"U  c #45996B",
"Y  c #549466",
"T  c #529A6A",
"R  c #429871",
"E  c #459D71",
"W  c #479C74",
"Q  c #479F77",
"!  c #609A64",
"~  c #659D6B",
"^  c #7F9864",
"/  c #5EA26A",
"(  c #5CA46A",
")  c #4BA67A",
"_  c #4AA77D",
"`  c #54A270",
"'  c #50A477",
"]  c #51A778",
"[  c #5DAF7C",
"{  c #6AA669",
"}  c #68A96B",
"|  c #64AC73",
" . c #67AE73",
".. c #61AD75",
"X. c #6DB376",
"o. c #60B07B",
"O. c #67B178",
"+. c #66B27B",
"@. c #69B67D",
"#. c #7EB673",
"$. c #7ABA75",
"%. c #78B876",
"&. c #79BA77",
"*. c #7ABA77",
"=. c #7BBD7B",
"-. c #7EBF7B",
";. c #7FBF7B",
":. c #7DBF7C",
">. c #7CC07D",
",. c #A4903E",
"<. c #84824E",
"1. c #859E53",
"2. c #A39243",
"3. c #A99A51",
"4. c #B4965D",
"5. c #8EA357",
"6. c #ADA751",
"7. c #BBB559",
"8. c #B3906B",
"9. c #8EB16E",
"0. c #82BF79",
"q. c #A4BF6E",
"w. c #B3B960",
"e. c #C59345",
"r. c #C9A95B",
"t. c #CBB654",
"y. c #CCB758",
"u. c #D6BB53",
"i. c #D0BA55",
"p. c #DDBC52",
"a. c #D8BD54",
"s. c #E1BE51",
"d. c #81C17C",
"f. c #82C17C",
"g. c #88C37B",
"h. c #8DC57B",
"j. c #8DC67B",
"k. c #88C57C",
"l. c #BBC973",
"z. c #E3C45A",
"x. c #D0C066",
"c. c #D5C967",
"v. c #D6CC6C",
"b. c #DFD16F",
"n. c #E7CE67",
"m. c #EAD774",
"M. c #B4D585",
"N. c #D3D980",
"B. c #DDE58E",
"V. c #E1E38C",
"C. c #F1EB8F",
"Z. c #E2E891",
"A. c #ECEB91",
"S. c #F2ED93",
"D. c #F7EF94",
"F. c #F8EE92",
"G. c #F8F095",
"H. c None",
/* pixels */
"H.H.H.H.H.H.H.H.7 o H.H.H.H.H.H.",
"H.H.H.Z | &.{ 9 S g > H.H.H.H.H.",
"H.H.H.H.L *.#.J 0.@.V e H.H.H.H.",
"H.H.H.H.U -.;.k.>.] q : ; H.H.H.",
"H.H.H.H.5 F ! Y u 4 H.& % H.H.H.",
"H.H.H.H.l @   X . * = H.6 H.H.H.",
"H.H.H.<.n - O 3 $ k H.H., H.H.H.",
"H. .$.h m N # d x z H.H.< H.H.H.",
"H.=.d.T 8 B c v M b H.1 2 H.H.H.",
"H.%.X.' j 4.e.8.r.,.f H } ( y H.",
"H.` E ~ x.m.n.y.t.D / :.f.O.p + ",
"H.C P 9.A.G.F.b.6.A 0.h.d.I H.H.",
"H.t ^ V.S.D.Z.l.1...j.g.o.a H.H.",
"H.H.3.C.M.B.N.w.K ) +.[ W H.H.H.",
"H.H.2.c.q.v.z.s.5.R _ Q i H.H.H.",
"H.H.0 7.p.u.i.a.G w s r H.H.H.H."
};
