/* XPM */
static char *result[] = {
/* columns rows colors chars-per-pixel */
"64 64 237 2 ",
"   c #010101",
".  c #0C0904",
"X  c #070905",
"o  c #170904",
"O  c #09130E",
"+  c #02160C",
"@  c #1A150A",
"#  c #1F1A0C",
"$  c #14130A",
"%  c #0B1A14",
"&  c #081911",
"*  c #151916",
"=  c #2A0801",
"-  c #370A00",
";  c #241B0D",
":  c #30180A",
">  c #092517",
",  c #11281A",
"<  c #2A2412",
"1  c #272313",
"2  c #342B14",
"3  c #372B14",
"4  c #3E3418",
"5  c #30250F",
"6  c #153225",
"7  c #193729",
"8  c #1A3B2C",
"9  c #143726",
"0  c #0E3524",
"q  c #30302C",
"w  c #540D00",
"e  c #510100",
"r  c #491A07",
"t  c #4B0D02",
"y  c #791600",
"u  c #631904",
"i  c #59250C",
"p  c #423719",
"a  c #4B3D1E",
"s  c #483918",
"d  c #50361C",
"f  c #6B290D",
"g  c #7A3627",
"h  c #0B4228",
"j  c #1C4432",
"k  c #175938",
"l  c #144A2B",
"z  c #254D38",
"x  c #26543B",
"c  c #36502C",
"v  c #16673D",
"b  c #0F6138",
"n  c #28673C",
"m  c #34643A",
"M  c #58461D",
"N  c #4C401E",
"B  c #4E4223",
"V  c #5B4B25",
"C  c #564723",
"Z  c #5C5229",
"A  c #4A5931",
"S  c #675826",
"D  c #6B5926",
"F  c #645329",
"G  c #6A572B",
"H  c #6C5827",
"J  c #785B27",
"K  c #6C522D",
"L  c #547038",
"P  c #7A632C",
"I  c #79672E",
"U  c #686532",
"Y  c #796A32",
"T  c #644C1F",
"R  c #275741",
"E  c #1A6B43",
"W  c #1D7249",
"Q  c #1C7047",
"!  c #276348",
"~  c #24774B",
"^  c #377A49",
"/  c #2A7953",
"(  c #347659",
")  c #347958",
"_  c #31694B",
"`  c #1F5940",
"'  c #537B53",
"]  c #5C7349",
"[  c #727979",
"{  c #737A44",
"}  c #861C02",
"|  c #8B2709",
" . c #952A0B",
".. c #982A08",
"X. c #99330F",
"o. c #983815",
"O. c #883414",
"+. c #A53A13",
"@. c #823F25",
"#. c #B24C1C",
"$. c #894E32",
"%. c #B74C24",
"&. c #BB552B",
"*. c #A65532",
"=. c #8C692A",
"-. c #84642A",
";. c #936E2E",
":. c #9A732F",
">. c #866F33",
",. c #8B7433",
"<. c #957A35",
"1. c #A57B32",
"2. c #AF7A31",
"3. c #C2561F",
"4. c #C55A21",
"5. c #C85B23",
"6. c #D36C38",
"7. c #D9713E",
"8. c #D6713F",
"9. c #CE632D",
"0. c #A85B42",
"q. c #907651",
"w. c #A76C5A",
"e. c #DC7742",
"r. c #E37F48",
"t. c #2C845B",
"y. c #298056",
"u. c #35875E",
"i. c #35804C",
"p. c #328B62",
"a. c #3D8A65",
"s. c #3B946A",
"d. c #2C8B62",
"f. c #3EA37E",
"g. c #458C57",
"h. c #4A925A",
"j. c #598B53",
"k. c #7B9351",
"l. c #478B64",
"z. c #45976B",
"x. c #449C74",
"c. c #4E9C73",
"v. c #559263",
"b. c #45A177",
"n. c #45A37A",
"m. c #4AA57B",
"M. c #4CA97E",
"N. c #4BA276",
"B. c #54AA7B",
"V. c #5BAD7B",
"C. c #57A877",
"Z. c #59A872",
"A. c #6AAA6A",
"S. c #63AB76",
"D. c #63B27C",
"F. c #6BB57B",
"G. c #6AB67C",
"H. c #73B97C",
"J. c #7BBD7B",
"K. c #78B775",
"L. c #7CA869",
"P. c #6E9F68",
"I. c #9C853B",
"U. c #AD8234",
"Y. c #A5873B",
"T. c #B1893A",
"R. c #C69A3F",
"E. c #918E45",
"W. c #B49943",
"Q. c #A8924A",
"!. c #B5A74A",
"~. c #BBB75B",
"^. c #A6AC5A",
"/. c #87AC68",
"(. c #8DB36B",
"). c #81BC75",
"_. c #80BE7A",
"`. c #9AB669",
"'. c #B5BC63",
"]. c #ACB46C",
"[. c #E9844C",
"{. c #EE8B51",
"}. c #F18E54",
"|. c #F39155",
" X c #C7A949",
".X c #D7B64F",
"XX c #C2B85A",
"oX c #CCB957",
"OX c #DEBD52",
"+X c #D5B954",
"@X c #D8AB48",
"#X c #E1BE52",
"$X c #E3BD4F",
"%X c #D5BC61",
"&X c #84C17B",
"*X c #8CC57B",
"=X c #8DC87D",
"-X c #92C87C",
";X c #B1C169",
":X c #E3C254",
">X c #E3C55A",
",X c #E9C85A",
"<X c #E9CC62",
"1X c #E6CC66",
"2X c #EDD56B",
"3X c #EED367",
"4X c #E9D470",
"5X c #EDD976",
"6X c #F1DD78",
"7X c #F3E17D",
"8X c #DAC45C",
"9X c #4CAB80",
"0X c #79BF80",
"qX c #939390",
"wX c #B6B0AA",
"eX c #97A0A1",
"rX c #AAD182",
"tX c #B8D584",
"yX c #A3CE80",
"uX c #83C580",
"iX c #C5DC89",
"pX c #D7E28C",
"aX c #DDE690",
"sX c #F4E685",
"dX c #F6EB8D",
"fX c #F9EC8E",
"gX c #ECEB92",
"hX c #F7EF94",
"jX c #F8EF93",
"kX c #F7F095",
"lX c #F9F195",
"zX c #FFF89A",
"xX c #EEE98E",
"cX c #CDC3BB",
"vX c #D1D4D1",
"bX c #E6DFDA",
"nX c None",
/* pixels */
"nXnXnXnXnXnXnXnXnXnXnXnXnXnXnXnXnXnXnXnXnXnXnXnXnXnXnXnXnXnXnXnXnXnXnXnXnXnXnXnXnXnXnXnXnXnXnXnXnXnXnXnXnXnXnXnXnXnXnXnXnXnXnXnX",
"nXnXnXnXnXnXnXnXnXnXnXnXnXnXnXnXB.V.V.B.V.V.V.nXnXnXnXnXnXnXnXnXnXnXnXnXnXnXnXnXnXnXnXnXnXnXnXnXnXnXnXnXnXnXnXnXnXnXnXnXnXnXnXnX",
"nXnXnXnXnXnXnXnXnXnXnXnXi.i.z.H.*X*X*X*X&X*X&XnXnXnXnXnXnXnXnXnXH J P H 2 @ @ nXnXnXnXnXnXnXnXnXnXnXnXnXnXnXnXnXnXnXnXnXnXnXnXnX",
"nXnXnXnXnXnXnXnXnXW / t.F.0XH.H.H.H.=X-X-X*X&XG.h.y.W nXnXnXP -.;.<.U A Z H B ; ; nXnXnXnXnXnXnXnXnXnXnXnXnXnXnXnXnXnXnXnXnXnXnX",
"nXnXnXnXnXnXnXnXnX~ / R x / s.9XM.n.v.h.Z.J.*X*X-XJ.N.^ G -.U.,.L L t.t.m c c m c 2 $ nXnXnXnXnXnXnXnXnXnXnXnXnXnXnXnXnXnXnXnXnX",
"nXnXnXnXnXnXnXnXnXnXnXnXnX+ 0 j z x.p.t.s.V.*X*X*X-XuXP.G :.d R d.s.F.M.s.d.p.p.u.m l c p nXnXnXnXnXnXnXnXnXnXnXnXnXnXnXnXnXnXnX",
"nXnXnXnXnXnXnXnXnXnXnXnXnX0 k _ ( n.H.J.H.J.*X*X*X=X/.Z 2 v.j.L.J.J.*XJ.B.m.B.m.m.s.Q v 8   nXnXnXnXnXnXnXnXnXnXnXnXnXnXnXnXnXnX",
"nXnXnXnXnXnXnXnXnXnXnXnXb p.n.9XB.J.*X*X-X*X*X&X*XF.u.n a.H.uX-X=X*X*X*X&XD.m.m.m.m.z.z.t.h X nXnXnXnXnXnXnXnXnXnXnXnXnXnXnXnXnX",
"nXnXnXnXnXnXnXnXnXnXnXnX+ ( M.n.B.*X*X*X*X*X*X*X&Xg.g.J.&X*X*X*X*X*X*X*X-XF.b.m.m.n.m.B.9Xp.k nXnXnXnXnXnXnXnXnXnXnXnXnXnXnXnXnX",
"nXnXnXnXnXnXnXnXnXnXnXnXb p.n.m.B.&X*X*X*X*X*X&XD.K.&X*X*X*X*X*X*X*X*X*X&XD.m.m.b.v ) z.z.b.x.Q > + nXnXnXnXnXnXnXnXnXnXnXnXnXnX",
"nXnXnXnXnXnXnXnXnXnXnXnXnXb t.z.s.B.&X*X*X*X&XM.J.*X*X*X*X*X*X*X*X-X*X_.B.M.N.M.x.%     > k ) ~ Q W W nXnXnXnXnXnXnXnXnXnXnXnXnX",
"nXnXnXnXnXnXnXnXnXnXnXnXnXnXnXb W m.H.&X*X*X&XD._.*X*X*X-X*X_.&X&XJ.H.M.m.m.M.M.a.; nXnXnX  X ! ( ( ! h nXnXnXnXnXnXnXnXnXnXnXnX",
"nXnXnXnXnXnXnXnXnXnXnXnXnXnXnXnXnXa.b.J.*X*X*X*X*X=X*X*XH.F.B.D.D.n.n.M.M.M.m.y.0 O...nXnXnX  # 2 5 $   nXnXnXnXnXnXnXnXnXnXnXnX",
"nXnXnXnXnXnXnXnXnXnXnXnXnXnXnXnXf F i.C.&X*X*X*XH.H.G.0X9X9Xn.m.M.M.M.p.! R l , f #...nXnXnXX 2 -.1.M   nXnXnXnXnXnXnXnXnXnXnXnX",
"nXnXnXnXnXnXnXnXnXnXnXnXnXnXnXnX..3.-.^ s.0X0XV.p.` j j z x.9Xs.! j j >     = O.5.4.#.f nXnXnX  T U.H   nXnXnXnXnXnXnXnXnXnXnXnX",
"nXnXnXnXnXnXnXnXnXnXnXnXnXnXnX .#.3.3.*.B 0 6 9 >         6 6 , +           : +.4.4.5.i   nXnXnXH ;.;.H F nXnXnXnXnXnXnXnXnXnXnX",
"nXnXnXnXnXnXnXnXnXnXnXnXnXnX} ..5.4.4.+.w               . p a a a B p X     = | 4.4.5.i   nXnXnXT -.U.:.F nXnXnXnXnXnXnXnXnXnXnX",
"nXnXnXnXnXnXnXnXnXnXnXnXm.B.G ..5.4.4.X.-               . V F F F G V o     - ..4.4.4.i   nXnXnX. d U.;.@ nXnXnXnXnXnXnXnXnXnXnX",
"nXnXnXnXnXnXnXnXnXnX/ C.&X-.+.6.[.5.3.r             2 V Z F F F F F Z V $   i 3.4.4.r X nXnXnXnX  d U.=.. nXnXnXnXnXnXnXnXnXnXnX",
"nXnXnXnXnXnXnXnXv h.*X).K.g %.}.{.[.X.= * 1     . p F F F F F C B C F M O t +.4.&.#.: nXnXnXnXnX  s U.=.. nXnXnXnXnXnXnXnXnXnXnX",
"nXnXnXnXnXnX~ ~ A.*X*X).x r 4.|.|.r. .q eXcX    B F F F F B a q * . p X o O.9.3.#.@ nXnXnXnXnXnX  s U.=.. nXnXnXnXnXnXnXnXnXnXnX",
"nXnXnXnXz.u.S.&X*X*X*X).* t %.e.|.r.%.w.cXeX    B F F F C .   [ eXq   = O.e.[.9.+.$ nXnXnXnXnXnX  d U.=.. nXnXnXnXnXnXnXnXnXnXnX",
"nXnXnXC.H.*X-X*X*X*X-X).l nXnX+.|.|.}.o.w.qX    B G F G V .   [ vXeX. y 7.}.|.e.} o nXnXnXnXnXnX  s 2.=.. nXnXnXnXnXnXnXnXnXnXnX",
"nXnXD.J.-X&XG.&X*X*X-X).s.0 e +.|.}.[.e.0.$.- X ; 1 1 1 ;     [ wX$.w %.[.}.[.5.} nXnXnXnXnXnXnXs -.U.=.. nXnXnXnXnXnXnXnXnXnXnX",
"nXnXV.H.*X*XK.D.K.*X*X&XB.) R M %.[.}.|.e.9.&.u e e w t e e w g 0.9.6.{.}.r.4.} - nXnXnXnXnXnX  J U.-.5 nXnXnXnXnXnXnXnXnXnXnXnX",
"nXm.D.&X*X*XD.F.=X*X*X&XC.M.m.u.B o.o.e.}.{.{.e.e.e.8.e.e.e.e.6.e.|.{.6.+.X.u o nXnXnXnXnXnXX 4 =.;.a   nXnXnXnXnXnXnXnXnXnXnXnX",
"nXn.F.-X=X&XB.).*X=X&XB.m.m.m.m.( o qX0. . .+.[.}.}.{.}.}.}.}.e.%. . .| T.@X-.  nXnXnXnXv v k n n n v k v v E v v v v nXnXnXnXnX",
"nXB.H.*X=X&XN.K.=X*XJ.M.m.m.m.M.l.O B g o.O.| e.r.r.r.r.r.r.r.9.o.y | | R.,X>.  nXv E h.&X).K.&X).).).).).).).).K.N.x.9 O O nXnX",
"nX).=X*X*X_.~ A.*XF.m.m.m.m.n.N.v.U 3 qXbXwXJ o.o.o.o.X.| $.*.X.i M .X.X$X$X<.  , z.J.*X*X*X&X*X*X*X*XJ._.&X_.J.J.A.x.s.s.! % nX",
"v A.=X&XJ.K.v Z.D.N.m.m.m.M.c.' P +X.XQ.>.U.OXOXOXOXOX Xq.cXvX~.R.OX#XOX#X XU 8 b.A.A.K.J.H.V.H.J.J.H.V.V.V.V.D.c.~ W W ~ t./ & ",
"v A.&XD.n.b.y.t.x.M.N.m.m.M.' H q..X#X#XOXOXOX.XOXOXOXOX@XI.>.!.#XOXOXOX,XV 7 9Xd.y.i.v.D.F.&XF.D.S.F.*X*X*X*X&XG.m.m.9Xa./ Q 0 ",
"0 v.D.M.n.M.M.u.s.m.m.m.m.l.{ W.,X<X>X3X2X4X4X4X4X1X:XOX$X#X#XOXOX$X#XOX<.A ` u.h.D.&X*X*X*X*X*X*X*X*X*X*X*X-XF.m.m.9X_ O , z   ",
"  ( 9X9X9Xx.9X9XM.M.m.n.' E.+X7XsXsXsXjXkXkXkXkXkXdX6X2X>XOXOX$X~./.(..X5 h t.s.*X-X*X*X*X*X*X*X*X*X*X*X*X*XH.V.m.x.z O nXnXnXnX",
"nX6 ( 9X9X9Xc.x.p.u.c.] P.;XpXzXjXhXjXjXkXkXkXhXhXkXkXhXsX6X>X:X`.n.Z.oXA E c.J.*X*X*X*X*X*X*X*X*X*X*X*X*XG.B.M.a.8 nXnXnXnXnXnX",
"nX  R 9Xx.9X9X9Xx.! q L.).*X-XiXjXjXjXkXkXkXjXhXkXhXhXkXkXkX5X:XoX~.^.j.u.b.D.=X*X*X*X*X*X-X*X*X*X*X*X_.V.m.m.M.(   nXnXnXnXnXnX",
"nXnXnXnX7 x.c.9Xj.Z U *X*X*XtXdXhXjXjXkXjXkXkXhXhXhXkXkXkXkXfX2X$X!.^ s.b.F.*X*X*X&X*X*X*X&X*X*X*X&X*X_.M.m.c.n.x.nXnXnXnXnXnXnX",
"nXnXnXnX, s.9X9Xz K gXgX-X-XiXlXhXhXhXhXhXkXjXhXhXhXhXkXlXdXgX2XE.~ x.m.M.G.&X-X*X*X*X*X*X*X*X*X*XF.B.B.m.m.j O nXnXnXnXnXnXnXnX",
"nXnXnXnXnX% ( A ^.gXkXkXkXgXlXlXhXhXhXhXhXhXhXhXhXhXhXhXaX-X=X;Xk.W n.m.N.M.D.&X_.*X*X-X&X&X_._.V.m.m.m.m.9X8   nXnXnXnXnXnXnXnX",
"nXnXnXnXnXnX    q.zXkXhXkXkXkXkXhXhXkXkXjXjXjXkXlXlXgXiX*X*X=XG.t.W N.m.m.m.N.n.B.H.0X_.F.m.m.m.m.m.m.m.n.l.6 nXnXnXnXnXnXnXnXnX",
"nXnXnXnXnXnXnX4 Q.jXhXhXkXkXkXgXpXpXpXpXpXaXkXkXkXlXiX&X&XH.H.J.h.Q m.m.m.m.m.m.m.m.m.m.m.m.m.m.m.m.m.m.n.% nXnXnXnXnXnXnXnXnXnX",
"nXnXnXnXnXnX  Q.,X5XlXkXhXlXgXtX&X&X*X&X&XrXzXkXkXkXaXtX;X/./.XX!.j.u.N.m.m.m.m.m.m.m.x.m.m.m.m.m.m.m.x.! % nXnXnXnXnXnXnXnXnXnX",
"nXnXnXnXnXnX  I.:X:X5XlXkXlXtX*X*X*X*X-X&X;XkXkXkXkXsX3X#XOX:XOX:X!.v b.9Xm.m.m.m.m.m.9Xm.m.m.m.m.9X9Xa.X nXnXnXnXnXnXnXnXnXnXnX",
"nXnXnXnXnXnX  I.>XOXOX2X6XfXtX&X*X-X*X&XrXaXkXkX5X1X>XOXOXOXOXOX#X.XE.l a.m.m.m.m.m.m.m.m.m.m.m.9X( 8 7 nXnXnXnXnXnXnXnXnXnXnXnX",
"nXnXnXnXnXnX  I.:XOXOXOX:X1X8X].V.V.V.V.`.1X1X1XOXOXOXOXOXOXOXOXOX:X X# ( 9Xm.m.m.m.m.m.m.m.m.m.z % nXnXnXnXnXnXnXnXnXnXnXnXnXnX",
"nXnXnXnXnXnXnX# ,.~.K.+XOXOX:X+X~.XXXXXX+XOXOXOXOXOXOXOXOX:XOXOXOXOXoXl.8 % z m.x.x.x.m.( 7 z.6 nXnXnXnXnXnXnXnXnXnXnXnXnXnXnXnX",
"nXnXnXnXnXnXnX  I '.b.Z.oX#XOXOX:X:XOXOXOXOXOXOX#X#X#XOXOXOXOXOX:X~.Z.n.l.8   O O O O % O nXO nXnXnXnXnXnXnXnXnXnXnXnXnXnXnXnXnX",
"nXnXnXnXnXnXnX  D ^.S.S.oX:XOXOXOXOXOXOXOXOXOXOXoXXXoXOXOXOX#XOX:X~.N.z.6 nXnXnXnXnXnXnXnXnXnXnXnXnXnXnXnXnXnXnXnXnXnXnXnXnXnXnX",
"nXnXnXnXnXnXnXnX. N W.OXOXOXOXOXOXOXOXOXOXOXOX~.S.m.(.#XOXOX#X:X:X~.^ & nXnXnXnXnXnXnXnXnXnXnXnXnXnXnXnXnXnXnXnXnXnXnXnXnXnXnXnX",
"nXnXnXnXnXnXnX@ p a 3 <.+X:XOXOX#XOXOX#XOX#XXXB.n.f.(.#X:X:X,XT.<.I   nXnXnXnXnXnXnXnXnXnXnXnXnXnXnXnXnXnXnXnXnXnXnXnXnXnXnXnXnX",
"nXnXnXnXnXnX< C G C 2 X I I T.,X:X:X:X:X:X:X8X`.(.(.;X XI >.>.4   nXnXnXnXnXnXnXnXnXnXnXnXnXnXnXnXnXnXnXnXnXnXnXnXnXnXnXnXnXnXnX",
"nXnXnXnXnX  C F a ; nXnXnXnXN S S S S S D D S D D D H M nXnXnXnXnXnXnXnXnXnXnXnXnXnXnXnXnXnXnXnXnXnXnXnXnXnXnXnXnXnXnXnXnXnXnXnX",
"nXnXnXnX; T F H <   nXnXnXnXnXnXnXnXnXnXnXnXnXnXnXnXnXnXnXnXnXnXnXnXnXnXnXnXnXnXnXnXnXnXnXnXnXnXnXnXnXnXnXnXnXnXnXnXnXnXnXnXnXnX",
"nXnXnXnX; 1.;.3 . nXnXnXnXnXnXnXnXnXnXnXnXnXnXnXnXnXnXnXnXnXnXnXnXnXnXnXnXnXnXnXnXnXnXnXnXnXnXnXnXnXnXnXnXnXnXnXnXnXnXnXnXnXnXnX",
"nXnXnXnX; :.1.5 nXnXnXnXnXnXnXnXnXnXnXnXnXnXnXnXnXnXnXnXnXnXnXnXnXnXnXnXnXnXnXnXnXnXnXnXnXnXnXnXnXnXnXnXnXnXnXnXnXnXnXnXnXnXnXnX",
"nXnXnXnXnX@ V -.1.=.F nXnXnXnXnXnXnXnXnXnXnXnXnXnXnXnXnXnXnXnXnXnXnXnXnXnXnXnXnXnXnXnXnXnXnXnXnXnXnXnXnXnXnXnXnXnXnXnXnXnXnXnXnX",
"nXnXnXnXnXnX. H 1.;.G nXnXU.T.W.W.T.T.T.T.nXnXnXnXnXnXnXnXnXnXnXnXnXnXnXnXnXnXnXnXnXnXnXnXnXnXnXnXnXnXnXnXnXnXnXnXnXnXnXnXnXnXnX",
"nXnXnXnXnXnX  3 -.U.:.F P %XsXhXdX5X2X2X+XY.Y nXnXnXnXnXnXnXnXnXnXnXnXnXnXnXnXnXnXnXnXnXnXnXnXnXnXnXnXnXnXnXnXnXnXnXnXnXnXnXnXnX",
"nXnXnXnXnXnXnXnXp J ,.,.%XsXhXhXkXsX2X<X<X3X1XE.nXnXnXnXnXnXnXnXnXnXnXnXnXnXnXnXnXnXnXnXnXnXnXnXnXnXnXnXnXnXnXnXnXnXnXnXnXnXnXnX",
"nXnXnXnXnXnXnXnXnX< I OXdXkXhXhXdX2XOXOXOX:X<X,XQ.<.I a nXnXnXnXnXnXnXnXnXnXnXnXnXnXnXnXnXnXnXnXnXnXnXnXnXnXnXnXnXnXnXnXnXnXnXnX",
"nXnXnXnXnXnXnXnXnXnXP Q.4XhXhXhX7X2X<X,X>XOXOXOXOX:X:X XI D I.F nXnXnXnXnXnXnXnXnXnXnXnXnXnXnXnXnXnXnXnXnXnXnXnXnXnXnXnXnXnXnXnX",
"nXnXnXnXnXnXnXnXnXnXnXG oX5XsX6X2X2X,X2X<XOXOXOXOXOXOX:X,X:XI nXnXnXnXnXnXnXnXnXnXnXnXnXnXnXnXnXnXnXnXnXnXnXnXnXnXnXnXnXnXnXnXnX",
"nXnXnXnXnXnXnXnXnXnXnXnX>. X>X#X>X>XOX>X:XOXOXOXOXOX:XW.p p nXnXnXnXnXnXnXnXnXnXnXnXnXnXnXnXnXnXnXnXnXnXnXnXnXnXnXnXnXnXnXnXnXnX",
"nXnXnXnXnXnXnXnXnXnXnXnXnX< >.#XOXOX+X.X.X.X.X.XOXH < < nXnXnXnXnXnXnXnXnXnXnXnXnXnXnXnXnXnXnXnXnXnXnXnXnXnXnXnXnXnXnXnXnXnXnXnX",
"nXnXnXnXnXnXnXnXnXnXnXnXnXnX@ @ 4  Xs @ # # # # # nXnXnXnXnXnXnXnXnXnXnXnXnXnXnXnXnXnXnXnXnXnXnXnXnXnXnXnXnXnXnXnXnXnXnXnXnXnXnX"
};
