/* XPM */
static char *result[] = {
/* columns rows colors chars-per-pixel */
"16 16 141 2 ",
"   c #1E2B1B",
".  c #2F331D",
"X  c #3E3116",
"o  c #103423",
"O  c #2E2421",
"+  c #233323",
"@  c #4B200B",
"#  c #473E1F",
"$  c #5A3A17",
"%  c #793313",
"&  c #543927",
"*  c #394B2C",
"=  c #305133",
"-  c #5B431A",
";  c #5C461E",
":  c #4B422E",
">  c #404829",
",  c #404B2B",
"<  c #504F25",
"1  c #505126",
"2  c #714724",
"3  c #6A5021",
"4  c #50613F",
"5  c #727039",
"6  c #3F6C46",
"7  c #2E6A50",
"8  c #306C51",
"9  c #2D7E59",
"0  c #337753",
"q  c #317454",
"w  c #357557",
"e  c #377F56",
"r  c #3B7853",
"t  c #357759",
"y  c #677E48",
"u  c #A84819",
"i  c #924B27",
"p  c #9A4A22",
"a  c #984C21",
"s  c #9B4E2D",
"d  c #975132",
"f  c #B5592A",
"g  c #B15931",
"h  c #816B34",
"j  c #8E7834",
"k  c #807E3F",
"l  c #AC6231",
"z  c #AB683F",
"x  c #BA6944",
"c  c #BB7944",
"v  c #39805F",
"b  c #498B5C",
"n  c #508352",
"m  c #748B55",
"M  c #758B5F",
"N  c #68945B",
"B  c #418D66",
"V  c #489361",
"C  c #41906A",
"Z  c #599360",
"A  c #5F9A64",
"S  c #509B6A",
"D  c #5A9F6B",
"F  c #479B73",
"G  c #449C73",
"H  c #4C9F74",
"J  c #6B9162",
"K  c #5DA36A",
"L  c #5DA469",
"P  c #5CA36F",
"I  c #4EA376",
"U  c #49A47A",
"Y  c #5AA877",
"T  c #50A77A",
"R  c #58AA78",
"E  c #68A367",
"W  c #63AA6E",
"Q  c #6AAB6E",
"!  c #73A169",
"~  c #79AC6B",
"^  c #60A772",
"/  c #65AD72",
"(  c #71AE71",
")  c #69B277",
"_  c #65B37C",
"`  c #6EB578",
"'  c #6EB67A",
"]  c #79B472",
"[  c #7BB977",
"{  c #7EBC77",
"}  c #77BB7B",
"|  c #7CBD7A",
" . c #7ABD7C",
".. c #7BC07E",
"X. c #97843B",
"o. c #9D863A",
"O. c #AC923F",
"+. c #C08B3A",
"@. c #848048",
"#. c #90934C",
"$. c #8D9852",
"%. c #A08840",
"&. c #A38E43",
"*. c #A79040",
"=. c #AB9E4B",
"-. c #B19C52",
";. c #B29D52",
":. c #9DA957",
">. c #B2A054",
",. c #80BB77",
"<. c #B8BB60",
"1. c #C08448",
"2. c #C68E49",
"3. c #D19044",
"4. c #C1A144",
"5. c #C6A94C",
"6. c #C3BD5D",
"7. c #C7BC5C",
"8. c #D5BF58",
"9. c #E2BE51",
"0. c #83C17A",
"q. c #83C17B",
"w. c #81C17C",
"e. c #88C47C",
"r. c #D2C15D",
"t. c #E4C75E",
"y. c #DECF71",
"u. c #E1C661",
"i. c #EBD874",
"p. c #E7DC7D",
"a. c #ECDA7A",
"s. c #EFDE7C",
"d. c #B6D484",
"f. c #BED081",
"g. c #C6D581",
"h. c #D8E088",
"j. c #E9E386",
"k. c #F2EE94",
"l. c #F3EF95",
"z. c #F8F096",
"x. c None",
/* pixels */
"x.x.x.V ' ` x.x.x.x.x.x.x.x.x.x.",
"x.x.x.0 D 0.N y n 6 , x.x.x.x.x.",
"x.x.x.9 ) e.] ,...I r = x.x.x.x.",
"x.x.x.x.m [ ( P B 4 2 * x.x.x.x.",
"x.x.x.l a +   > . @ u $ 3 x.x.x.",
"x.W ~ c x O X : & p % x.- x.x.x.",
"x.| } M z s i d g f x.< 1 x.x.x.",
"K / R H @.2.3.1.+.5 b E Q L e x.",
"x.C G ! y.s.i.u.:.A { e.w.^ q o ",
"x.7 J f.k.z.l.g.S _ q. .Y w x.x.",
"x.x.>.j.d.h.p.<.Z U T F t x.x.x.",
"x.x.k 7.6.r.8.9.#.8 v x.x.x.x.x.",
"x.x.# X.4.=.$.O.x.x.x.x.x.x.x.x.",
"x.x.; h -.%.x.x.x.x.x.x.x.x.x.x.",
"x.x.x.;.a.t.5.j x.x.x.x.x.x.x.x.",
"x.x.x.x.&.*.o.x.x.x.x.x.x.x.x.x."
};
