/* XPM */
static char *result[] = {
/* columns rows colors chars-per-pixel */
"16 16 135 2 ",
"   c #3D3117",
".  c #37381E",
"X  c #283824",
"o  c #463718",
"O  c #753815",
"+  c #403F21",
"@  c #593B27",
"#  c #4B3730",
"$  c #2C4B2F",
"%  c #2D4B33",
"&  c #315238",
"*  c #335C3B",
"=  c #3F5C3B",
"-  c #53401C",
";  c #5B4219",
":  c #4A4725",
">  c #4A412C",
",  c #515634",
"<  c #654E21",
"1  c #536537",
"2  c #566535",
"3  c #546D3C",
"4  c #77602C",
"5  c #235E43",
"6  c #2D664C",
"7  c #30654B",
"8  c #386C48",
"9  c #347351",
"0  c #3B7C5B",
"q  c #467449",
"w  c #5D7845",
"e  c #51724D",
"r  c #974117",
"t  c #9B471F",
"y  c #804121",
"u  c #975025",
"i  c #884C32",
"p  c #8B5D30",
"a  c #A65C3B",
"s  c #8E6335",
"d  c #94683A",
"f  c #837637",
"g  c #927D36",
"h  c #B6663C",
"j  c #B07046",
"k  c #D06F40",
"l  c #388060",
"z  c #3A8A63",
"x  c #7A804F",
"c  c #638A5F",
"v  c #669058",
"b  c #498E66",
"n  c #499462",
"m  c #42936D",
"M  c #46966E",
"N  c #47986F",
"B  c #529565",
"V  c #569E66",
"C  c #599D6A",
"Z  c #429D74",
"A  c #469F75",
"S  c #499F75",
"D  c #698F60",
"F  c #609A69",
"G  c #55A06B",
"H  c #55A06E",
"J  c #4AA47B",
"K  c #51A173",
"L  c #59A975",
"P  c #51A87A",
"I  c #60A56B",
"U  c #66A66C",
"Y  c #68A468",
"T  c #6FAB6B",
"R  c #6BAC6F",
"E  c #77AE6E",
"W  c #6DB274",
"Q  c #6BB479",
"!  c #6FB679",
"~  c #6FB77A",
"^  c #6AB67C",
"/  c #6DB77C",
"(  c #75B776",
")  c #77B876",
"_  c #74B678",
"`  c #75B97A",
"'  c #78BC7B",
"]  c #7CBD7B",
"[  c #7EBE7A",
"{  c #7ABE7D",
"}  c #7DBF7C",
"|  c #90954E",
" . c #889652",
".. c #869A52",
"X. c #A69040",
"o. c #AD9341",
"O. c #AA9B48",
"+. c #BA9347",
"@. c #B39943",
"#. c #BE9F43",
"$. c #B5875B",
"%. c #BE9556",
"&. c #ACA04C",
"*. c #BCA44C",
"=. c #B6A455",
"-. c #80BF79",
";. c #B8BD63",
":. c #B3BE69",
">. c #C79046",
",. c #CAB75C",
"<. c #D2B756",
"1. c #D6B853",
"2. c #DFBD52",
"3. c #CAB864",
"4. c #83C17A",
"5. c #83C17B",
"6. c #86C179",
"7. c #8AC47B",
"8. c #AFC67B",
"9. c #DAC35C",
"0. c #CBC161",
"q. c #D0C463",
"w. c #CCD37C",
"e. c #E3CA63",
"r. c #E7CE68",
"t. c #E9D069",
"y. c #E0D179",
"u. c #C3DB89",
"i. c #DEE48D",
"p. c #EBE78B",
"a. c #F1E789",
"s. c #F2EB8F",
"d. c #F7EE92",
"f. c #F8EF94",
"g. c None",
/* pixels */
"g.g.g.n ! Q g.g.g.g.g.g.g.g.g.g.",
"g.g.g.9 C 4.v 1 q * . g.g.g.g.g.",
"g.g.g.z _ -.Y E { A 8 + g.g.g.g.",
"g.g.g.g.U } ] ~ K e , $ g.g.g.g.",
"g.g.g.s p & % = X O r o < g.g.g.",
"g.g.T d k #   > @ t g.g.; g.g.g.",
"g.[ ' c j a y i h u g.3 2 g.g.g.",
"V W L S x %.>.$.+.w I ) ( G 5 g.",
"g.M Z F ,.r.e.<...R 6.7.` b g.g.",
"g.7 D 8.s.f.d.w.H ^ 5./ N g.g.g.",
"g.g.3.p.u.i.a.:.B J P m 6 g.g.g.",
"g.g.&.0.;.q.9.2.| 0 l g.g.g.g.g.",
"g.g.: f #.O. .X.g.g.g.g.g.g.g.g.",
"g.g.- g.g.g.g.g.g.g.g.g.g.g.g.g.",
"g.g.g.4 y.t.1.o.g.g.g.g.g.g.g.g.",
"g.g.g.g.=.*.@.g g.g.g.g.g.g.g.g."
};
