/* XPM */
static char *result[] = {
/* columns rows colors chars-per-pixel */
"16 16 147 2 ",
"   c #1A160C",
".  c #391F15",
"X  c #372B15",
"o  c #3A351E",
"O  c #1A3928",
"+  c #203620",
"@  c #452F18",
"#  c #483C1F",
"$  c #4E3E1C",
"%  c #633719",
"&  c #713313",
"*  c #783212",
"=  c #14422D",
"-  c #1E5239",
";  c #264F38",
":  c #265139",
">  c #5F481C",
",  c #61491D",
"<  c #634B1F",
"1  c #594631",
"2  c #684F21",
"3  c #7A542A",
"4  c #794830",
"5  c #794A32",
"6  c #55693E",
"7  c #71602A",
"8  c #76652C",
"9  c #626433",
"0  c #335D41",
"q  c #296349",
"w  c #2E6349",
"e  c #3D6840",
"r  c #336D51",
"t  c #307857",
"y  c #387D5D",
"u  c #426341",
"i  c #5B7541",
"p  c #487F5A",
"a  c #597550",
"s  c #5A7F51",
"d  c #963F15",
"f  c #A75025",
"g  c #A7522C",
"h  c #AE5A37",
"j  c #9C662C",
"k  c #8D7639",
"l  c #917537",
"z  c #C05A2B",
"x  c #D46F3E",
"c  c #8E5C46",
"v  c #AF6340",
"b  c #C27042",
"n  c #38815A",
"m  c #3B8463",
"M  c #3D8966",
"N  c #498753",
"B  c #57935A",
"V  c #61884F",
"C  c #6B8B53",
"Z  c #4B9D6F",
"A  c #529C66",
"S  c #5B9D67",
"D  c #599E69",
"F  c #459A71",
"G  c #479B73",
"H  c #459B74",
"J  c #459D75",
"K  c #479E76",
"L  c #4D9C72",
"P  c #659E63",
"I  c #56A168",
"U  c #5EA26B",
"Y  c #4FA170",
"T  c #48A378",
"R  c #4FA87C",
"E  c #50A577",
"W  c #59A473",
"Q  c #53AA7B",
"!  c #59AB7A",
"~  c #5BAD7B",
"^  c #5CAE7B",
"/  c #62A46B",
"(  c #71A068",
")  c #69B277",
"_  c #6AB378",
"`  c #6DB77B",
"'  c #70B170",
"]  c #75B776",
"[  c #75B979",
"{  c #75BA7B",
"}  c #71B97C",
"|  c #7EBE7B",
" . c #79BD7C",
".. c #7EC07D",
"X. c #A28A3C",
"o. c #A88F3E",
"O. c #809D5C",
"+. c #939B51",
"@. c #B28A47",
"#. c #AA9846",
"$. c #A3994C",
"%. c #A99E4C",
"&. c #BFA74A",
"*. c #BDB155",
"=. c #9F8B62",
"-. c #AE9967",
";. c #A78D72",
":. c #89A46C",
">. c #AEBD67",
",. c #C7AB4B",
"<. c #C8A949",
"1. c #CFB24E",
"2. c #D3B54F",
"3. c #C3A852",
"4. c #CEB252",
"5. c #DBBC54",
"6. c #DFBF54",
"7. c #C8B664",
"8. c #81C07B",
"9. c #80C17D",
"0. c #84C27C",
"q. c #88C37B",
"w. c #8BC57B",
"e. c #8CC57B",
"r. c #DFC055",
"t. c #C4C468",
"y. c #CACA6F",
"u. c #D6C662",
"i. c #D8CC6D",
"p. c #DDD377",
"a. c #E2C861",
"s. c #E3C962",
"d. c #E7CD68",
"f. c #E0CE72",
"g. c #E1D179",
"h. c #BFD988",
"j. c #CAD886",
"k. c #CDDA87",
"l. c #CFDF8B",
"z. c #F3E485",
"x. c #F3E585",
"c. c #F3EC8F",
"v. c #EEEC93",
"b. c #F5EC90",
"n. c #F9F095",
"m. c #F9F196",
"M. c None",
/* pixels */
"M.M.M.M.A 9...` E p o - + M.M.M.",
"M.M.M.M.3 u ; : O % d M.2 M.M.M.",
"M.M.I M.z .   # X * & M., M.M.M.",
"M.' P M.x c @ 1 4 f M.M.> M.M.M.",
"{ 8._ t 5 v g h b j e B V N M.M.",
"[ ] ~ J a =.@.;.-.i S |  .) n = ",
"U Y T L $.5.r.3.+./ q.e.0.W q M.",
"w H F ( p.x.z.i.D } w.8.! y M.M.",
"M.r :.j.v.n.m.k.Z R ^ Q M M.M.M.",
"M.M.7.c.h.l.b.y.C G K m M.M.M.M.",
"M.M.%.u.>.t.s.6.1.s 0 M.M.M.M.M.",
"M.M.9 #.<.&.O.*.,.6 M.M.M.M.M.M.",
"M.M.M.$ M.M.M.M.M.M.M.M.M.M.M.M.",
"M.M.M.< l g.d.4.X.M.M.M.M.M.M.M.",
"M.M.M.M.k f.a.2.o.M.M.M.M.M.M.M.",
"M.M.M.M.M.M.8 7 M.M.M.M.M.M.M.M."
};
