/* XPM */
static char *result[] = {
/* columns rows colors chars-per-pixel */
"64 64 227 2 ",
"   c #010101",
".  c #0C0401",
"X  c #0B0B05",
"o  c #050E0B",
"O  c #020906",
"+  c #160502",
"@  c #05130C",
"#  c #151208",
"$  c #1A160B",
"%  c #0D1C15",
"&  c #051A12",
"*  c #240802",
"=  c #261C0B",
"-  c #3A1909",
";  c #350E05",
":  c #082619",
">  c #14271A",
",  c #07371F",
"<  c #2C2512",
"1  c #272111",
"2  c #342916",
"3  c #3A351A",
"4  c #26200E",
"5  c #162A23",
"6  c #183628",
"7  c #163F30",
"8  c #252626",
"9  c #333623",
"0  c #541806",
"q  c #471606",
"w  c #7B1A02",
"e  c #6C1B05",
"r  c #453414",
"t  c #483A19",
"y  c #5D2B10",
"u  c #6D280C",
"i  c #763414",
"p  c #732910",
"a  c #4B3F20",
"s  c #1C4733",
"d  c #0B5C36",
"f  c #114F2F",
"g  c #234B37",
"h  c #26523C",
"j  c #2A452D",
"k  c #0E6239",
"l  c #0D6037",
"z  c #13653C",
"x  c #18693E",
"c  c #2A673A",
"v  c #54451E",
"b  c #464321",
"n  c #534522",
"m  c #5B4C25",
"M  c #564824",
"N  c #494331",
"B  c #614F24",
"V  c #64532A",
"C  c #685728",
"Z  c #745C29",
"A  c #645B31",
"S  c #7B4432",
"D  c #5E6138",
"F  c #78632C",
"G  c #726E3A",
"H  c #674D1E",
"J  c #295B44",
"K  c #255741",
"L  c #186C44",
"P  c #1E734A",
"I  c #29694A",
"U  c #32694A",
"Y  c #247244",
"T  c #29764A",
"R  c #287853",
"E  c #337255",
"W  c #347B5A",
"Q  c #317351",
"!  c #4C4E4C",
"~  c #75524A",
"^  c #58764C",
"/  c #717A46",
"(  c #737572",
")  c #871B02",
"_  c #8D2206",
"`  c #8A2509",
"'  c #952909",
"]  c #983716",
"[  c #A53914",
"{  c #A0350E",
"}  c #A84318",
"|  c #B5491B",
" . c #BA531E",
".. c #944E39",
"X. c #B54F23",
"o. c #846329",
"O. c #886628",
"+. c #96712E",
"@. c #867234",
"#. c #877538",
"$. c #9A7832",
"%. c #946F2D",
"&. c #A0742B",
"*. c #A67D32",
"=. c #C55A21",
"-. c #C85C23",
";. c #CD6636",
":. c #D46D37",
">. c #DB743C",
",. c #CF662D",
"<. c #91704E",
"1. c #927665",
"2. c #A66B5A",
"3. c #DC7743",
"4. c #DE7943",
"5. c #368558",
"6. c #2F8355",
"7. c #378963",
"8. c #3C946D",
"9. c #3E986F",
"0. c #399267",
"q. c #3D9A71",
"w. c #3CA37F",
"e. c #4A925B",
"r. c #508F5A",
"t. c #7D964D",
"y. c #47966C",
"u. c #449D74",
"i. c #489A72",
"p. c #4B956B",
"a. c #46A37B",
"s. c #4AA57B",
"d. c #4CA97F",
"f. c #48A176",
"g. c #54AA7B",
"h. c #5CAE7B",
"j. c #56A776",
"k. c #5EA76D",
"l. c #66A868",
"z. c #75B36F",
"x. c #65AC76",
"c. c #66B37B",
"v. c #6BB57B",
"b. c #6CB97F",
"n. c #75BA7B",
"m. c #7BBD7B",
"M. c #77B675",
"N. c #95803D",
"B. c #AE8134",
"V. c #A68B3B",
"C. c #B28C39",
"Z. c #C28B39",
"A. c #909257",
"S. c #B99D45",
"D. c #B69A48",
"F. c #A88F47",
"G. c #94A45A",
"H. c #BDA449",
"J. c #B6A257",
"K. c #B7B75D",
"L. c #ACAE5A",
"P. c #958C6E",
"I. c #84AE6B",
"U. c #82BD79",
"Y. c #94B369",
"T. c #A0B363",
"R. c #A89C7C",
"E. c #C89E43",
"W. c #E8854C",
"Q. c #EE8B51",
"!. c #F18E53",
"~. c #F49256",
"^. c #CBAC4A",
"/. c #C4A548",
"(. c #D4B44E",
"). c #C7AC5B",
"_. c #DEBD52",
"`. c #D5BC58",
"'. c #CFB651",
"]. c #E1BE52",
"[. c #85C27B",
"{. c #8CC57B",
"}. c #8FC87E",
"|. c #93C97D",
" X c #94C87C",
".X c #A4C26E",
"XX c #A3CA7C",
"oX c #DFC055",
"OX c #E4C254",
"+X c #E3C55B",
"@X c #E6C85D",
"#X c #EAC757",
"$X c #D3C975",
"%X c #E7CC64",
"&X c #EBD46D",
"*X c #ECD368",
"=X c #F1D76C",
"-X c #ECD774",
";X c #F2DD75",
":X c #F1DE78",
">X c #F5E27A",
",X c #4DAD81",
"<X c #52AF82",
"1X c #74BE80",
"2X c #95948E",
"3X c #B7B9B8",
"4X c #AAA8A4",
"5X c #A3A0A0",
"6X c #C7B8B5",
"7X c #ACD283",
"8X c #89C780",
"9X c #D4DD8A",
"0X c #D6E28C",
"qX c #DBE48D",
"wX c #E5E48D",
"eX c #F6EA8B",
"rX c #EBEA91",
"tX c #F7EF94",
"yX c #F9EF93",
"uX c #F9F195",
"iX c #FAF397",
"pX c #C8C6BA",
"aX c #E5DD89",
"sX c #CDD3D3",
"dX c #EAE5DB",
"fX c #F3F2F0",
"gX c None",
/* pixels */
"gXgXgXgXgXgXgXgXgXgXgXgXgXgXgXz z 9.d.v.}.}.m.g.[.}.{.{.{.{.{.{.{.{.h.s.s.s.s.y.o     , 6.8.k z z @ gXgXgXgXgXgXgXgXgXgXgXgXgXgX",
"gXgXgXgXgXgXgXgXgXgXgXgXgXgXgXgXz 9.n.[.{.}.{.U.{.{.{.{.{.{.{.{.h.g.d.s.s.s.s.i.@ gXgXf 6.a.u.9.8.z & gXgXgXgXgXgXgXgXgXgXgXgXgX",
"gXgXgXgXgXgXgXgXgXgXgXgXgXgXgXgXgXP z.{.{.{.{. X{.{.{.{.m.h.h.h.s.a.s.s.a.,Xf.P 0 gXgX& : 6 6 6 6 & O gXgXgXgXgXgXgXgXgXgXgXgXgX",
"gXgXgXgXgXgXgXgXgXgXgXgXgXgXgXgXgXl y.[.{.{.{.c.c.[.n.c.g.a.d.a.s.s.d.,Xq.I j Z } _ gXgXgXgX      t # gXgXgXgXgXgXgXgXgXgXgXgXgX",
"gXgXgXgXgXgXgXgXgXgXgXgXgXgXgXgXgXb I j.1Xn.c.a.d.b.g.,X,Xu.7.d.d.0.I J s > i =.=._ gXgXgXgXgX. < %.B t gXgXgXgXgXgXgXgXgXgXgXgX",
"gXgXgXgXgXgXgXgXgXgXgXgXgXgXgXgXgX) m U E 7.a.0.W E E E W I x E E f @     - -.=.=.{ 0 gXgXgXgXgXC +.B.o.V gXgXgXgXgXgXgXgXgXgXgX",
"gXgXgXgXgXgXgXgXgXgXgXgXgXgXgXgXgX_ | i . : W f O         & f             -  .=.=.-.- gXgXgXgXgXM +.*.Z n gXgXgXgXgXgXgXgXgXgXgX",
"gXgXgXgXgXgXgXgXgXgXgXgXgXgXgXgX) | =.-.i   O               .   . X       * ' =.-.-.- gXgXgXgXgX. O.B.r   gXgXgXgXgXgXgXgXgXgXgX",
"gXgXgXgXgXgXgXgXgXs.d.gXgXgXgXgX) =.-.-.[ 0               $ M m M m $     * ' =.=.=.- gXgXgXgXgX. O.*.r   gXgXgXgXgXgXgXgXgXgXgX",
"gXgXgXgXgXgXgXx u.m.5.gXgXgXgX_ =.4.;.-.i .           < M M V V V V M 4   -  .=.=.q gXgXgXgXgXgX  O.B.r   gXgXgXgXgXgXgXgXgXgXgX",
"gXgXgXgXgXgXgXl.n.{.Q gXgXgXgX_ 4.~.4.=.0           < m V V V V V V C < * p -.=.-.* gXgXgXgXgXgX. o.B.r   gXgXgXgXgXgXgXgXgXgXgX",
"gXgXgXgXgXgXgX}.}.{.5.gXgXgXgX_ 4.4.~.X.q 8 ( O   < m V V V M = < m r o q | =. .y . gXgXgXgXgXgX  o.B.r   gXgXgXgXgXgXgXgXgXgXgX",
"gXgXgXgXgXgX6.{.{.{.c gXgXgXgX_ 4.~.~.| y 2XsX.   M V V V M 9 !   < X + ] ;.=.| X   gXgXgXgXgXgX. o.B.r   gXgXgXgXgXgXgXgXgXgXgX",
"gXgXgXgXL T e.[.{.}.9 gXgXgXgX_ ;.4.~.;.2.6XsXO   n A V C r 8 3X! o + e ;.W.,.} .   gXgXgXgXgXgX  o.B.r   gXgXgXgXgXgXgXgXgXgXgX",
"gXgXgXT 5.v.}.{.{.}.j gXgXgXgXgX) 3.!.~.;...2X+   t n a n 2 8 3X5X8 e ;.!.Q.>.w . gXgXgXgXgXgXgX  o.B.r   gXgXgXgXgXgXgXgXgXgXgX",
"gXgXg.v.{.{.{.{.{.{.5.gXgXgXgXgX) 3.Q.Q.!.;.` ) + . . . . . 8 5X] ) 3.Q.Q.4.| p . gXgXgXgXgXgXgX# O.B.r   gXgXgXgXgXgXgXgXgXgXgX",
"gXgX[.{.{.{.{.{. X Xj.u.7.d gXgXgX` ;.!.Q.!.W.3.` w w w w w ) ] Z.W.Q.~.>.| ] S.# gXgXgXgXgXgXX O.$.*.r   gXgXgXgXgXgXgXgXgXgXgX",
"gXs.m.{.{.m.h.{. XU.x.,Xu.Q   gXgXgX] ` X.~.!.!.4.4.3.3.3.3.3.4.!.!.>.} _ } C.< gXgXgXgXk k gXf c c c f f gXgXgXgXgXgXgXgXgXgXgX",
"gXs.n.{.{.n.g.{.8X X<Xi.,X7.,   gXgX* ~ 2.[ [ } Q.~.~.~.~.~.Q.;.[ [ '  .Z.E.S.  gXk d e.l.r.Y l.l.l.l.l.e.d l k k k gXgXgXgXgXgX",
"gXa.n.|.m.c.n.{.U.M.<X,X,Xq.W K O     ( 6X~ ; i } X.| } } X.| ] 2.1.S B.#X#XS..   R e.z.|.m.k.{.|.|.|. XU.e.r.e.5.7.gXgXgXgXgXgX",
"gXc.U.|.v.h.{.{.U.h.i.i.u.,X,Xi.h s & N 6X5X3 1.i u u ..2.S 0 2.dXsXP.F.#X^.B O s k.8X{.8X}. X{.}.{.n.v.U.|.|.}.b.g.h gXgXgXgXgX",
"s.[.{.{.v.c.{.{.8Xj.,X,X,Xi.,X,X,X,Xj = 2XdXP.2X<.@.@.P.3X5X8 sXfX5XF.^./.Z , 6 7.l.M.n.U.U.m.m.n.m.c.g.h.m.n.n.l.9.s 5 6 5 gXgX",
"d.n.[.}.n.k.M.{.U.,X,Xi.u.,Xi.,Xs.p./ r ( dXsX@.(.].].V.2X4X! fXdXN V.(.A s u.8.P Y y.g.v.U.g.g.g.g.m.v.g.g.g.f.Y L 0.9.u.Q @ @ ",
"gXg.m.}.|.l.Y [.,Xi.,X,Xi.,X,Xi.i.D S.OXC.A #.(._._.].].F.P.fXdXD.^.].m 7 0.L Y u.m.{.{.{.{.{.{.{.{.{.{.[.{.m.s.a.d.R x z d d k ",
"z z.{.{.}.l.Y [.d.s.s.s.,Xu.,Xi.D V D.].(.(.(._._._._._._.D.A / ^.].OXH : 6.f.M.U.8X{.{.{.{.{.{.{.{.{. X X1X,Xu.s.a.i.f.J   O gX",
"z z.}.v.g.0.L g.s.s.s.s.,Xi.,Xi.A V S.]._._.OXoX_._._._.OXS.V C (.].OX/ x j.[.{.{.{.{.{.{.{.{.{.{.{.{.U. X1Xi.,Xs.6 % : % gXgXgX",
"x z.|.c.a.f.7.R f.s.s.s.u.,X,Xi.A F.(.]._.oX_._._._._._._.(.S.H._._./ 5.q.h.{.{.{.{.{.{.{.{.{.{.{.{.{. Xn.g.,Xi.6 gXgXgXgXgXgXgX",
", p.b.g.a.a.f.7.f.s.s.s.,Xi.,X,XA ^.]._._.(._._._._._._._._._.OX].A.5.9.h.m.{.{.{.{.{.{.{.{.{.{.{.{.n.v.g.s.y.g gXgXgXgXgXgXgXgX",
". g 8.,Xf.s.s.s.s.7.u.s.s.s.i.^ #.`.@X@X%X&X&X&X&X&X&X%XoX_._.'.G.6.q.s.b.{.{.{.{.{.{.{.{.{.{. X{.n.g.u.u.,X7.  gXgXgXgXgXgXgXgX",
"gX  h 8.d.s.s.s.a.6.8.d.d.f.r.$.%X;X:X:XeXuXuXuXuXtXuXeX-X@XOX'.x 9.d.a.h.[.{.{.{.{.{.{.{.{.{.U.m.g.u.,Xs.,XW X gXgXgXgXgXgXgXgX",
"gXgX  J ,Xs.s.s.a.s.s.i.p.r.#.-XtXuXtXtXtXtXtXtXtXtXtXtXtXeX-X`.c 0.s.s.s.h.{.{.{.{.{. X{.{.U.8X,Xu.,X,Xy.7.gXgXgXgXgXgXgXgXgXgX",
"gXgX  h u.d.s.s.s.s.u.^ A / {.8XwXtXtXuXtXtXtXtXtXtXtXtXtXtXuXqXx 9.s.s.s.h.[.{.{.{.{.{.U.{.m.,Xu.,Xi.,XI   gXgXgXgXgXgXgXgXgXgX",
"gXgX  O h f.s.s.a.a.6 ^ {.U.{. X8XrXiXtXtXtXtXtXtXtXtXtXtXuXiXaXT 9.d.f.s.d.j.g.U.{.{.c.c.m.s.s.s.s.s.,XJ   gXgXgXgXgXgXgXgXgXgX",
"gXgXgXgXo g g.s.a.5 A.aXrX9X{.8XwXtXtXtXtXtXtXtXtXtXtXtXtXuXuXwXc 9.d.f.s.s.a.a.g.g.g.g.s.g.s.s.s.s.s.,XJ   gXgXgXgXgXgXgXgXgXgX",
"gXgXgXgXgXo g f.^ A.aXiXyXtX9X0XtXtXtXtXtXtXtXtXtXtXtXyXtXuXtX XY 9.d.d.s.s.d.s.u.,Xs.s.s.s.s.s.i.,X,XU > gXgXgXgXgXgXgXgXgXgXgX",
"gXgXgXgXgXgXo 7 2 aXiXtXtXtXuXuXtXtXtXtXtXtXtXtXtXtXtXyXyXrX7XU.x u.d.d.s.s.s.s.s.s.s.s.s.s.s.s.s.J 7 > gXgXgXgXgXgXgXgXgXgXgXgX",
"gXgXgXgXgXgXgX    $XtXtXtXtXtXtXuXtXuXuXuXuXuXtXtXtXtXtXwX7X8XU.e.I y.d.s.s.s.s.s.s.s.s.s.f.s.,X,X%   gXgXgXgXgXgXgXgXgXgXgXgXgX",
"gXgXgXgXgXgXgXgXt $XtXtXtXtXuXtXqX0X0XqX0X9XwXtXtXtXtXiX9X7XT.XXT.$ Q <Xs.s.s.s.s.s.s.s.s.,Xu.E U % gXgXgXgXgXgXgXgXgXgXgXgXgXgX",
"gXgXgXgXgXgXgX# ^._.-XtXtXtXuXrX8X{.{.{.{.{.8XtXtXtXtXtXtX-X_.].`.v I 5.0.d.s.s.s.s.s.,Xs.u.E     gXgXgXgXgXgXgXgXgXgXgXgXgXgXgX",
"gXgXgXgXgXgXgX# ^._._.-XtXeXyXrX X{.{.{.{. X7XtXtXyXtXyX-X_._._._._.v # h s.s.s.s.s.i.u.f.E   gXgXgXgXgXgXgXgXgXgXgXgXgXgXgXgXgX",
"gXgXgXgXgXgXgX# ^.oX_.oXOX@X;XrX X X{.{.U.7XrXyXyXyX%X].`.]._._._._.'.^.G.a.a.f.f.d.6 U U O gXgXgXgXgXgXgXgXgXgXgXgXgXgXgXgXgXgX",
"gXgXgXgXgXgXgX# ^.OX_._._._.OX+X`.x.d.g.g.M.@X+X%X+X]._.].]._._._._.].OX#.& : % > F.3 O % gXgXgXgXgXgXgXgXgXgXgXgXgXgXgXgXgXgXgX",
"gXgXgXgXgXgXgXgXt H.Y.K.].]._._.].K.K.K.K.K.]._._.(.].(._._._._._._._.]././ E E E b 4 gXgXgXgXgXgXgXgXgXgXgXgXgXgXgXgXgXgXgXgXgX",
"gXgXgXgXgXgXgXgX  S.z.x.I.T.]._._.].].].].]._._.].].].].]._._._._._._.].).M.,Xs.h @ gXgXgXgXgXgXgXgXgXgXgXgXgXgXgXgXgXgXgXgXgXgX",
"gXgXgXgXgXgXgXgXX C G.I.I.T._._._._._._._._._._.].].L.Y.K.]._._._._._.].T.8.J h O gXgXgXgXgXgXgXgXgXgXgXgXgXgXgXgXgXgXgXgXgXgXgX",
"gXgXgXgXgXgXgXgXgX  Z /.#XOX_._._._._._._._._._.K.L.x.,XI.]._._._._.OXOXG.K     gXgXgXgXgXgXgXgXgXgXgXgXgXgXgXgXgXgXgXgXgXgXgXgX",
"gXgXgXgXgXgXgXgXgXgX  C D./.].].OXoXoX_._._.].`.g.,X,X,XY.]._._._._./.S.C   gXgXgXgXgXgXgXgXgXgXgXgXgXgXgXgXgXgXgXgXgXgXgXgXgXgX",
"gXgXgXgXgXgXgXgXgXgXgX  . t '.^.^.^.^.^.^.^.^.H.p.i.q.q.t.(._._._.].t   . gXgXgXgXgXgXgXgXgXgXgXgXgXgXgXgXgXgXgXgXgXgXgXgXgXgXgX",
"gXgXgXgXgXgXgXgXgXgX    = V m $ # # # # # # # # o o o o # $ gXgXgXgXgXgXgXgXgXgXgXgXgXgXgXgXgXgXgXgXgXgXgXgXgXgXgXgXgXgXgXgXgXgX",
"gXgXgXgXgXgXgXgXgXgXgX. 1 C n   gXgXgXgXgXgXgXgXgXgXgXgXgXgXgXgXgXgXgXgXgXgXgXgXgXgXgXgXgXgXgXgXgXgXgXgXgXgXgXgXgXgXgXgXgXgXgXgX",
"gXgXgXgXgXgXgXgXgXgXgXt Z a # gXgXgXgXgXgXgXgXgXgXgXgXgXgXgXgXgXgXgXgXgXgXgXgXgXgXgXgXgXgXgXgXgXgXgXgXgXgXgXgXgXgXgXgXgXgXgXgXgX",
"gXgXgXgXgXgXgXgXgXgX  = B o.t gXgXgXgXgXgX&.&.&.&.*.gXgXgXgXgXgXgXgXgXgXgXgXgXgXgXgXgXgXgXgXgXgXgXgXgXgXgXgXgXgXgXgXgXgXgXgXgXgX",
"gXgXgXgXgXgXgXgXgXgXgX  r C.+.t gXgXgXgXS.).).).)./.`.J.D.gXgXgXgXgXgXgXgXgXgXgXgXgXgXgXgXgXgXgXgXgXgXgXgXgXgXgXgXgXgXgXgXgXgXgX",
"gXgXgXgXgXgXgXgXgXgXgX. 2 &.*.*.C gXgXo.).iXiXiXeX;X=X*X=X`.#.@.@.v r 3 V m   gXgXgXgXgXgXgXgXgXgXgXgXgXgXgXgXgXgXgXgXgXgXgXgXgX",
"gXgXgXgXgXgXgXgXgXgXgXgX1 Z O.+.Z $.Z V J.iXtXeX;X*X*X+X+X&X*X].]._.OXOXOXV.  gXgXgXgXgXgXgXgXgXgXgXgXgXgXgXgXgXgXgXgXgXgXgXgXgX",
"gXgXgXgXgXgXgXgXgXgXgXgXgXgX# B $.*.F F.-XiXtXtX=XOX]._._._._._._._._.'.^.^.gXgXgXgXgXgXgXgXgXgXgXgXgXgXgXgXgXgXgXgXgXgXgXgXgXgX",
"gXgXgXgXgXgXgXgXgXgXgXgXgXgX  # +.*.S.-XtXtXyXyXeX=XOXoX_._._._._._.OXC X # gXgXgXgXgXgXgXgXgXgXgXgXgXgXgXgXgXgXgXgXgXgXgXgXgXgX",
"gXgXgXgXgXgXgXgXgXgXgXgXgXgXgXgXgX= m H.-XtXyXyX:X=X*X*X@X_._._._._.OXB   gXgXgXgXgXgXgXgXgXgXgXgXgXgXgXgXgXgXgXgXgXgXgXgXgXgXgX",
"gXgXgXgXgXgXgXgXgXgXgXgXgXgXgXgXgXgXgXF J.>X;X>X=X@X+X%X@XoXoXoXOXOXF 4 gXgXgXgXgXgXgXgXgXgXgXgXgXgXgXgXgXgXgXgXgXgXgXgXgXgXgXgX",
"gXgXgXgXgXgXgXgXgXgXgXgXgXgXgXgXgXgXgXM N.@X@X@X@X+XoX+X#XOX#X(.C m 4 gXgXgXgXgXgXgXgXgXgXgXgXgXgXgXgXgXgXgXgXgXgXgXgXgXgXgXgXgX",
"gXgXgXgXgXgXgXgXgXgXgXgXgXgXgXgXgXgXgXgX$.OXH.@.(.$./.#XS.F F F X   gXgXgXgXgXgXgXgXgXgXgXgXgXgXgXgXgXgXgXgXgXgXgXgXgXgXgXgXgXgX",
"gXgXgXgXgXgXgXgXgXgXgXgXgXgXgXgXgXgXgXgXgXgXgXX #.# C V.B       gXgXgXgXgXgXgXgXgXgXgXgXgXgXgXgXgXgXgXgXgXgXgXgXgXgXgXgXgXgXgXgX",
"gXgXgXgXgXgXgXgXgXgXgXgXgXgXgXgXgXgXgXgXgXgXgXgX        gXgXgXgXgXgXgXgXgXgXgXgXgXgXgXgXgXgXgXgXgXgXgXgXgXgXgXgXgXgXgXgXgXgXgXgX",
"gXgXgXgXgXgXgXgXgXgXgXgXgXgXgXgXgXgXgXgXgXgXgXgXgXgXgXgXgXgXgXgXgXgXgXgXgXgXgXgXgXgXgXgXgXgXgXgXgXgXgXgXgXgXgXgXgXgXgXgXgXgXgXgX"
};
