/* XPM */
static char *result[] = {
/* columns rows colors chars-per-pixel */
"64 64 238 2 ",
"   c #010100",
".  c #0B0905",
"X  c #050A07",
"o  c #150803",
"O  c #05120C",
"+  c #151309",
"@  c #1B150A",
"#  c #1E1A0B",
"$  c #081A11",
"%  c #370801",
"&  c #261C0D",
"*  c #331607",
"=  c #270801",
"-  c #082317",
";  c #16261B",
":  c #06361E",
">  c #2C220E",
",  c #2C2511",
"<  c #262010",
"1  c #342A13",
"2  c #382D16",
"3  c #3C3319",
"4  c #173829",
"5  c #113726",
"6  c #253621",
"7  c #232323",
"8  c #530C00",
"9  c #481607",
"0  c #531303",
"q  c #6F1804",
"w  c #473A1B",
"e  c #55290F",
"r  c #702E12",
"t  c #4B3D29",
"y  c #723225",
"u  c #0A4528",
"i  c #1A4131",
"p  c #0E5934",
"a  c #145437",
"s  c #3C492B",
"d  c #224C39",
"f  c #375B37",
"g  c #295235",
"h  c #14653B",
"j  c #0F6239",
"k  c #2A6C3E",
"l  c #53461E",
"z  c #5A461F",
"x  c #4E401E",
"c  c #6E4F1E",
"v  c #5B4C25",
"b  c #564824",
"n  c #474F35",
"m  c #64532A",
"M  c #6B562B",
"N  c #685627",
"B  c #7B5C25",
"V  c #745A28",
"C  c #6B572E",
"Z  c #596737",
"A  c #7A642C",
"S  c #786535",
"D  c #68602D",
"F  c #285A44",
"G  c #3F4243",
"H  c #1B6D43",
"J  c #1E6342",
"K  c #1C7249",
"L  c #1E7A51",
"P  c #29674A",
"I  c #23754C",
"U  c #337A4B",
"Y  c #316E52",
"T  c #257C54",
"R  c #347659",
"E  c #377B59",
"W  c #3B6C45",
"Q  c #1E5F43",
"!  c #515556",
"~  c #51754B",
"^  c #656B6B",
"/  c #606F58",
"(  c #831900",
")  c #8D2809",
"_  c #922C0D",
"`  c #853813",
"'  c #9A3614",
"]  c #822F13",
"[  c #A73B13",
"{  c #A2360F",
"}  c #8F4519",
"|  c #AB4317",
" . c #B64819",
".. c #AB541D",
"X. c #BA531E",
"o. c #B25527",
"O. c #89682B",
"+. c #99722E",
"@. c #826C33",
"#. c #897433",
"$. c #967934",
"%. c #8D702D",
"&. c #A87D32",
"*. c #C2541F",
"=. c #C65B21",
"-. c #C95C22",
";. c #C95D29",
":. c #CB6535",
">. c #D36B3A",
",. c #D9723D",
"<. c #D6713F",
"1. c #D26224",
"2. c #E0763B",
"3. c #A65E48",
"4. c #837D74",
"5. c #8A7F5B",
"6. c #E17B45",
"7. c #DB7743",
"8. c #2A8258",
"9. c #368557",
"0. c #37814D",
"q. c #338C63",
"w. c #3C8966",
"e. c #3A946B",
"r. c #3E9971",
"t. c #2C8A62",
"y. c #448D56",
"u. c #51975D",
"i. c #508E54",
"p. c #7D9346",
"a. c #6D9154",
"s. c #42946D",
"d. c #479765",
"f. c #579B66",
"g. c #449C73",
"h. c #469972",
"j. c #7D9070",
"k. c #45A177",
"l. c #45A37C",
"z. c #4AA57B",
"x. c #4CA97E",
"c. c #4BA077",
"v. c #52A97B",
"b. c #5BAD7B",
"n. c #56A572",
"m. c #5DB17E",
"M. c #58A46D",
"N. c #7BAA69",
"B. c #67AB73",
"V. c #63B17B",
"C. c #6BB57B",
"Z. c #6BB77D",
"A. c #73B97B",
"S. c #7ABD7B",
"D. c #74B575",
"F. c #72AC6E",
"G. c #7DC07E",
"H. c #9A8338",
"J. c #AC8033",
"K. c #A68A3B",
"L. c #B0883A",
"P. c #AD913D",
"I. c #8D964D",
"U. c #B69C45",
"Y. c #B09646",
"T. c #BBA448",
"R. c #BCB85C",
"E. c #B2A25C",
"W. c #978B6E",
"Q. c #9AB568",
"!. c #82BD76",
"~. c #85BF78",
"^. c #91B068",
"/. c #A4B563",
"(. c #B9B569",
"). c #AB9E7C",
"_. c #EA8C52",
"`. c #F28F54",
"'. c #F49156",
"]. c #E88348",
"[. c #C8A84A",
"{. c #D8B64F",
"}. c #C9BA58",
"|. c #DEBD52",
" X c #D5BA54",
".X c #D0AD4A",
"XX c #E1BE52",
"oX c #E2BD4F",
"OX c #CCAE51",
"+X c #84C27B",
"@X c #8CC57B",
"#X c #8FC87D",
"$X c #91C97D",
"%X c #93C77B",
"&X c #B8C165",
"*X c #BBCC74",
"=X c #D6C15A",
"-X c #E4C254",
";X c #E9C455",
":X c #E4C55B",
">X c #E7C95E",
",X c #F0CD59",
"<X c #D2C777",
"1X c #E9CD62",
"2X c #E5CB64",
"3X c #ECD46C",
"4X c #E7D16A",
"5X c #ECD978",
"6X c #F1DC77",
"7X c #F1D86B",
"8X c #F3E17D",
"9X c #4DAC80",
"0X c #78BE80",
"qX c #7FC581",
"wX c #B3A492",
"eX c #AFAAAA",
"rX c #9D9A8B",
"tX c #C0BFBF",
"yX c #BDD887",
"uX c #B7D685",
"iX c #A6CF81",
"pX c #9FCD81",
"aX c #C6DC89",
"sX c #D9E38E",
"dX c #DDE690",
"fX c #E2E78F",
"gX c #F5E98B",
"hX c #F4E786",
"jX c #EAEA91",
"kX c #F7EF94",
"lX c #F8EF94",
"zX c #F7F095",
"xX c #F9F095",
"cX c #C9C5BD",
"vX c #C7C8C3",
"bX c #D3D4D3",
"nX c #F6F6F1",
"mX c None",
/* pixels */
"mXmXmXmXmXmXmXmXmXmXmXmXmXmXmXmXmXmXmXmXmXmXmXmXmXmXmXmXmXmXmXmXmXmXmXmXmXmXmXmXmXmXmXmXmXmXmXmXmXmXmXmXmXmXmXmXmXmXmXmXmXmXmXmX",
"mXmXmXmXmXmXmXmXmXmXmXmXmXmXmXmXmXv.b.b.b.b.b.mXmXmXmXmXmXmXmXmXmXmXmXmXmXmXmXmXmXmXmXmXmXmXmXmXmXmXmXmXmXmXmXmXmXmXmXmXmXmXmXmX",
"mXmXmXmXmXmXmXmXmXmXmXmXmXmXU 0.M.G.#X@X@X@X@XA.mXmXmXmXmXmXmXV B V w # + mXmXmXmXmXmXmXmXmXmXmXmXmXmXmXmXmXmXmXmXmXmXmXmXmXmXmX",
"mXmXmXmXmXmXmXmXmXmXmXmXT 8.V.G.A.A.A.@X#X#X@XA.f.T K mXmXA A $.#.Z n N w & & mXmXmXmXmXmXmXmXmXmXmXmXmXmXmXmXmXmXmXmXmXmXmXmXmX",
"mXmXmXmXmXmXmXmXmXmXmXmX8.F d T k.9Xl.d.i.B.+X@X#XG.d.U A +.#.Z W 8.U f f f s & mXmXmXmXmXmXmXmXmXmXmXmXmXmXmXmXmXmXmXmXmXmXmXmX",
"mXmXmXmXmXmXmXmXmXmXmXmXmXmXmX- 4 4 w.e.8.r.A.@X@X@X+X/ %.c g t.n.V.r.8.9.q.U g 4 w mXmXmXmXmXmXmXmXmXmXmXmXmXmXmXmXmXmXmXmXmXmX",
"mXmXmXmXmXmXmXmXmXmXmXmXmXmXmXu P Y h.Z.G.S.+X@X@X@Xa.w n a.B.S.+X+XV.z.x.x.g.8.h 6   mXmXmXmXmXmXmXmXmXmXmXmXmXmXmXmXmXmXmXmXmX",
"mXmXmXmXmXmXmXmXmXmXmXmXmXmXp q.z.x.Z.+X@X@X%X@X@XA.y.P B.@X@X@X#X#X@XV.z.l.k.k.r.8.:   mXmXmXmXmXmXmXmXmXmXmXmXmXmXmXmXmXmXmXmX",
"mXmXmXmXmXmXmXmXmXmXmXmXmXmXO w.x.l.S.@X@X@X@X@X#Xy.f.S.pX@X@X@X@X@X#XA.z.z.c.l.x.z.9.p mXmXmXmXmXmXmXmXmXmXmXmXmXmXmXmXmXmXmXmX",
"mXmXmXmXmXmXmXmXmXmXmXmXmXmXp q.c.z.A.@X@X@X@X+XV.D.+X@X~.@X@X@X@X@X@XC.c.x.q.P e.s.g.e.u X mXmXmXmXmXmXmXmXmXmXmXmXmXmXmXmXmXmX",
"mXmXmXmXmXmXmXmXmXmXmXmXmXmXmXj q.r.k.S.%X@X@Xm.A.@X@X@X+X@X@X@X@X@XV.k.z.x.P     - J t.K K K mXmXmXmXmXmXmXmXmXmXmXmXmXmXmXmXmX",
"mXmXmXmXmXmXmXmXmXmXmXmXmXmXmXmXj j r.C.+X@X%XC.S.@X+X+XpX~.~.~.S.V.z.z.x.g.P mXmXmX  ; R R P u mXmXmXmXmXmXmXmXmXmXmXmXmXmXmXmX",
"mXmXmXmXmXmXmXmXmXmXmXmXmXmXmXmXmXmXq.g.S.#X@X+X#X#X#XS.0Xv.b.b.l.z.x.x.k.H : mXmXmXmX. , 1 +   mXmXmXmXmXmXmXmXmXmXmXmXmXmXmXmX",
"mXmXmXmXmXmXmXmXmXmXmXmXmXmXmXmXmXmXmXT n.+X@X+XS.Z.A.m.9X9Xl.9Xx.r.Y d i - mXmXmXmXmX+ z &.v   mXmXmXmXmXmXmXmXmXmXmXmXmXmXmXmX",
"mXmXmXmXmXmXmXmXmXmXmXmXmXmXmXmXmXmXmXmXL n.0X0Xe.a i i E 9Xe.J i 5 # % mXmXmXmXmXmXmXmX& J.B   mXmXmXmXmXmXmXmXmXmXmXmXmXmXmXmX",
"mXmXmXmXmXmXmXmXmXmXmXmXmXmXmXmXmXmXmXmXr 6 5 5 v } ` ` w 5 b } ` ` } *.1.| mXmXmXmXmXmXw O.+.c m mXmXmXmXmXmXmXmXmXmXmXmXmXmXmX",
"mXmXmXmXmXmXmXmXmXmXmXmXmXmXmXmXmXmX( ( [ | } } X.[ 0 * o   o * q | -.-.-.X.[ mXmXmXmXmXmXB &.O.m mXmXmXmXmXmXmXmXmXmXmXmXmXmXmX",
"mXmXmXmXmXmXmXmXmXmXmXmXmXmXmXmXmX( [ X.-.-.-.{ 9 o .             o 9 [ -.-.| ( mXmXmXmXmX2 &.O.. mXmXmXmXmXmXmXmXmXmXmXmXmXmXmX",
"mXmXmXmXmXmXmXmXmXmXmXmXmXmXmXmXmX(  .=.*.X._ %           . . .       e -.=.=.r   mXmXmXmX> &.B   mXmXmXmXmXmXmXmXmXmXmXmXmXmXmX",
"mXmXmXmXmXmXmXmXmXmXmXmXmXmXmXmX) X.-.-.) =         . . 3 m m m 3 .   % [ -.X.r   mXmXmXmX> &.B   mXmXmXmXmXmXmXmXmXmXmXmXmXmXmX",
"mXmXmXmXmXmXmXmXmXmXmXmXmXmXmX( =.6.,.*.*         . w m m M m c m 2   r -.-.r   mXmXmXmXmX> J.B   mXmXmXmXmXmXmXmXmXmXmXmXmXmXmX",
"mXmXmXmXmXmXmXz.e.mXmXmXmXmXmX( <.`.`.[ = G 7   + t m m m w 2 w b + 9 | -.| e   mXmXmXmXmX> J.O.  mXmXmXmXmXmXmXmXmXmXmXmXmXmXmX",
"mXmXmXmXmXmXmXV.H mXmXmXmXmXmXmXo.6.`.:.0 eX!   w C m C w n ! ! * e ..7.;.e     mXmXmXmXmX& &.B   mXmXmXmXmXmXmXmXmXmXmXmXmXmXmX",
"mXmXmXmXh u.C.@XmXmXmXmXmXmXmXmXq >.`.`.>.3.r o + < , , . ^ eXy r 6.'.]. .8   mXmXmXmXmX& c &.O.  mXmXmXmXmXmXmXmXmXmXmXmXmXmXmX",
"mXmXmXmXmX@X#X@X; mXmXmXmXmXmXmXmX[ 7.'.'.<.:.] 8 8 8 8 8 y o.>.6.`.]. ...c   mXmXmXmXmX, J.O.> mXmXmXmXmXmXmXmXmXmXmXmXmXmXmXmX",
"mXmXmXh h !.@X@X@ mXmXmXmXmXmXmXmXmX' ' <.'.`.6.<.<.<.<.,.>.6.'.6. ._ ..{.O.  mXmXmXmX@ M +.w   mXmXmXmXmXmXmXmXmXmXmXmXmXmXmXmX",
"mXmXH s.F.@X@X+Xk mXmXmXmXmXmXmXmXmXo 4.3._ ) :.`._._._._.,. ._ _ o..X{.#.+ mXmXmXmX# v M l . mXmXmXmXmXmXmXmXmXmXmXmXmXmXmXmXmX",
"mXmX!.+X%X@X@X@X!.b.- mXmXmXmXmXmXmX  4.vXt w V C C S S C m rXtX4.J.-X-XA   mXmXmXmX< M m w   mXmXmXmXmXmXmXmXmXmXmXmXmXmXmXmXmX",
"mXmX@X@X+X@X@X@XG.v.I mXmXmXmXmXmXmX. 3 vXwXrX5.V S W.tX! ^ nXbXW.T.|.-XA   mXmXmX, m v 2 . mXmXmXmXmXmXmXmXmXmXmXmXmXmXmXmXmXmX",
"mXb.+X@Xv.+X@X@XV.z.z.i ; mXmXmXmXmX@.w rXbXW.U.XXXXK.wX^ eXnX4.%.-X|.-XH., mX. 1 M m 1 O mXmXmXmXmXmXmXmXmXmXmXmXmXmXmXmXmXmXmX",
"x.+X%X@Xv.+X@X@XS.v.z.z.x.z.d 4 ; t U.;XP.#.[.XXXX|.XXY.wXcX(..X-X|.|.-X-X#.X 3 M z & - L I 0.9.y.mX0.0.mXmXmXmXmXmXmXmXmXmXmXmX",
"v.+X@X+Xv.+X@X%Xv.z.z.z.z.z.9X9XZ $.OXXXXX-X|.|.XX|.XXXXU.$.U.XX|.|.|.-X-XA @ N t & O U B.u.$X$X#X@X$X~.y.y.y.mXmXmXmXmXmXmXmXmX",
"z.+X@X@Xx.@X@XC.v.z.z.z.z.z.z.9XZ [.XX|.|.|.|.|.|.|.|.|.-X-X|.|.|.|.|.|.-XU.#.A 6 F P 9.u.$X@X@X#X%X@X@X%X$X+Xu.u.8.j mXmXmXmXmX",
"x.@X@X@XA.y.!.x.z.z.z.z.z.z.9X~ I.=X1X2X3XhX5X5X5X3X:X X|.|.|.|.|.|.XXoX|.-XP.n w.g.8.d.M.V.C.!.m.b.V.V.m.m.C.%X$XC.9.      mXmX",
"I +X@X@X@Xh n.x.z.z.z.z.z.z.~ E.3XhXgXgXkXzXxXxXzXkXhX3X:X|.|.-X/.B./.oX|.-XO.- I 9.D.+X#XS.G.@XS.S.S.S.S.S.S.n.U 0.k.E R R mXmX",
"h +X@Xb.n.I r.z.z.z.z.z.h.~ a.~.fXlXkXkXkXkXkXkXkXzXkXkXgXhX4XXXQ.k.^.oXI.U 0.d.D.D.@X@X@X%X@X@X@X@X@X@X@X@X@XA.r.e.K K K - X   ",
"h F.+Xx.c.g.I g.z.z.z.g.4 a.pXpXpXsXlXlXkXkXkXkXkXkXzXkXzXzXhX>X{.}. X|.p.L k.V.%X@X@X@X@X@X@X@X@X@X@X@X@X+X!.v.x.z.g.w.w.a u   ",
"mX+ h.z.z.z.z.z.h.c.9Xn D Q.pXS.sXkXlXlXkXkXkXzXkXkXkXkXzXzXzX3X-X|. Xp.h 8.x.A.@X@X@X@X@X@X@X@X@X@X@X@XS.v.x.z.w.z.s.O X   X mX",
"mX. E z.x.z.z.z.T g.f.n <XxXaX%XfXlXlXlXkXkXzXkXlXlXkXxXjXsXdX4X|.-Xp.L x.k.m.+X@X@X@X@X@X@X@X@X@X@X@XA.k.z.k.Y X mXmXmXmXmXmXmX",
"mXmX  P c.z.z.z.z.c.t aXxXkXxXlXlXkXkXlXkXkXkXkXkXxXxXfXiXG.pXQ.}.-XI.T z.z.l.V.%X@X@X@X@X@X@X@X+XS.C.k.z.x.w.  mXmXmXmXmXmXmXmX",
"mXmX    F g.z.z.z.x.$ <XzXzXkXkXlXlXxXxXxXxXxXxXzXzXsX%X@X@X#Xm.^.T.i.q.z.z.z.v.A.S.@X@X#X@X%X@XV.z.c.x.h.P w.mXmXmXmXmXmXmXmXmX",
"mXmXmXmX  s.x.z.x.F C =XkXzXlXlXaXaXyXyXyXyXfXxXzXzXsX*X&X&X&X/.R.T.i.e.z.z.z.z.l.v.A.%X+XV.V.V.z.z.z.z.w.  mXmXmXmXmXmXmXmXmXmX",
"mXmXmXmXmXmXi h.d   T.|.2XgXkXxXiX~.pX~.+X~.sXkXzXzX6X-X|.|.XXXX|.-Xp.L 9Xz.z.z.z.z.v.V.b.l.z.l.z.z.z.x.w.  mXmXmXmXmXmXmXmXmXmX",
"mXmXmXmXmXmXmX; mX  U.-X X2X5XgXiX~.~.@X@XaXjXkX5X2X-X|.-X|.|.|.|.-X[.N.z.z.z.c.z.z.z.z.z.z.z.z.z.z.w.4 mXmXmXmXmXmXmXmXmXmXmXmX",
"mXmXmXmXmXmXmXmXmX  Y.XX X|.XX:X=XD.b.b.v.(.>X>X-X|.|.|.|.|.|.|.|.-X%.f l.z.c.x.z.z.z.z.z.c.z.z.z.z.E   mXmXmXmXmXmXmXmXmXmXmXmX",
"mXmXmXmXmXmXmXmXmXmX@ U.F.R.|.|.oX{.}.}.}. X|.|.|.|.|.|.|.|.|.|.|.|.^.e.h.g.x.z.z.c.z.z.z.z.c.s.h.E O mXmXmXmXmXmXmXmXmXmXmXmXmX",
"mXmXmXmXmXmXmXmXmXmX  U.B.z.R.XXXX|.|.XXXX|.|.|.|.|.|.|.|.|.|.|.-X/.z.P   4 g.x.9X9Xx.z.g.s.Y X X X mXmXmXmXmXmXmXmXmXmXmXmXmXmX",
"mXmXmXmXmXmXmXmXmXmX  $.N.B.}.XX|.|.|.|.|.|.|.-X}.R.}.|.|.-X=X-XoXQ.e.g     4 w.R R R s.R     mXmXmXmXmXmXmXmXmXmXmXmXmXmXmXmXmX",
"mXmXmXmXmXmXmXmXmXmXmX  A {.|.|.|.|.|.|.|.|.|.}.B.l.Q.XX-X-X{.-X>XI.i mXmXmXmX        mXmXmXmXmXmXmXmXmXmXmXmXmXmXmXmXmXmXmXmXmX",
"mXmXmXmXmXmXmXmXmXmX  < < N OX-X|.-X|.|.|.|.-XN.l.l./.-X:X-X;XP.A x mXmXmXmXmXmXmXmXmXmXmXmXmXmXmXmXmXmXmXmXmXmXmXmXmXmXmXmXmXmX",
"mXmXmXmXmXmXmXmXmXmX, v C @ v N [.-X-X-X-X-X-X&XQ.Q.=XH.N N N w mXmXmXmXmXmXmXmXmXmXmXmXmXmXmXmXmXmXmXmXmXmXmXmXmXmXmXmXmXmXmXmX",
"mXmXmXmXmXmXmXmXmX  b m 1 mXmXmXw l l b l l l l z l l , mXmXmXmXmXmXmXmXmXmXmXmXmXmXmXmXmXmXmXmXmXmXmXmXmXmXmXmXmXmXmXmXmXmXmXmX",
"mXmXmXmXmXmXmXmX  c N m . mXmXmXmXmXmXmXmXmXmXmXmXmXmXmXmXmXmXmXmXmXmXmXmXmXmXmXmXmXmXmXmXmXmXmXmXmXmXmXmXmXmXmXmXmXmXmXmXmXmXmX",
"mXmXmXmXmXmXmXmX  O.+.> mXmXmXmXmXmXmXmXmXmXmXmXmXmXmXmXmXmXmXmXmXmXmXmXmXmXmXmXmXmXmXmXmXmXmXmXmXmXmXmXmXmXmXmXmXmXmXmXmXmXmXmX",
"mXmXmXmXmXmXmXmX  . O.+.> mXmXmXmXmXmXmXmXmXmXmXmXmXmXmXmXmXmXmXmXmXmXmXmXmXmXmXmXmXmXmXmXmXmXmXmXmXmXmXmXmXmXmXmXmXmXmXmXmXmXmX",
"mXmXmXmXmXmXmXmXmX  x $.+.V mXmXJ.L.Y.L.L.Y.mXmXmXmXmXmXmXmXmXmXmXmXmXmXmXmXmXmXmXmXmXmXmXmXmXmXmXmXmXmXmXmXmXmXmXmXmXmXmXmXmXmX",
"mXmXmXmXmXmXmXmXmXmX  B &.A m V =XgXkXhX4X3X[.$.S mXmXmXmXmXmXmXmXmXmXmXmXmXmXmXmXmXmXmXmXmXmXmXmXmXmXmXmXmXmXmXmXmXmXmXmXmXmXmX",
"mXmXmXmXmXmXmXmXmXmX  2 +.&.$.}.jXzXkXgX3X1X1X7XU.S @.N , mXmXmXmXmXmXmXmXmXmXmXmXmXmXmXmXmXmXmXmXmXmXmXmXmXmXmXmXmXmXmXmXmXmXmX",
"mXmXmXmXmXmXmXmXmXmXmXmXw A .XgXzXzXzXhX1X|.|.:X4XY.T.;XH.l b A m mXmXmXmXmXmXmXmXmXmXmXmXmXmXmXmXmXmXmXmXmXmXmXmXmXmXmXmXmXmXmX",
"mXmXmXmXmXmXmXmXmXmXmXmXmXmXmXE.4XkXzXgX6X1X>X-X|.-X|.=X-X;X,XP.V mXmXmXmXmXmXmXmXmXmXmXmXmXmXmXmXmXmXmXmXmXmXmXmXmXmXmXmXmXmXmX",
"mXmXmXmXmXmXmXmXmXmXmXmXmXmXmXv [.6X8X7X>X>X4X>X|.|.|.|.;XH.l 2 mXmXmXmXmXmXmXmXmXmXmXmXmXmXmXmXmXmXmXmXmXmXmXmXmXmXmXmXmXmXmXmX",
"mXmXmXmXmXmXmXmXmXmXmXmXmXmXmXmX@.OX:X-X-X|.-X-X|.|.-X@.3 , mXmXmXmXmXmXmXmXmXmXmXmXmXmXmXmXmXmXmXmXmXmXmXmXmXmXmXmXmXmXmXmXmXmX",
"mXmXmXmXmXmXmXmXmXmXmXmXmXmXmXmXmX, K.|.{. X{.{.{.|.A + mXmXmXmXmXmXmXmXmXmXmXmXmXmXmXmXmXmXmXmXmXmXmXmXmXmXmXmXmXmXmXmXmXmXmXmX",
"mXmXmXmXmXmXmXmXmXmXmXmXmXmXmXmXmXmX@ # # @ # # # # mXmXmXmXmXmXmXmXmXmXmXmXmXmXmXmXmXmXmXmXmXmXmXmXmXmXmXmXmXmXmXmXmXmXmXmXmXmX"
};
