/* XPM */
static char *_406358e28ab47d5a0ee64bacd97b39bgLEJiyFIZtwlM61Q[] = {
/* columns rows colors chars-per-pixel */
"16 16 227 2 ",
"   c black",
".  c #10633A",
"X  c #000E12",
"o  c #171409",
"O  c #03150C",
"+  c #0C3B24",
"@  c #196D44",
"#  c #12442D",
"$  c #1D744A",
"%  c #0B4528",
"&  c #15422C",
"*  c #4B2E13",
"=  c #984116",
"-  c #392B12",
";  c #23764A",
":  c #308356",
">  c #458255",
",  c #6E5323",
"<  c #186C43",
"1  c #5E461C",
"2  c #E9FFB9",
"3  c #4B3817",
"4  c #417B4B",
"5  c #1B6C40",
"6  c #51965C",
"7  c #357450",
"8  c #86FFDF",
"9  c #459C74",
"0  c #0D1D16",
"q  c #70AF74",
"w  c #0B1A13",
"e  c #010201",
"r  c #3F341A",
"t  c #10241B",
"y  c #25754A",
"u  c #58A56E",
"i  c #6BB67C",
"p  c #479967",
"a  c #7C642C",
"s  c #6E5928",
"d  c #352D16",
"f  c #150000",
"g  c #004219",
"h  c #29714A",
"j  c #549D6B",
"k  c #74B170",
"l  c #6F733D",
"z  c #4D7950",
"x  c #36492C",
"c  c black",
"v  c #00311A",
"b  c #337E5B",
"n  c #2F7351",
"m  c #1B6140",
"M  c #197A4B",
"N  c #32825A",
"B  c #68AB71",
"V  c #428E67",
"C  c #253D27",
"Z  c #2F4429",
"A  c #12402A",
"S  c #9F330B",
"D  c #7C5F31",
"F  c #69411F",
"G  c #54270D",
"H  c #5C461E",
"J  c #453416",
"K  c #390000",
"L  c #BD5223",
"P  c #883913",
"I  c #53250E",
"U  c #6E5423",
"Y  c #644D21",
"T  c #348A60",
"R  c #3D9161",
"E  c #353D1E",
"W  c #CD6435",
"Q  c #813B19",
"!  c black",
"~  c #5B441B",
"^  c #4D3917",
"/  c #4E965D",
"(  c #5C9C62",
")  c #004A2B",
"_  c #C1592E",
"`  c #BE673F",
"'  c #8A4820",
"]  c #030602",
"[  c #5F481E",
"{  c #473515",
"}  c #4D9E6D",
"|  c #70B372",
" . c #6BA468",
".. c #175035",
"X. c #55321C",
"o. c #9C6F50",
"O. c #8A6F2E",
"+. c #332915",
"@. c #45361A",
"#. c black",
"$. c #6AB57C",
"%. c #7DBE7C",
"&. c #36825F",
"*. c #7E7A40",
"=. c #CBB45E",
"-. c #937D36",
";. c #3F3F23",
":. c #3C6C41",
">. c #4C945B",
",. c #408953",
"<. c #1D6A3D",
"1. c #68AF73",
"2. c #3B6F4B",
"3. c None",
"4. c #6AB072",
"5. c #387C52",
"6. c #123B2A",
"7. c #3E7C4E",
"8. c #55A16F",
"9. c #357C58",
"0. c #16462F",
"q. c #11291F",
"w. c #3A8463",
"e. c #408461",
"r. c #142C22",
"t. c #122D20",
"y. c #20503D",
"u. c #456A45",
"i. c #C8B459",
"p. c #295C45",
"a. c #28200D",
"s. c #8B914C",
"d. c #6C8C55",
"f. c #3A8463",
"g. c #41926E",
"h. c #306B50",
"j. c #030705",
"k. c #2B2412",
"l. c #605428",
"z. c #C6A849",
"x. c #A08B3D",
"c. c #4A512C",
"v. c #17382B",
"b. c #316D51",
"n. c #2B5F47",
"m. c black",
"M. c #6FB274",
"N. c #638951",
"B. c #69AD73",
"V. c #82BC77",
"C. c #6BA065",
"Z. c #84C17B",
"A. c #5DAD79",
"S. c #83C37D",
"D. c #86C57D",
"F. c #6DB77B",
"G. c #45714B",
"H. c #3C6F4D",
"J. c #264B35",
"K. c #6D3115",
"L. c #0D0C06",
"P. c #392F17",
"I. c #33210E",
"U. c #8E5B45",
"Y. c #3D3621",
"T. c #534C35",
"R. c #6B3F27",
"E. c #71391E",
"W. c #814C33",
"Q. c #BD663B",
"!. c #C1753F",
"~. c #BA724F",
"^. c #BF8A4B",
"/. c #6DB57A",
"(. c #D8BA58",
"). c #C3AB60",
"_. c #D6BA58",
"`. c #76B775",
"'. c #5CAC78",
"]. c #50976B",
"[. c #B8C476",
"{. c #F8ED8F",
"}. c #F5E788",
"|. c #D8C967",
" X c #CABB59",
".X c #8F7E39",
"XX c #76B878",
"oX c #45986E",
"OX c #92AA6D",
"+X c #DCE58E",
"@X c #F9F095",
"#X c #F2EE94",
"$X c #D4D377",
"%X c #D5BA52",
"&X c #789653",
"*X c #6EB072",
"=X c #88C37A",
"-X c #89C47C",
";X c #6DB378",
":X c #4C8F65",
">X c #D0C877",
",X c #E1E890",
"<X c #D6E38D",
"1X c #DCE38B",
"2X c #ABBE6A",
"3X c #AFAD53",
"4X c #54A371",
"5X c #82C17C",
"6X c #8CC57B",
"7X c #72B97C",
"8X c #BBCB75",
"9X c #B8CB77",
"0X c #E6CE68",
"qX c #DEBE53",
"wX c #A3A955",
"eX c #479E73",
"rX c #5CAE7C",
"tX c #61B17C",
"yX c #479871",
"uX c #D3BC56",
"iX c #D5BC55",
"pX c #CFBB56",
"aX c #D8BC54",
"sX c #48A179",
"dX c #CFBC57",
"fX c #9EAC5E",
"gX c white",
/* pixels */
"  . X y u i p a s d f o O       ",
"  . g h j M.k l N.z x c + @     ",
"  . # v b B.V.C.Z.A.n m M $     ",
"    %   N B S.D.F.V C Z A &     ",
"    * = S D G.H.J.F G H J -     ",
"; : > K L K.L.P.I.P I U Y ,     ",
"< T R E W U.Y.T.R.Q ! ~ ^ 1     ",
"2 / ( ) _ ` E.W.Q.' ] [ { 3     ",
"} |  ...X.o.!.~.^.O.+.@.#.4 5 6 ",
"$.%./.&.*.=.(.)._.-.;.:.>.,.<.7 ",
"1.`.'.].[.{.}.|. X.X2.3.XX4.5.6.",
"7.8.oXOX+X@X#X$X%X&X*X=X-X;X9.0.",
"q.w.:X>X,X<X1X2X3X4X5X6X7Xe.r.t.",
"8 y.u.i.8X9X0XqXwXeXrXtXyXp.9 0 ",
"  q a.s.uXiXpXaXd.f.sXg.h.j.w   ",
"e r k.l.z.dXfXx.c.v.b.n.m.t 0   "
};
