/* XPM */
static char *result[] = {
/* columns rows colors chars-per-pixel */
"64 64 229 2 ",
"   c #010100",
".  c #0D0B05",
"X  c #050B09",
"o  c #070503",
"O  c #140B05",
"+  c #04130C",
"@  c #07140E",
"#  c #1A150A",
"$  c #1A150A",
"%  c #0C1B15",
"&  c #0A1711",
"*  c #171913",
"=  c #340500",
"-  c #241C0D",
";  c #310901",
":  c #0A2118",
">  c #12271D",
",  c #0A351F",
"<  c #2B230F",
"1  c #27210E",
"2  c #2C2512",
"3  c #282515",
"4  c #342A14",
"5  c #3C3219",
"6  c #353116",
"7  c #152B22",
"8  c #193729",
"9  c #0C3524",
"0  c #2D3629",
"q  c #480A00",
"w  c #590C00",
"e  c #581905",
"r  c #451E0A",
"t  c #711D06",
"y  c #47210C",
"u  c #47391B",
"i  c #552B11",
"p  c #672813",
"a  c #742C10",
"s  c #4D3F20",
"d  c #0D4329",
"f  c #1B4732",
"g  c #095C35",
"h  c #185638",
"j  c #18452F",
"k  c #234A36",
"l  c #26543C",
"z  c #25542C",
"x  c #0E623A",
"c  c #12653C",
"v  c #196A3F",
"b  c #2F633C",
"n  c #55451D",
"m  c #4E431D",
"M  c #4B4121",
"N  c #5C4D26",
"B  c #574923",
"V  c #50542F",
"C  c #64532A",
"Z  c #68572A",
"A  c #755A26",
"S  c #65572E",
"D  c #586737",
"F  c #4F703D",
"G  c #76662D",
"H  c #664C1E",
"J  c #275943",
"K  c #375D41",
"L  c #1B6941",
"P  c #1C734A",
"I  c #197148",
"U  c #2C644B",
"Y  c #2A674B",
"T  c #257548",
"R  c #327F4D",
"E  c #2E6C51",
"W  c #316D51",
"Q  c #277952",
"!  c #367A5B",
"~  c #30694F",
"^  c #595B5A",
"/  c #52774D",
"(  c #726E45",
")  c #5A6162",
"_  c #727170",
"`  c #952B09",
"'  c #9D3612",
"]  c #893214",
"[  c #A33814",
"{  c #A5360F",
"}  c #96441B",
"|  c #B24417",
" . c #AD501B",
".. c #B44821",
"X. c #AD522D",
"o. c #85662B",
"O. c #96712F",
"+. c #8A7533",
"@. c #957633",
"#. c #8D6E2F",
"$. c #AB7E32",
"%. c #A47B31",
"&. c #B2752D",
"*. c #92402B",
"=. c #C2531D",
"-. c #C65A22",
";. c #CB5D22",
":. c #C45B2E",
">. c #C25727",
",. c #D05F23",
"<. c #CB6435",
"1. c #D36B3A",
"2. c #D06834",
"3. c #D56B31",
"4. c #9B5545",
"5. c #847E71",
"6. c #997046",
"7. c #DC7743",
"8. c #E37E45",
"9. c #2B855D",
"0. c #2A845A",
"q. c #32855D",
"w. c #378656",
"e. c #3A8A65",
"r. c #3B956B",
"t. c #3A9469",
"y. c #3D9A71",
"u. c #3EA37E",
"i. c #448C55",
"p. c #488855",
"a. c #48925B",
"s. c #56915B",
"d. c #678842",
"f. c #6F8B56",
"g. c #448E68",
"h. c #42946D",
"j. c #489A6E",
"k. c #549B67",
"l. c #449D74",
"z. c #489B73",
"x. c #5AA56B",
"c. c #46A37B",
"v. c #4AA57B",
"b. c #4CA97E",
"n. c #4AA175",
"m. c #53A97B",
"M. c #5CAE7B",
"N. c #56A674",
"B. c #5BB17F",
"V. c #64A668",
"C. c #77AA6B",
"Z. c #76B36F",
"A. c #65AA73",
"S. c #64B27B",
"D. c #6BB57B",
"F. c #6AB173",
"G. c #73BA7C",
"H. c #7CBE7B",
"J. c #79B874",
"K. c #7EC17E",
"L. c #AC8033",
"P. c #A5893A",
"I. c #8E8F4B",
"U. c #B79A43",
"Y. c #A89049",
"T. c #B9B75C",
"R. c #B2AB50",
"E. c #8E876F",
"W. c #A78972",
"Q. c #89AF69",
"!. c #98B367",
"~. c #80BF7A",
"^. c #83BD76",
"/. c #90B56C",
"(. c #A9B663",
"). c #EA864C",
"_. c #F28F54",
"`. c #F49256",
"'. c #F89559",
"]. c #EF8B51",
"[. c #C9A948",
"{. c #D8B64E",
"}. c #C7BA59",
"|. c #DEBD52",
" X c #D4BC55",
".X c #CFB14C",
"XX c #E1BE52",
"oX c #E2BD4F",
"OX c #D19E42",
"+X c #84C17B",
"@X c #8CC57B",
"#X c #8DC97E",
"$X c #90C77B",
"%X c #92C97D",
"&X c #9CCA7E",
"*X c #E4C254",
"=X c #E9C657",
"-X c #D3CF75",
";X c #E6CC64",
":X c #EAD36D",
">X c #EBD774",
",X c #F2DE78",
"<X c #EAD16B",
"1X c #4EAC81",
"2X c #47AB82",
"3X c #50AF84",
"4X c #6DBB81",
"5X c #7B8485",
"6X c #8F9191",
"7X c #A89987",
"8X c #B7B3AB",
"9X c #CFA197",
"0X c #AAD182",
"qX c #B8D685",
"wX c #A1CD80",
"eX c #CADE8A",
"rX c #D8E38E",
"tX c #DAE590",
"yX c #E6E58A",
"uX c #F4E686",
"iX c #EDEB92",
"pX c #F7EF94",
"aX c #F8EF94",
"sX c #F9F095",
"dX c #FAF397",
"fX c #DAC8AA",
"gX c #CFD0CE",
"hX c #FAFBFB",
"jX c None",
/* pixels */
"jXjXjXjXjXjXjXjXjXjXjXjXjXjXjXjXjXjXjXjXjXjXjXjXjXjXjXjXjXjXjXjXjXjXjXjXjXjXjXjXjXjXjXjXjXjXjXjXjXjXjXjXjXjXjXjXjXjXjXjXjXjXjXjX",
"jXjXjXjXjXjXjXjXjXjXjXjXjXjXjXjXjXjXjXjXjXjXjXjXjXjXjXjXjXjXjXjXjXC S 2 o jXjXjXjXjXjXjXjXjXjXjXjXjXjXjXjXjXjXjXjXjXjXjXjXjXjXjX",
"jXjXjXjXjXjXjXjXjXjXjXjXjXjXjXjXjXjXjXv.c.c.c.c.jXjXjXjXjXjXjXN G O.A M u #   jXjXjXjXjXjXjXjXjXjXjXjXjXjXjXjXjXjXjXjXjXjXjXjXjX",
"jXjXjXjXjXjXjXjXjXjXjXjXjXjXjXjXg jXm.D.D.D.D.D.S.jXg jXjXjXA o.O.$.O.A S s 2 # jXjXjXjXjXjXjXjXjXjXjXjXjXjXjXjXjXjXjXjXjXjXjXjX",
"jXjXjXjXjXjXjXjXjXjXjXjXjXjXjXT w.a.G.$X$X@X@X$XH.x.R I jXA O.$.L.+.G D V V Z u . jXjXjXjXjXjXjXjXjXjXjXjXjXjXjXjXjXjXjXjXjXjXjX",
"jXjXjXjXjXjXjXjXjXjXjXjXjXP 9.b +XK.H.H.+X$X@X@X@X@XH.t.b o.$.@.+.F I I I K D S 4 jXjXjXjXjXjXjXjXjXjXjXjXjXjXjXjXjXjXjXjXjXjXjX",
"jXjXjXjXjXjXjXjXjXjXjXjXjXjXd 7 b.v.v.v.M.^.^.+X@X@X@XG./ o.%.D c q.m.m.v.v.b./ N C - jXjXjXjXjXjXjXjXjXjXjXjXjXjXjXjXjXjXjXjXjX",
"jXjXjXjXjXjXjXjXjXjXjXjXjXjXjXjXjXjXn.n.e.v 0.D.@X@X@X#Xf.o.n J c.D.+X+XS.v.v.N.0.V # jXjXjXjXjXjXjXjXjXjXjXjXjXjXjXjXjXjXjXjXjX",
"jXjXjXjXjXjXjXjXjXjXjXjXjXjXjXjXjXjXh & f y.N.+X@X@X@X#Xf.y k x.K.+X$X@X@XM.v.v.n.T g @ jXjXjXjXjXjXjXjXjXjXjXjXjXjXjXjXjXjXjXjX",
"jXjXjXjXjXjXjXjXjXjXjXjXjXjXjXjXjXP e.E ! M.+X@X@X@X$XK.g.J k.+X#X$X@X@X$XS.n.v.b.y.t.h jXjXjXjXjXjXjXjXjXjXjXjXjXjXjXjXjXjXjXjX",
"jXjXjXjXjXjXjXjXjXjXjXjXjXjXjXjXjXf 1X1X3XH.@X@X@X@X$Xx.w.V.+X#X@X@X@X@X$XS.v.v.t.n.1Xr.P jXjXjXjXjXjXjXjXjXjXjXjXjXjXjXjXjXjXjX",
"jXjXjXjXjXjXjXjXjXjXjXjXjXjXjXjXjXj b.c.S.$X@X@X@X@X+Xx.V.%X@X@X@X@X@X$XK.M.c.b.h l U q.9.P jXjXjXjXjXjXjXjXjXjXjXjXjXjXjXjXjXjX",
"jXjXjXjXjXjXjXjXjXjXjXjXjXjXjXjXjXP l.v.M.+X@X@X@X+XD.D.@X@X@X@X@X@X$X+XM.v.v.b.8   . , E h L T jXjXjXjXjXjXjXjXjXjXjXjXjXjXjXjX",
"jXjXjXjXjXjXjXjXjXjXjXjXjXjXjXjXjXjXP n.n.M.@X@X@XG.S.$X@X@X@X@X@X+X+XS.v.v.v.n.j   5 1 . . W h.L jXjXjXjXjXjXjXjXjXjXjXjXjXjXjX",
"jXjXjXjXjXjXjXjXjXjXjXjXjXjXjXjXjXjXjXc Q c.S.$X$XD.S.@X@X@X@X@X@XD.v.v.v.v.v.0.jXjXo 5 N N * X X jXjXjXjXjXjXjXjXjXjXjXjXjXjXjX",
"jXjXjXjXjXjXjXjXjXjXjXjXjXjXjXjXjXjXjXjXjX0.S.@X@X@X+X@X@X@X$XG.m.m.v.v.v.b.9., jXjXjX. A G # jXjXjXjXjXjXjXjXjXjXjXjXjXjXjXjXjX",
"jXjXjXjXjXjXjXjXjXjXjXjXjXjXjXjXjXjXjXjXt M e.K.#X#X$X#X$XG.M.m.v.b.1Xt.f , : r jXjXjX  n O.n O jXjXjXjXjXjXjXjXjXjXjXjXjXjXjXjX",
"jXjXjXjXjXjXjXjXjXjXjXjXjXjXjXjXjXjXjX` { } F t.4X4Xx.x.G.3Xb.b.y.Y k 9 5 p p t jXjXjXjX# o.O.- jXjXjXjXjXjXjXjXjXjXjXjXjXjXjXjX",
"jXjXjXjXjXjXjXjXjXjXjXjXjXjXjXjXjXjXjX` ,.;. .b U U h j ~ U U ~ h +     a ,.;.| e jXjXjX  A L.- jXjXjXjXjXjXjXjXjXjXjXjXjXjXjXjX",
"jXjXjXjXjXjXjXjXjXjXjXjXjXjXjXjXjXjXjX{ -.;. .p                         p ;.-.;.y jXjXjX  A %.u jXjXjXjXjXjXjXjXjXjXjXjXjXjXjXjX",
"jXjXjXjXjXjXjXjXjXjXjXjXjXjXjXjXjXjX` ;.-.;.a o           o o O . o     q | ;.;.y jXjXjXjXC O.%.A jXjXjXjXjXjXjXjXjXjXjXjXjXjXjX",
"jXjXjXjXjXjXjXjXjXjXjXjXjXjXjXjXjXjX` ;.-.| e           o 3 C N N 2     q | -.-.r jXjXjXjXN O.%.Z jXjXjXjXjXjXjXjXjXjXjXjXjXjXjX",
"jXjXjXjXjXjXjXjXjXjXjXjXjXjXjXjXjX` ;.7.-.}           - B N S C C N 1   p ;.,.i jXjXjXjXjXO A L.4 jXjXjXjXjXjXjXjXjXjXjXjXjXjXjX",
"jXjXjXjXjXjXjXjXjXjXjXjXjXjXjXjXjX' ).).2.e       o * s S C S S C Z 3 ; ' ;.,.y jXjXjXjXjX  A $.- jXjXjXjXjXjXjXjXjXjXjXjXjXjXjX",
"jXjXjXjXjXjXjXjXjXjXjXjXjXjXjXjXjX' `._.<.q 0 ) X O s S C C u - s s X e >.;.] $ jXjXjXjXjX  A $.- jXjXjXjXjXjXjXjXjXjXjXjXjXjXjX",
"jXjXjXjXjXjXjXjXjXjXjXjXjXjXjXjXjX[ `._.<.p 6X8XX 3 S C C s s 7 $ # o ' 3.;.y   jXjXjXjXjX  A L.< jXjXjXjXjXjXjXjXjXjXjXjXjXjXjX",
"jXjXjXjXjXjXjXjXjXjXjXjXjXjXjXjXjX' 7._.7.X.gX6Xo 3 C C C 2 ) 6X& o t 1.8.-.r   jXjXjXjXjX  A $.- jXjXjXjXjXjXjXjXjXjXjXjXjXjXjX",
"jXjXjXjXjXjXjXjXjXjXj.v jXjXjXjXjXjX[ _._.<.4.5X  - C C C 3 ^ gX) = :._._...=   jXjXjXjXjX  A $.- jXjXjXjXjXjXjXjXjXjXjXjXjXjXjX",
"jXjXjXjXjXjXjXjXT m.Z.x jXjXjXjXjXjX[ `._.<.4.5X  3 C N C < ^ gX^ q :._._. .= jXjXjXjXjXjXo A $.- jXjXjXjXjXjXjXjXjXjXjXjXjXjXjX",
"jXjXjXjXjXjXjXjXJ.+XZ.c jXjXjXjXjXjX[ `.].].:.a q   . . .   ) 7Xt ..)._.1.{ = jXjXjXjXjX  H %.$.- jXjXjXjXjXjXjXjXjXjXjXjXjXjXjX",
"jXjXjXjXjXjXjXv $XJ.R jXjXjXjXjXjXjXjX..`._.8.7.X.w w w w w a X.1.8.'.8.{ &.s jXjXjXjXjX  A $.u jXjXjXjXjXjXjXjXjXjXjXjXjXjXjXjX",
"jXjXjXjXjXc v x.@X^.p.jXjXjXjXjXjXjXjX' ..:.'.'.8.:.:.:.:.:.:.7.'.).:.{  .o.5 jXjXjXjXjX< o.O.- jXjXjXjXjXjXjXjXjXjXjXjXjXjXjXjX",
"jXjXjXjXjXx w.$X@X@XC.  jXjXjXjXjXjXjXjXp 4.>.>.1.'.`.`.`.'.).<...|  . .OXB jXjXjXjXjX* B o.s O jXjXjXjXjXjXjXjXjXjXjXjXjXjXjXjX",
"jXjXjXjXjXw.S.@X@X@XC.+ jXjXjXjXjXjXjXjX0 7X*.] X.1.1.1.1.1.>...4.*.L.*X=XB jXjXjXjX  u C C # jXjXjXjXjXjXjXjXjXjXjXjXjXjXjXjXjX",
"jXjXjXjXjX@X@X@X@X@XJ.h + jXjXjXjXjXjXjX1 E.gXE.W.] ` ] ] ] ] 9XgXW.[.XX*XB jXjXjXjX. u C N # jXjXjXjXjXjXjXjXjXjXjXjXjXjXjXjXjX",
"jXjXjXjXm.@X@X+X@X@X~.r.c c jXjXjXjXjXjXu ^ hX8X@.{.{.L.7X5X_ hX6XA oX{.*XZ jXjXjX  u C C # jXjXjXjXjXjXjXjXjXjXjXjXjXjXjXjXjXjX",
"jXjXjXm.~.@X+XM.@X@X+Xc.l.!   jXjXjXjX+..XY.( 6.{.XX|. XY.7XhXfXP..X|.|.*X.Xm jX  5 N C 1 jXjXjXjXjXjXjXjXjXjXjXjXjXjXjXjXjXjXjX",
"jXjXjXv.@X@X+Xm.@X@X~.v.v.t.,   jX# C +.*X.XU.[.*X|.XXXX.XY._ Y.XX|.|.|.|.=XB o 4 N S 4 jXjXc jXjXx jXjXjXjXjXjXjXjXjXjXjXjXjXjX",
"jXjXjXm.@X+XD.G.@X+XM.v.v.n.e.k % ^ A U.|.|.XX|.{.|.|.|.*X[.P.[.*X*X*X|.|.*Xn # B S 5   jXx x x g a.T g g x jXjXjXjXjXjXjXjXjXjX",
"jXjXjXD.@X~.m.@X@X+Xv.v.v.v.v.r.l / U.;X;X>X:X:X:X:X*X|.|.|.*XoXXXXX|.|.|.=XB 6 A u 8 ! a.i.i.i.i.H.s.i.i.i.v jXjXjXjXjXjXjXjXjX",
"jXjXm.+X@X@XS.H.@X~.v.v.v.v.b.n.s.P.:X,X,XsXsXsXsXuX>X=X*X|.|.}.(.}.oXXX|.=XB 6 B 3 e.B.+X&X#X%X$X@X#X$X$X$Xp.R w.x jXjXjXjXjXjX",
"jXjXb.+X@X@X+Xj.$X~.v.v.v.v.c.s.I.,XdXaXdXdXaXsXpXpXsXuX:X*XoX/.u.!.*X|.|.*Xn 2 # E b.F.Z.J.@X+X+XH.@X+XK.+X@X@X@XT g jXjXjXjXjX",
"jXjXjXm.@X@XJ.T #XG.v.v.v.z.g.( ^.&XaXaXaXaXaXaXpXpXpXpXpX>X|.!.n.!.oX|.|.*XB o X E c.0.v r.K.S.m.m.H.M.m.N.H.+X+XN.: X X jXjXjX",
"jXjXL +X@X@X^.v ~.m.v.v.b.e.0 /.@X@XqXaXpXaXaXaXpXpXpXpXpXuX=X X}. X|.|.|.*Xn l h.Q v 9.F.+XM.J.+X+XM.H.+Xb.m.m.T j.h.r.g.jXjXjX",
"jXjXv @X@X@XN.v m.v.v.v.z.V V @X#XwXyXpXpXpXpXpXpXpXpXpXaXaX:XoX*XoX|.|.|.=Xn d y.A.V.J.@X#XK.+X@X@XH.+X@X~.H.H.j.P P P P X   jX",
"jXjXv i.@X+Xc.e.y.! v.1Xg.5 -XeX+XwXdXpXpXaXpXpXpXpXpXsXaXdX>XoX|.|.|.|.*XI.z v N.+X#X@X$X$X@X@X@X@X@X@X@X@X$XD.b.e.e.e.q.d , o ",
"jXjXg d S.D.v.v.z.9.1Xm./ I.dXiXqXeXsXpXpXpXpXaXpXpXsXsXyXeX-X*X|.|.|.*X=Xd.v y.K.@X@X@X@X@X@X@X@X@X@X@X$X$XG.b.b.b.U J z.d , X ",
"jXjXjX+ n.v.v.v.1Xv.e.g.S dXaXaXdXsXpXsXpXpXpXpXpXpXsXiX0X+X!.}.|.|.*XR.R.s.t.M.K.@X@X@X@X@X@X@X@X@X@X@XH.G.b.v.w.E X   r.X   jX",
"jXjXjX@ e.v.v.v.v.z.Q e.4 dXaXaXpXpXpXsXpXpXpXpXpXpXpXqX@X$XS.Q.XX|.*Xd.! 1Xl.G.$X+X@X@X@X@X@X@X@X@X@X+Xm.v.v.e.@   jXjXjXjXjXjX",
"jXjXjXjX& h.v.v.v.v.v.! 0 dXaXaXpXpXpXiXiXiXpXpXpXsXeX@X@X+XD.!.XX|.*Xd.9.v.2XG.@X@X@X@X@X@X@X@X@X@X+XM.v.v.z.%   jXjXjXjXjXjXjX",
"jXjXjXjXjX> v.v.v.v.e.3 .X,XaXaXsXsXrX%X&X%XqXsXpXsXeX@XG.v./. XXXXX*Xd.9.2Xv.v.G.$X@X@X@X@X@X@X+X@XS.v.v.v.7   jXjXjXjXjXjXjXjX",
"jXjXjXjXjX@ v.v.v.v.e.< *X;XaXaXsXyX&X@X@X+XqXsXpXpXpX-X}.T.}.|.|.XXI.w.l.v.v.v.m.H.@X@X@X@X@X$XD.M.v.v.v.b.jXjXjXjXjXjXjXjXjXjX",
"jXjXjXjXjXjXf v.1Xb.e.1 XX|.>XdXdXtX@X@X#X+X0XdXsXdXuX=X|.|.|.|.|.*Xd.9.1Xz.1Xv.v.G.@X@X@X$X$XD.v.v.v.v.v.l jXjXjXjXjXjXjXjXjXjX",
"jXjXjXjXjXjXo g.J 1Xe.2 XX|.|.,XuXtX@X$X@XwXtXdXuX>X;X|.|.|.|.*X|.XXR.p.y.v.v.v.v.S.D.D.D.D.D.m.v.v.v.m.b.& jXjXjXjXjXjXjXjXjXjX",
"jXjXjXjXjXjX  jXX W J 2 =XXX|.|.:X-X/.G.G.&X,X,X:X{.|.|.|.|.|.|.|.*XoXd.9.1Xv.v.v.v.n.v.c.v.v.v.v.v.v.! W % jXjXjXjXjXjXjXjXjXjX",
"jXjXjXjXjXjXjXjXjX    3 U. X}.|.|.*XT.A.A.Q.|.|.|.|.|.|.|.|.|.|.*X X XF Q b.v.v.v.v.v.v.v.v.v.v.v.v.v.:   jXjXjXjXjXjXjXjXjXjXjX",
"jXjXjXjXjXjXjXjXjXjXjXjX4 T.F.|.|.|.|. X XXX|.|.|.|.|.|.|.|.|.|. XQ.b.k J b.b.v.v.v.v.v.v.v.v.v.v.v.z.: jXjXjXjXjXjXjXjXjXjXjXjX",
"jXjXjXjXjXjXjXjXjXjXjXjX2 }.2XC.XX|.|.|.|.XX|.|.|.|.|.|.|.|.|.*X!.b.b.f J b.v.v.v.v.v.v.v.v.b.n.v.b.7 jXjXjXjXjXjXjXjXjXjXjXjXjX",
"jXjXjXjXjXjXjXjXjXjXjXjX2 }.2XA.XX|.|.|.|.|.|.|.|.oX|.|.|.|.XX*X!.2XJ X h.1Xv.v.v.v.v.c.v.v.b.f e.k jXjXjXjXjXjXjXjXjXjXjXjXjXjX",
"jXjXjXjXjXjXjXjXjXjXjXjXjXS (.T.XX|.|.|.|.|.|.*XT.C.(.|.|.|.XX*X!.E : jX8 8 ! 1Xv.v.v.b.v.1XJ + 7 @ jXjXjXjXjXjXjXjXjXjXjXjXjXjX",
"jXjXjXjXjXjXjXjXjXjXjXjX. 4 @.=XXXXX|.|.|.|.|.}.Z.u.Q.|.XX|.*X=Xf.7 jXjXjX  7 l e.3Xb.~ e.~ % jXjXjXjXjXjXjXjXjXjXjXjXjXjXjXjXjX",
"jXjXjXjXjXjXjXjXjXjXjXjX2 B 6 P.*X*X|.|.|.|.|.(.c.c.Q.*X*X=XU.@.n jXjXjXjXjX    k W g.7 ! 7 jXjXjXjXjXjXjXjXjXjXjXjXjXjXjXjXjXjX",
"jXjXjXjXjXjXjXjXjXjXjX- C C 5 2 U.U.|.|.|.|.|.T.A.A.!.[.P.U.Z   jXjXjXjXjXjXjXjXjX  jXjXjXjXjXjXjXjXjXjXjXjXjXjXjXjXjXjXjXjXjXjX",
"jXjXjXjXjXjXjXjXjXjXO C C M   jX  5 *X|.|.|.|.|.|. XXX+.  o o jXjXjXjXjXjXjXjXjXjXjXjXjXjXjXjXjXjXjXjXjXjXjXjXjXjXjXjXjXjXjXjXjX"
};
