/* XPM */
static char *result[] = {
/* columns rows colors chars-per-pixel */
"16 16 143 2 ",
"   c #1C1A0D",
".  c #1E1610",
"X  c #3A321A",
"o  c #353A1F",
"O  c #55220B",
"+  c #423519",
"@  c #493619",
"#  c #4B3D2B",
"$  c #1F563D",
"%  c #39482F",
"&  c #4B411F",
"*  c #57431C",
"=  c #62481C",
"-  c #484022",
";  c #564B23",
":  c #5F4336",
">  c #6D5221",
",  c #6B5224",
"<  c #6B4A39",
"1  c #626131",
"2  c #7C703F",
"3  c #255540",
"4  c #255E41",
"5  c #34694A",
"6  c #33724E",
"7  c #326D51",
"8  c #336F52",
"9  c #367252",
"0  c #337553",
"q  c #347457",
"w  c #406041",
"e  c #48774F",
"r  c #4F7E4B",
"t  c #5D7340",
"y  c #757E42",
"u  c #874019",
"i  c #954117",
"p  c #9F5F2A",
"a  c #A94E23",
"s  c #AD5429",
"d  c #AE5A2F",
"f  c #AD5B35",
"g  c #B75F31",
"h  c #B15A34",
"j  c #876F34",
"k  c #846439",
"l  c #8C633F",
"z  c #996A3B",
"x  c #937E36",
"c  c #CB7044",
"v  c #39805F",
"b  c #338760",
"n  c #4C8653",
"m  c #478059",
"M  c #6D864E",
"N  c #7C884B",
"B  c #608F5C",
"V  c #4A8C60",
"C  c #449065",
"Z  c #4E9067",
"A  c #4D9665",
"S  c #41946E",
"D  c #569265",
"F  c #559A65",
"G  c #569A65",
"H  c #5D9A63",
"J  c #439871",
"K  c #459B74",
"L  c #629B69",
"P  c #5FA46C",
"I  c #48A077",
"U  c #4FA677",
"Y  c #58A671",
"T  c #5DA570",
"R  c #5EA976",
"E  c #55A979",
"W  c #56AA7A",
"Q  c #59AD7C",
"!  c #6BA064",
"~  c #6DA468",
"^  c #6FB272",
"/  c #6BB478",
"(  c #6CB478",
")  c #6BB67C",
"_  c #77B270",
"`  c #72B778",
"'  c #72B97B",
"]  c #76BA79",
"[  c #74B97B",
"{  c #77BB7B",
"}  c #7BBB78",
"|  c #7BBC79",
" . c #7DBC78",
".. c #7EBE79",
"X. c #7CBD7A",
"o. c #9C853A",
"O. c #A68D3D",
"+. c #AD923E",
"@. c #898C49",
"#. c #978F45",
"$. c #849C55",
"%. c #929951",
"&. c #AA9141",
"*. c #AB9D54",
"=. c #92A75B",
"-. c #BBA046",
";. c #B9A453",
":. c #BCBD74",
">. c #C29C45",
",. c #C39550",
"<. c #D6A54F",
"1. c #C8AE51",
"2. c #CDA859",
"3. c #C6B959",
"4. c #C9BC59",
"5. c #D0BB56",
"6. c #D6B854",
"7. c #D0BC57",
"8. c #DDBB50",
"9. c #D2BD58",
"0. c #83C17B",
"q. c #84C27B",
"w. c #86C27A",
"e. c #80C27E",
"r. c #8CC57B",
"t. c #88C57D",
"y. c #97C479",
"u. c #ABC176",
"i. c #ABC879",
"p. c #D6C264",
"a. c #DFCF76",
"s. c #D2D77E",
"d. c #D4D87D",
"f. c #EAD26C",
"g. c #E5D471",
"h. c #F6EA8B",
"j. c #F5EA8C",
"k. c #E4E991",
"l. c #E5E991",
"z. c #E9EA92",
"x. c #F0ED93",
"c. c #F7EE90",
"v. c None",
/* pixels */
"v.v.v.A ( ` v.v.1 o v.v.v.v.v.v.",
"v.v.v.0 T ..~ M ! V 6 v.v.v.v.v.",
"v.v.v.b / t. .0.e.E 9 4 v.v.v.v.",
"v.v.v.v.2 B e m 5 % u v.; v.v.v.",
"v.v.v.z a .   - X O i v.> v.v.v.",
"v.^ _ k c : @ # < s v.v.= v.v.v.",
"[ | { Z l h d f g p v.r t n v.v.",
"P Y U L *.2.<.,.>.y G } X.] C $ ",
"8 J D u.h.c.j.g.=.H w.r.q.R 7 v.",
"v.w :.k.l.x.z.i.F Q ' ) W q v.v.",
"v.v.p.d.y.s.g.4.$.S I K v v.v.v.",
"v.v.@.5.7.9.3.8.%.3 v.v.v.v.v.v.",
"v.+ & o.+.#.N x v.v.v.v.v.v.v.v.",
"v.* , v.v.v.v.v.v.v.v.v.v.v.v.v.",
"v.v.j a.f.6.&.v.v.v.v.v.v.v.v.v.",
"v.v.v.;.1.-.O.v.v.v.v.v.v.v.v.v."
};
