/* XPM */
static char *result[] = {
/* columns rows colors chars-per-pixel */
"64 64 228 2 ",
"   c #010101",
".  c #0D0B05",
"X  c #070A06",
"o  c #120D06",
"O  c #170601",
"+  c #07150E",
"@  c #161209",
"#  c #1A160B",
"$  c #1E1A0B",
"%  c #121007",
"&  c #0C1D15",
"*  c #071810",
"=  c #121315",
"-  c #250701",
";  c #28180A",
":  c #350D02",
">  c #062616",
",  c #11281E",
"<  c #33250F",
"1  c #292312",
"2  c #2D2712",
"3  c #342B14",
"4  c #3A2C12",
"5  c #322712",
"6  c #39331A",
"7  c #0A3B22",
"8  c #1A3C2D",
"9  c #153527",
"0  c #162822",
"q  c #2E3327",
"w  c #550D00",
"e  c #4E1406",
"r  c #7E1701",
"t  c #4B3D1E",
"y  c #453718",
"u  c #552D10",
"i  c #712C0F",
"p  c #763628",
"a  c #1C4433",
"s  c #175A38",
"d  c #0C4C2C",
"f  c #214936",
"g  c #23513C",
"h  c #385A34",
"j  c #3A582F",
"k  c #0F6239",
"l  c #12653B",
"z  c #2F6339",
"x  c #52431F",
"c  c #4B4223",
"v  c #5B4C24",
"b  c #554723",
"n  c #5A552C",
"m  c #575C36",
"M  c #465631",
"N  c #675826",
"B  c #6A5926",
"V  c #645329",
"C  c #6A5527",
"Z  c #735C2B",
"A  c #795A26",
"S  c #744925",
"D  c #576932",
"F  c #48723E",
"G  c #7C672D",
"H  c #7B6A35",
"J  c #716D35",
"K  c #614218",
"L  c #1F5F40",
"P  c #265A42",
"I  c #196B43",
"U  c #1C734A",
"Y  c #1B7752",
"T  c #2B674C",
"R  c #267445",
"E  c #28774B",
"W  c #247B53",
"Q  c #2B7C55",
"!  c #2C7B56",
"~  c #357758",
"^  c #30704C",
"/  c #4F774A",
"(  c #727672",
")  c #6D6D50",
"_  c #841A01",
"`  c #851901",
"'  c #882507",
"]  c #92290A",
"[  c #983614",
"{  c #932F10",
"}  c #A63A14",
"|  c #A84519",
" . c #B44718",
".. c #BC541E",
"X. c #A5551E",
"o. c #8D4432",
"O. c #B74C22",
"+. c #B95726",
"@. c #AA5835",
"#. c #826126",
"$. c #89682B",
"%. c #99722E",
"&. c #8B7636",
"*. c #957834",
"=. c #826E30",
"-. c #A67C32",
";. c #C1561F",
":. c #C55A21",
">. c #C75A22",
",. c #C45F32",
"<. c #CD642D",
"1. c #CC6334",
"2. c #D26B37",
"3. c #D9723E",
"4. c #D6713C",
"5. c #A26350",
"6. c #DB7541",
"7. c #E37F49",
"8. c #E37E46",
"9. c #36804D",
"0. c #2B8459",
"q. c #36865A",
"w. c #2C8B63",
"e. c #328B62",
"r. c #3C8865",
"t. c #3C946B",
"y. c #399469",
"u. c #3B9971",
"i. c #4B9259",
"p. c #518A57",
"a. c #7D944D",
"s. c #47976B",
"d. c #449C74",
"f. c #439772",
"g. c #408D69",
"h. c #5CA164",
"j. c #46A37A",
"k. c #4AA57B",
"l. c #4CA97E",
"z. c #48A077",
"x. c #53AA7C",
"c. c #5AAD7B",
"v. c #57A876",
"b. c #59AB78",
"n. c #68A76A",
"m. c #7AA96A",
"M. c #65AB73",
"N. c #64B37C",
"B. c #6CB67B",
"V. c #6EB97E",
"C. c #6DB276",
"Z. c #73BA7C",
"A. c #7BBD7B",
"S. c #78B675",
"D. c #73B16D",
"F. c #9B833B",
"G. c #AC8133",
"H. c #A8873A",
"J. c #B18839",
"K. c #929B47",
"L. c #B59943",
"P. c #AA9043",
"I. c #9AA85B",
"U. c #AEA64D",
"Y. c #B7B75E",
"T. c #B8A84A",
"R. c #87AF6A",
"E. c #98B468",
"W. c #81BE78",
"Q. c #90B66F",
"!. c #A7B461",
"~. c #B8B069",
"^. c #E9854C",
"/. c #F18E54",
"(. c #F39055",
"). c #C4A547",
"_. c #D6B64F",
"`. c #C7BA59",
"'. c #D4BA54",
"]. c #DEBD52",
"[. c #D8B954",
"{. c #D0AC4A",
"}. c #E1BE52",
"|. c #E3BD4F",
" X c #83C17B",
".X c #8CC57B",
"XX c #8DC87E",
"oX c #90C77C",
"OX c #92C97D",
"+X c #9CCC7F",
"@X c #AFC771",
"#X c #D8C159",
"$X c #E3C255",
"%X c #E4C65B",
"&X c #E9C758",
"*X c #DCC463",
"=X c #EACE63",
"-X c #E5CE6A",
";X c #E5CA63",
":X c #ECD36B",
">X c #EBD773",
",X c #F1DD76",
"<X c #F0D86D",
"1X c #F2E17C",
"2X c #39A280",
"3X c #7A8283",
"4X c #4DAB80",
"5X c #5FB482",
"6X c #868E8F",
"7X c #ACAEAE",
"8X c #B9A698",
"9X c #C5B8AC",
"0X c #A2CE81",
"qX c #A9D182",
"wX c #95CD80",
"eX c #D7E38D",
"rX c #F3E482",
"tX c #F6EA8C",
"yX c #EAEA91",
"uX c #F7EF94",
"iX c #F8EF94",
"pX c #F7F095",
"aX c #F9F095",
"sX c #E8E78F",
"dX c #D4DD89",
"fX c #D2D6D3",
"gX c #E6DFD9",
"hX c None",
/* pixels */
"hXhXhXhXhXhXhXhXhXhXhXhXhXhXhXhXhXhXhXhXhXhXhXhXhXhXhXhXhXhXhXhXhXhXhXhXhXhXhXhXhXhXhXhXhXhXhXhXhXhXhXhXhXhXhXhXhXhXhXhXhXhXhXhX",
"hXhXhXhXhXhXhXhXhXhXhXhXhXhXhXhXx.c.c.c.c.c.c.hXhXhXhXhXhXhXhXhXhXhXhXhXhXhXhXhXhXhXhXhXhXhXhXhXhXhXhXhXhXhXhXhXhXhXhXhXhXhXhXhX",
"hXhXhXhXhXhXhXhXhXhXhXhXhX9.9.v.W.oX.X.X.X.X XhXhXhXhXhXhXhXhXA Z Z x # # hXhXhXhXhXhXhXhXhXhXhXhXhXhXhXhXhXhXhXhXhXhXhXhXhXhXhX",
"hXhXhXhXhXhXhXhXhXhXI Q 0.V.A.Z.Z.V. XXXXX.X Xb.i.W hXhXhXG #.%.*.D M C v 1 1 hXhXhXhXhXhXhXhXhXhXhXhXhXhXhXhXhXhXhXhXhXhXhXhXhX",
"hXhXhXhXhXhXhXhXhXhXU ! P g 0.j.4X4Xs.p.h.Z..X.X XC.0.m G -.=.D / 0.^ j j j j 3   hXhXhXhXhXhXhXhXhXhXhXhXhXhXhXhXhXhXhXhXhXhXhX",
"hXhXhXhXhXhXhXhXhXhXhXhXhXhX> 9 a ~ t.w.y.c..X.X.X.XZ.J -.t ^ r.d.5Xd.e.e.e.e.z d c ; hXhXhXhXhXhXhXhXhXhXhXhXhXhXhXhXhXhXhXhXhX",
"hXhXhXhXhXhXhXhXhXhXhXhXhXhXd P ^ t.N.A.Z.A..X.X.XW.) 5 / p.m.5X X.XN.k.k.l.l.y.I z & hXhXhXhXhXhXhXhXhXhXhXhXhXhXhXhXhXhXhXhXhX",
"hXhXhXhXhXhXhXhXhXhXhXhXhXk y.k.4XB..X.XoXoX.X.X Xv.z q.D.wXwXW..X.X.XZ.k.k.k.k.f.f.l > hXhXhXhXhXhXhXhXhXhXhXhXhXhXhXhXhXhXhXhX",
"hXhXhXhXhXhXhXhXhXhXhXhXhX* t.l.j.Z.oX.X.X.X.X.XS.E D.W.wX.X.X.X.X.X.XA.k.k.k.j.k.l.k.R d hXhXhXhXhXhXhXhXhXhXhXhXhXhXhXhXhXhXhX",
"hXhXhXhXhXhXhXhXhXhXhXhXhXs y.k.k.B..X.X.X.X.XA.N.A.wX.XW..X.X.X.X.XoXZ.k.k.z.l q.g.f.j.0.7 + hXhXhXhXhXhXhXhXhXhXhXhXhXhXhXhXhX",
"hXhXhXhXhXhXhXhXhXhXhXhXhXhXl e.u.z.B.oX.X.XA.v.W.oX.X.X.X.X.X.X.X.XB.k.k.k.z.+     7 ! 0.U U U hXhXhXhXhXhXhXhXhXhXhXhXhXhXhXhX",
"hXhXhXhXhXhXhXhXhXhXhXhXhXhXhXl k y.B..X.X.X XN..X.XoXW.wXW..XW.A.B.k.k.k.k.y.; hXhXhX  9 ~ ~ T d hXhXhXhXhXhXhXhXhXhXhXhXhXhXhX",
"hXhXhXhXhXhXhXhXhXhXhXhXhXhXhXhXhXw.u.Z.oX.X.X.X.XOXoXA.B.x.N.c.j.j.l.4Xl.q.9 { hXhXhX  @ 4 3 @   hXhXhXhXhXhXhXhXhXhXhXhXhXhXhX",
"hXhXhXhXhXhXhXhXhXhXhXhXhXhXhXhXhXS ^ s.A.oXoX.XV.5XZ.x.4Xk.k.k.l.z.Q g a 7 u ;.] hXhXhX; C -.K   hXhXhXhXhXhXhXhXhXhXhXhXhXhXhX",
"hXhXhXhXhXhXhXhXhXhXhXhXhXhXhXhXr  .X.F y.V.N.c.W a a f f.4Xy.P a 9 *   . i >.:.| : hXhX  y -.A   hXhXhXhXhXhXhXhXhXhXhXhXhXhXhX",
"hXhXhXhXhXhXhXhXhXhXhXhXhXhXhX` } +.:.+.v 9 9 9 *       , 9 > X         O [ :.>.>.; hXhXhXx $.%.C V hXhXhXhXhXhXhXhXhXhXhXhXhXhX",
"hXhXhXhXhXhXhXhXhXhXhXhXhXhXhX_  .<.:. .w               6 t t t c 2     O ' ..:.:.: hXhXhXhXG -.%.V hXhXhXhXhXhXhXhXhXhXhXhXhXhX",
"hXhXhXhXhXhXhXhXhXhXhXhXhXhXhX_  .:.:.} w           X   x V V V C y     O ' ..:.+.; hXhXhXhXy -.#.o hXhXhXhXhXhXhXhXhXhXhXhXhXhX",
"hXhXhXhXhXhXhXhXhXhXhXhXhXhX`  .^.2.:.i           o b b V V V V V V y   - ..:.:.; hXhXhXhXhX4 G.#.  hXhXhXhXhXhXhXhXhXhXhXhXhXhX",
"hXhXhXhXhXhXhXhXk.v.u.hXhXhX` 3././...: = 0     # v V V V V b x v V 6 O ] ;.:.| - hXhXhXhXhX4 G.#.  hXhXhXhXhXhXhXhXhXhXhXhXhXhX",
"hXhXhXhXhXhXhXt.Z.D.k hXhXhX` 6./.(.O.e 6X7X  o V V V V x t q = # 1   e <.>.;.o hXhXhXhXhXhX4 G.#.  hXhXhXhXhXhXhXhXhXhXhXhXhXhX",
"hXhXhXhXhXhXR n. Xs.k hXhXhX` +.7.(.1.5.9X7X  o V V V V @ X 3X6X0 O e +.^.<.| O hXhXhXhXhXhX4 G.#.  hXhXhXhXhXhXhXhXhXhXhXhXhXhX",
"hXhXhXhXhX9.n.OXp.> hXhXhXhXhX` 2././.O.5.3X  o V V V V @   ( fX( - } (./.^.' O hXhXhXhXhXhX4 G.#.  hXhXhXhXhXhXhXhXhXhXhXhXhXhX",
"hXhXhXk W M.oXoXm.M hXhXhXhXhX` 4.(./.3.5.o.: X 1 1 1 1 X   3X8Xp i 6.(./.2.` hXhXhXhXhXhX< A -.#.  hXhXhXhXhXhXhXhXhXhXhXhXhXhX",
"hXhXhXn.C. X.X.XoXn.7 hXhXhXhXhX} 6././.7.1.O.w w w w w w w o.@.,.6./.^.,.] : hXhXhXhXhX  y G.$.4 hXhXhXhXhXhXhXhXhXhXhXhXhXhXhX",
"hXhXk.A..X.X.X.XoXA.q.  hXhXhXhXhX{ [ ,././.^.6.6.6.6.6.3.6.1.8./.8.:.[ _ - hXhXhXhXhXhX1 A *.t   hXhXhXhXhXhXhXhXhXhXhXhXhXhXhX",
"hXk.A..XN.Z..XoXA.c.u.s hXhXhXhXhX. ) 5.] ] | /././.7./././.6. .] ' | {.J.X hXhXhXhX  2 v Z t X hXhXhXhXhXhXhXhXhXhXhXhXhXhXhXhX",
"x.Z..X.XN.k.Z..X XB.k.d.d.U & hXhXX q S [ ' [ 8.7.7.7.7.7.7.<.] r ' X.$XL.  hXhXhXhXX 6 V n 6 X hXhXhXhXhXhXhXhXhXhXhXhXhXhXhXhX",
"hXc.W.oXN.B..X.XA.k.k.k.k.j.d.8 = b y ( gX8XA [ [ [ [ ' o.@.[ e G ].].$X).5 hXhXhX  6 n h R R R R R R R hXhXhXhXhXhXhXhXhXhXhXhX",
"k. X.XoXc.B.oXoXZ.k.k.k.k.k.4Xs.m P.}.L.=.H.].].[.[.].&.8XfX~.).].].].].].).. hX  , L E n..X.X.X.X.X.X.Xi.E E E R hXhXhXhXhXhXhX",
"l. X.XXXs.n.OX XN.j.k.k.k.k.k.D $.).].}.$X].].].].].].}.H.&.).}.].].].].].{.% 9 8 ! v. XoX.XXX.X.XXX.XZ..XoXoXoXh.U I hXhXhXhXhX",
"q.W..XXXn.i.D.Z.k.k.k.k.j.k.p.&.[.;X%X;X>X>X-X>X:X;X].].}.}.].].|.].].#X{.G X f.w.W i.n.B.A.W.B.B.Z. XC.B.B.B.V.V.5X~ f a hXhXhX",
"l S..X.XA.0.q.5Xk.k.k.k.k./ P.-XrXrXrXtXaXaXaXaXpXrX>X&X].].}.Y.R.!.|.}.L.X P Q i.C.h.v.B.A.W.B.B.Z.W.oXZ.B.Z.x.s.9.0.0.L       ",
"l S.oXV.x.t.Q e.k.k.k.k./ m.@XyXaXpXaXuXpXpXpXuXpXaXaXtXrX%X|.R.j.m.|.$X).X W q.W..XwX.X.X.X.X.XoXoX.X.XW.oXB.c.t.r.e.y.Q d 7   ",
"> h.c.x.k.l.f.f.4Xk.g.q R.Q..X0XsXpXuXuXuXuXuXuXpXpXpXpXpX>X%X`.Y.`.U.p.n.q.n.A..X.X.X.X.X.X.X.X.X.X.X.XoXoXc.4Xk.4X~ 0 , * * hX",
"X r.d.k.k.k.k.k.k.s.m V W..X.XeXuXpXuXpXuXuXiXuXuXpXuXuXaXuX-X].].].K.U k.l.XX.X.X.X.X.X.X.X.X.X.X.X.X.XW.5Xd.d.k.P + hXhXhXhXhX",
"hXhX+ ~ 4X4Xd.k.t.f c sXsX+XOXeXpXuXuXuXuXuXuXpXuXuXuXuXuXyX-X].$XK.E d.k.l..X.X.X.X.X.X.X.X.X.X.XW.x.x.x.k.8 X hXhXhXhXhXhXhXhX",
"hXhX  ~ 4Xd.4X4X/ ) sXtXpXtXuXpXuXuXuXpXiXuXiXuXuXpXiXyX0XXXY.'._.a.Q k.k.x.A..X.X.X.X.X.X.X.X.X.XA.x.k.k.l.9 hXhXhXhXhXhXhXhXhX",
"hXhX  P f.4X4X4XT 6 aXpXuXpXpXpXpXpXaXaXiXiXuXuXuXuXeX+XXXoX5X!.K.Y k.k.k.k.k.A..X.X.X.X.X.X.X.XV.k.k.k.k.~ hXhXhXhXhXhXhXhXhXhX",
"hXhXhXhXP ^ r.u.h H tXpXuXuXpXaXeXdXeXeXeXeXuXuXuXuXOX.XZ.Z.C.Y.a.Y l.k.k.k.k.k.B..XoXA.A.Z.A.N.k.k.k.d.~ + hXhXhXhXhXhXhXhXhXhX",
"hXhXhXhXhXX 8 9 y &X:XaXaXaXpXeX+X.X.X.X XqXaXaXuXuXqX@XE.R.`.}.U.p.e.k.k.k.k.k.d.N.V.c.d.k.k.k.k.k.k.j.+ hXhXhXhXhXhXhXhXhXhXhX",
"hXhXhXhXhXhXhX  y $X#X>XpXpXaXwX.X.X.X.X.X+XaXaXaXpX,X&X|.|.}.}.U.F U k.k.k.k.k.k.k.k.k.k.k.k.k.k.k.d.g + hXhXhXhXhXhXhXhXhXhXhX",
"hXhXhXhXhXhXhXhXt $X].].-X1XtX0X.X.X.X.X0XsXaXtX-X-X].].].].].|.T.D d x.k.k.k.k.k.k.k.k.k.k.k.k.k.k.f.X hXhXhXhXhXhXhXhXhXhXhXhX",
"hXhXhXhXhXhXhXhXy $X].].].$X;X#XD.c.c.c.Q.=X-X%X].].].].].].].].&X*., l.k.k.k.k.k.k.k.k.k.k.k.k.g.9 hXhXhXhXhXhXhXhXhXhXhXhXhXhX",
"hXhXhXhXhXhXhXhXhXv `.D.'.].].}.`.`.Y.`.'.].].].$X].].].].].].].$XI.T 8 k.k.k.k.k.k.k.k.d.k.~ & & hXhXhXhXhXhXhXhXhXhXhXhXhXhXhX",
"hXhXhXhXhXhXhXhXhX3 `.l.M.'.].].].}.|.|.#X].].].].|.].].].].].$X!.x.k.T , g.f.f.d.k.d.d.g + + hXhXhXhXhXhXhXhXhXhXhXhXhXhXhXhXhX",
"hXhXhXhXhXhXhXhXhX3 U.M.M.'.].].].].].].].].|.].`.`.].].].].].].E.d.T     X X + ~ k.8 X     hXhXhXhXhXhXhXhXhXhXhXhXhXhXhXhXhXhX",
"hXhXhXhXhXhXhXhXhXhX3 P.].].].].].].|.#X].].[.!.k.v.'.].].].$X&XI.s   hXhXhXhXhX  hXhXhXhXhXhXhXhXhXhXhXhXhXhXhXhXhXhXhXhXhXhXhX",
"hXhXhXhXhXhXhXhX. 3 v 2 *.].%X].}.].].}.].}.Y.k.k.k.'.$X$X&XJ.F.v hXhXhXhXhXhXhXhXhXhXhXhXhXhXhXhXhXhXhXhXhXhXhXhXhXhXhXhXhXhXhX",
"hXhXhXhXhXhXhX# 6 V v 3 X G H {.$X%X$X$X$X&X'.Q.Q.Q.#X&.G =.6   hXhXhXhXhXhXhXhXhXhXhXhXhXhXhXhXhXhXhXhXhXhXhXhXhXhXhXhXhXhXhXhX",
"hXhXhXhXhXhXhX1 Z b 1 hXhXhXhXv B B B B N N N B B B N % hXhXhXhXhXhXhXhXhXhXhXhXhXhXhXhXhXhXhXhXhXhXhXhXhXhXhXhXhXhXhXhXhXhXhXhX",
"hXhXhXhXhXhX4 S V t   hXhXhXhXhXhXhXhXhXhXhXhXhXhXhXhXhXhXhXhXhXhXhXhXhXhXhXhXhXhXhXhXhXhXhXhXhXhXhXhXhXhXhXhXhXhXhXhXhXhXhXhXhX",
"hXhXhXhXhX  t -.C @ hXhXhXhXhXhXhXhXhXhXhXhXhXhXhXhXhXhXhXhXhXhXhXhXhXhXhXhXhXhXhXhXhXhXhXhXhXhXhXhXhXhXhXhXhXhXhXhXhXhXhXhXhXhX",
"hXhXhXhXhX  t -.C   hXhXhXhXhXhXhXhXhXhXhXhXhXhXhXhXhXhXhXhXhXhXhXhXhXhXhXhXhXhXhXhXhXhXhXhXhXhXhXhXhXhXhXhXhXhXhXhXhXhXhXhXhXhX",
"hXhXhXhXhXhX. 3 A %.%.V hXhXhXhXhXhXhXhXhXhXhXhXhXhXhXhXhXhXhXhXhXhXhXhXhXhXhXhXhXhXhXhXhXhXhXhXhXhXhXhXhXhXhXhXhXhXhXhXhXhXhXhX",
"hXhXhXhXhXhXhXhX< -.*.Z hXhXJ.J.P.J.J.J.P.hXhXhXhXhXhXhXhXhXhXhXhXhXhXhXhXhXhXhXhXhXhXhXhXhXhXhXhXhXhXhXhXhXhXhXhXhXhXhXhXhXhXhX",
"hXhXhXhXhXhXhXhX# V -.%.V =.-XtXpX1X<X<X'.H.=.hXhXhXhXhXhXhXhXhXhXhXhXhXhXhXhXhXhXhXhXhXhXhXhXhXhXhXhXhXhXhXhXhXhXhXhXhXhXhXhXhX",
"hXhXhXhXhXhXhXhXhX; A &.*.*XtXuXaXtX>X=X=X:X*X&.hXhXhXhXhXhXhXhXhXhXhXhXhXhXhXhXhXhXhXhXhXhXhXhXhXhXhXhXhXhXhXhXhXhXhXhXhXhXhXhX",
"hXhXhXhXhXhXhXhXhXhX@ Z ].uXpXpXaX1X%X$X].#X&X#XF.&.v . hXhXhXhXhXhXhXhXhXhXhXhXhXhXhXhXhXhXhXhXhXhXhXhXhXhXhXhXhXhXhXhXhXhXhXhX",
"hXhXhXhXhXhXhXhXhXhXhXZ P.>XuXpXrX<X=X&X%X].}.].$X$X$X=.B F.v hXhXhXhXhXhXhXhXhXhXhXhXhXhXhXhXhXhXhXhXhXhXhXhXhXhXhXhXhXhXhXhXhX",
"hXhXhXhXhXhXhXhXhXhXhXhXV #X,XrX<X<X=X=X&X].].].].].].&X&X=.hXhXhXhXhXhXhXhXhXhXhXhXhXhXhXhXhXhXhXhXhXhXhXhXhXhXhXhXhXhXhXhXhXhX",
"hXhXhXhXhXhXhXhXhXhXhXhXhX&.[.%X%X#X$X#X%X|.#X].].].].v 6 ; hXhXhXhXhXhXhXhXhXhXhXhXhXhXhXhXhXhXhXhXhXhXhXhXhXhXhXhXhXhXhXhXhXhX",
"hXhXhXhXhXhXhXhXhXhXhXhXhXhX5 L.].].]._._._.'._.).6 2 hXhXhXhXhXhXhXhXhXhXhXhXhXhXhXhXhXhXhXhXhXhXhXhXhXhXhXhXhXhXhXhXhXhXhXhXhX",
"hXhXhXhXhXhXhXhXhXhXhXhXhXhXhX# # F.G # $ $ ; $ $ hXhXhXhXhXhXhXhXhXhXhXhXhXhXhXhXhXhXhXhXhXhXhXhXhXhXhXhXhXhXhXhXhXhXhXhXhXhXhX"
};
