/* XPM */
static char *_71ac797f3714958df6753debfb27392A5TqvFEO0Ua1xcVC[] = {
/* columns rows colors chars-per-pixel */
"16 16 216 2 ",
"   c black",
".  c #28754F",
"X  c #163B24",
"o  c #1D6B45",
"O  c #236344",
"+  c #153B27",
"@  c #153422",
"#  c #9FFFFC",
"$  c #12452C",
"%  c #54A776",
"&  c #50A372",
"*  c #5B7247",
"=  c #443B1B",
"-  c #489866",
";  c #96702D",
":  c #806B2D",
">  c #095E36",
",  c #10633A",
"<  c #7FB592",
"1  c #123223",
"2  c #224D3A",
"3  c #11160D",
"4  c #4DAD81",
"5  c #6A5427",
"6  c #C2FFFF",
"7  c #214836",
"8  c #09130E",
"9  c #B78C3C",
"0  c #F5D15C",
"q  c #50552D",
"w  c #0E1F17",
"e  c #181309",
"r  c #201A0C",
"t  c #594A23",
"y  c #FFFF72",
"u  c #1F6E47",
"i  c #458E5F",
"p  c #6AB277",
"a  c #71B677",
"s  c #4C8D59",
"d  c #74622D",
"f  c #51542C",
"g  c #292D18",
"h  c #0B0000",
"j  c #1A603E",
"k  c #2E6F4E",
"l  c #6B9D62",
"z  c #6F8D54",
"x  c #3D8059",
"c  c #285F3F",
"v  c #062B1B",
"b  c #2D805A",
"n  c #65B076",
"m  c #438F68",
"M  c #2B6346",
"N  c #205538",
"B  c #0F412A",
"V  c #7B2B0A",
"C  c #7C6C3C",
"Z  c #644625",
"A  c #62280E",
"S  c #4E4622",
"D  c #4C411E",
"F  c #459C6F",
"G  c #41A675",
"H  c #B1471D",
"J  c #AB4F24",
"K  c None",
"L  c #682E11",
"P  c #644C1F",
"I  c #60481E",
"U  c #227447",
"Y  c #60A366",
"T  c #4F905B",
"R  c #B7471F",
"E  c #CB6F43",
"W  c #A34B22",
"Q  c #100000",
"!  c #5D441B",
"~  c #523C17",
"^  c #6DB477",
"/  c #5B9F6A",
"(  c #325B40",
")  c #955333",
"_  c #81491F",
"`  c #211F0F",
"'  c #504A23",
"]  c #374A27",
"[  c #00693A",
"{  c #75B878",
"}  c #539165",
"|  c #A3934D",
" . c #6F6B34",
".. c #386B47",
"X. c #69A165",
"o. c #6FB06F",
"O. c #62A86C",
"+. c #398156",
"@. c #0D2B1F",
"#. c #559866",
"$. c #357C59",
"%. c #0E2F1F",
"&. c #285B45",
"*. c #3D8865",
"=. c #3B7C5B",
"-. c #1B3E30",
";. c black",
":. c #000007",
">. c #283B25",
",. c #B3A352",
"<. c #3C8664",
"1. c #1A3C2E",
"2. c black",
"3. c #75763D",
"4. c #63804D",
"5. c #2E6C52",
"6. c #3A8261",
"7. c #295C44",
"8. c #1E4232",
"9. c #3C2F15",
"0. c #453A1C",
"q. c #8C7835",
"w. c #AD923E",
"e. c #958E45",
"r. c #818848",
"t. c #8C7834",
"y. c #454B29",
"u. c black",
"i. c #4A3918",
"p. c #644D21",
"a. c #988041",
"s. c #A99047",
"d. c #7B632D",
"f. c black",
"g. c #6F5827",
"h. c #CFBD69",
"j. c #EBD470",
"k. c #D5B754",
"l. c #A28A3D",
"z. c #635425",
"x. c black",
"c. c #726231",
"v. c #B39F50",
"b. c #A0883B",
"n. c #6A5A27",
"m. c #58A06E",
"M. c #7DBD79",
"N. c #619D65",
"B. c #87C47D",
"V. c #7DBC78",
"C. c #84C37C",
"Z. c #73BD7E",
"A. c #608D5A",
"S. c #477750",
"D. c #457F58",
"F. c #2B5940",
"G. c #211710",
"H. c #231F10",
"J. c #4B4223",
"K. c #322311",
"L. c #614335",
"P. c #483619",
"I. c #514435",
"U. c #834B30",
"Y. c #7CBC79",
"T. c #AF5B34",
"R. c #AD5A30",
"E. c #AD5A35",
"W. c #B86630",
"Q. c #71B576",
"!. c #55AB7B",
"~. c #CDA959",
"^. c #D3A34F",
"/. c #C0944D",
"(. c #CCA849",
"). c #4DA273",
"_. c #4F966B",
"`. c #96B671",
"'. c #F1E78A",
"]. c #F7EE90",
"[. c #F5E989",
"{. c #DBCC6A",
"}. c #A7AC57",
"|. c #618F59",
" X c #78B875",
".X c #88C47C",
"XX c #85C27C",
"oX c #67AE76",
"OX c #92A467",
"+X c #E4E78F",
"@X c #E5E991",
"#X c #F0ED93",
"$X c #E0E790",
"%X c #B1C370",
"&X c #6B9D5F",
"*X c #5CAE7B",
"=X c #84C17B",
"-X c #80C07B",
";X c #60AD79",
":X c #DEDA7C",
">X c #9CC679",
",X c #D1D77E",
"<X c #E0D06D",
"1X c #C8B956",
"2X c #679157",
"3X c #46A179",
"4X c #52A97B",
"5X c #4CA076",
"6X c #C4B556",
"7X c #D2BD57",
"8X c #D0BD58",
"9X c #CABA58",
"0X c #D4B751",
"qX c #C7AE51",
"wX c #BBA046",
"eX c white",
/* pixels */
"  . u i p a s d f g h X o       ",
"  O j k m.M.l z N.x c v + @     ",
"    # b n B.V.C.Z.m M N B $     ",
"% & * V C A.S.D.F.Z A S D =     ",
"- F G H J G.H.J.K.K L P I ;     ",
"U Y T R E L.P.I.U.W Q ! ~ : > , ",
"^ Y./ ( ) T.R.E.W._ ` ' ] [ < 1 ",
"{ Q.!.} | ~.^./.(. ...X.o.O.+.@.",
"#.)._.`.'.].[.{.}.|. X.XXXoX$.%.",
"&.*.OX+X@X#X$X%X&X*X=X-X;X=.-.;.",
":.>.,.:X>X,X<X1X2X3X4X5X<.1.2   ",
"3 2.3.6X7X8X9X0X4.5.6.7.8.4     ",
"5 9.0.q.w.e.r.t.y.u.;.6 7   8   ",
"9 i.p.a.s.d.;.0 q   w           ",
"e f.g.h.j.k.l.z.x.              ",
"r t c.v.qXwXb.n.y               "
};
