/* XPM */
static char *result[] = {
/* columns rows colors chars-per-pixel */
"64 64 224 2 ",
"   c #010100",
".  c #0C0B05",
"X  c #070A08",
"o  c #130803",
"O  c #04130C",
"+  c #161309",
"@  c #1D180B",
"#  c #1A160A",
"$  c #0A1813",
"%  c #181A19",
"&  c #2E0500",
"*  c #240F06",
"=  c #310400",
"-  c #320C02",
";  c #221C0C",
":  c #271A0B",
">  c #391609",
",  c #062A1B",
"<  c #15261B",
"1  c #2A220F",
"2  c #2B2411",
"3  c #292613",
"4  c #342C15",
"5  c #3B2D15",
"6  c #3E3218",
"7  c #31240F",
"8  c #093923",
"9  c #1A3A2B",
"0  c #0F2B22",
"q  c #30362E",
"w  c #4D1707",
"e  c #661300",
"r  c #7D1300",
"t  c #6F0F00",
"y  c #443A1C",
"u  c #4B3D1C",
"i  c #443518",
"p  c #48250D",
"a  c #6A280C",
"s  c #662C11",
"d  c #483320",
"f  c #0B462A",
"g  c #1D4634",
"h  c #0D5C36",
"j  c #185538",
"k  c #164E2E",
"l  c #214A38",
"z  c #25563C",
"x  c #2D4C2A",
"c  c #0E6239",
"v  c #17663D",
"b  c #24653C",
"n  c #58421B",
"m  c #56421B",
"M  c #4A431E",
"N  c #694E1F",
"B  c #7A4219",
"V  c #534422",
"C  c #5C4C26",
"Z  c #50522B",
"A  c #614E25",
"S  c #645329",
"D  c #695627",
"F  c #785B26",
"G  c #536B38",
"H  c #78642D",
"J  c #716D35",
"K  c #285B44",
"L  c #1C6D43",
"P  c #186944",
"I  c #1D7349",
"U  c #2C654B",
"Y  c #2A6849",
"T  c #326547",
"R  c #277649",
"E  c #347546",
"W  c #316D52",
"Q  c #297A54",
"!  c #347758",
"~  c #2E6F53",
"^  c #50764D",
"/  c #657748",
"(  c #787448",
")  c #831600",
"_  c #841900",
"`  c #9C2B09",
"'  c #9C320D",
"]  c #902F0F",
"[  c #A23814",
"{  c #A0350D",
"}  c #8D3824",
"|  c #9A4318",
" . c #AB4419",
".. c #B5471A",
"X. c #BA551F",
"o. c #AF501D",
"O. c #B44B24",
"+. c #BC5228",
"@. c #B75624",
"#. c #A84D27",
"$. c #86652A",
"%. c #987934",
"&. c #8F7332",
"*. c #A67A31",
"=. c #A0762F",
"-. c #97462F",
";. c #C1541E",
":. c #C55A21",
">. c #CA5C22",
",. c #C25A2E",
"<. c #CB6334",
"1. c #D26B39",
"2. c #D66F37",
"3. c #8B7852",
"4. c #9E796F",
"5. c #DD7843",
"6. c #E37E45",
"7. c #2C8358",
"8. c #388457",
"9. c #3A8362",
"0. c #338D63",
"q. c #3B8B66",
"w. c #3B956B",
"e. c #3E9B71",
"r. c #2E8961",
"t. c #3FA37E",
"y. c #468C59",
"u. c #4B935B",
"i. c #4D8352",
"p. c #728B51",
"a. c #42946D",
"s. c #46976B",
"d. c #439C73",
"f. c #4C9C72",
"g. c #4B9164",
"h. c #45A177",
"j. c #46A37A",
"k. c #4AA57B",
"l. c #4CA97E",
"z. c #4CA274",
"x. c #55AA7B",
"c. c #5CAE7B",
"v. c #56A777",
"b. c #5EB17D",
"n. c #6AAB6A",
"m. c #64A669",
"M. c #79AB6A",
"N. c #65AC76",
"B. c #64B27B",
"V. c #6BB57B",
"C. c #6DB57A",
"Z. c #74BA7B",
"A. c #7CBE7C",
"S. c #78B876",
"D. c #75AF6F",
"F. c #7FC37F",
"G. c #99823C",
"H. c #AA8639",
"J. c #B18434",
"K. c #B78836",
"L. c #B6903E",
"P. c #C58D3A",
"I. c #B79846",
"U. c #AC9649",
"Y. c #BEA148",
"T. c #B9B65C",
"R. c #AFB058",
"E. c #96B266",
"W. c #82BD77",
"Q. c #92AF65",
"!. c #ABAC63",
"~. c #8C9B4B",
"^. c #C89C43",
"/. c #EA864D",
"(. c #EF8C52",
"). c #F18E53",
"_. c #F39155",
"`. c #F69458",
"'. c #CCAB49",
"]. c #D6B64F",
"[. c #DCB24C",
"{. c #C8B656",
"}. c #D4BC55",
"|. c #DEBD52",
" X c #C8B054",
".X c #E1BE52",
"XX c #CDBD6B",
"oX c #85C27B",
"OX c #8CC57B",
"+X c #8DC77C",
"@X c #93C97D",
"#X c #94C87C",
"$X c #A0C97D",
"%X c #E2C155",
"&X c #E3C55C",
"*X c #E9C859",
"=X c #E9CD61",
"-X c #E5CB65",
";X c #EDD46B",
":X c #F1DD77",
">X c #EBD871",
",X c #F2E07C",
"<X c #D2CC6C",
"1X c #4CAC81",
"2X c #B1B5B4",
"3X c #A68D87",
"4X c #DABEB5",
"5X c #ACD182",
"6X c #B1D484",
"7X c #9ECD80",
"8X c #C9DB88",
"9X c #DAE48D",
"0X c #E7E48A",
"qX c #F5EB8D",
"wX c #F4E686",
"eX c #F6EF94",
"rX c #F8EF94",
"tX c #FAF095",
"yX c #F8F197",
"uX c #EAEA91",
"iX c #B6C0C0",
"pX c #D4D5D5",
"aX c #E5D1CD",
"sX c None",
/* pixels */
"sXsXsXsXsXsXsXsXsXsXsXsXsXsXsXsXsXsXsXsXsXsXsXsXsXsXsXsXsXsXsXsXsXsXsXsXsXsXsXsXsXsXsXsXsXsXsXsXsXsXsXsXsXsXsXsXsXsXsXsXsXsXsXsX",
"sXsXsXsXsXsXsXsXsXsXsXsXsXsXsXsXx.x.k.sXsXsXsXsXsXsXsXsXsXsXsXsXsXsXsXsXsXsXsXsXsXsXsXsXsXsXsXsXsXsXsXsXsXsXsXsXsXsXsXsXsXsXsXsX",
"sXsXsXsXsXsXsXsXsXsXsXsXsXR E s.S.A.x.b.x.x.c.sXsXsXsXsXsXsXsXsXsXsXsXsXsXsXsXsXsXsXsXsXsXsXsXsXsXsXsXsXsXsXsXsXsXsXsXsXsXsXsXsX",
"sXsXsXsXsXsXsXsXsXsXsX7.7.N.A.oX+X@X+X+X@X+X+XC.y.R sXsXsXsXsXsXH $.$.6 @ 4 sXsXsXsXsXsXsXsXsXsXsXsXsXsXsXsXsXsXsXsXsXsXsXsXsXsX",
"sXsXsXsXsXsXsXsXsXL 7.U Y 7.e.b.C.A.@X@XOXOXOXOXA.8.sXsXD $.J.J.G J A i V F D C ; sXsXsXsXsXsXsXsXsXsXsXsXsXsXsXsXsXsXsXsXsXsXsX",
"sXsXsXsXsXsXsXsXsXsXsXsXsXf 0.1Xl.d.y.u.C.OXOXOXZ.w.E F &.*.G G 7.c 8 , g x x 6 C 4 C X sXsXsXsXsXsXsXsXsXsXsXsXsXsXsXsXsXsXsXsX",
"sXsXsXsXsXsXsXsXsXsXsXsXsXsXg g 9 K r.0.Z.OXOXOX+XF.p.$.$.6 r.0.k.0.0.0.0.0.Y 8 x H C . sXsXsXsXsXsXsXsXsXsXsXsXsXsXsXsXsXsXsXsX",
"sXsXsXsXsXsXsXsXsXsXsXsXsXsX8 j W 9.c.A.OXOXOXOX+X+Xp.u q y.1XB.Z.A.Z.c.l.l.h.0.8.S S y . sXsXsXsXsXsXsXsXsXsXsXsXsXsXsXsXsXsXsX",
"sXsXsXsXsXsXsXsXsXsXsXsXsXh 7.k.k.b.oX+XOXOXOXOX+XZ.8.Y a.7XOXA.+X+X+XoXB.j.k.1Xa.z b S V + sXsXsXsXsXsXsXsXsXsXsXsXsXsXsXsXsXsX",
"sXsXsXsXsXsXsXsXsXsXsXsXsXO ~ l.j.B.+X+XOXOXOXOX+Xy.y.A.A.OXOXOX+X+X+X+XB.k.k.k.j.d.w.b Z # sXsXsXsXsXsXsXsXsXsXsXsXsXsXsXsXsXsX",
"sXsXsXsXsXsXsXsXsXsXsXsXsXh 0.l.j.B.+X+XOXOXoXOXB.C.W.+XOXOX+X+XOXOXOXOXB.k.j.z.h.k.l.h.R Z 3 sXsXsXsXsXsXsXsXsXsXsXsXsXsXsXsXsX",
"sXsXsXsXsXsXsXsXsXsXsXsXsXc 8.j.B.oXOX+XOXOXx.A.OXOXOXOXOXOX+X+XOXoXoXc.k.k.k.q.v q.a.e.j.G Z 3 X sXsXsXsXsXsXsXsXsXsXsXsXsXsXsX",
"sXsXsXsXsXsXsXsXsXsXsXsXsXsXc 7.h.c.oX+XOXOXb.A.OXOXOXOX#X#X+XW.A.v.k.k.k.l.d.T * o . L d.7.R P c sXsXsXsXsXsXsXsXsXsXsXsXsXsXsX",
"sXsXsXsXsXsXsXsXsXsXsXsXsXsXsXk E e.c.+XOXOXOX+XOXOXOXOX$X1XZ.k.k.k.k.k.k.h.T a ..] . W ! ! ! j f f sXsXsXsXsXsXsXsXsXsXsXsXsXsX",
"sXsXsXsXsXsXsXsXsXsXsXsXsXsXsX` B E e.A.OXOX+X+X#X$XW.Z.B.d.1X1Xk.l.l.l.d.P M >.;.X.p -     : p ;   sXsXsXsXsXsXsXsXsXsXsXsXsXsX",
"sXsXsXsXsXsXsXsXsXsXsXsXsXsX) [ >.o.G 0.C.OX+XA.A.1Xb.k.1Xd.r.1Xl.0.Y K k O p >.;.>.>.[ >   N K.u   sXsXsXsXsXsXsXsXsXsXsXsXsXsX",
"sXsXsXsXsXsXsXsXsXsXsXsXsXsX{ ..;.>.X.J l.V.V.0.K g j l l j h g g ,         >  .:.:.:.:.*   A =.$.N sXsXsXsXsXsXsXsXsXsXsXsXsXsX",
"sXsXsXsXsXsXsXsXsXsXsXsXsX)  .>.>.;.X.] g 9 9 ,           . Z 6 6 6 .       = ` :.:.:.X.* sXS $.*.&.S sXsXsXsXsXsXsXsXsXsXsXsXsX",
"sXsXsXsXsXsXsXsXsXsXk.l.sX)  .>.>.>...e                 # V S S S D +       = ` >.:.:.:.* sX+ A *.F + sXsXsXsXsXsXsXsXsXsXsXsXsX",
"sXsXsXsXsXsXsXsXsXsXA.R a  .2.2.>.>.| o             3 V V S S S S S V V ;   p ;.:.:.X.> sXsX  n J.N   sXsXsXsXsXsXsXsXsXsXsXsXsX",
"sXsXsXsXsXsXsXsXR v.S.b a 1.)././.+.e X .         4 S S S S S u C S S S 1 = ' :.:.X.o.. sXsX  n J.N   sXsXsXsXsXsXsXsXsXsXsXsXsX",
"sXsXsXsXsXsXsXy.OXS.v sX) 1.).(._.5.e d pXX     y S S S S S u % . u @     s >.>. .. o sXsXsX  n J.N   sXsXsXsXsXsXsXsXsXsXsXsXsX",
"sXsXsXsXL v u.OX+XM.< sX) <./.(._.5.-.2XpX$     d S S S d   % 2Xq   o o w <./.>.|     sXsXsX  n J.N   sXsXsXsXsXsXsXsXsXsXsXsXsX",
"sXsXsXsXx.C.OXOX+X+XW.< sX) <.`././.1.} 2XX     M D S S d   % iXiX% e r +.(.(.1._ sXsXsXsXsX  n J.N   sXsXsXsXsXsXsXsXsXsXsXsXsX",
"sXsXsXsXW.+X+XOXOXOXoXQ sXr <.`.(.(.5.-.4.& X   3 d 6 y 3   % iX3X> ] [ 5._.).,._ sXsXsXsXsX  n J.N   sXsXsXsXsXsXsXsXsXsXsXsXsX",
"sXsXsXb.A.W.A.+XOXOXOXv.8 w O.5._._.`.6. .#.> = = & & & = = p 4.#.#.6.).(.6.<.[ sXsXsXsXsXsX7 F J.D   sXsXsXsXsXsXsXsXsXsXsXsXsX",
"sXsXB.oX#XB.b.+X+XoXB.k.0.0 sX .,.+.5.(.`.).,.+.+.+.+.+.;.+.+.,.(._.6.5.<...` sXsXsXsXsXsX  N K.$.5 sXsXsXsXsXsXsXsXsXsXsXsXsXsX",
"sXk.A.+XOXA.A.+XOXOXZ.k.j.W P 1 = & w O.O.+.6._._._._.`._._./.2.O.O.[ ` @.s & sXsXsXsXsXsX2 $.J x , sXsXsXsXsXsXsXsXsXsXsXsXsXsX",
"sXk.A.OXOXS.C.+XOXoXB.k.k.l.e.! ~ 9 o ) ) ) 6.).(.).(.(.(.(.6.,._ r r r P.H   sXsXc v S.k k p.M.m.u.c c c c c sXsXsXsXsXsXsXsXsX",
"sXk.A.+X+XV.B.+X+XoXk.k.k.k.l.l.1Xg.7 d 4X4X#.[ [ [ [ [ [ [ ' ] > J.P.P.[.H   sX, s.n.+XS.n.S.+XOXS.m.n.n.n.n.R c sXsXsXsXsXsXsX",
"sXk.A.+X+Xu.y.@XA.x.k.k.k.k.k.l.^ &. XU.3.3.^.^.^.^.'.=.3.aX4X=.I.].|.%X%X'.H 0 s.A.+X+X#X+X+XOX+X+XOX+X+X+XOXz.e.g   X   sXsXsX",
"v S.+X+X@Xu.8.A.v.j.k.k.k.k.l.^ S 3.%X|.'.].|.|.}..X.X|.I.( 3.[..X|.|.].|.H g a.e.b R z.A.C.x.x.x.x.x.v.x.x.x.S.v.a.q.q.q.sXsXsX",
"v n.OX@XOXg.! 1Xf.k.k.k.k.j.1X^ %.].|.|.|.|.|.|.|.|.|.|.].].}.|.|.|.%Xm b z l s.Q v.W.v.x.A.W.OXoXoXoXOXOXoXA.8.P I L I j O O sX",
"c j m.W.B.1Xd.w.Q k.k.k.k.l.d./ U.&X%X%X&X&X&X&X&X&X|.|.|.|.|.|..X|.%XM f L y.+X+XW.OXOXOXOXOXOX+XOXOXOX+XW.x.j.j.w.9.9.~ f f   ",
"sX  9.1Xj.j.1Xf.k.k.k.k.k.s.( Y.;X:X:X,XtXeXtXeXeXwX;X&X%X|.|.|.|.T.R.i.0.x.C.+XOXOXOXOXOXOXOXOXOXOXOXOXZ.l.l.k.q.9           sX",
"sX  K a.k.k.d.1Xj.0.z.l.g./ !.wXtXeXeXeXeXtXeXeXeXeXtXqX>X-X-X}..Xc.v 0.k.V.+XOXOXOXOXOXOXOXOXOXOXOXOXV.z.j.! W < sXsXsXsXsXsXsX",
"sXsX  W 1X1Xd.1Xd.7.j.U / W.OX5X9XtXrXrXeXeXeXeXtXeXeXeXyXyXqX&X~.z.0.a.l.V.+XOXOXOXOXOXOXOXOXOXOXW.V.j.k.d.O   sXsXsXsXsXsXsXsX",
"sXsX  W 1X1X1Xd.k.z.^ 4 M.+XOX$X9XtXeXrXeXtXtXeXeXeXeXtXeXeXtX>XR e.k.k.l.B.+XOXOXOXOXOXOXOXOX+X$X1Xj.k.1Xf.$ sXsXsXsXsXsXsXsXsX",
"sXsXsXsXK ~ 1Xd.1Xa.4 !.8X7XW.8XtXeXeXtXeXeXtXeXeXtXeXeXeXyXtX0XY w.k.k.j.V.+X+XOXOXOXOXOXOXZ.B.Z.c.k.a.l sXsXsXsXsXsXsXsXsXsXsX",
"sXsXsXsX  q 1X1Xf./ !.eXyX9X9XuXtXeXeXeXeXeXeXeXeXeXeXtX0X5X6X$Xv d.k.k.k.x.c.C.OXOXOX+X+XC.k.k.k.k.l.q.  sXsXsXsXsXsXsXsXsXsXsX",
"sXsXsXsXsX$ < 0 $ 4 eXyXeXtXtXrXrXrXeXeXeXeXeXeXeXeXtX9X#X+XOXS.v e.l.k.k.k.k.k.c.x.c.c.x.l.k.k.k.k.l.q.  sXsXsXsXsXsXsXsXsXsXsX",
"sXsXsXsXsXsXsXsXsX3 0XyXeXeXtXeXeXeXeXeXeXeXeXeXeXtX8X#X+X+X@XW.R L e.k.k.k.k.k.k.k.k.j.k.k.k.k.k.l.9.$ sXsXsXsXsXsXsXsXsXsXsXsX",
"sXsXsXsXsXsXsXsX1 '.&XwXeXeXtX8X+X#X#X#X#X$XuXeXeXeXuX>X|.}.}.{.E 0.z.j.k.k.k.k.k.k.k.k.k.k.1Xk.f.d.!   sXsXsXsXsXsXsXsXsXsXsXsX",
"sXsXsXsXsXsXsXsX2 |.|.%XwXqXtX6XoXOX+X+X@X#XuXeXqXuX>X.X|.|..X|.'.3 8.l.k.k.k.k.k.k.k.k.k.k.a.z.K X sXsXsXsXsXsXsXsXsXsXsXsXsXsX",
"sXsXsXsXsXsXsXsX2 |.|..X.X-XwX<XW.Z.A.Z.OX0XwXwX&X.X.X|.|.|.|..X}.u Y 9.a.k.k.k.k.j.k.k.l.a.0 z z   sXsXsXsXsXsXsXsXsXsXsXsXsXsX",
"sXsXsXsXsXsXsXsX3 H.}.T.}..X}..XT.D.D.D.M.}.|..X|.|.|.|.|.|.|.|.|.|.D 3 ! 1Xk.1Xl.l.l.k.! < sXsXsXsXsXsXsXsXsXsXsXsXsXsXsXsXsXsX",
"sXsXsXsXsXsXsXsXsX#  Xv.E.}.|.|..X.X.X.X.X|.|.|.|.|.|.|.|..X|.|.|.|.T.B.9.U U U U U U U $ sXsXsXsXsXsXsXsXsXsXsXsXsXsXsXsXsXsXsX",
"sXsXsXsXsXsXsXsXsX@ }.x.t.T..X.X|.|.|.|..X|.|.|.|.%X.X|.|.|..X|.|.|.N.1Xg               sXsXsXsXsXsXsXsXsXsXsXsXsXsXsXsXsXsXsXsX",
"sXsXsXsXsXsXsXsXsX. S E.E.}..X|.|.|.|.|.|.|..X.X!.Q.T.|.|.|..X|.|.}.C.U 0 sXsXsXsXsXsXsXsXsXsXsXsXsXsXsXsXsXsXsXsXsXsXsXsXsXsXsX",
"sXsXsXsXsXsXsXsXsX  4 m '.*X|.|.|.|.|.|.|.|.|.Q.v.t.Q..X|.|.|.|.%X%XZ $ sXsXsXsXsXsXsXsXsXsXsXsXsXsXsXsXsXsXsXsXsXsXsXsXsXsXsXsX",
"sXsXsXsXsXsXsXsX+ u S y 6 I.%X|.|.|.|.|.|.|.|.N.j.h.E.%X%X.X.X].M 6 sXsXsXsXsXsXsXsXsXsXsXsXsXsXsXsXsXsXsXsXsXsXsXsXsXsXsXsXsXsX",
"sXsXsXsXsXsXsXsX+ S C @ sX2 2 &.|.|.].|.|.].|.T.T.T.{.G.2 7 3 3 sXsXsXsXsXsXsXsXsXsXsXsXsXsXsXsXsXsXsXsXsXsXsXsXsXsXsXsXsXsXsXsX",
"sXsXsXsXsXsXsX7 $.D C . sXsXsX@ ; ; ; ; ; ; ; ; ; ; ; @ sXsXsXsXsXsXsXsXsXsXsXsXsXsXsXsXsXsXsXsXsXsXsXsXsXsXsXsXsXsXsXsXsXsXsXsX",
"sXsXsXsXsXsXsX1 =.$.@ sXsXsXsXsXsXsXsXsXsXsXsXsXsXsXsXsXsXsXsXsXsXsXsXsXsXsXsXsXsXsXsXsXsXsXsXsXsXsXsXsXsXsXsXsXsXsXsXsXsXsXsXsX",
"sXsXsXsXsXsXsX  : =.&.: sXsXsXsXsXsXsXsXsXsXsXsXsXsXsXsXsXsXsXsXsXsXsXsXsXsXsXsXsXsXsXsXsXsXsXsXsXsXsXsXsXsXsXsXsXsXsXsXsXsXsXsX",
"sXsXsXsXsXsXsXsX+ V *.*.D sXsXH.I.I.I.L.L.L.sXsXsXsXsXsXsXsXsXsXsXsXsXsXsXsXsXsXsXsXsXsXsXsXsXsXsXsXsXsXsXsXsXsXsXsXsXsXsXsXsXsX",
"sXsXsXsXsXsXsXsXsX. $.*.$.A H  XwXyXqX,X>X;X'.%.H sXsXsXsXsXsXsXsXsXsXsXsXsXsXsXsXsXsXsXsXsXsXsXsXsXsXsXsXsXsXsXsXsXsXsXsXsXsXsX",
"sXsXsXsXsXsXsXsXsX. i =.H.%.{.wXtXtXqX,X=X=X=X:XU.J &.H M sXsXsXsXsXsXsXsXsXsXsXsXsXsXsXsXsXsXsXsXsXsXsXsXsXsXsXsXsXsXsXsXsXsXsX",
"sXsXsXsXsXsXsXsXsXsX  u F  XwXyXyXtXqX,X*X.X.X&X;XY.Y.*XY.D D D G.3 sXsXsXsXsXsXsXsXsXsXsXsXsXsXsXsXsXsXsXsXsXsXsXsXsXsXsXsXsXsX",
"sXsXsXsXsXsXsXsXsXsXsXsXsXsXU.XXwXtXqX,X>X=X*X|.|.|..X.X.X%X*X|.D sXsXsXsXsXsXsXsXsXsXsXsXsXsXsXsXsXsXsXsXsXsXsXsXsXsXsXsXsXsXsX",
"sXsXsXsXsXsXsXsXsXsXsXsXsXsXV U.;X,X:X;X&X&X;X%X|.|.|.|.*XY.M u sXsXsXsXsXsXsXsXsXsXsXsXsXsXsXsXsXsXsXsXsXsXsXsXsXsXsXsXsXsXsXsX",
"sXsXsXsXsXsXsXsXsXsXsXsXsXsXsXH U.%X%X%X%X|.%X.X|.|.%XG.4 5 sXsXsXsXsXsXsXsXsXsXsXsXsXsXsXsXsXsXsXsXsXsXsXsXsXsXsXsXsXsXsXsXsXsX",
"sXsXsXsXsXsXsXsXsXsXsXsXsXsXsXsX2 D |.].].].].}.]..XH @ sXsXsXsXsXsXsXsXsXsXsXsXsXsXsXsXsXsXsXsXsXsXsXsXsXsXsXsXsXsXsXsXsXsXsXsX",
"sXsXsXsXsXsXsXsXsXsXsXsXsXsXsXsXsXsX@ @ @ @ @ @ @ @ + sXsXsXsXsXsXsXsXsXsXsXsXsXsXsXsXsXsXsXsXsXsXsXsXsXsXsXsXsXsXsXsXsXsXsXsXsX"
};
