/* XPM */
static char *_6a477c7656c4ed9eb4e72ec8ee3fc6eCjBRpszXndGQEDzo[] = {
/* columns rows colors chars-per-pixel */
"16 16 222 2 ",
"   c #10633A",
".  c white",
"X  c #372E16",
"o  c #908142",
"O  c black",
"+  c cyan",
"@  c #27341C",
"#  c #174327",
"$  c #005326",
"%  c #79ECB8",
"&  c #0D331F",
"*  c #635229",
"=  c #297A4C",
"-  c #2A8656",
";  c #6B7A4A",
":  c #334523",
">  c #7E6834",
",  c #53A06B",
"<  c #2E2613",
"1  c #0B3720",
"2  c #15673D",
"3  c #66B48E",
"4  c #184B33",
"5  c #142D21",
"6  c #1B1609",
"7  c #295B44",
"8  c #87FFE0",
"9  c #261D0C",
"0  c #1D4030",
"q  c #3F8D69",
"w  c #030604",
"e  c #332710",
"r  c #193426",
"t  c #020504",
"y  c #060503",
"u  c #857132",
"i  c #0D0A05",
"p  c #1B160A",
"a  c #605224",
"s  c #22704B",
"d  c #489361",
"f  c #6EB67A",
"g  c #6EB578",
"h  c #3E8554",
"j  c #896728",
"k  c #5A4C22",
"l  c #3D2E14",
"z  c #2B1507",
"x  c #1C5F3F",
"c  c #347853",
"v  c #68935A",
"b  c #677D47",
"n  c #4F8151",
"m  c #3F6A45",
"M  c #40492A",
"N  c #231608",
"B  c #2D7E59",
"V  c #304F31",
"C  c #032817",
"Z  c #5F5831",
"A  c #6B4826",
"S  c #374C2E",
"D  c #323F20",
"F  c #003820",
"G  c #4D8A5C",
"H  c #B05122",
"J  c #A94919",
"K  c #5A3A17",
"L  c #6A5122",
"P  c #2C855D",
"I  c #63A86A",
"U  c #618F59",
"Y  c #BE6737",
"T  c #7B3514",
"R  c #473414",
"E  c #5B431A",
"W  c black",
"Q  c #6FB77B",
"!  c #81C07B",
"~  c #70B173",
"^  c #716641",
"/  c #B3623A",
"(  c #B85A2B",
")  c #60391C",
"_  c #575125",
"`  c #565226",
"'  c #004D30",
"]  c #72B576",
"[  c #45966E",
"{  c None",
"}  c #716B36",
"|  c #4F9461",
" . c #70A769",
".. c #6EAD6E",
"X. c #5DA66B",
"o. c #2C6F4C",
"O. c #133827",
"+. c #49875A",
"@. c #2A694B",
"#. c #0E3221",
"$. c #214D3A",
"%. c #3C8A67",
"&. c #2F684E",
"*. c black",
"=. c #1B3323",
"-. c #A89D57",
";. c #377D5D",
":. c #10241B",
">. c #160100",
",. c #8F8843",
"<. c #377C5D",
"1. c #398060",
"2. c #2D654C",
"3. c #173326",
"4. c #1D1307",
"5. c #494423",
"6. c #A49242",
"7. c #CEAD49",
"8. c #B9A94F",
"9. c #9AA357",
"0. c #BB9F45",
"q. c #848241",
"w. c #0C2921",
"e. c black",
"r. c #2E230E",
"t. c #58431D",
"y. c #6C5829",
"u. c #9B8440",
"i. c #897637",
"p. c #524F28",
"a. c #28220F",
"s. c black",
"d. c #59431B",
"f. c #B09A50",
"g. c #EEDD7D",
"h. c #E2C55E",
"j. c #C1A54A",
"k. c #897533",
"l. c #584A21",
"z. c #9E8B48",
"x. c #B9A451",
"c. c #AF9641",
"v. c #806D2F",
"b. c #52461E",
"n. c #5AA06B",
"m. c #82C17A",
"M. c #69B177",
"N. c #88C47B",
"B. c #78B371",
"V. c #80BA76",
"C. c #7BC07E",
"Z. c #4EA376",
"A. c #3B7954",
"S. c #718F59",
"D. c #7EBC79",
"F. c #75B374",
"G. c #60A872",
"H. c #45936A",
"J. c #506643",
"K. c #984E22",
"L. c #273B27",
"P. c #1E2E1F",
"I. c #3E4A2C",
"U. c #2D351F",
"Y. c #491F0B",
"T. c #B56742",
"R. c #29211F",
"E. c #3C3116",
"W. c #4B422D",
"Q. c #4E3725",
"!. c #934620",
"~. c #924A2C",
"^. c #854524",
"/. c #8D4E32",
"(. c #AE5933",
"). c #73B574",
"_. c #5FB07B",
"`. c #C38546",
"'. c #D08941",
"]. c #C07D46",
"[. c #BA8035",
"{. c #4FA374",
"}. c #449E75",
"|. c #6DA06A",
" X c #D8C76A",
".X c #EBD875",
"XX c #E7D16D",
"oX c #DCC15C",
"OX c #9DA453",
"+X c #5B9661",
"@X c #7BBA76",
"#X c #86C37C",
"$X c #82C17C",
"%X c #59A170",
"&X c #619365",
"*X c #B2C87C",
"=X c #F3EE93",
"-X c #F9F196",
";X c #F5EF94",
":X c #CCD680",
">X c #549F6D",
",X c #69B57C",
"<X c #88C37B",
"1X c #7CBE7C",
"2X c #5BA875",
"3X c #EBE78B",
"4X c #C3DA89",
"5X c #DEE48D",
"6X c #E8E083",
"7X c #AFBC65",
"8X c #509161",
"9X c #4CA67B",
"0X c #54AA7C",
"qX c #4A9F75",
"wX c #CCC261",
"eX c #B7BD63",
"rX c #D1C462",
"tX c #DDC25A",
"yX c #E1BE51",
"uX c #8D9751",
"iX c #BCA349",
"pX c white",
/* pixels */
"  . s d f g h j k l z X o O O O ",
"  + x c n.m.v b n m M N @ # O O ",
"  $ % B M.N.B.V.C.Z.A.V C & * O ",
"= - ; Z S.D.F.G.H.J.A S D : > O ",
", F G H K.L.P.I.U.Y.J K L O < O ",
"P I U Y T.R.E.W.Q.!.T R E W 1 2 ",
"Q ! ~ ^ / ~.^./.(.( ) _ ` ' 3 4 ",
"] )._.[ { `.'.].[.} |  ...X.o.O.",
"+.{.}.|. X.XXXoXOX+X@X#X$X%X@.#.",
"$.%.&X*X=X-X;X:X>X,X<X1X2X&.*.W ",
"O =.-.3X4X5X6X7X8X9X0XqX;.:.5 O ",
"6 >.,.wXeXrXtXyXuX<.1.2.3.7 8 O ",
"9 4.5.6.7.8.9.0.q.w.e.. 0 q w O ",
"e r.t.y.u.i.p.a.s.r O t t O O O ",
"y s.d.f.g.h.j.k.l.u O O O O O O ",
"i p O z.x.iXc.v.b.a O O O O O O "
};
