/* XPM */
static char *_11d9750f2564344b0ba01974eb22914vnSacRNiyrzDtuXv[] = {
/* columns rows colors chars-per-pixel */
"16 16 223 2 ",
"   c #1E734A",
".  c #44371B",
"X  c black",
"o  c #080703",
"O  c #186C43",
"+  c #776632",
"@  c #1A6E45",
"#  c #246F4B",
"$  c #2F2C16",
"%  c #5D4C25",
"&  c #000001",
"*  c #3B8A57",
"=  c #4E401F",
"-  c #B5EE9E",
";  c #372C15",
":  c #173521",
">  c #010002",
",  c #47A57A",
"<  c #0B2619",
"1  c #0B1812",
"2  c #050B08",
"3  c #11251C",
"4  c #0E2018",
"5  c #52441F",
"6  c #1E4231",
"7  c #0B1913",
"8  c #54401B",
"9  c #368364",
"0  c #07110C",
"q  c #241C0C",
"w  c #3D3015",
"e  c #302510",
"r  c #8E7935",
"t  c #166D47",
"y  c #388457",
"u  c #549F69",
"i  c #74BA7B",
"p  c #66B077",
"a  c #317C4E",
"s  c #7E5E26",
"d  c #53431E",
"f  c #291F0E",
"g  c #2D190A",
"h  c #136740",
"j  c #276544",
"k  c #3B7C58",
"l  c #618650",
"z  c #536537",
"x  c #477549",
"c  c #34603E",
"v  c #373C21",
"b  c #2E2411",
"n  c #1C6344",
"m  c #49986C",
"M  c None",
"N  c #434827",
"B  c #211E0F",
"V  c #00554B",
"C  c #3F8257",
"Z  c #595532",
"A  c #305336",
"S  c #26311B",
"D  c #390000",
"F  c #398853",
"G  c #5A935E",
"H  c #955B2C",
"J  c #A64819",
"K  c #392611",
"L  c #674F21",
"P  c #443518",
"I  c #4F9E6B",
"U  c #6EB271",
"Y  c #672A0E",
"T  c #271807",
"R  c #62471B",
"E  c #1C0900",
"W  c #74B97B",
"Q  c #9E562A",
"!  c #44653C",
"~  c #578851",
"^  c #606F3B",
"/  c #407849",
"(  c #246845",
")  c #0D1613",
"_  c #69AB6F",
"`  c #528051",
"'  c #6BB071",
"]  c #61AB72",
"[  c #2F7854",
"{  c #133927",
"}  c #387554",
"|  c #49946B",
" . c #285F46",
".. c #0A2417",
"X. c #0F2E24",
"o. c #467956",
"O. c #45956E",
"+. c #214B39",
"@. c black",
"#. c #8B7B3E",
"$. c #3F8D69",
"%. c #2E674D",
"&. c #020302",
"*. c #857231",
"=. c #BBB45A",
"-. c #3C7453",
";. c #2A6048",
":. c #1C3F2F",
">. c black",
",. c #3D3317",
"<. c #54522B",
"1. c #A38C3E",
"2. c #BE9F43",
"3. c #A19A4B",
"4. c #899652",
"5. c #A7903F",
"6. c #79763B",
"7. c #24503C",
"8. c #3D2E14",
"9. c #58441D",
"0. c #625026",
"q. c #9F8945",
"w. c #917A39",
"e. c #5F5227",
"r. c #211C0D",
"t. c black",
"y. c #1E170A",
"u. c #4F3B17",
"i. c #988243",
"p. c #EDDD80",
"a. c #E5C962",
"s. c #D5B752",
"d. c #AB9240",
"f. c #675827",
"g. c black",
"h. c #978545",
"j. c #B9A655",
"k. c #B19742",
"l. c #907B35",
"z. c #3E3517",
"x. c #66AA70",
"c. c #84C17A",
"v. c #80BE7A",
"b. c #7BBB78",
"n. c #67A166",
"m. c #78AF6F",
"M. c #7CBF7D",
"N. c #357651",
"B. c #73B273",
"V. c #7BBE7C",
"C. c #7CBD7B",
"Z. c #6FB67A",
"A. c #52A274",
"S. c #4D7954",
"D. c #755E35",
"F. c #294E37",
"G. c #2F4C33",
"H. c #405D3B",
"J. c #283A25",
"K. c #653214",
"L. c #78A365",
"P. c #BC6F3D",
"I. c #BA6640",
"U. c #382E28",
"Y. c #433618",
"T. c #4A412D",
"R. c #543A27",
"E. c #9E4920",
"W. c #7FBE7A",
"Q. c #6FB679",
"!. c #7A8358",
"~. c #BD6F47",
"^. c #9A5435",
"/. c #804120",
"(. c #894C33",
"). c #B5653C",
"_. c #62AB71",
"`. c #50A879",
"'. c #4E946A",
"]. c #8F824F",
"[. c #C49753",
"{. c #C58E46",
"}. c #B7885D",
"|. c #A28342",
" X c #7ABB78",
".X c #479F76",
"XX c #439C73",
"oX c #7C9B60",
"OX c #DCC25F",
"+X c #E6CF68",
"@X c #E3C962",
"#X c #C0AF55",
"$X c #719B5C",
"%X c #75B574",
"&X c #8BC47B",
"*X c #8AC47B",
"=X c #74B97B",
"-X c #84A269",
";X c #C7D683",
":X c #F8EE92",
">X c #F8EF94",
",X c #A7C176",
"<X c #47A175",
"1X c #6BB67C",
"2X c #7ABC7B",
"3X c #68B57C",
"4X c #E9D87A",
"5X c #DDE48C",
"6X c #C1DA88",
"7X c #E7E78E",
"8X c #EFE588",
"9X c #A5B363",
"0X c #4D8F64",
"qX c #49A379",
"wX c #49A077",
"eX c #CCC261",
"rX c #B4BD63",
"tX c #D6C662",
"yX c #DAC25B",
"uX c #DDBB51",
"iX c #99994E",
"pX c #BCA34A",
"aX c white",
/* pixels */
"  t y u i p a s d f g . X o X X ",
"O h j k x.c.l z x c v b + X X X ",
"@ # n m v.b.n.m.M.M N.N B $ % X ",
"& * V C B.V.C.Z.A.S.Z A S D = X ",
"- F G H D.F.G.H.J.K.J K L P ; X ",
"I U L.P.I.U.Y.T.R.E.Y T R E : > ",
"W W.Q.!.~.^./.(.).Q ! ~ ^ / ( ) ",
"_ _.`.'.].[.{.}.|.` '  X X] [ { ",
"} .XXXoXOX+X@X#X$X%X&X*X=X|  ...",
"X.o.-X;X:X>X:X,X<X1X2X3XO.+., < ",
"@.#.4X5X6X7X8X9X0XqXwX$.%.&.1 2 ",
"@.*.=.eXrXtXyXuXiX-.;.:.>.3 4 X ",
"5 ,.<.1.2.3.4.5.6.7.X 6 2 7 X X ",
"8 8.9.0.q.w.e.r.t.9 X 0 X X X X ",
"q y.u.i.p.a.s.d.f.g.X X X X X X ",
"w e @.h.j.pXk.l.z.r X X X X X X "
};
