/* XPM */
static char *dfbfc206d4c84665b272961ddfcb5a78yWZveo0UAoR5431o[] = {
/* columns rows colors chars-per-pixel */
"16 16 222 2 ",
"   c #17693E",
".  c black",
"X  c #378553",
"o  c #00F7B6",
"O  c #846D37",
"+  c #ABEFA9",
"@  c #51A06C",
"#  c #3C3219",
"$  c #479461",
"%  c #020201",
"&  c #1C422F",
"*  c #0A1611",
"=  c white",
"-  c #113524",
";  c #69A573",
":  c #204735",
">  c #060D09",
",  c #594C22",
"<  c #69EBAF",
"1  c #5A4C21",
"2  c #9FFFFF",
"3  c #0F0D06",
"4  c #2D654B",
"5  c #030605",
"6  c #191509",
"7  c #382B12",
"8  c #1B2C1F",
"9  c #193729",
"0  c #342811",
"q  c #A88F3F",
"w  c #FFD251",
"e  c #4A3F1B",
"r  c #1F1A0D",
"t  c #51401C",
"y  c #72612A",
"u  c #7F6C2F",
"i  c #07603C",
"p  c #58A069",
"a  c #4A734F",
"s  c #2F3620",
"d  c #1F5036",
"f  c #1F2F1A",
"g  c #4A9A65",
"h  c #588556",
"j  c #76562C",
"k  c #873612",
"l  c #3A3016",
"z  c #6A5122",
"x  c #42361A",
"c  c #28794C",
"v  c #69AB6B",
"b  c #736F40",
"n  c #BA5629",
"m  c #612C10",
"M  c #3B2F13",
"N  c #60481D",
"B  c #100C05",
"V  c #58AD7C",
"C  c #6BB173",
"Z  c #687D4F",
"A  c #9B4A21",
"S  c #140000",
"D  c #3F2E10",
"F  c #5D461C",
"G  c black",
"H  c #69B379",
"J  c None",
"K  c #8D622B",
"L  c #346F45",
"P  c #568A53",
"I  c #608A51",
"U  c #478C58",
"Y  c #215A3D",
"T  c #0A1511",
"R  c #5A9C63",
"E  c #5F7F49",
"W  c #2E7552",
"Q  c #123E29",
"!  c #27523A",
"~  c #45966E",
"^  c #4B956B",
"/  c #245740",
"(  c #103925",
")  c #0B1A14",
"_  c #387F5F",
"`  c #327155",
"'  c #284934",
"]  c #8F9E66",
"[  c #387E5E",
"{  c #183528",
"}  c #50421C",
"|  c #D1BE68",
" . c #3D8967",
".. c #224B38",
"X. c #4E411B",
"o. c #ACA14E",
"O. c #4D7950",
"+. c #317256",
"@. c #204836",
"#. c black",
"$. c #666735",
"%. c #C9A949",
"&. c #BAA64C",
"*. c #7F9D5C",
"=. c #C8B453",
"-. c #BAA349",
";. c #445F3C",
":. c black",
">. c #271D0C",
",. c #4F3F1C",
"<. c #54461F",
"1. c #716330",
"2. c #505B36",
"3. c #7E7338",
"4. c #4F401C",
"5. c black",
"6. c #291F0D",
"7. c #654D20",
"8. c #987E3D",
"9. c #E4D47B",
"0. c #E5CA64",
"q. c #C9AD4F",
"w. c #9A8339",
"e. c #5F5124",
"r. c #30230D",
"t. c #96803F",
"y. c #E3D173",
"u. c #9D853A",
"i. c #423818",
"p. c #8B7739",
"a. c #8F7B36",
"s. c #77662D",
"d. c #6C5C28",
"f. c #312A12",
"g. c #81C27D",
"h. c #7DC07C",
"j. c #69B57B",
"k. c #4CA276",
"l. c #3D6241",
"z. c #264D37",
"x. c #265239",
"c. c #193324",
"v. c #7A3D19",
"b. c #2D1A13",
"n. c #211B0E",
"m. c #493D20",
"M. c #372612",
"N. c #853813",
"B. c #80BF7A",
"V. c #C2693D",
"C. c #825541",
"Z. c #463117",
"A. c #5C4835",
"S. c #854A2D",
"D. c #76BB7C",
"F. c #499B70",
"G. c #6E6245",
"H. c #B0603D",
"J. c #A7522C",
"K. c #B05C3A",
"L. c #C37340",
"P. c #6DB173",
"I. c #55A673",
"U. c #49A37A",
"Y. c #64825A",
"T. c #A38C60",
"R. c #B28A49",
"E. c #A89078",
"W. c #AF995E",
"Q. c #5EA269",
"!. c #7BBD7A",
"~. c #7CBF7C",
"^. c #61AC73",
"/. c #439F75",
"(. c #4E996E",
"). c #AC9C4B",
"_. c #DCBD55",
"`. c #DDBF55",
"'. c #C4A852",
"]. c #96974B",
"[. c #60A169",
"{. c #87C37B",
"}. c #8BC57B",
"|. c #7CBE7C",
" X c #489B72",
".X c #77A269",
"XX c #E2D679",
"oX c #F3E586",
"OX c #F2E383",
"+X c #E0CD6A",
"@X c #6AA063",
"#X c #6FB87B",
"$X c #8DC67B",
"%X c #84C17B",
"&X c #56A879",
"*X c #CCDA87",
"=X c #F0ED93",
"-X c #F8F095",
";X c #F9F196",
":X c #C0D484",
">X c #499E71",
",X c #51A97C",
"<X c #63B17B",
"1X c #57AC7C",
"2X c #F0EB8F",
"3X c #BDD887",
"4X c #D4E18C",
"5X c #F3EA8E",
"6X c #C5C76B",
"7X c #679057",
"8X c #459C74",
"9X c #48A37A",
"0X c #D6C663",
"qX c #ABBD67",
"wX c #CAC667",
"eX c #E2C860",
"rX c #E0BF53",
"tX c #C0AA4D",
"yX c #AE9A46",
"uX c #E1C55E",
"iX c #D0B24E",
"pX c white",
/* pixels */
"  . X i p g.h.j.k.a s d f o O . ",
"+ @ g h j l.z.x.c.v.k l z x # . ",
"$ c v b n b.n.m.M.N.m M N B % . ",
"V C B.Z V.C.Z.A.S.A S D F G & * ",
"H J D.F.G.H.J.K.L.K L P I U Y T ",
"R P.I.U.Y.T.R.E.W.E Q.!.~.^.W Q ",
"! ~ /.(.)._.`.'.].[.{.}.|.^ / ( ",
") _  X.XXXoXOX+X@X#X$X%X&X` = - ",
"; ' ] *X=X-X;X:X>X,X<X1X[ { : > ",
", } | 2X3X4X5X6X7X8X9X ...< . . ",
"1 X.o.0XqXwXeXrXtXO.+.@.2 . . . ",
"3 #.$.yX%.&.*.=.-.;.:.4 . 5 . . ",
"6 7 >.,.<.1.2.3.4.5.8 9 . . . . ",
". 0 6.7.8.9.0.q.w.e.q . . . . . ",
". . w r.t.y.uXiXu.i.e . . . . . ",
". r . t p.a.s.d.f.y u . . . . . "
};
