/* XPM */
static char *_936c4396c4242d4bb5a2709cbec98d4PCFm8pJMeosIPM0t[] = {
/* columns rows colors chars-per-pixel */
"16 16 226 2 ",
"   c #10633A",
".  c #63877A",
"X  c #4C4421",
"o  c None",
"O  c #481030",
"+  c #3F5730",
"@  c #81F28E",
"#  c #50AF83",
"$  c #1F311D",
"%  c #635229",
"&  c #196D43",
"*  c #005734",
"=  c #44915D",
"-  c #B8FF91",
";  c #7E6834",
":  c #267F58",
">  c #2E2613",
",  c #98951E",
"<  c #1F4833",
"1  c #0C1E16",
"2  c #5BB684",
"3  c #41916D",
"4  c #040906",
"5  c #554820",
"6  c #152E22",
"7  c #040806",
"8  c #51451E",
"9  c #337255",
"0  c #55BE8E",
"q  c #090703",
"w  c #357758",
"e  c #12291E",
"r  c #A1FFFF",
"t  c #100C05",
"y  c #3E9D78",
"u  c #0D1E16",
"i  c #0B0803",
"p  c #0E0C05",
"a  c #060402",
"s  c #FFFF81",
"d  c #FFFFA8",
"f  c #1B170A",
"g  c #21704B",
"h  c #45905F",
"j  c #6DB579",
"k  c #6FB67A",
"l  c #428D5A",
"z  c #856528",
"x  c #635325",
"c  c #3D2F15",
"v  c #341F0C",
"b  c #1C5F3F",
"n  c #317551",
"m  c #6B9C61",
"M  c #677944",
"N  c #548552",
"B  c #3F6D47",
"V  c #41512F",
"C  c #2D2310",
"Z  c #2B7955",
"A  c None",
"S  c #355738",
"D  c #132F1B",
"F  c #237C54",
"G  c #5B9763",
"H  c #487551",
"J  c #32402B",
"K  c #2F5235",
"L  c #354323",
"P  c black",
"I  c #49975F",
"U  c #668D58",
"Y  c #994F22",
"T  c #873511",
"R  c #4D3A17",
"E  c #6D5222",
"W  c #302813",
"Q  c #5DA870",
"!  c #75B774",
"~  c #88995D",
"^  c #C06334",
"/  c #461B08",
"(  c #37250C",
")  c #5E441A",
"_  c black",
"`  c #59AA75",
"'  c #79BB7A",
"]  c #99662C",
"[  c #315C38",
"{  c #578A52",
"}  c #5C703C",
"|  c #418252",
" . c #256243",
".. c #0D261B",
"X. c #448354",
"o. c #717E42",
"O. c #5CA068",
"+. c #2F7653",
"@. c #103523",
"#. c #1D3F2D",
"$. c #3B8462",
"%. c #4F976B",
"&. c #255742",
"*. c #040E09",
"=. c #28523C",
"-. c #65875B",
";. c #285C45",
":. c #4E401C",
">. c #C7B360",
",. c #449972",
"<. c #347658",
"1. c #10241A",
"2. c #4D3E19",
"3. c #AB9D4A",
"4. c #417653",
"5. c #2E6A4F",
"6. c #275842",
"7. c #0F221A",
"8. c #050000",
"9. c #494624",
"0. c #7D7236",
"q. c #BD9F43",
"w. c #AF9C47",
"e. c #869653",
"r. c #A59242",
"t. c #827A3A",
"y. c #2B5840",
"u. c black",
"i. c #0D0903",
"p. c #523F1B",
"a. c #56421D",
"s. c #978243",
"d. c #9A823E",
"f. c #6C5C2B",
"g. c #2D2713",
"h. c black",
"j. c #3F2F13",
"k. c #705928",
"l. c #DCCC76",
"z. c #EBD36D",
"x. c #D8BA54",
"c. c #B69B44",
"v. c #71602A",
"b. c black",
"n. c #695A2D",
"m. c #B5A255",
"M. c #BCA44D",
"N. c #B59B44",
"B. c #998238",
"V. c #4D421D",
"C. c #579C6A",
"Z. c #82C07A",
"A. c #65AE75",
"S. c #89C47C",
"D. c #79B572",
"F. c #7EB774",
"G. c #7FC17D",
"H. c #3B815B",
"J. c #7DBA77",
"K. c #78B575",
"L. c #62A972",
"P. c #4B976C",
"I. c #40452A",
"U. c #15281C",
"Y. c #20311F",
"T. c #182215",
"R. c #7B3613",
"E. c #502C1E",
"W. c #302311",
"Q. c #554329",
"!. c #623C21",
"~. c #8E3F19",
"^. c #7EBE7B",
"/. c #64AB76",
"(. c #80724F",
"). c #AA603F",
"_. c #964C29",
"`. c #A25B3D",
"'. c #BE7141",
"]. c #64AC72",
"[. c #55A672",
"{. c #4BA277",
"}. c #708455",
"|. c #AF945B",
" X c #BD954A",
".X c #AC926F",
"XX c #C4A65C",
"oX c #7BBC79",
"OX c #7BBB79",
"+X c #64AD74",
"@X c #439F76",
"#X c #59996A",
"$X c #C4B35A",
"%X c #E7CE67",
"&X c #E6CC65",
"*X c #D5B857",
"=X c #A4A551",
"-X c #649E65",
";X c #86C27A",
":X c #8BC57B",
">X c #7ABC7B",
",X c #AAC379",
"<X c #EFEA8F",
"1X c #F8EF94",
"2X c #F7EE93",
"3X c #DDDD83",
"4X c #5EA16B",
"5X c #62B27C",
"6X c #7BBD7B",
"7X c #69B57C",
"8X c #4B9E74",
"9X c #EDE78B",
"0X c #C4DB89",
"qX c #D9E28C",
"wX c #F3E88B",
"eX c #C7CB70",
"rX c #6E9B5D",
"tX c #469D75",
"yX c #4BA47A",
"uX c #CAC061",
"iX c #B9BE62",
"pX c #CCC363",
"aX c #DAC35E",
"sX c #E0BF53",
"dX c #B5A84F",
"fX c white",
/* pixels */
"  . g h j k l z x c v X o o o o ",
"  O b n C.Z.m M N B V C + @ o o ",
"  o # Z A.S.D.F.G.A H.S D $ % o ",
"& * = F G J.K.L.P.H J K L - ; o ",
": P I U Y I.U.Y.T.R.T R E W > o ",
", Q ! ~ ^ E.W.Q.!.~./ ( ) _ < 1 ",
"` ' ^./.(.)._.`.'.] [ { } |  ...",
"X.].[.{.}.|. X.XXXo.O.oXOX+X+.@.",
"#.$.@X#X$X%X&X*X=X-X;X:X>X%.&.*.",
"2 =.-.,X<X1X2X3X4X5X6X7X8X;.3 4 ",
"5 :.>.9X0XqXwXeXrXtXyX,.<.1.6 7 ",
"8 2.3.uXiXpXaXsXdX4.5.6.7.9 0 o ",
"q 8.9.0.q.w.e.r.t.y.u.w e r o o ",
"t i.p.a.s.d.f.g.h.y 7 u o o o o ",
"i o j.k.l.z.x.c.v.b.p o o o o o ",
"a o s n.m.M.N.B.V.d f o o o o o "
};
