/* XPM */
static char *result[] = {
/* columns rows colors chars-per-pixel */
"64 64 237 2 ",
"   c #010000",
".  c #0A0A06",
"X  c #140A04",
"o  c #05130C",
"O  c #1A160A",
"+  c #1D190C",
"@  c #161209",
"#  c #0A1913",
"$  c #1E1F11",
"%  c #240400",
"&  c #2C0500",
"*  c #231C0D",
"=  c #2D1104",
"-  c #361205",
";  c #082618",
":  c #16281B",
">  c #04331E",
",  c #29220E",
"<  c #2C2410",
"1  c #2F2811",
"2  c #332A13",
"3  c #3A2A13",
"4  c #3D3319",
"5  c #363319",
"6  c #3C260F",
"7  c #183829",
"8  c #0A3521",
"9  c #2F2E28",
"0  c #451907",
"q  c #431208",
"w  c #791B03",
"e  c #493D1D",
"r  c #433619",
"t  c #543F19",
"y  c #5C3C17",
"u  c #46240E",
"i  c #682E11",
"p  c #4C3F20",
"a  c #552820",
"s  c #0B4629",
"d  c #1C4B36",
"f  c #095B35",
"g  c #145537",
"h  c #124B2D",
"j  c #224C39",
"k  c #224A37",
"l  c #355A35",
"z  c #29532D",
"x  c #0E6139",
"c  c #12653C",
"v  c #14683F",
"b  c #27653C",
"n  c #54431D",
"m  c #624A1E",
"M  c #464425",
"N  c #534422",
"B  c #5A4C26",
"V  c #54562F",
"C  c #645229",
"Z  c #68572A",
"A  c #715B2A",
"S  c #755623",
"D  c #6A4926",
"F  c #577037",
"G  c #79622C",
"H  c #706D35",
"J  c #2A5D45",
"K  c #235942",
"L  c #1A6C42",
"P  c #1E744B",
"I  c #17734D",
"U  c #1E7C54",
"Y  c #296749",
"T  c #316A4C",
"R  c #25774B",
"E  c #316C51",
"W  c #247B51",
"Q  c #2A7953",
"!  c #347356",
"~  c #367A5B",
"^  c #36795A",
"/  c #30774D",
"(  c #6B524D",
")  c #50784E",
"_  c #746D4F",
"`  c #74746B",
"'  c #871B02",
"]  c #972909",
"[  c #8F320F",
"{  c #A53914",
"}  c #A4350E",
"|  c #9A431C",
" . c #AA451A",
".. c #B4491B",
"X. c #BB531E",
"o. c #A7561F",
"O. c #8D512E",
"+. c #B34822",
"@. c #BE5529",
"#. c #B24F2A",
"$. c #8B692C",
"%. c #83632A",
"&. c #8B7536",
"*. c #997A34",
"=. c #907030",
"-. c #A57A31",
";. c #AF6827",
":. c #C55A22",
">. c #CA5D23",
",. c #C35A27",
"<. c #CC6129",
"1. c #D66F3C",
"2. c #C1551F",
"3. c #8F5D50",
"4. c #877B57",
"5. c #8F7C47",
"6. c #A77C71",
"7. c #9B6E58",
"8. c #E27D45",
"9. c #D87340",
"0. c #2C845A",
"q. c #35875B",
"w. c #328D63",
"e. c #3B8463",
"r. c #3C956C",
"t. c #3E996F",
"y. c #369268",
"u. c #2C8C63",
"i. c #3DA37F",
"p. c #4B9359",
"a. c #54995E",
"s. c #548556",
"d. c #688B51",
"f. c #438E69",
"g. c #47966C",
"h. c #579C63",
"j. c #449C73",
"k. c #479972",
"l. c #528A63",
"z. c #6A9C61",
"x. c #56A26C",
"c. c #45A076",
"v. c #46A37B",
"b. c #4AA57B",
"n. c #4CA97E",
"m. c #4DA374",
"M. c #53AA7C",
"N. c #5CAD7B",
"B. c #5BA874",
"V. c #76AD6E",
"C. c #63AA73",
"Z. c #72AD72",
"A. c #64B27B",
"S. c #6CB57B",
"D. c #6EB77C",
"F. c #73BA7C",
"G. c #7CBE7C",
"H. c #76B775",
"J. c #6BAC6B",
"K. c #9A833B",
"L. c #A78638",
"P. c #B18334",
"I. c #B48C3C",
"U. c #B6913F",
"Y. c #AA913F",
"T. c #91904D",
"R. c #AA9446",
"E. c #B59747",
"W. c #A4904C",
"Q. c #93A256",
"!. c #B9B75B",
"~. c #BCA54B",
"^. c #A5857E",
"/. c #8CB068",
"(. c #95B167",
"). c #82BD77",
"_. c #A8B063",
"`. c #E7834A",
"'. c #EF8B51",
"]. c #F18E53",
"[. c #F59257",
"{. c #F89559",
"}. c #C3A649",
"|. c #CAAB4A",
" X c #D5B54E",
".X c #DCB84F",
"XX c #C9BB59",
"oX c #DEBD52",
"OX c #D5BA54",
"+X c #CFB04C",
"@X c #E1BE52",
"#X c #84C27B",
"$X c #8CC57B",
"%X c #8EC97E",
"&X c #91C77B",
"*X c #93C97D",
"=X c #97C67A",
"-X c #E2C154",
";X c #E3C55A",
":X c #E8C759",
">X c #D2D06F",
",X c #E4CA62",
"<X c #EACE62",
"1X c #ECD269",
"2X c #F1D96E",
"3X c #F2DF79",
"4X c #F1DB73",
"5X c #ECD976",
"6X c #F3E17C",
"7X c #DFC058",
"8X c #3CA581",
"9X c #4CAB80",
"0X c #5EB581",
"qX c #74BD80",
"wX c #7D8687",
"eX c #A89689",
"rX c #AEAEAD",
"tX c #A4A59C",
"yX c #ABD283",
"uX c #B4D685",
"iX c #8FCD80",
"pX c #CBDB87",
"aX c #DADC81",
"sX c #E5DD89",
"dX c #D7E38D",
"fX c #F5E889",
"gX c #F6EF94",
"hX c #FAEF92",
"jX c #F7F095",
"kX c #F9F095",
"lX c #FFF699",
"zX c #EAE68D",
"xX c #D7C3A1",
"cX c #D1CFCB",
"vX c #F4F4F2",
"bX c #DEE5E5",
"nX c None",
/* pixels */
"nXnXnXnXnXnXnXnXnXnXnXnXnXnXnXnXnXnXnXnXnXnXnXnXnXnXnXnXnXnXnXnXnXnXnXnXnXnXnXnXnXnXnXnXnXnXnXnXnXnXnXnXnXnXnXnXnXnXnXnXnXnXnXnX",
"nXnXnXnXnXnXnXnXnXnXnXnXnXnXnXnXnXM.n.nXnXnXnXnXnXnXnXnXnXnXnXnXnXnXnXnXnXnXnXnXnXnXnXnXnXnXnXnXnXnXnXnXnXnXnXnXnXnXnXnXnXnXnXnX",
"nXnXnXnXnXnXnXnXnXnXnXnXnXR / q.A.).N.N.N.N.N.M.nXnXnXnXnXnXnXnXnXnXnXnXnXnXnXnXnXnXnXnXnXnXnXnXnXnXnXnXnXnXnXnXnXnXnXnXnXnXnXnX",
"nXnXnXnXnXnXnXnXnXnXnX0.W x.G.#X&X&X$X$X&X$X&XG.x./ c nXnXnXnXnX$.%.%.A < * nXnXnXnXnXnXnXnXnXnXnXnXnXnXnXnXnXnXnXnXnXnXnXnXnXnX",
"nXnXnXnXnXnXnXnXnXv 0.T J Q r.M.F.F.&X&X&X$X$X$X$XB.c nXnXG *.-.=.F H n 4 D C Z r O nXnXnXnXnXnXnXnXnXnXnXnXnXnXnXnXnXnXnXnXnXnX",
"nXnXnXnXnXnXnXnXnXnXnXnXnX8 0.9Xn.j.p.p.C.G.$X$X#XB.0.Z %.-.H F ) I f ; > z l 5 p t 4 p nXnXnXnXnXnXnXnXnXnXnXnXnXnXnXnXnXnXnXnX",
"nXnXnXnXnXnXnXnXnXnXnXnXnXnXh d d d 0.0.B.#X$X$X$X#XZ.Z -.y Y u.y.c.w.w.w.w.w.g h V Z e   nXnXnXnXnXnXnXnXnXnXnXnXnXnXnXnXnXnXnX",
"nXnXnXnXnXnXnXnXnXnXnXnXnXnXnXh E ! b.F.$X%X$X$X$X%X).Z 3 J C.A.N.F.G.F.n.b.n.r.y.) C B r   nXnXnXnXnXnXnXnXnXnXnXnXnXnXnXnXnXnX",
"nXnXnXnXnXnXnXnXnXnXnXnXnXnXW j.n.M.G.$X$X$X$X$X$X#Xm.b ^ S.$X#X#X&X&X$XG.M.v.b.M.q.b l C r . nXnXnXnXnXnXnXnXnXnXnXnXnXnXnXnXnX",
"nXnXnXnXnXnXnXnXnXnXnXnXnX. d n.b.M.#X$X$X$X$X$X$XZ./ V.).$X$X$X%X$X$X$X#XM.v.b.b.j.j.w.b V . nXnXnXnXnXnXnXnXnXnXnXnXnXnXnXnXnX",
"nXnXnXnXnXnXnXnXnXnXnXnXnXf W n.b.M.#X$X$X$X#X$XG.N.G.$X$X$X$X$X$X$X$X$X#XM.b.b.v.v.b.b.r.b N O nXnXnXnXnXnXnXnXnXnXnXnXnXnXnXnX",
"nXnXnXnXnXnXnXnXnXnXnXnXnXnXW c.M.#X$X$X$X$XS.A.$X$X$X$X$X$X$X$X%X#X).G.n.b.b.b.W Y f.r.c.c.V B : nXnXnXnXnXnXnXnXnXnXnXnXnXnXnX",
"nXnXnXnXnXnXnXnXnXnXnXnXnXnXnXP t.M.G.$X$X$XS.S.%X$X$X$X$X$X$X#X).S.b.b.b.b.b.r.7     ; Q b.W R c c nXnXnXnXnXnXnXnXnXnXnXnXnXnX",
"nXnXnXnXnXnXnXnXnXnXnXnXnXnXnXc L r.n.#X$X$X$X$X$X$X$X$X$XG.H.A.v.n.b.v.b.b.t.7 nXnXnX# ! ! ! ! g s s nXnXnXnXnXnXnXnXnXnXnXnXnX",
"nXnXnXnXnXnXnXnXnXnXnXnXnXnXnXnXnXv w.S.$X$X$X$X$X%X$XH.D.M.9X9Xb.n.n.n.n.w.h 3 nXnXnX        , u X   nXnXnXnXnXnXnXnXnXnXnXnXnX",
"nXnXnXnXnXnXnXnXnXnXnXnXnXnXnXnXnXnXM 0.B.#X%X#XD.qXD.n.9X9Xy.t.n.c.0.b K 8 u [ ] nXnXnXnXnX  $.P.r   nXnXnXnXnXnXnXnXnXnXnXnXnX",
"nXnXnXnXnXnXnXnXnXnXnXnXnXnXb.nXnX' { S h.0XqXb.W d d j j j g g k h #   q i X.>.] ' nXnXnXnXnXA *.S m nXnXnXnXnXnXnXnXnXnXnXnXnX",
"nXnXnXnXnXnXnXnXnXnXnXnXnXG.x.U nX' 2.:.M 7 7 8 o           o o         - X.:.:.X.i nXnXnXnXnXC =.P.$.C nXnXnXnXnXnXnXnXnXnXnXnX",
"nXnXnXnXnXnXnXnXnXnXnXx w.G.x.z ] ..:.2.| =                               ] X.:.>.i   nXnXnXnXO S P.m @ nXnXnXnXnXnXnXnXnXnXnXnX",
"nXnXnXnXnXnXnXnXnXnXv h.H.#XH.nX] :.:.:.} =               4 N N N 3       w X.:.>.i   nXnXnXnX  S P.t   nXnXnXnXnXnXnXnXnXnXnXnX",
"nXnXnXnXnXnXnXnXv v V.$X%Xh.M ] <.8.,.,.-           . N N C C D Z C r   X  .:.>.i . nXnXnXnXnX  S P.t   nXnXnXnXnXnXnXnXnXnXnXnX",
"nXnXnXnXnXnXnXR m.H.$X$X$XG.5.{ ].].8.[ % # @     O B C C C B p B C e   w X.<.X.0   nXnXnXnXnX  S P.t   nXnXnXnXnXnXnXnXnXnXnXnX",
"nXnXnXnXnXnXnXN.$X$X$X$X$X%Xd. .8.].`.{ & tX`   O C C C C B 9 : 9 u X u @.<.:.0     nXnXnXnXnX  Z P.t   nXnXnXnXnXnXnXnXnXnXnXnX",
"nXnXnXnXnXM.A.$X#XG.$X$X$X%XF.) ] ].'.'.+.6.(   @ p p p p . eXrX( - +.'.'.`.] %   nXnXnXnXnXnX  S P.t   nXnXnXnXnXnXnXnXnXnXnXnX",
"nXnXnXnXnXA.%X$X$XM.#X$X&X#XA.l.O.1.'.].[.,.{ i % % % % & % 3.7.{ ,.[.'.1... .= nXnXnXnXnXnXnX  S P.n   nXnXnXnXnXnXnXnXnXnXnXnX",
"nXnXnXnXN.H.$X#XD.A.#X$X&XA.b.n.f.y ,.,.8.[.{.9.#.+.+.#.+.+. .9.{.'.1.@. .o..XM nXnXnXnXnXnXnX; S P.y   nXnXnXnXnXnXnXnXnXnXnXnX",
"nXnXnXv.S.&X$X).M.#X$X$XG.N.b.b.8X! q 3.@.,.#.9.[.[.[.[.{.{.`.<.#.+. .;.;. X=.1 nXnXnXnXnXc p.p.F F z > nXnXnXnXnXnXnXnXnXnXnXnX",
"nXnXnXv.A.%X$X#XM.$X$X$XN.v.b.b.8Xk.# rXeXa 0 [ +.+.+.+.{ 2.} 3.6.3.O.oX:XoX, nXnXx / a.a.h.$X&XJ.h.a.h.a.a.a.0.q.8     nXnXnXnX",
"nXnXnXx.#X&X%XH.0.).&XS.M.v.b.b.9Xf.o _ cX` _ 4.i i D ^.^.a ( cXbXtXK.oXoXoX<   b f.J.%X&X%X%X$X%X&X*X&X*X*X%XG.9X~ T E j     nX",
"nXnXx h.&X$X%XV.v ).A.b.b.b.b.b.9Xk.M * cXvXeXT.}.}.~.4.bX9 tXvXrXC  XoXoXoX1 d C.$X&X&X#XN.N.B.G.D.N.N.N.N.B.q.R P W W L s s nX",
"nXnXf h.&XF.N.k.b m.n.b.b.b.b.n.l._ ~.E.5.4.W.+X7X@XoX}.4.rXvXxXR.}.oXoX X4 ! v.w.R q.N.N.G.G.#XA.S.G.G.).G.F.k.g.t.r.r.Y o o   ",
"nXnX  ! N.n.v.b.t.P j.n.b.b.b.l.C A  XoX+X|. X@XoXoXoXoX|.4.( E..X@XoXoX}.+ q.0.q.C.).#X#X$X$X$X#X$X&X%X&X#XM.b.9Xj.k o o nXnXnX",
"nXnX  J j.b.b.b.b.v.b.b.b.b.9Xl.Z %. XoXoX@XoX@XoXoXoXoXoX&.Z R.-XoXoX~.$ q.0.h.#X$X$X$X$X$X$X$X$X$X$X$X$XG.b.b.k.7 nXnXnXnXnXnX",
"nXnXnX  j g.b.n.b.b.b.k.v.b.9Xl.G OXoXoXoXoXoX@XoXoXoXoXoXoX.XoXoX@XOXY.: b m.G.&X$X$X$X$X$X$X$X$X$X&X).F.b.b.e.# nXnXnXnXnXnXnX",
"nXnXnXnX  7 9X9Xb.b.b.Q y.n.j.) &.:X-X-X,X,X,X,X,X,X7X;XoX.XoXoX@XXXT.0.m.).$X$X$X$X$X$X$X$X$X$X&X).G.S.v.j.! o nXnXnXnXnXnXnXnX",
"nXnXnXnXnX7 ~ n.b.b.b.n.n.g._ E.2X3X3X3XgXgXjXjXjXfX3X3X1X:X@XoX-XR.L n.n.).$X$X$X$X$X#X$X$X$X$X&XA.v.v.9Xk.. nXnXnXnXnXnXnXnXnX",
"nXnXnXnXnXnX: 9Xb.9Xn.E l.z.Q.pXdXjXjXjXgXgXhXgXjXgXjXjXjXfX1X<X!.d.0.b.n.#X&X$X$X$X$X$X$X$X$XF.F.M.b.n.f.Y nXnXnXnXnXnXnXnXnXnX",
"nXnXnXnXnXnX; J b.) ) 5 d.iXiXiXpXjXjXjXgXjXgXjXjXgXgXjXgXjXjXhXQ.I n.b.n.A.#X&X$X$X$X$X$X$XD.n.v.b.b.n.^   nXnXnXnXnXnXnXnXnXnX",
"nXnXnXnXnXnXnX. h + * W.pXyX).yXjXjXgXgXgXgXgXgXgXgXgXgXgXgXgXlX/.0.b.b.b.b.N.A.G.&X&X#XA.A.b.b.b.b.b.9X~   nXnXnXnXnXnXnXnXnXnX",
"nXnXnXnXnXnXnXnXt ^._.sXkXzXdXzXgXgXgXgXgXjXgXgXjXgXgXjXjXjXpXuXh.v b.b.b.b.v.m.M.N.A.N.v.v.b.b.b.b.M.~ : nXnXnXnXnXnXnXnXnXnXnX",
"nXnXnXnXnXnXnXnX2 zXlXkXgXkXkXkXgXgXgXgXgXgXgXgXjXgXgXgXgXuX&X%Xa.0.c.c.b.b.b.b.b.b.b.j.b.b.b.b.b.b.9XY   nXnXnXnXnXnXnXnXnXnXnX",
"nXnXnXnXnXnXnXnX$ sXgXgXgXgXgXgXzXgXgXzXgXgXgXgXgXgXgXgXyX$X$X%XH.q.0.b.b.b.b.b.b.b.b.9Xb.b.b.b.b.9XJ # nXnXnXnXnXnXnXnXnXnXnXnX",
"nXnXnXnXnXnXnX< |.oX@XfXgXgXgXdXiXiXiXyXiXiXpXgXgXgXgXjXzX,XOXOXoXQ.v j.b.b.b.b.b.b.b.b.b.b.b.b.k.k.j   nXnXnXnXnXnXnXnXnXnXnXnX",
"nXnXnXnXnXnXnX,  XoX.X@X5XgXkXdX$X&X).=XiXiXpXkXgXfXfXfX;X@XoXoX@X@XL.; j.n.b.b.b.b.b.b.b.b.f.f.7 . nXnXnXnXnXnXnXnXnXnXnXnXnXnX",
"nXnXnXnXnXnXnX, .X@X@X@X@X,X5XaX/.iX).qX).pXfXfX4XoXoXoXoXoXoX@XoX@X~.5 0.q.k.9Xb.9Xn.j.e.~ #   nXnXnXnXnXnXnXnXnXnXnXnXnXnXnXnX",
"nXnXnXnXnXnXnX* W.OX.X!.OX@X@X@XXXV.Z.Z.Z.!..X.XoXoXoXoXoXoXoXoXoXoX@X+Xn : Y ^ ! ! ^ J     nXnXnXnXnXnXnXnXnXnXnXnXnXnXnXnXnXnX",
"nXnXnXnXnXnXnXnXX +X@XC.V.XX@X@X.X@X@X@X.X@X.X@X@XoXoXoXoXoXoXoX@XoXOX_._.M.b o       nXnXnXnXnXnXnXnXnXnXnXnXnXnXnXnXnXnXnXnXnX",
"nXnXnXnXnXnXnXnX@ |.@XZ.8X(.@XoXoXoX.X@X@X@X@X@X@X@X-X-XoXoX@XoXoX@X!.n.v.v.T ; nXnXnXnXnXnXnXnXnXnXnXnXnXnXnXnXnXnXnXnXnXnXnXnX",
"nXnXnXnXnXnXnXnXnXnXnXl d.XX.XoXoXoX@XoXoXoX@XXX/./././.OXoXoX@X@X:X~.k k f.nXnXnXnXnXnXnXnXnXnXnXnXnXnXnXnXnXnXnXnXnXnXnXnXnXnX",
"nXnXnXnXnXnXnXnXnXnXnX< p W.:X@XoXoXoXoXoXoX@X(.i.v.v.b.XXoX-X:XL.M e nXnXnXnXnXnXnXnXnXnXnXnXnXnXnXnXnXnXnXnXnXnXnXnXnXnXnXnXnX",
"nXnXnXnXnXnXnXnXnX  4 C + O 4 A @X@X@X@X@XoX@XXX_.!.!.!.oXC 4 r 1 nXnXnXnXnXnXnXnXnXnXnXnXnXnXnXnXnXnXnXnXnXnXnXnXnXnXnXnXnXnXnX",
"nXnXnXnXnXnXnXnXnX. N Z *   nXnX1 1 1 2 1 1 1 2 2 2 1 1 1 nXnXnXnXnXnXnXnXnXnXnXnXnXnXnXnXnXnXnXnXnXnXnXnXnXnXnXnXnXnXnXnXnXnXnX",
"nXnXnXnXnXnXnXnXnXX N Z , nXnXnXnXnXnXnXnXnXnXnXnXnXnXnXnXnXnXnXnXnXnXnXnXnXnXnXnXnXnXnXnXnXnXnXnXnXnXnXnXnXnXnXnXnXnXnXnXnXnXnX",
"nXnXnXnXnXnXnXnXX $.A B nXnXnXnXnXnXnXnXnXnXnXnXnXnXnXnXnXnXnXnXnXnXnXnXnXnXnXnXnXnXnXnXnXnXnXnXnXnXnXnXnXnXnXnXnXnXnXnXnXnXnXnX",
"nXnXnXnXnXnXnXnXX %.-.3 O , nXnXnXnXnXnXnXnXnXnXnXnXnXnXnXnXnXnXnXnXnXnXnXnXnXnXnXnXnXnXnXnXnXnXnXnXnXnXnXnXnXnXnXnXnXnXnXnXnXnX",
"nXnXnXnXnXnXnXnXnX. G -.-.%.B nXnXU.E.E.U.E.I.E.nXnXnXnXnXnXnXnXnXnXnXnXnXnXnXnXnXnXnXnXnXnXnXnXnXnXnXnXnXnXnXnXnXnXnXnXnXnXnXnX",
"nXnXnXnXnXnXnXnXnX  4 =.-.=.A nXnXfXgXgX6X2X2X@XE.&.T.nXnXnXe , nXnXnXnXnXnXnXnXnXnXnXnXnXnXnXnXnXnXnXnXnXnXnXnXnXnXnXnXnXnXnXnX",
"nXnXnXnXnXnXnXnXnXnX  r m $.-.A H gXgXgXkX3X<X<X<X1X:X;XL.&.|.K.n A &.  nXnXnXnXnXnXnXnXnXnXnXnXnXnXnXnXnXnXnXnXnXnXnXnXnXnXnXnX",
"nXnXnXnXnXnXnXnXnXnXnX    * D =.E.gXgXgXkX3X:XOXoXoXoXoX-X-X@X-X:X}.G nXnXnXnXnXnXnXnXnXnXnXnXnXnXnXnXnXnXnXnXnXnXnXnXnXnXnXnXnX",
"nXnXnXnXnXnXnXnXnXnXnXnXnXnX2 &.<XgXjXgXfX2X<X,X;XoXoXoXoXoX-X:XY.5   nXnXnXnXnXnXnXnXnXnXnXnXnXnXnXnXnXnXnXnXnXnXnXnXnXnXnXnXnX",
"nXnXnXnXnXnXnXnXnXnXnXnXnXnXnXG W.4X6X3X2X1X<X;X:X,X@XoXoX-XG e 2 nXnXnXnXnXnXnXnXnXnXnXnXnXnXnXnXnXnXnXnXnXnXnXnXnXnXnXnXnXnXnX",
"nXnXnXnXnXnXnXnXnXnXnXnXnXnXnXnXnX&.&.OX;X;X-XoXoX;XoXoXoXoXnXnXnXnXnXnXnXnXnXnXnXnXnXnXnXnXnXnXnXnXnXnXnXnXnXnXnXnXnXnXnXnXnXnX",
"nXnXnXnXnXnXnXnXnXnXnXnXnXnXnXnXnXnXnX< Y.oX.X X.XOX}.2 < < nXnXnXnXnXnXnXnXnXnXnXnXnXnXnXnXnXnXnXnXnXnXnXnXnXnXnXnXnXnXnXnXnXnX",
"nXnXnXnXnXnXnXnXnXnXnXnXnXnXnXnXnXnXnXnXO + + + O + + nXnXnXnXnXnXnXnXnXnXnXnXnXnXnXnXnXnXnXnXnXnXnXnXnXnXnXnXnXnXnXnXnXnXnXnXnX"
};
