/* XPM */
static char *_1be1abbace44990c3ee55e3110bb131SbjMpZBxU08M8DRe[] = {
/* columns rows colors chars-per-pixel */
"16 16 225 2 ",
"   c #11643B",
".  c #1C5034",
"X  c #F1FFFF",
"o  c black",
"O  c #204730",
"+  c white",
"@  c #145636",
"#  c #295839",
"$  c #5E4E27",
"%  c #FFFFE3",
"&  c #348453",
"*  c #658D51",
"=  c #BFA444",
"-  c #5D4D27",
";  c #83C786",
":  c #1B170B",
">  c #275A40",
",  c #0D291C",
"<  c #87FFE3",
"1  c #9B9A52",
"2  c #1C3F2F",
"3  c #040906",
"4  c #806D2F",
"5  c #306C50",
"6  c #78FFC7",
"7  c #645329",
"8  c #59C795",
"9  c #132B20",
"0  c #4DAC80",
"q  c #FFFFBD",
"w  c #042420",
"e  c #503E1B",
"r  c #675727",
"t  c #FFCD59",
"y  c #745E2A",
"u  c #574A20",
"i  c #005C35",
"p  c #29754C",
"a  c #539D69",
"s  c #6FB579",
"d  c #6EB476",
"f  c #488352",
"g  c #75622C",
"h  c #53562D",
"j  c #2B2F19",
"k  c #130600",
"l  c #0B874E",
"z  c #1F5E3E",
"x  c #387C58",
"c  c #67965D",
"v  c #708E54",
"b  c #40835B",
"n  c #2B6444",
"m  c #123A26",
"M  c #0B482D",
"N  c #3A8D64",
"B  c #75BA7A",
"V  c #43986F",
"C  c #2A694C",
"Z  c #22583B",
"A  c #17492F",
"S  c #166A48",
"D  c #5F8453",
"F  c #546A46",
"G  c #525433",
"H  c #130000",
"J  c #484220",
"K  c #524620",
"L  c #28784A",
"P  c #58A066",
"I  c #7C683B",
"U  c #9F4015",
"Y  c None",
"T  c #A74517",
"R  c #71290C",
"E  c #59441C",
"W  c #694F20",
"Q  c black",
"!  c #5BAB77",
"~  c #6BB072",
"^  c #873D18",
"/  c #1C0400",
"(  c #4F3815",
")  c #5D431A",
"_  c black",
"`  c #71B779",
"'  c #815C27",
"]  c #225435",
"[  c #556C3C",
"{  c #567745",
"}  c #47925D",
"|  c #256143",
" . c #0D291C",
".. c #599C68",
"X. c #5B7643",
"o. c #62A76B",
"O. c #2D7251",
"+. c #0E3321",
"@. c #2F684E",
"#. c #478F68",
"$. c #1E4534",
"%. c #193D2F",
"&. c #3F7454",
"*. c #94AB6D",
"=. c #2C634B",
"-. c #6E5D2B",
";. c #479C74",
":. c #357759",
">. c #152F23",
",. c #574C22",
"<. c #A2A152",
"1. c #959C52",
"2. c #2C644B",
"3. c #347557",
"4. c #2C6249",
"5. c #0C1A13",
"6. c #2E2612",
"7. c #5C5429",
"8. c #B59A43",
"9. c #C1A245",
"0. c #9B9C50",
"q. c #95984E",
"w. c #A98F3D",
"e. c #6E713B",
"r. c #00040C",
"t. c black",
"y. c black",
"u. c #493818",
"i. c #5C461E",
"p. c #867339",
"a. c #9A8340",
"s. c #78652E",
"d. c #2B2612",
"f. c black",
"g. c #2C210E",
"h. c #785E29",
"j. c #D2C06B",
"k. c #EED975",
"l. c #DBBD58",
"z. c #B59A45",
"x. c #7E6B2F",
"c. c #4F421E",
"v. c #4D411F",
"b. c #AD9A4F",
"n. c #BDA650",
"m. c #A9903E",
"M. c #77652C",
"N. c #4B3F1C",
"B. c #64AB72",
"V. c #80BE79",
"C. c #629E66",
"Z. c #84C37C",
"A. c #7CBB77",
"S. c #84C37D",
"D. c #73BC7E",
"F. c #72965F",
"G. c #608053",
"H. c #4A7E57",
"J. c #53260F",
"K. c #271609",
"L. c #261F0F",
"P. c #7AB471",
"I. c #97703F",
"U. c #AA5731",
"Y. c #372218",
"T. c #443219",
"R. c #60492F",
"E. c #774021",
"W. c #7BBC79",
"Q. c #75BB7C",
"!. c #528860",
"~. c #966548",
"^. c #A15E39",
"/. c #985C36",
"(. c #AA6B4D",
"). c #C27B3F",
"_. c #57A671",
"`. c #4FA779",
"'. c #569466",
"]. c #9B9057",
"[. c #BDA155",
"{. c #B9A059",
"}. c #B8A576",
"|. c #C6A850",
" X c #78B977",
".X c #7CBD7A",
"XX c #60AB73",
"oX c #459E76",
"OX c #49986E",
"+X c #9EB069",
"@X c #EDD875",
"#X c #EFDE7C",
"$X c #EBD570",
"%X c #DFC45D",
"&X c #889951",
"*X c #5D9D67",
"=X c #87C27A",
"-X c #8CC57B",
";X c #78BC7C",
":X c #D4E18B",
">X c #F8F095",
",X c #F8F096",
"<X c #EEED93",
"1X c #C7D27B",
"2X c #529864",
"3X c #63B27C",
"4X c #7FBF7B",
"5X c #71B97C",
"6X c #4EA277",
"7X c #DFCD71",
"8X c #D5DF87",
"9X c #B5D484",
"0X c #E7E489",
"qX c #DED576",
"wX c #BCBD60",
"eX c #719B5B",
"rX c #469E76",
"tX c #4DA67B",
"yX c #D0C05C",
"uX c #C1BD5E",
"iX c #D6C25D",
"pX c #D7BE56",
"aX c #E2BE51",
"sX c #BCA148",
"dX c white",
/* pixels */
"  i p a s d f g h j k . X o o o ",
"  l z x B.V.c v C.b n m O + o o ",
"  @ M N B Z.A.S.D.V C Z A # $ o ",
"% & * S D F.G.H.F G H J K = - o ",
"; L P I U J.K.L.Y T R E W Q : o ",
"! ~ P.I.U.Y.T.R.E.^ / ( ) _ > , ",
"` W.Q.!.~.^./.(.).' ] [ { } |  .",
".._.`.'.].[.{.}.|.X.o. X.XXXO.+.",
"@.oXOX+X@X#X$X%X&X*X=X-X;X#.$._ ",
"%.&.*.:X>X,X<X1X2X3X4X5X6X=.< o ",
"1 -.7X8X9X0XqXwXeXrXtX;.:.>.2 3 ",
"4 ,.<.yXuXiXpXaX1.2.3.4.5.5 6 o ",
"7 6.7.8.9.0.q.w.e.r.t.8 9 0 o o ",
"y.u.i.p.a.s.d.f.q w o o o o o o ",
"e g.h.j.k.l.z.x.c.r o o o o o o ",
"t y v.b.n.sXm.M.N.u o o o o o o "
};
