/* XPM */
static char *_0e9ed4e8757445ce0cdf75de2659ae2IrJ004Dy96oPKb5s[] = {
/* columns rows colors chars-per-pixel */
"16 16 224 2 ",
"   c black",
".  c #257850",
"X  c #2E623B",
"o  c #004814",
"O  c #10633A",
"+  c #1E6D47",
"@  c #ABFFFF",
"#  c #22B16C",
"$  c #23754E",
"%  c #1C6542",
"&  c #154A32",
"*  c #1B6F46",
"=  c #065F3B",
"-  c #519A60",
";  c #BC5614",
":  c #3C3217",
">  c #479A6A",
",  c #6C5221",
"<  c #435230",
"1  c #0D291C",
"2  c #87FFE3",
"3  c #0A150F",
"4  c #1C3F2F",
"5  c #040906",
"6  c #306C50",
"7  c #78FFC7",
"8  c #4F3E1B",
"9  c #59C795",
"0  c #132B20",
"q  c #4DAC80",
"w  c #765A25",
"e  c white",
"r  c #9C8A3F",
"t  c #10261D",
"y  c #665627",
"u  c #080603",
"i  c #322A15",
"p  c #5F5124",
"a  c #1A6C46",
"s  c #3A8556",
"d  c #67B178",
"f  c #72B87A",
"g  c #58A36B",
"h  c #6E6833",
"j  c #7C6A30",
"k  c #4B512C",
"l  c #36351E",
"z  c #240200",
"x  c #15613D",
"c  c #357C53",
"v  c #4B9467",
"b  c #7FBB77",
"n  c #68824C",
"m  c #48845C",
"M  c #2A583A",
"N  c #045B3C",
"B  c #14593B",
"V  c #3A8E65",
"C  c #73B878",
"Z  c #368360",
"A  c #27482F",
"S  c #2B4C2F",
"D  c #10452E",
"F  c #7D401A",
"G  c #79693A",
"H  c #75431F",
"J  c #311F0B",
"K  c #5E4920",
"L  c #42381A",
"P  c black",
"I  c #47955D",
"U  c #668B58",
"Y  c #B15525",
"T  c #974016",
"R  c #060000",
"E  c #694F21",
"W  c #59441C",
"Q  c #57B083",
"!  c #6AB175",
"~  c #78B875",
"^  c #698854",
"/  c #BD6033",
"(  c #58280E",
")  c black",
"_  c #60461B",
"`  c #442E10",
"'  c #66B176",
"]  c #7BBC79",
"[  c #50A172",
"{  c #515C42",
"}  c None",
"|  c #B4853A",
" . c #4B5F33",
".. c #497445",
"X. c #567040",
"o. c #458353",
"O. c #256143",
"+. c #0D291C",
"@. c #4D8D5D",
"#. c #788C4C",
"$. c #64A66A",
"%. c #2D7251",
"&. c #0E3321",
"*. c #24503B",
"=. c #429670",
"-. c #478F68",
";. c #1E4534",
":. c black",
">. c #0D1C15",
",. c #2A634A",
"<. c #798E5B",
"1. c #2C634B",
"2. c black",
"3. c #A28E44",
"4. c #479C74",
"5. c #357759",
"6. c #152F23",
"7. c #666533",
"8. c #A59D4C",
"9. c #2F654A",
"0. c #347557",
"q. c #2C6249",
"w. c #0C1A13",
"e. c #382B13",
"r. c #43381B",
"t. c #75662E",
"y. c #AA903E",
"u. c #A89140",
"i. c #7B8A4D",
"p. c #92833D",
"a. c #776A31",
"s. c #070C08",
"d. c #443315",
"f. c #624B20",
"g. c #846C34",
"h. c #AD944C",
"j. c #967C3A",
"k. c #1F0B01",
"l. c black",
"z. c #5E481E",
"x. c #BAA658",
"c. c #EEDB7A",
"v. c #DFC15A",
"b. c #BEA34A",
"n. c #7F6C2F",
"m. c #483D1C",
"M. c black",
"N. c #A9964C",
"B. c #C6AF54",
"V. c #B29742",
"C. c #847031",
"Z. c #4E421D",
"A. c #71B374",
"S. c #719A5D",
"D. c #67A66D",
"F. c #82C27C",
"G. c #7EBD78",
"H. c #80C27D",
"J. c #63B079",
"K. c #527047",
"L. c #406A48",
"P. c #30593E",
"I. c #5C4F2E",
"U. c #6C2D11",
"Y. c #100803",
"T. c #221D0E",
"R. c #221C0E",
"E. c #5F250C",
"W. c #894C31",
"Q. c #482B17",
"!. c #634427",
"~. c #7D4F31",
"^. c #A05025",
"/. c #7BBD7B",
"(. c #A96134",
"). c #AA6547",
"_. c #BB7D57",
"`. c #5DA973",
"'. c #50A575",
"]. c #4FA075",
"[. c #8B9757",
"{. c #C5B065",
"}. c #D2B65A",
"|. c #C0A966",
" X c #BEA861",
".X c #79BA78",
"XX c #7CBE7A",
"oX c #60AB74",
"OX c #48966D",
"+X c #7CA76B",
"@X c #E1DE84",
"#X c #F8ED8E",
"$X c #F6EC8E",
"%X c #F0DE7B",
"&X c #929F54",
"*X c #5B9C66",
"=X c #87C27A",
"-X c #8CC57B",
";X c #78BC7C",
":X c #E0E18B",
">X c #E5E991",
",X c #E9EA92",
"<X c #F3EF94",
"1X c #BCD482",
"2X c #589F69",
"3X c #63B27B",
"4X c #7FBF7B",
"5X c #71B97C",
"6X c #4EA277",
"7X c #E7DA79",
"8X c #A9CA7A",
"9X c #B2CD7C",
"0X c #EBDB7A",
"qX c #CBBF5E",
"wX c #729A5A",
"eX c #469E76",
"rX c #4DA67B",
"tX c #B4AC55",
"yX c #D3BD56",
"uX c #D4BD57",
"iX c #C5BA5A",
"pX c #DABC52",
"aX c #C0A549",
"sX c white",
/* pixels */
"  . a s d f g h j k l z X o O   ",
"  + x c v A.b n S.D.m M N @ #   ",
"  $ % B V C F.G.H.J.Z A S D &   ",
"* = - ; F G K.L.P.I.H J K L :   ",
"> P I U Y U.Y.T.R.E.T R E W ,   ",
"Q ! ~ ^ / W.Q.!.~.^.( ) _ ` < 1 ",
"' ] /.[ { } (.)._.|  ...X.o.O.+.",
"@.`.'.].[.{.}.|. X#.$..XXXoX%.&.",
"*.=.OX+X@X#X$X%X&X*X=X-X;X-.;.:.",
">.,.<.:X>X,X<X1X2X3X4X5X6X1.2   ",
"3 2.3.7X8X9X0XqXwXeXrX4.5.6.4 5 ",
"  :.7.tXyXuXiXpX8.9.0.q.w.6 7   ",
"8 e.r.t.y.u.i.p.a.s.P 9 0 q     ",
"w d.f.g.h.j.k.e r t             ",
"  l.z.x.c.v.b.n.m.y             ",
"u i M.N.B.aXV.C.Z.p             "
};
