/* XPM */
static char *result[] = {
/* columns rows colors chars-per-pixel */
"64 64 235 2 ",
"   c #010100",
".  c #0B0A05",
"X  c #050B08",
"o  c #070907",
"O  c #130C06",
"+  c #04140D",
"@  c #16140A",
"#  c #1B160A",
"$  c #0C1A14",
"%  c #071B14",
"&  c #191B1B",
"*  c #260A02",
"=  c #350B01",
"-  c #221C0D",
";  c #2A1809",
":  c #0B2318",
">  c #11261C",
",  c #15291E",
"<  c #06331E",
"1  c #2B230E",
"2  c #36260E",
"3  c #2F2811",
"4  c #2A2410",
"5  c #332B14",
"6  c #372A14",
"7  c #3D3519",
"8  c #23351C",
"9  c #142D21",
"0  c #073A22",
"q  c #163728",
"w  c #0E2820",
"e  c #353C2E",
"r  c #4E1102",
"t  c #631300",
"y  c #681B0A",
"u  c #6D1503",
"i  c #493C1E",
"p  c #45381A",
"a  c #512A10",
"s  c #773617",
"d  c #72250C",
"f  c #403721",
"g  c #0E5A36",
"h  c #144D2F",
"j  c #244B37",
"k  c #24533E",
"l  c #365B35",
"z  c #2F472B",
"x  c #0F633B",
"c  c #10653B",
"v  c #2A633C",
"b  c #54461D",
"n  c #59431B",
"m  c #58491E",
"M  c #4B401C",
"N  c #694E1F",
"B  c #63491D",
"V  c #4D4424",
"C  c #534321",
"Z  c #5D4C26",
"A  c #574B26",
"S  c #57532A",
"D  c #50532F",
"F  c #635329",
"G  c #6A562A",
"H  c #685726",
"J  c #775C28",
"K  c #6E542D",
"L  c #546F38",
"P  c #7A652C",
"I  c #6F6631",
"U  c #275943",
"Y  c #176B42",
"T  c #1B7249",
"R  c #276A49",
"E  c #247345",
"W  c #27754A",
"Q  c #34794A",
"!  c #287C53",
"~  c #35785A",
"^  c #32674D",
"/  c #54744D",
"(  c #546B43",
")  c #636869",
"_  c #841801",
"`  c #8E2608",
"'  c #942809",
"]  c #92330E",
"[  c #873717",
"{  c #8E3110",
"}  c #A83C12",
"|  c #A4320C",
" . c #9A4517",
".. c #89431D",
"X. c #AC461A",
"o. c #B54A1A",
"O. c #BD551F",
"+. c #984833",
"@. c #94492A",
"#. c #B95622",
"$. c #A85535",
"%. c #85662C",
"&. c #98722E",
"*. c #856A33",
"=. c #8A7434",
"-. c #977B34",
";. c #916D2D",
":. c #A77D32",
">. c #BC772E",
",. c #C55A21",
"<. c #CA5D22",
"1. c #C55E31",
"2. c #CC6234",
"3. c #C96639",
"4. c #D46D3B",
"5. c #D06830",
"6. c #DA723D",
"7. c #CF642C",
"8. c #C7571F",
"9. c #A15A4A",
"0. c #DB7542",
"q. c #DF7944",
"w. c #D36F40",
"e. c #E07B45",
"r. c #2C845B",
"t. c #288157",
"y. c #368558",
"u. c #36814E",
"i. c #338C63",
"p. c #3C8B67",
"a. c #3B946A",
"s. c #389369",
"d. c #3C9A71",
"f. c #468B58",
"g. c #4B945D",
"h. c #528A56",
"j. c #718C55",
"k. c #47966B",
"l. c #599E62",
"z. c #439C73",
"x. c #499B72",
"c. c #4B9068",
"v. c #45A177",
"b. c #45A47B",
"n. c #4AA57B",
"m. c #4CA97E",
"M. c #4BA176",
"N. c #54AA7B",
"B. c #5BAE7B",
"V. c #57A574",
"C. c #5FB07C",
"Z. c #64A666",
"A. c #68AC74",
"S. c #64B27B",
"D. c #6BB57B",
"F. c #6DB57A",
"G. c #74BA7C",
"H. c #7BBD7B",
"J. c #7BB772",
"K. c #76AF70",
"L. c #729B60",
"P. c #7DC07E",
"I. c #AA8538",
"U. c #B08334",
"Y. c #B68836",
"T. c #AA913F",
"R. c #9D8B3F",
"E. c #C78C39",
"W. c #908F4B",
"Q. c #AA9446",
"!. c #B79943",
"~. c #A58E45",
"^. c #BAB75C",
"/. c #BAA350",
"(. c #99B467",
"). c #82BD77",
"_. c #8CB570",
"`. c #ACBB64",
"'. c #EA864D",
"]. c #EF8C52",
"[. c #F18E53",
"{. c #F39055",
"}. c #C7A949",
"|. c #D5B64F",
" X c #CBB755",
".X c #DEBD52",
"XX c #D7BC54",
"oX c #E1BE52",
"OX c #C3B263",
"+X c #84C17B",
"@X c #8CC57B",
"#X c #8EC97D",
"$X c #90C77B",
"%X c #92C87D",
"&X c #94C275",
"*X c #B8C165",
"=X c #BCD07A",
"-X c #E3C254",
";X c #E3C55B",
":X c #E8C85A",
">X c #D4C668",
",X c #E7CC63",
"<X c #EDD46B",
"1X c #EBD166",
"2X c #ECD977",
"3X c #F2DD77",
"4X c #F3E07C",
"5X c #DCC35B",
"6X c #4DAB80",
"7X c #56AE80",
"8X c #B5BBBB",
"9X c #A8AFAF",
"0X c #B38F86",
"qX c #C4BBA5",
"wX c #BDD887",
"eX c #BAD786",
"rX c #A5CF82",
"tX c #C7DC88",
"yX c #DAE48D",
"uX c #DCE690",
"iX c #F2E382",
"pX c #F5EA8C",
"aX c #F7EA8B",
"sX c #F7EF94",
"dX c #F8EF94",
"fX c #F7F095",
"gX c #F9F095",
"hX c #FAF399",
"jX c #EAE88F",
"kX c #CCC6BC",
"lX c #E2DB87",
"zX c #BDC8C9",
"xX c #CCCBC6",
"cX c #E7E7E7",
"vX c None",
/* pixels */
"vXvXvXvXvXvXvXvXvXvXvXvXvXvXvXvXvXvXvXvXvXvXvXvXvXvXvXvXvXvXvXvXvXvXvXvXvXvXvXvXvXvXvXvXvXvXvXvXvXvXvXvXvXvXvXvXvXvXvXvXvXvXvXvX",
"vXvXvXvXvXvXvXvXvXvXvXvXvXvXvXvXN.N.n.vXvXvXvXvXvXvXvXvXvXvXvXvXvXvXvXvXvXvXvXvXvXvXvXvXvXvXvXvXvXvXvXvXvXvXvXvXvXvXvXvXvXvXvXvX",
"vXvXvXvXvXvXvXvXvXvXvXvXvXQ Q k.H.H.B.B.B.B.B.vXvXvXvXvXvXvXvXvXvXvXvXvXvXvXvXvXvXvXvXvXvXvXvXvXvXvXvXvXvXvXvXvXvXvXvXvXvXvXvXvX",
"vXvXvXvXvXvXvXvXvXvXvXr.t.S.H.+X$X@X#X@X@X#X@XF.g.E vXvXvXvXvXvX%.%.%.p - 5 vXvXvXvXvXvXvXvXvXvXvXvXvXvXvXvXvXvXvXvXvXvXvXvXvXvX",
"vXvXvXvXvXvXvXvXvXY t.U k W d.B.D.G.%X#X@X@X@X@XH.u.vXvXG ;.-.-.L L m 6 C H F A 4 vXvXvXvXvXvXvXvXvXvXvXvXvXvXvXvXvXvXvXvXvXvXvX",
"vXvXvXvXvXvXvXvXvXvXvXvXvXg i.6X6Xk.f.f.S.@X@X@XH.z./ J &.-.L L y.x h < j l z 6 Z 7 A . vXvXvXvXvXvXvXvXvXvXvXvXvXvXvXvXvXvXvXvX",
"vXvXvXvXvXvXvXvXvXvXvXvXvXvXq q 9 k i.k.G.@X@X@X@XrX/ P %.e i.s.M.s.s.a.s.s.E h l F Z . vXvXvXvXvXvXvXvXvXvXvXvXvXvXvXvXvXvXvXvX",
"vXvXvXvXvXvXvXvXvXvXvXvXvXvXh R p.p.N.+X@X@X@X@X@X$Xj.p 8 c.G.N.H.+XP.B.n.m.v.s.f.F Z V @ vXvXvXvXvXvXvXvXvXvXvXvXvXvXvXvXvXvXvX",
"vXvXvXvXvXvXvXvXvXvXvXvXvXg r.n.n.C.@X@X@X@X@X@X@XS.~ W V.+X@X+X@X@X@X+XS.n.n.n.z.c v S A @ vXvXvXvXvXvXvXvXvXvXvXvXvXvXvXvXvXvX",
"vXvXvXvXvXvXvXvXvXvXvXvXvXX ~ m.b.S.@X@X@X@X@X@X@Xf.l.+X@X@X@X@X@X@X@X$XS.n.n.n.n.x.z.R D 4 vXvXvXvXvXvXvXvXvXvXvXvXvXvXvXvXvXvX",
"vXvXvXvXvXvXvXvXvXvXvXvXvXg r.m.m.F.@X@X@X@XH.@XS.G.@X@X@X@X@X@X@X@X@X+X7Xn.n.z.z.n.m.n.T D 3 . vXvXvXvXvXvXvXvXvXvXvXvXvXvXvXvX",
"vXvXvXvXvXvXvXvXvXvXvXvXvXc r.v.C.+X$X@X@X@XN.H.$X@X@X@X@X@X@X@X@XH.H.B.6Xx.6Xp.h ~ ~ s.b.L D 8 + vXvXvXvXvXvXvXvXvXvXvXvXvXvXvX",
"vXvXvXvXvXvXvXvXvXvXvXvXvXvXx W d.N.H.@X@X@XS.+X@X@X@X@X@X@X@XG.G.N.n.n.n.6Xa.l r * X E b.i.t.T c vXvXvXvXvXvXvXvXvXvXvXvXvXvXvX",
"vXvXvXvXvXvXvXvXvXvXvXvXvXvXvXz l s.7X%X@X@X@X@X@X@X@X#X+XF.D.n.b.M.n.M.n.d.l [ 8.{   j k U U q 0 < vXvXvXvXvXvXvXvXvXvXvXvXvXvX",
"vXvXvXvXvXvXvXvXvXvXvXvXvXvXvX|  .L i.F.@X@X@X@X#X#XH.S.B.b.n.n.n.n.m.N.s.g i 7.,.#.s r vX  2 N 2   vXvXvXvXvXvXvXvXvXvXvXvXvXvX",
"vXvXvXvXvXvXvXvXvXvXvXvXvXvX_ } ,.#.I t.S.@X@XD.C.S.N.v.m.z.! n.n.t.h q : X r <.,.,.8.o.;   N Y.n   vXvXvXvXvXvXvXvXvXvXvXvXvXvX",
"vXvXvXvXvXvXvXvXvXvXvXvXvX_ } O.8.8.8.;.x.N.N.! q : : w , q g , > %         = } ,.,.,.,.* vXF ;.;.J Z vXvXvXvXvXvXvXvXvXvXvXvXvX",
"vXvXvXvXvXvXvXvXvXvXvXn.m.s X.<.,.,.o.d $ $ $ X           @ S C C C O       = ' ,.,.,.,.; vXZ %.:.;.Z vXvXvXvXvXvXvXvXvXvXvXvXvX",
"vXvXvXvXvXvXvXvXvXvXE M.K...o.<.8.,.o.t               o - Z F F F F - o o   = ] ,.,.,.X.O vX  n U.H   vXvXvXvXvXvXvXvXvXvXvXvXvX",
"vXvXvXvXvXvXvXvXvXvX@X).[ #.e.6.7.<.[             o 7 F Z F F G F F Z F 4   y ,.,.,.,.O vXvX  n U.N   vXvXvXvXvXvXvXvXvXvXvXvXvX",
"vXvXvXvXvXvXvXvXvXu.@X@X[ 4.[.].{.3.t o e       O i F F F K F C i F C i @ r } ,.#. .[ O vXvX  n U.N   vXvXvXvXvXvXvXvXvXvXvXvXvX",
"vXvXvXvXvXvXY ! g.@X@X&X[ w.{.].{.3.y ) cX&     i G F F C f f e   5 .   . [ 7.,. .    vXvXvX  n U.N   vXvXvXvXvXvXvXvXvXvXvXvXvX",
"vXvXvXvXvXc.l.7X@X@X@X@XA @.q.].{.0.$.0XxX@     p F F F f   & 8X) o * = s 6.'.7.]     vXvXvX  n U.N   vXvXvXvXvXvXvXvXvXvXvXvXvX",
"vXvXvXvXS.@X%X%X@X@X@X@Xs.s 3.[.].{.w.[ 9XX     i G G G i   & 8XzX& u _ 2.{.].4._ vXvXvXvXvX  n U.N   vXvXvXvXvXvXvXvXvXvXvXvXvX",
"vXvXn.D.@X$XG.F.@X@X@XC.N.s 2.].].].e.3.+.r .   @ - - - @   & 8X9.t $.2.e.[.'.O._ vXvXvXvXvX  n U.N   vXvXvXvXvXvXvXvXvXvXvXvXvX",
"vXvXn.N.G.@X@XF.S.@X@XH.N.c.@.3.].].].].4.4.d t t t t t t t y +.3.w.].{.[.e.o.` vXvXvXvXvX  n &.U.N   vXvXvXvXvXvXvXvXvXvXvXvXvX",
"vXvXn.F.@X@XG.C.P.@X@XN.m.n.x.J ' { X.e.[.'.e.q.e.q.e.e.e.e.e.0.'.'.5.<.X.' _ vXvXvXvXvXvX  H U.m O vXvXvXvXvXvXvXvXvXvXvXvXvXvX",
"vXvXb.H.@X$XG.B.@X@X@XN.n.n.m.M.6X^ = ' _ ` '.[.[.[.[.[.[.[.'.<.' ` _ _ >.J   vXvXvXvXvXX 7 %.L 0 X vXvXvXvXvXvXvXvXvXvXvXvXvXvX",
"vXvXb.G.#X#XF.V.@X@XH.N.v.n.n.n.6X^ * u +.+.4.0.0.0.q.q.q.6.4.o.u { ] { E.I   vXvXvXY % v E E Z.Z.E E E v c vXvXvXvXvXvXvXvXvXvX",
"vXvXV.H.$X$Xl.u.@XG.N.n.n.n.m.n.M.) G D xXkX$. . .}  .{ [ 9.9.{ p }.oX.X-X=.1 vXvXz V.u.K.@X&X@X&X+X@X@X).u.u.u.W E vXvXvXvXvXvX",
"vXc K.#XP.H.g.W F.n.n.n.n.n.n.k.( =.oX|.&.-.|.oXXX.X;X!.W.xXqX!..X.X.X.X-X}.G U N.l.Z.@X#XH.F.G.+X+XG.G.G.$X$X%X7X7X~ vXvXvXvXvX",
"vXc K.H.N.n.a.t.i.n.n.n.n.n.m./ %.!.oXoXoXoXoXoX.X.X.XoX|.-.-.oX.X.X.X.XT.5 q b.t.t.f.S.F.S.D.N.N.F.S.S.F.F.F.l.l.c.R j q   vXvX",
"vXvXl c.6Xn.m.z.i.6X6Xx.z.6X6X/ -.-X.X.X.X.X.X.X.X.X.X.X.X-X-X.X.X.X.X-Xm : R y.l.G.rXD.D.+X$XH.F.H.@X$X@XD.D.p.r.r.r.r.T < 0 vX",
"vXvX  : ~ m.n.n.6Xx.6X6X6X6Xf.=.|.,X,X1X2X4X2X3X2X<X;X.X.X.X.X.X.XoX-XW.v k.v.l.%X@XP.@X@X@X@X@X@X@X@X@X@X@XD.6Xn.m.z.i.R : :   ",
"vXvXvX  U 6Xn.n.6Xz.W z.6X/ Q.2XpXpXpXpXfXfXhXsXfXsXiX3X;X.XXX.X.XK.h.y.v.S.H.P.@X@X@X@X@X@X@X@X@X@X@X@X@X@XN.n.M.6X^ , , vXvXvX",
"vXvXvX  U m.n.n.6Xz.z.x.( L.&XtXsXsXfXfXfXfXsXsXsXsXfXsXpXpXiXoX.XV.c a.n.D.#X@X@X@X@X@X@X@X@X@X@X@XH.N.N.N.z.q $ $ % vXvXvXvXvX",
"vXvXvXvXo U 6Xn.x.6Xk.w L.rX+X@XtXhXsXsXsXsXgXsXsXsXsXsXfXfXpX1X}.Q s.n.n.D.#X@X@X@X@X@X@X@X).).@XH.m.n.n.z.> vXvXvXvXvXvXvXvXvX",
"vXvXvXvXvXj z.n.6Xx.A I (.$XP.tXdXsXsXdXsXsXsXsXfXsXsXfXfXfXhXjXE Y d.n.n.S.#X@X@X@X@X@X+XH.rXrX@XF.n.n.n.M.$ vXvXvXvXvXvXvXvXvX",
"vXvXvXvXvXvXq ~ i.) D lXsXwX%XyXhXsXdXsXsXgXsXsXsXsXsXhXpXyXyXtXE z.n.n.n.S.H.+X@X@X@X@X@X).G.).S.n.n.n.n.~ vXvXvXvXvXvXvXvXvXvX",
"vXvXvXvXvXvXvX  . Z jXdXdXdXdXsXsXdXsXsXsXsXsXsXsXsXhXjXeX@X&X).c z.n.n.n.n.b.N.G.H.@XH.G.7X6Xz.n.n.n.M.^ X vXvXvXvXvXvXvXvXvXvX",
"vXvXvXvXvXvXvXvXvX@ jXfXfXfXsXsXsXdXsXdXgXsXsXsXfXfXuXrX+X$X@XP.y.r.n.m.n.n.n.n.x.m.D.n.x.6X6X6XM.m.z.j   vXvXvXvXvXvXvXvXvXvXvX",
"vXvXvXvXvXvXvXvX- =.<XsXfXsXsXyXeXtXeXeXtXwXsXsXfXfXuX=X*X*X*X`.y.r.v.m.n.n.n.n.6Xn.n.n.n.n.z.6Xn.6X~   vXvXvXvXvXvXvXvXvXvXvXvX",
"vXvXvXvXvXvXvXvX4 oX.X,XjXsXdXeX+X+X@X@X+X@XjXsXfXfX4X;X.X-XoX.XW.z p.m.n.n.n.n.n.n.n.n.z.6Xn.n.6Xp.9 vXvXvXvXvXvXvXvXvXvXvXvXvX",
"vXvXvXvXvXvXvXvX1 .X.X.X,X2XaXtX@X@X@X@X$XyXsXsX<X,X5X.X.X.X.X.XoX- ~ m.n.n.n.n.n.n.n.n.6X6Xx.6X^ $ vXvXvXvXvXvXvXvXvXvXvXvXvXvX",
"vXvXvXvXvXvXvXvX4 |..X.X.X-X;X5X(.B.B.B.A.5X,X5X5XoXoX.X.X.X.X.XoX!.e Q n.n.b.n.n.n.x.6Xz.q $ w $ vXvXvXvXvXvXvXvXvXvXvXvXvXvXvX",
"vXvXvXvXvXvXvXvXvX5  XA.^..X.X.XXX X X XXX.X.X.X.X.X.XoX.X.X.X.X.X-X}.7 U x.k.z.x.x.z.k.9 o vXvXvXvXvXvXvXvXvXvXvXvXvXvXvXvXvXvX",
"vXvXvXvXvXvXvXvXvX#  XN.n.^.oXoXoXoX.X.X.X.X.X.X-X.X.X.X.X.X.X.X.X.XK.j X X X X 9 k.+ X vXvXvXvXvXvXvXvXvXvXvXvXvXvXvXvXvXvXvXvX",
"vXvXvXvXvXvXvXvXvXO R.K.A. XoX.X.X.X.X.X.X.X.XoX X^. X.X.X.X.X.X.X.XF.s.q vXvXvXvXvXvXvXvXvXvXvXvXvXvXvXvXvXvXvXvXvXvXvXvXvXvXvX",
"vXvXvXvXvXvXvXvXvX  4 =.XX-XoX.X.X.X.X.X.X.X.X^.A.b._..XoX.X.X.X-X:Xh.w vXvXvXvXvXvXvXvXvXvXvXvXvXvXvXvXvXvXvXvXvXvXvXvXvXvXvXvX",
"vXvXvXvXvXvXvXvX. 5 Z 5 G }.-X-X.X.X.X.X.X.XXXA.b.b.(.oX;X-X-X.X=.P ; vXvXvXvXvXvXvXvXvXvXvXvXvXvXvXvXvXvXvXvXvXvXvXvXvXvXvXvXvX",
"vXvXvXvXvXvXvXvXO F Z 5 o b H Q.:X-X-X-X-X-X-X`.(.(. XQ.H H H H   vXvXvXvXvXvXvXvXvXvXvXvXvXvXvXvXvXvXvXvXvXvXvXvXvXvXvXvXvXvXvX",
"vXvXvXvXvXvXvX- N F Z . vXvXvX7 b b A C b b b m m m b 7 vXvXvXvXvXvXvXvXvXvXvXvXvXvXvXvXvXvXvXvXvXvXvXvXvXvXvXvXvXvXvXvXvXvXvXvX",
"vXvXvXvXvXvXvX2 :.%.- vXvXvXvXvXvXvXvXvXvXvXvXvXvXvXvXvXvXvXvXvXvXvXvXvXvXvXvXvXvXvXvXvXvXvXvXvXvXvXvXvXvXvXvXvXvXvXvXvXvXvXvXvX",
"vXvXvXvXvXvXvXo 6 :.J O vXvXvXvXvXvXvXvXvXvXvXvXvXvXvXvXvXvXvXvXvXvXvXvXvXvXvXvXvXvXvXvXvXvXvXvXvXvXvXvXvXvXvXvXvXvXvXvXvXvXvXvX",
"vXvXvXvXvXvXvXvXO H :.;.G vXvX:.U.I.I.I.U.I.vXvXvXvXvXvXvXvXvXvXvXvXvXvXvXvXvXvXvXvXvXvXvXvXvXvXvXvXvXvXvXvXvXvXvXvXvXvXvXvXvXvX",
"vXvXvXvXvXvXvXvXvX@ &.:.J F G /.iXjXiX<X1X,X!.*.vXvXvXvXvXvXvXvXvXvXvXvXvXvXvXvXvXvXvXvXvXvXvXvXvXvXvXvXvXvXvXvXvXvXvXvXvXvXvXvX",
"vXvXvXvXvXvXvXvXvX. i :.:.;./.2XgXfXfX4X1X1X1X<X~.vXP F 4 vXvXvXvXvXvXvXvXvXvXvXvXvXvXvXvXvXvXvXvXvXvXvXvXvXvXvXvXvXvXvXvXvXvXvX",
"vXvXvXvXvXvXvXvXvXvX. N %.}.iXhXfXfXaX3X;X.X.X:X1XQ.!.-XT.p p M =.# vXvXvXvXvXvXvXvXvXvXvXvXvXvXvXvXvXvXvXvXvXvXvXvXvXvXvXvXvXvX",
"vXvXvXvXvXvXvXvXvXvXvX  V }.OX>XaXgXfXiX<X:X;X5X.X.X.X.X.X-X:X-X=.vXvXvXvXvXvXvXvXvXvXvXvXvXvXvXvXvXvXvXvXvXvXvXvXvXvXvXvXvXvXvX",
"vXvXvXvXvXvXvXvXvXvXvXvXvXvXA Q.3X4X4X<X:X,X<X;X.X.X.X-X:X}.H H o vXvXvXvXvXvXvXvXvXvXvXvXvXvXvXvXvXvXvXvXvXvXvXvXvXvXvXvXvXvXvX",
"vXvXvXvXvXvXvXvXvXvXvXvXvXvXvX*.!.:X;X;X.X.X;XoX.X.X-XT.b M vXvXvXvXvXvXvXvXvXvXvXvXvXvXvXvXvXvXvXvXvXvXvXvXvXvXvXvXvXvXvXvXvXvX",
"vXvXvXvXvXvXvXvXvXvXvXvXvXvXvXvX7 P -XoX.X.X.X.X.X-X=.4 vXvXvXvXvXvXvXvXvXvXvXvXvXvXvXvXvXvXvXvXvXvXvXvXvXvXvXvXvXvXvXvXvXvXvXvX",
"vXvXvXvXvXvXvXvXvXvXvXvXvXvXvXvXvXvX3 3 3 3 3 3 3 5 - vXvXvXvXvXvXvXvXvXvXvXvXvXvXvXvXvXvXvXvXvXvXvXvXvXvXvXvXvXvXvXvXvXvXvXvXvX",
"vXvXvXvXvXvXvXvXvXvXvXvXvXvXvXvXvXvXvXvXvXvXvXvXvXvXvXvXvXvXvXvXvXvXvXvXvXvXvXvXvXvXvXvXvXvXvXvXvXvXvXvXvXvXvXvXvXvXvXvXvXvXvXvX"
};
