/* XPM */
static char *result[] = {
/* columns rows colors chars-per-pixel */
"64 64 233 2 ",
"   c #010100",
".  c #090804",
"X  c #120C05",
"o  c #06140D",
"O  c #1D180C",
"+  c #191409",
"@  c #071D13",
"#  c #1B1C1B",
"$  c #2E0400",
"%  c #220802",
"&  c #3E0A00",
"*  c #231A0B",
"=  c #35160D",
"-  c #08281A",
";  c #18281D",
":  c #09331D",
">  c #2A220F",
",  c #2B2411",
"<  c #2F2811",
"1  c #242111",
"2  c #332B13",
"3  c #392C14",
"4  c #3D3416",
"5  c #35371C",
"6  c #312C16",
"7  c #142C21",
"8  c #0B3B24",
"9  c #18392A",
"0  c #2B2C2C",
"q  c #521204",
"w  c #671503",
"e  c #731803",
"r  c #453A1D",
"t  c #493D1C",
"y  c #423418",
"u  c #553017",
"i  c #793614",
"p  c #64270C",
"a  c #463927",
"s  c #0A482A",
"d  c #15422B",
"f  c #1C4835",
"g  c #0B5D36",
"h  c #0C5632",
"j  c #1A5639",
"k  c #0D4D31",
"l  c #25533D",
"z  c #2F4F30",
"x  c #0C6038",
"c  c #13643C",
"v  c #2B6E3C",
"b  c #57421A",
"n  c #4F431D",
"m  c #694E1F",
"M  c #624B1E",
"N  c #7B441F",
"B  c #5C4C25",
"V  c #544623",
"C  c #4F502B",
"Z  c #614E26",
"A  c #645329",
"S  c #69562A",
"D  c #675627",
"F  c #765B27",
"G  c #724424",
"H  c #576B37",
"J  c #7B652D",
"K  c #726932",
"L  c #275942",
"P  c #166A41",
"I  c #1D6D42",
"U  c #1D7349",
"Y  c #1E7A51",
"T  c #2C644B",
"R  c #296D4F",
"E  c #34694A",
"W  c #26774A",
"Q  c #357B48",
"!  c #316D52",
"~  c #297D53",
"^  c #347658",
"/  c #296A50",
"(  c #53754D",
")  c #707547",
"_  c #464743",
"`  c #841300",
"'  c #8D3010",
"]  c #A2340E",
"[  c #A73D17",
"{  c #983E25",
"}  c #A8471C",
"|  c #B3471C",
" . c #B8531E",
".. c #965A2B",
"X. c #B24821",
"o. c #BD5328",
"O. c #BA5526",
"+. c #AA4E27",
"@. c #87672B",
"#. c #916D2D",
"$. c #8A7638",
"%. c #977934",
"&. c #94712F",
"*. c #A67B31",
"=. c #B8792F",
"-. c #924319",
";. c #C3561F",
":. c #C55A21",
">. c #CA5C22",
",. c #C65A2C",
"<. c #CD5F2A",
"1. c #CC6436",
"2. c #D76F3A",
"3. c #86764E",
"4. c #A2776B",
"5. c #9B7963",
"6. c #DC7541",
"7. c #E27D43",
"8. c #2C845A",
"9. c #2B8357",
"0. c #368557",
"q. c #3A8462",
"w. c #348D63",
"e. c #3C8A65",
"r. c #3A8765",
"t. c #3C956B",
"y. c #399469",
"u. c #2E8960",
"i. c #3EA27B",
"p. c #468B57",
"a. c #52925C",
"s. c #718953",
"d. c #478E67",
"f. c #45946A",
"g. c #569D62",
"h. c #439771",
"j. c #439D74",
"k. c #4D9D73",
"l. c #5CA266",
"z. c #45A37B",
"x. c #4AA57B",
"c. c #4BA97E",
"v. c #48A175",
"b. c #55AA7B",
"n. c #5BAE7B",
"m. c #5AA675",
"M. c #64A667",
"N. c #7AAC6C",
"B. c #63B27B",
"V. c #6BB57B",
"C. c #6CB87E",
"Z. c #73B97B",
"A. c #7BBD7C",
"S. c #74B777",
"D. c #6EAD71",
"F. c #7FC17D",
"G. c #99813B",
"H. c #AB8537",
"J. c #B18435",
"K. c #B6903F",
"L. c #AD933F",
"P. c #C7923B",
"I. c #959146",
"U. c #AC9346",
"Y. c #B79846",
"T. c #AB9552",
"R. c #BBA349",
"E. c #B7B75D",
"W. c #B2B05B",
"Q. c #918870",
"!. c #A58177",
"~. c #81BE79",
"^. c #8FB068",
"/. c #ADAC64",
"(. c #89A45F",
"). c #EA854C",
"_. c #EF8B52",
"`. c #F18E53",
"'. c #F49256",
"]. c #F79458",
"[. c #CBAC4B",
"{. c #CEB14D",
"}. c #D5B54E",
"|. c #DBBA4F",
" X c #DEBD52",
".X c #D4BC55",
"XX c #CBB253",
"oX c #E1BE51",
"OX c #C9B763",
"+X c #85C27B",
"@X c #8CC57B",
"#X c #8EC77C",
"$X c #92C87D",
"%X c #98CA7D",
"&X c #A1C87C",
"*X c #E3C255",
"=X c #E3C459",
"-X c #E8C859",
";X c #E9CD62",
":X c #E4CA63",
">X c #EED56C",
",X c #EDD163",
"<X c #E7D878",
"1X c #F2DE77",
"2X c #F0D76C",
"3X c #F4E17C",
"4X c #D1CB6B",
"5X c #4DAD81",
"6X c #45A981",
"7X c #58AE80",
"8X c #72BD80",
"9X c #A38984",
"0X c #B5BBBB",
"qX c #ABA8A6",
"wX c #CBABA4",
"eX c #9FCD80",
"rX c #B0D484",
"tX c #C8DA86",
"yX c #D9E38D",
"uX c #DCE690",
"iX c #F4E789",
"pX c #EAE991",
"aX c #F6EF94",
"sX c #F8EF94",
"dX c #F7F095",
"fX c #FAF195",
"gX c #FDF599",
"hX c #E8E185",
"jX c #DEC2BC",
"kX c #B6C0C0",
"lX c #D4D4D1",
"zX c #EFEFEC",
"xX c None",
/* pixels */
"xXxXxXxXxXxXxXxXxXxXxXxXxXxXxXxXxXxXxXxXxXxXxXxXxXxXxXxXxXxXxXxXxXxXxXxXxXxXxXxXxXxXxXxXxXxXxXxXxXxXxXxXxXxXxXxXxXxXxXxXxXxXxXxX",
"xXxXxXxXxXxXxXxXxXxXxXxXxXW c P b.b.b.n.b.x.x.xXxXxXxXxXxXxXxXxXxXxXxXxXxXxXxXxXxXxXxXxXxXxXxXxXxXxXxXxXxXxXxXxXxXxXxXxXxXxXxXxX",
"xXxXxXxXxXxXxXxXxXxXxXW Q D.a.f.Z.#X#X#X+XB.n.xXxXxXxXxXxXxXxXxXxXxXxXxXxXxXxXxXxXxXxXxXxXxXxXxXxXxXxXxXxXxXxXxXxXxXxXxXxXxXxXxX",
"xXxXxXxXxXxXxXxXxXP w.c.F.F.A.A.S.F.#X#X#X@X@XV.0.P xXxXxXxXxXxXJ J S 4 * + xXxXxXxXxXxXxXxXxXxXxXxXxXxXxXxXxXxXxXxXxXxXxXxXxXxX",
"xXxXxXxXxXxXxXxXxXxXc L L ~ v.6Xx.B.$X$X@X@X@X@X8X9.xXxXxX&.@.J K b 4 2 V n 1 2 xXxXxXxXxXxXxXxXxXxXxXxXxXxXxXxXxXxXxXxXxXxXxXxX",
"xXxXxXxXxXxXxXxXxXxXxXxXxXxXj q.5Xv.p.a.V.+X@X@X#Xg.E F &.%.H n x : - : f C z 4 B 2 B . xXxXxXxXxXxXxXxXxXxXxXxXxXxXxXxXxXxXxXxX",
"xXxXxXxXxXxXxXxXxXxXxXxXxXxX  @ 9 L 8.w.S.@X@X@X#XF.s.@.#.5 h 8 8.w.w.w.w.Y s . 2 S B . xXxXxXxXxXxXxXxXxXxXxXxXxXxXxXxXxXxXxXxX",
"xXxXxXxXxXxXxXxXxXxXxXxXxXxXs l ! w.n.F.@X@X@X@X@XeXs.r + @ y.t.F.F.A.n.x.j.8.h 8 > B a X xXxXxXxXxXxXxXxXxXxXxXxXxXxXxXxXxXxXxX",
"xXxXxXxXxXxXxXxXxXxXxXxXx t.j.j.B.F.F.@X@X@X@X@X+X8X0.: ; d.A.A.F.#X#Xn.x.x.j.t.w.s O B n + xXxXxXxXxXxXxXxXxXxXxXxXxXxXxXxXxXxX",
"xXxXxXxXxXxXxXxXxXxXxXxXo 0.5Xz.V.@X@X@X@X@X@X@Xp.I 0.m.N.+X@X@X@X@X#X+Xn.x.x.c.h.c h B S V O xXxXxXxXxXxXxXxXxXxXxXxXxXxXxXxXxX",
"xXxXxXxXxXxXxXxXxXxXxXxXh w.x.x.V.@X@X@X@X@X+Xn.W g.+X@X#X@X@X@X@X@X#XB.x.x.x.x.x.t.W C A A >   xXxXxXxXxXxXxXxXxXxXxXxXxXxXxXxX",
"xXxXxXxXxXxXxXxXxXxXxXxXxXc y.x.B.+X@X@X@X@Xb.b.S.@X@X@X@X@X@X@X@X#X+Xn.x.x.z.z.x.x.j.W V S A *   xXxXxXxXxXxXxXxXxXxXxXxXxXxXxX",
"xXxXxXxXxXxXxXxXxXxXxXxXxXxXt.t.j.n.+X@X@X@Xb.A.@X@X@X@X#X#X@X@X@XF.n.c.z.x.0.j q.q.h.v.: D K ;   xXxXxXxXxXxXxXxXxXxXxXxXxXxXxX",
"xXxXxXxXxXxXxXxXxXxXxXxXxXxXxXx 9.c.V.@X@X@XB.+X@X@X@X@X#X#X@XA.S.b.x.x.x.c.T   % % c x.9.W ~ d o xXxXxXxXxXxXxXxXxXxXxXxXxXxXxX",
"xXxXxXxXxXxXxXxXxXxXxXxXxXxXxXxX9.k.#X@X@X@X@X#X@X@X@X+XZ.Z.V.x.x.x.x.x.c.i.l p ] ' s L T ! ! j @   xXxXxXxXxXxXxXxXxXxXxXxXxXxX",
"xXxXxXxXxXxXxXxXxXxXxXxXxXxXxXxX5 ~ A.@X@X@XZ.V.+XA.Z.n.z.x.x.x.x.c.c.t.R H @.>.>. .&         * *   xXxXxXxXxXxXxXxXxXxXxXxXxXxX",
"xXxXxXxXxXxXxXxXxXxXxXxXxXxXxX` i H w.C.C.B.c.c.7X7X5X5Xj.0.5Xz.8.l f 8 . p >.:.:.;.[ % xXxX> F @.b xXxXxXxXxXxXxXxXxXxXxXxXxXxX",
"xXxXxXxXxXxXxXxXxXxXxXx.x.xXxX]  .O.Z 9 f v.9.f 9 9 f 9 f g 9 9 -         q | >.:.>. .X xXxXS @.H.#.S xXxXxXxXxXxXxXxXxXxXxXxXxX",
"xXxXxXxXxXxXxXxXxXI x.S.0.xX` [ >.>. .i   ; @           O C y r y t X     & ] >.:.:. .X xXxX+ Z *.F + xXxXxXxXxXxXxXxXxXxXxXxXxX",
"xXxXxXxXxXxXxXxXxXxXA.@XD.N ] 2.2.:.>.}             , V V A S A S A V +   u  .:.:. .= xXxXxX  b J.m   xXxXxXxXxXxXxXxXxXxXxXxXxX",
"xXxXxXxXxXxXxXxXxXW +X@XQ p ,.`._.).1.e . o       3 A A A A A C B A A O & [ :.:. .}   xXxXxX  b J.m   xXxXxXxXxXxXxXxXxXxXxXxXxX",
"xXxXxXxXxXxXxXP Q ~.@X+X; w 1.`.`.`.2.w 0 lX#   4 A A A A V V # . t O   i >.>.-.. X xXxXxXxX  b J.m   xXxXxXxXxXxXxXxXxXxXxXxXxX",
"xXxXxXxXxXW 0.B.@X@X#X+X7 q ,.).`.`.6.{ qXzX#   r S A A a   # qX0 . . w 1.6.:.'     xXxXxXxX  b J.m   xXxXxXxXxXxXxXxXxXxXxXxXxX",
"xXxXxXxXb.Z.@X#X#X@X@X#XQ xXe ,.`._._.2.' 0X#   a S A S r   # kXkX# w 1.`.`.1.w   xXxXxXxXxX  b J.m   xXxXxXxXxXxXxXxXxXxXxXxXxX",
"xXxXxXn.A.@X@X~.A.@X@X@Xb.l q ,.'._.`.7.+.9X=   , a 5 a ,   # kX9X= ' 6._._.O.` xXxXxXxXxXxX  b J.m   xXxXxXxXxXxXxXxXxXxXxXxXxX",
"xXxXxXZ.~.@X#XA.b.@X@X@Xb.c.( +.7.`.'.`.7.X.X.q $ $ $ $ $ $ q 4.+.X.).].).,.' q xXxXxXxXxXxX3 F J.m   xXxXxXxXxXxXxXxXxXxXxXxXxX",
"xXxXxXB.A.#X~.V.Z.@X@XV.c.x.z.( N ,.,.,._.'.].1.o.o.o.o.,.o.o.;.`.].7.,.| e % xXxXxXxXxXxX- z H H C xXxXxXxXxXxXxXxXxXxXxXxXxXxX",
"xXxXxX+X#X#XV.n.@X@X@Xx.x.z.z.t.( a q 4.X.X.+.7.'.'.'.'.'.'._.2.X.X.] +.=.u   xXxXxXx g x a.g.g.g.0.x g g x x x xXxXxXxXxXxXxXxX",
"xXxXx.Z.#X#XZ.n.@X@XB.x.x.x.x.c.6X/ # Q.wXG 4.+.[ [ [ [ } [ ] ] 4.#.=.}.-XF   9 9.c M.M.l.+X#X#X%XS.l.M.M.g.e.w.9   xXxXxXxXxXxX",
"xXxXx.Z.#X$XM.0.#X~.x.x.x.x.x.x.6Xd.4 5 zXlX5.U.P.P...5.9Xa jXjX_ Y. X X-XJ - d.F.N.@X#X#X#X@X@XF.V.#X#X#X#XF.b.q.7   xXxXxXxXxX",
"xXc P M.#X#X~.g.0.~.x.x.x.x.x.c.( $.[.U.3.3.R.oXoXoX.XT.Q.lXzXT.Y. X X*XF z h.t.0.@X@X+XB.m.n.b.V.S.m.n.n.b.W W U ~ r.l     xXxX",
"xXxXx M.$XV.b.t.W k.x.x.x.x.x.( A 3.*X X{.{.oXoX XoX X|.T.) 3.}.oXoX}..XV j y.9.y.9.b.b.F.+X+X+X+X@XF.+X+XA.k.j.j.8.U c h 8   xX",
"xXxXh l.V.x.x.x.t.W v.x.x.x.x.( A G.oX X XoX X X X X X*XR.F K  X X X4 ! v.8.p.@X~.~.@X~.#X@X@X@X@X@X@X@X@Xb.c.5Xh.d.t.L   . xXxX",
"xXxX  ! 5Xx.x.x.c.v.x.x.x.x.c.( %.oX X X|. X X X X X X X X X X X XoX5 k t.Z.@X@X@X@X@X@X@X@X@X@X@X@X@X~.8X5Xr.j.9     xXxXxXxXxX",
"xXxX  L h.c.x.x.x.z.y.v.x.x.k.) U.-X=X=X:X:X:X:X-X=X=X*X X X X X XR.Q y.Z.@X@X@X@X@X@X@X@X@X@X@X@X@XV.x.k.^ o xXxXxXxXxXxXxXxXxX",
"xXxXxXxXf e.5Xx.x.v.9.x.c.d.) XX1X1X1X3XsXdXdXdXdXiX3X<X:X X X X Xv t.6XZ.@X@X@X@X@X@X@X@X@X@X#X~.B.x.x.h.. xXxXxXxXxXxXxXxXxXxX",
"xXxXxXxXxX9 ^ c.x.k.x.T m.s./.tXuXfXsXfXaXsXaXsXdXdXdXdXiX3X>X.XI.0.h.x.Z.@X@X@X@X@X@X@X@X@X#X~.n.x.6Xx.j.o xXxXxXxXxXxXxXxXxXxX",
"xXxXxXxXxXxX9 7Xk.a.( 6 M.eX#XeXyXsXaXsXdXaXdXaXaXaXsXaXsXdXsX<XI j.x.x.n.A.#X@X@X@X@X@X@X#XZ.b.x.x.k.h.L xXxXxXxXxXxXxXxXxXxXxX",
"xXxXxXxXxXxX- T d.# , /.tXeX+XtXfXaXaXsXaXsXaXsXaXsXaXdXsXsXgXiXI i.x.x.x.b.B.Z.@X@X@X#X#XZ.b.z.x.x.5Xd.  xXxXxXxXxXxXxXxXxXxXxX",
"xXxXxXxXxXxXxX0 ) T./.aXdXyXyXpXsXfXaXaXsXaXdXaXdXaXsXaXfXpX&Xa.y.v.x.x.x.x.z.n.@X@X@XB.n.x.k.x.x.x.c.q.  xXxXxXxXxXxXxXxXxXxXxX",
"xXxXxXxXxXxXxXxXa dXdXdXaXfXdXsXsXsXaXaXaXaXdXaXaXaXdXaXyX&XS.c v.x.x.x.x.x.x.x.n.n.b.x.x.x.x.x.5X^ 7 xXxXxXxXxXxXxXxXxXxXxXxXxX",
"xXxXxXxXxXxXxXxX5 aXaXsXaXsXaXaXaXaXaXaXpXaXaXaXaXdXfXyX%X@X@XD.W t.x.x.x.x.x.x.x.x.x.x.x.x.x.x.x.T   xXxXxXxXxXxXxXxXxXxXxXxXxX",
"xXxXxXxXxXxXxX4 {.=X=XiXaXfXfXtX@X%X%X%X%X%XpXfXaXaXdXdX<X.X.XXXE t.x.x.x.x.x.x.x.x.x.x.x.x.j.x.T . xXxXxXxXxXxXxXxXxXxXxXxXxXxX",
"xXxXxXxXxXxXxXy *X X XoXhXiXfXtX+X@X@X@X$X&XpXdXaXiXiX<X X X*X X{.1 0.c.x.x.x.x.x.x.x.x.c.h.9 L l   xXxXxXxXxXxXxXxXxXxXxXxXxXxX",
"xXxXxXxXxXxXxX4 *XoX XoX X;XhX4X~.A.A.A.+XhXhXiX-X X X X X X X X|.t R ^ j.c.x.x.x.x.x.x.e.7 xXxXxXxXxXxXxXxXxXxXxXxXxXxXxXxXxXxX",
"xXxXxXxXxXxXxX3 U. X XE..XoX XoXE.D.D.D.^..X X X X X X X X XoX X X XD 4 z ^ d.5Xc.j.^ ^ @ xXxXxXxXxXxXxXxXxXxXxXxXxXxXxXxXxXxXxX",
"xXxXxXxXxXxXxXxX*  X.Xm.^..XoX XoXoXoXoXoX X X X X X X XoX X X X X XE.E.( 9 l T ! d.    xXxXxXxXxXxXxXxXxXxXxXxXxXxXxXxXxXxXxXxX",
"xXxXxXxXxXxXxXxX,  X.Xn.6XE.oX X XoX X X X X X*XoXoX*XoX X X X X X XB.c.7Xq.9   xXxXxXxXxXxXxXxXxXxXxXxXxXxXxXxXxXxXxXxXxXxXxXxX",
"xXxXxXxXxXxXxXxXxXxXxXl (..XoX X X X X X X XoX/.^.^.^./.*X X X XoX*XH f ^ xXxXxXxXxXxXxXxXxXxXxXxXxXxXxXxXxXxXxXxXxXxXxXxXxXxXxX",
"xXxXxXxXxXxXxXxXxXxX  3 b R.*XoX X X X X X XoXm.i.i.i.N.*X*X*X}.B n + xXxXxXxXxXxXxXxXxXxXxXxXxXxXxXxXxXxXxXxXxXxXxXxXxXxXxXxXxX",
"xXxXxXxXxXxXxXxXxX. t B . , 4 %.*XoX X X*X X XE.E.E.E.4XL.4 4 4 xXxXxXxXxXxXxXxXxXxXxXxXxXxXxXxXxXxXxXxXxXxXxXxXxXxXxXxXxXxXxXxX",
"xXxXxXxXxXxXxXxXxX. A A X xXxX> < < < 2 < < < 2 < < < < < xXxXxXxXxXxXxXxXxXxXxXxXxXxXxXxXxXxXxXxXxXxXxXxXxXxXxXxXxXxXxXxXxXxXxX",
"xXxXxXxXxXxXxXxXxXX Z Z X xXxXxXxXxXxXxXxXxXxXxXxXxXxXxXxXxXxXxXxXxXxXxXxXxXxXxXxXxXxXxXxXxXxXxXxXxXxXxXxXxXxXxXxXxXxXxXxXxXxXxX",
"xXxXxXxXxXxXxXxX* #.S B xXxXxXxXxXxXxXxXxXxXxXxXxXxXxXxXxXxXxXxXxXxXxXxXxXxXxXxXxXxXxXxXxXxXxXxXxXxXxXxXxXxXxXxXxXxXxXxXxXxXxXxX",
"xXxXxXxXxXxXxXxX* #.&.> + xXxXxXxXxXxXxXxXxXxXxXxXxXxXxXxXxXxXxXxXxXxXxXxXxXxXxXxXxXxXxXxXxXxXxXxXxXxXxXxXxXxXxXxXxXxXxXxXxXxXxX",
"xXxXxXxXxXxXxXxXxXX #.*.*.K xXxXxXY.Y.Y.K.Y.Y.xXxXxXxXxXxXxXxXxXxXxXxXxXxXxXxXxXxXxXxXxXxXxXxXxXxXxXxXxXxXxXxXxXxXxXxXxXxXxXxXxX",
"xXxXxXxXxXxXxXxXxX. t %.=.@.S xXOXiXdXaX1X>X>X[.G.3.U.xXxXxXy xXxXxXxXxXxXxXxXxXxXxXxXxXxXxXxXxXxXxXxXxXxXxXxXxXxXxXxXxXxXxXxXxX",
"xXxXxXxXxXxXxXxXxXxX  b M &.#.D T.gXaXaXaX>X;X;X,X,X,X[.$.L.{.B V %.2 xXxXxXxXxXxXxXxXxXxXxXxXxXxXxXxXxXxXxXxXxXxXxXxXxXxXxXxXxX",
"xXxXxXxXxXxXxXxXxXxXxX    3 F %.OXdXaXaXaX>X X X X X XoX*X*X X*X-X$.xXxXxXxXxXxXxXxXxXxXxXxXxXxXxXxXxXxXxXxXxXxXxXxXxXxXxXxXxXxX",
"xXxXxXxXxXxXxXxXxXxXxXxXxXxXr L.1XdXaXaX1X>X;X;X*X X X X X X*X|.D   xXxXxXxXxXxXxXxXxXxXxXxXxXxXxXxXxXxXxXxXxXxXxXxXxXxXxXxXxXxX",
"xXxXxXxXxXxXxXxXxXxXxXxXxXxXxXJ R.iX1X1X>X>X-X=X-X=X X X*XR.n t xXxXxXxXxXxXxXxXxXxXxXxXxXxXxXxXxXxXxXxXxXxXxXxXxXxXxXxXxXxXxXxX",
"xXxXxXxXxXxXxXxXxXxXxXxXxXxXxXxXK $.U.oX=X=X X X=X X X X X[.xXxXxXxXxXxXxXxXxXxXxXxXxXxXxXxXxXxXxXxXxXxXxXxXxXxXxXxXxXxXxXxXxXxX",
"xXxXxXxXxXxXxXxXxXxXxXxXxXxXxXxXxXxXxXt }.}.}.}.|. XJ > , , xXxXxXxXxXxXxXxXxXxXxXxXxXxXxXxXxXxXxXxXxXxXxXxXxXxXxXxXxXxXxXxXxXxX",
"xXxXxXxXxXxXxXxXxXxXxXxXxXxXxXxXxXxXxXxXO O O O O O + xXxXxXxXxXxXxXxXxXxXxXxXxXxXxXxXxXxXxXxXxXxXxXxXxXxXxXxXxXxXxXxXxXxXxXxXxX"
};
