/* XPM */
static char *result[] = {
/* columns rows colors chars-per-pixel */
"16 16 131 2 ",
"   c #15291C",
".  c #1F311F",
"X  c #222113",
"o  c #302311",
"O  c #123C28",
"+  c #493818",
"@  c #6D3D1F",
"#  c #5D3221",
"$  c #2B462B",
"%  c #3E4325",
"&  c #354D2D",
"*  c #264530",
"=  c #57421D",
"-  c #5A431B",
";  c #59461D",
":  c #60491F",
">  c #4A4729",
",  c #564329",
"<  c #694F20",
"1  c #696331",
"2  c #2B6D4B",
"3  c #346344",
"4  c #3F6742",
"5  c #3A724E",
"6  c #337A55",
"7  c #357658",
"8  c #367A5C",
"9  c #496745",
"0  c #667C47",
"q  c #64764A",
"w  c #833A16",
"e  c #8E3D15",
"r  c #A4491C",
"t  c #974D2A",
"y  c #855825",
"u  c #9A5335",
"i  c #A55D3F",
"p  c #847433",
"a  c #947E37",
"s  c #BE743E",
"d  c #C86131",
"f  c #A96140",
"g  c #3D8663",
"h  c #3C8764",
"j  c #3D8F6A",
"k  c #4E8050",
"l  c #5B8954",
"z  c #66854C",
"x  c #739A5B",
"c  c #7EA45F",
"v  c #468D66",
"b  c #528D62",
"n  c #41936E",
"m  c #499268",
"M  c #539260",
"N  c #509666",
"B  c #569B63",
"V  c #559D63",
"C  c #5B9C62",
"Z  c #5D9E66",
"A  c #459E72",
"S  c #499F74",
"D  c #509E72",
"F  c #6C9C60",
"G  c #4AA379",
"H  c #5AA571",
"J  c #57A875",
"K  c #5FA971",
"L  c #57AA7A",
"P  c #5BAE7C",
"I  c #69A368",
"U  c #60A872",
"Y  c #6BAC70",
"T  c #68B176",
"R  c #6AB277",
"E  c #65B27A",
"W  c #6CB57A",
"Q  c #77B575",
"!  c #76B775",
"~  c #7AB572",
"^  c #7BB876",
"/  c #7FB975",
"(  c #70B77A",
")  c #71B87B",
"_  c #7EBE79",
"`  c #7CBC7A",
"'  c #79BF7E",
"]  c #97853C",
"[  c #96954B",
"{  c #899652",
"}  c #949654",
"|  c #A49041",
" . c #AF9541",
".. c #B59B44",
"X. c #B19C47",
"o. c #B99B42",
"O. c #BC944C",
"+. c #AC935A",
"@. c #B09E53",
"#. c #BCA54E",
"$. c #B0AC5B",
"%. c #AE946F",
"&. c #98B371",
"*. c #BEBF62",
"=. c #CBAD58",
"-. c #C7B452",
";. c #C4BC5E",
":. c #D5B856",
">. c #D8BA54",
",. c #E1BF53",
"<. c #CCBB6A",
"1. c #81C07B",
"2. c #82C17C",
"3. c #88C37B",
"4. c #88C47C",
"5. c #89C47C",
"6. c #DAC35D",
"7. c #C8C263",
"8. c #C7CA6E",
"9. c #E5CB64",
"0. c #E7CD66",
"q. c #ECD570",
"w. c #CADD8A",
"e. c #E3DE80",
"r. c #D6E18C",
"t. c #EFE384",
"y. c #E5E58C",
"u. c #F1E78A",
"i. c #F6EE93",
"p. c #F9EF94",
"a. c None",
/* pixels */
"a.a.a.a.T ( a.a.a.a.a.a.a.a.a.a.",
"a.a.a.2 N _ F 0 k 4 % a.a.a.a.a.",
"a.a.a.a.H 4.~ / ' S 5 $ a.a.a.a.",
"a.a.a.a.M ^ Q U m 9 * & a.a.a.a.",
"a.a.a.a.r >   . X e a.< a.a.a.a.",
"a.a.B a.d # o , @ w a.- a.a.a.a.",
"a.! I a.u f t i s y a.; a.a.a.a.",
") ` E j q +.O.%.=.p 3 l C V a.a.",
"Z K A D $.0.9.:.-.z Y 1.2.R 6 O ",
"a.h b &.y.p.i.e.c J 5.3.W v a.a.",
"a.a.} t.w.r.u.8.x G P L g a.a.a.",
"a.a.] ;.*.7.6.,.[ 7 n 8 a.a.a.a.",
"a.a.a.1 o.X.{ | a.a.a.a.a.a.a.a.",
"a.a.+ = a.a.a.a.a.a.a.a.a.a.a.a.",
"a.a.a.: <.q.>. .a.a.a.a.a.a.a.a.",
"a.a.a.a.@.#...a a.a.a.a.a.a.a.a."
};
