/* XPM */
static char *result[] = {
/* columns rows colors chars-per-pixel */
"64 64 237 2 ",
"   c #000000",
".  c #0A0502",
"X  c #050A07",
"o  c #1B0A04",
"O  c #1D180B",
"+  c #181409",
"@  c #081B12",
"#  c #161818",
"$  c #02190D",
"%  c #250400",
"&  c #221C0D",
"*  c #281509",
"=  c #35150A",
"-  c #311205",
";  c #082618",
":  c #152A1C",
">  c #02321D",
",  c #29220E",
"<  c #2B2411",
"1  c #2F2811",
"2  c #292A1B",
"3  c #332A13",
"4  c #342A13",
"5  c #3E3419",
"6  c #2F3117",
"7  c #193929",
"8  c #0D3322",
"9  c #2C3224",
"0  c #4D1203",
"q  c #771501",
"w  c #621904",
"e  c #44381A",
"r  c #523D18",
"t  c #4D290F",
"y  c #6D3514",
"u  c #4A3F20",
"i  c #622D22",
"p  c #0A462A",
"a  c #1A4933",
"s  c #135636",
"d  c #214C38",
"f  c #234935",
"g  c #26563A",
"h  c #365734",
"j  c #2C4F2E",
"k  c #0E6239",
"l  c #0C6037",
"z  c #12643B",
"x  c #1F683A",
"c  c #26673A",
"v  c #35663C",
"b  c #59431B",
"n  c #57411A",
"m  c #4F431D",
"M  c #61491D",
"N  c #6A4F1F",
"B  c #4E4121",
"V  c #5C4B24",
"C  c #554623",
"Z  c #58552C",
"A  c #4A5834",
"S  c #645229",
"D  c #695628",
"F  c #7C5C25",
"G  c #6C4924",
"H  c #566936",
"J  c #7C632C",
"K  c #73602E",
"L  c #726C33",
"P  c #275B43",
"I  c #1B6A42",
"U  c #1E744B",
"Y  c #2C674C",
"T  c #28774A",
"R  c #337949",
"E  c #316D51",
"W  c #2A7E54",
"Q  c #267952",
"!  c #357759",
"~  c #347757",
"^  c #306A4C",
"/  c #4C4C4A",
"(  c #547B52",
")  c #50734A",
"_  c #627A4A",
"`  c #746F4C",
"'  c #7A4E45",
"]  c #952808",
"[  c #9A320D",
"{  c #8C3110",
"}  c #A73C17",
"|  c #A1360F",
" . c #811600",
".. c #A6441A",
"X. c #B4481C",
"o. c #BC531E",
"O. c #B6521E",
"+. c #A6541D",
"@. c #B24721",
"#. c #B34A22",
"$. c #B84D23",
"%. c #BB5326",
"&. c #A2553E",
"*. c #87692D",
"=. c #8A7838",
"-. c #957936",
";. c #9D742E",
":. c #A57B31",
">. c #AD6425",
",. c #924A1E",
"<. c #C65A21",
"1. c #C95D24",
"2. c #CA5E29",
"3. c #D26B38",
"4. c #D26A35",
"5. c #85784D",
"6. c #9C756B",
"7. c #86736E",
"8. c #A9634C",
"9. c #DB7642",
"0. c #E37D45",
"q. c #2D855C",
"w. c #298157",
"e. c #36835D",
"r. c #36824F",
"t. c #3B8462",
"y. c #338C62",
"u. c #3D8B66",
"i. c #3B946B",
"p. c #3A9469",
"a. c #39956B",
"s. c #3FA37E",
"d. c #458D55",
"f. c #528759",
"g. c #528C4F",
"h. c #408F6B",
"j. c #4A8E65",
"k. c #42946D",
"l. c #47996B",
"z. c #449D74",
"x. c #459771",
"c. c #579D63",
"v. c #46A37A",
"b. c #4AA57B",
"n. c #4BA97E",
"m. c #46A175",
"M. c #53AA7B",
"N. c #5BAD7B",
"B. c #59A975",
"V. c #54A571",
"C. c #66A86A",
"Z. c #77AC6E",
"A. c #73B26E",
"S. c #63B27C",
"D. c #6CB57B",
"F. c #6DB67A",
"G. c #74BA7B",
"H. c #7BBD7C",
"J. c #78B774",
"K. c #6EAB70",
"L. c #698F5A",
"P. c #7EC07D",
"I. c #9D853B",
"U. c #A98436",
"Y. c #B18434",
"T. c #B68B3A",
"R. c #B6913F",
"E. c #958D4E",
"W. c #B69745",
"Q. c #AB934D",
"!. c #BBA349",
"~. c #B6B75E",
"^. c #ADAD59",
"/. c #90866D",
"(. c #8AB16B",
"). c #97B166",
"_. c #83BE76",
"`. c #81BF7A",
"'. c #89AE68",
"]. c #ACAB63",
"[. c #A38178",
"{. c #E7844A",
"}. c #F28F53",
"|. c #F59256",
" X c #F79558",
".X c #EF8C52",
"XX c #C9AB4A",
"oX c #D5B54E",
"OX c #DCB74E",
"+X c #C8BB59",
"@X c #D5BD55",
"#X c #DEBD52",
"$X c #C9AB4F",
"%X c #E1BE52",
"&X c #C9B763",
"*X c #84C17B",
"=X c #8CC57B",
"-X c #8EC57A",
";X c #93C97E",
":X c #90C77B",
">X c #A0CC7F",
",X c #E3C255",
"<X c #E4C55A",
"1X c #E7C659",
"2X c #E5CA63",
"3X c #EACE62",
"4X c #ECD369",
"5X c #ECDA79",
"6X c #F1DC74",
"7X c #F2DE79",
"8X c #F1D86C",
"9X c #F4E27C",
"0X c #D3CB6D",
"qX c #3BA581",
"wX c #4DAC81",
"eX c #55B081",
"rX c #A68D86",
"tX c #B6B7B2",
"yX c #B0AD9B",
"uX c #B2D483",
"iX c #A4CF81",
"pX c #8FCC80",
"aX c #C7D985",
"sX c #DBD584",
"dX c #D8E48E",
"fX c #F5E98B",
"gX c #F3E585",
"hX c #E9E991",
"jX c #F6EF94",
"kX c #F9EF93",
"lX c #F7F095",
"zX c #FAF195",
"xX c #FEF799",
"cX c #E7E185",
"vX c #CBCFCE",
"bX c #F0F1EF",
"nX c None",
/* pixels */
"nXnXnXnXnXnXnXnXnXnXnXnXnXnXnXnXnXnXnXnXnXnXnXnXnXnXnXnXnXnXnXnXnXnXnXnXnXnXnXnXnXnXnXnXnXnXnXnXnXnXnXnXnXnXnXnXnXnXnXnXnXnXnXnX",
"nXnXnXnXnXnXnXnXnXnXnXnXnXnXnXnXnXM.M.v.nXnXnXnXnXnXnXnXnXnXnXnXnXnXnXnXnXnXnXnXnXnXnXnXnXnXnXnXnXnXnXnXnXnXnXnXnXnXnXnXnXnXnXnX",
"nXnXnXnXnXnXnXnXnXnXnXnXnXnXT R j.G.H.N.N.N.N.N.nXnXnXnXnXnXnXnXnXnXnXnXnXnXnXnXnXnXnXnXnXnXnXnXnXnXnXnXnXnXnXnXnXnXnXnXnXnXnXnX",
"nXnXnXnXnXnXnXnXnXnXnXnXq.Q V.P.`.:X-X-X-X=X=X*XB.R z nXnXnXnXnX*.F J 1 & nXnXnXnXnXnXnXnXnXnXnXnXnXnXnXnXnXnXnXnXnXnXnXnXnXnXnX",
"nXnXnXnXnXnXnXnXnXnXnXw.E P ~ i.eXeXpX;X:X:X=X=X=XB.k nXnX*.U.:.L L M 5 S S D 4 . nXnXnXnXnXnXnXnXnXnXnXnXnXnXnXnXnXnXnXnXnXnXnX",
"nXnXnXnXnXnXnXnXnXnXnXnXnXnXp q.wXwXV.f.c.G.=X=X=XB.w.D *.:.H H w.l > > j h 6 V e u & nXnXnXnXnXnXnXnXnXnXnXnXnXnXnXnXnXnXnXnXnX",
"nXnXnXnXnXnXnXnXnXnXnXnXnXnXnXa 7 7 P q.k.H.=X=X=X=XK.D ;.e q.y.s.y.y.y.y.y.p j Z D O nXnXnXnXnXnXnXnXnXnXnXnXnXnXnXnXnXnXnXnXnX",
"nXnXnXnXnXnXnXnXnXnXnXnXnXnXnXnXs E y.S.*X=X=X=X=X=X(.V 6 ! G.b.G.G.H.n.n.wXi.a.H S B O nXnXnXnXnXnXnXnXnXnXnXnXnXnXnXnXnXnXnXnX",
"nXnXnXnXnXnXnXnXnXnXnXnXnXnXnXw.m.n.S.*X=X=X=X=X=X`.l.c h.H.=X`.=X=X=XP.M.b.b.b.^ x Z C O nXnXnXnXnXnXnXnXnXnXnXnXnXnXnXnXnXnXnX",
"nXnXnXnXnXnXnXnXnXnXnXnXnXnXX P wXb.S.=X=X=X=X-XpXJ.R J.`.=X=X=X=X=X=X=XM.v.b.b.m.z.T A , nXnXnXnXnXnXnXnXnXnXnXnXnXnXnXnXnXnXnX",
"nXnXnXnXnXnXnXnXnXnXnXnXnXnXs W n.b.D.=X=X=X=X*XH.N._.:X-X-X=X=X=X-X=X=XM.b.b.z.v.n.m.W A , nXnXnXnXnXnXnXnXnXnXnXnXnXnXnXnXnXnX",
"nXnXnXnXnXnXnXnXnXnXnXnXnXnXnXw.v.S.*X;X=X=XH.N.=X=X*X-X-X-X=X=X=X*XP.M.b.n.b.I ! k.i.m.) Z 2 nXnXnXnXnXnXnXnXnXnXnXnXnXnXnXnXnX",
"nXnXnXnXnXnXnXnXnXnXnXnXnXnXnXk Q m.S.=X=X=XH.S.=X=X=X=X=X=X=X`.H.n.v.v.b.b.h.:     s i.y.T I k nXnXnXnXnXnXnXnXnXnXnXnXnXnXnXnX",
"nXnXnXnXnXnXnXnXnXnXnXnXnXnXnXnXl W i.eX:X-X-X=X=X=X=X-X-XH.G.b.b.b.n.v.n.k.; nXnX  d ! ~ ~ s p p nXnXnXnXnXnXnXnXnXnXnXnXnXnXnX",
"nXnXnXnXnXnXnXnXnXnXnXnXnXnXnXnXnXnXU V.*X=X=X=X;X;X=XG.F.b.b.b.b.M.wXwXp.p nXnXnXnX      * e o   nXnXnXnXnXnXnXnXnXnXnXnXnXnXnX",
"nXnXnXnXnXnXnXnXnXnXnXnXnXnXnXnXnXnXnXh i.H.:X=XG.eXD.wXwXb.y.b.n.q.Y g 8 t { ] nXnXnXnX  b Y.r nXnXnXnXnXnXnXnXnXnXnXnXnXnXnXnX",
"nXnXnXnXnXnXnXnXnXnXnXnXnXnXnXnXnXnX] .._ wXeXS.Q d d d d d l f f ;   - y o.<.] nXnXnXnXnXV ;.*.V nXnXnXnXnXnXnXnXnXnXnXnXnXnXnX",
"nXnXnXnXnXnXnXnXnXnXnXnXnXnXnXnXnXnX| 1.,.7 a 7 $           ;       . - O.<.<.O.= nXnXnXnXV *.:.*.S nXnXnXnXnXnXnXnXnXnXnXnXnXnX",
"nXnXnXnXnXnXnXnXnXnXnXnXnXnXnXnXnX[ o.<.%.w                             q o.%.1.= nXnXnXnX+ N U.V + nXnXnXnXnXnXnXnXnXnXnXnXnXnX",
"nXnXnXnXnXnXnXnXnXnXv.nXnXnXnXnX .| 1.<.O.w             X B B B B .     q o.<.<.= nXnXnXnX  n Y.r   nXnXnXnXnXnXnXnXnXnXnXnXnXnX",
"nXnXnXnXnXnXnXnXnXwXW nXnXnXnXnX| 4.9.<.{           + C C S Z ' S B . . ..<.<.0 nXnXnXnXnX  b Y.r   nXnXnXnXnXnXnXnXnXnXnXnXnXnX",
"nXnXnXnXnXnXnXI l.H.r.nXnXnXnX .$.}.}.2.0 X #     + V S S S C u Z V X q o.<.o.* nXnXnXnXnX  n Y.r   nXnXnXnXnXnXnXnXnXnXnXnXnXnX",
"nXnXnXnXnXnXnX*X*X:Xr.nXnXnXnXnX@.{.|.3.w / tX  # S S S S u 9 9 B o * %.2.o.*   nXnXnXnXnX  n Y.r   nXnXnXnXnXnXnXnXnXnXnXnXnXnX",
"nXnXnXnXnXnXnX*X-X:XR nXnXnXnXnXq #.|.}.4.&.7.. X u u u 5 # tXrX* { {..X{.] o   nXnXnXnXnX  b Y.r   nXnXnXnXnXnXnXnXnXnXnXnXnXnX",
"nXnXnXnXnXU R J.=XpX9 nXnXnXnXnXnX@.9.|..X9.} y % % % % % = 6.} ...X|.0.X...* nXnXnXnXnXnX  n Y.r   nXnXnXnXnXnXnXnXnXnXnXnXnXnX",
"nXnXnXnXd.B.=X=X=XpXg X nXnXnXnXnXnX} 2.9.|.|.0.@.@.@.@.@.@.<.}.|.0.2...+.OX< nXnXnXnXnXnX< F Y.r   nXnXnXnXnXnXnXnXnXnXnXnXnXnX",
"nXnXnXF.-X-X:X-X=X=XC.v s nXnXnXnXnXnXi 8.#.%.3. X X X X}.}.9.$.#.} >.>.oX=.& nXnXnXnXnX  b Y.F 4 nXnXnXnXnXnXnXnXnXnXnXnXnXnXnX",
"nXnXnXD.*X-XF.*X=X*XP.N.a.a nXnXnXnXnX/ tX&.= y @.@.@.@.@.@.| 6.6.y OX,X#X& nXnXnXnXnXnX& F :.4   nXnXnXnXnXnXnXnXnXnXnXnXnXnXnX",
"nXnXb.G.*X:XM.H.=X:XN.b.n.T $     nXnX2 yXtXZ [.y i D rX6.= rXbXvX-.oX#X#X& nXnXnXnXnX1 V H 9 + nXz nXnXnXnXnXnXnXnXnXnXnXnXnXnX",
"nXnXb.*X-XS.G.*X=XD.b.n.b.z.t.! ! i.) 1 ` bXyXE.!.XXW./.vX# bXbXh XX#X#X#X, nXnXnX    7 c g.R p d.d.k z z z nXnXnXnXnXnXnXnXnXnX",
"nXb.H.=X-X*XN.H.=X*XN.v.v.b.b.n.wXj.5.XXQ.5.6.XX%X%X#XW./.vXbXW.W.OX%X#X#X!.< nX  Y t.C.A.*XJ.A.J.`.A.A.A.c.k z z z nXnXnXnXnXnX",
"nXnXM.*X-X-XM.H.=XS.n.b.b.b.b.n.( S -.,X@X$XoX#X#X#X#X#X$X` 5.oX%XOX#X#X#X,X<   E m.D.*X*X=X=X=X=X=X=X=X=X*XH.A.m.p.s nXnXnXnXnX",
"nXnXM.*X-X:XT Z.S.b.b.b.b.v.b.n.( D E.%X#X%X#X#X#X#X#X#XoXF J @X#X#X#X#X#XXX6 X ( wXq.T h.G.F.M.M.F.G.M.M.S.*X*XA.t.@ @ @ nXnXnX",
"nXz J.-X-X*XW c.V.v.b.b.b.n.v.wX( ;.%X#X#X#X#X#X#X#X#X#X@X@X@X#X#X#X,X@X%X< W U K.S.G.*X=XD.F.=X-XG.D.=X*XH.N.l.I Q i.i.!   nXnX",
"nXx C.*X-XM.wX~ z u.b.b.b.b.wXx._ W.1X,X<X2X2X2X2X2X,X,X#X%X#X#X%X%X%X,X^.2 z l.`.=X=X=X=X=X=X=X=X=X=X=X-X=XH.F.b.z.Q U I @ @ nX",
"nXnXp K.H.M.z.wXq.i.b.b.b.n.l.` $X8X7X7XgXzXjXzXjXjX7X7X2X,X#X#X@X].].Q.x U z.*X=X=X=X=X=X=X=X=X=X=X=X-X:XG.v.n.wXz.Y ~ i.p s X ",
"nXnX  i.wXz.wXwXn.p.q.z.! f.L.].aXdXjXjXjXjXjXzXjXjXjXjXkX9X4X<X#X(.q.W w.m.N.=X=X=X=X=X=X=X=X=X=X=X-X*XG.S.n.x.P g   nXnX  nXnX",
"nXnXnXnXP x.wXz.n.y.v ) j ( pXpXiXdXjXjXjXzXjXjXjXjXjXjXjXlXjX9X,X#Xc m.b.b.P.=X=X=X=X=X=X=X=X=X-XH.D.N.v.b.k.7 nXnXnXnXnXnXnXnX",
"nXnXnXnX  h.wXz.wXwXj o 5.0XiX`.aXzXjXjXjXjXjXjXjXjXjXzXzXlXzXzX,X@Xc z.b.b.N.*X=X=X=X=X=X=X=X=X:XF.v.b.n.e.7 nXnXnXnXnXnXnXnXnX",
"nXnXnXnX  : h.b.qX( E.].sXxXhXdXhXjXjXjXjXjXjXzXjXjXjXjXzXfXuX>XOXg.p.m.b.b.v.N.`.=X=X=X=X=X=XH.N.M.b.b.b.k.nXnXnXnXnXnXnXnXnXnX",
"nXnXnXnXnX  t.b.n.7 ].xXkXjXjXzXlXjXkXkXjXjXjXjXjXjXjXkXhXiX=X*XK.z m.m.v.b.b.v.H.-X=XD.H.=XG.b.b.b.b.b.! ; nXnXnXnXnXnXnXnXnXnX",
"nXnXnXnXnXnXnX# e.8 ].kXjXkXkXzXjXjXjXkXjXjXjXjXjXjXjXhX>X-X-X-XB.^.T m.b.b.b.b.M.M.M.b.M.M.b.b.b.b.b.E X   nXnXnXnXnXnXnXnXnXnX",
"nXnXnXnXnXnXnXnXX =.#X,X5XkXkXzXaXpXpXpXpXpXuXjXjXjXjXjXcX@X@X@X@X@Xc z.b.b.b.b.b.b.b.b.b.b.b.b.b.wX^     nXnXnXnXnXnXnXnXnXnXnX",
"nXnXnXnXnXnXnXnX  I.<X#X%X5XfXkXaXpX_.-X_.pXuXjXjXfXfXgX,X#X%X#X#XoX+ k.b.b.b.n.b.b.b.b.b.b.b.b.b.z.P   nXnXnXnXnXnXnXnXnXnXnXnX",
"nXnXnXnXnXnXnXnX  I.,XOX%X%X1X7XsX_.pXeX`.iXgXgX5X,X#X#X#X#X#X#X#XoXe ~ b.b.b.b.b.b.b.z.wXwXh.x.x.d nXnXnXnXnXnXnXnXnXnXnXnXnXnX",
"nXnXnXnXnXnXnXnX  J oX%X+X+X%X#X%X].Z.Z.Z.).%XOX#X#X#X#X#X#X#X#X#X#XOXO Y m.wXb.b.b.wXb.b.h.7 f f nXnXnXnXnXnXnXnXnXnXnXnXnXnXnX",
"nXnXnXnXnXnXnXnXnX  -.1XZ.Z.+X%X%X%X%X%X%X%X%XOX%X#X#X#X#X#X#X#X#X#X^.g   g Y x.b.b.! h.! 7 nXnXnXnXnXnXnXnXnXnXnXnXnXnXnXnXnXnX",
"nXnXnXnXnXnXnXnXnX  -.%X(.qX).%X#X#X#X#X#X#X#X%X%X%X%X,X,X#X#X#X#X#XM.wXP X   d P h.: Y 7 nXnXnXnXnXnXnXnXnXnXnXnXnXnXnXnXnXnXnX",
"nXnXnXnXnXnXnXnXnXnXnXnXA L.+X#X#X#X#X#X#X#X#X+X'.(.'.).#X#X#X#X,X#Xh d x.nXnXnXnXnXnXnXnXnXnXnXnXnXnXnXnXnXnXnXnXnXnXnXnXnXnXnX",
"nXnXnXnXnXnXnXnXnXnXnXnX, e U.<X,X%X#X#X#X%X%X~.v.v.v.B.#X,X,XOXV B nXnXnXnXnXnXnXnXnXnXnXnXnXnXnXnXnXnXnXnXnXnXnXnXnXnXnXnXnXnX",
"nXnXnXnXnXnXnXnXnXnXnX1 V , O 5 =.,X#X%X#X%X%X@X~.~.~.~.XXe e 5 nXnXnXnXnXnXnXnXnXnXnXnXnXnXnXnXnXnXnXnXnXnXnXnXnXnXnXnXnXnXnXnX",
"nXnXnXnXnXnXnXnXnXnX  e D <   nX& < 3 3 1 1 1 1 1 1 3 3 < nXnXnXnXnXnXnXnXnXnXnXnXnXnXnXnXnXnXnXnXnXnXnXnXnXnXnXnXnXnXnXnXnXnXnX",
"nXnXnXnXnXnXnXnXnXnX  e S , nXnXnXnXnXnXnXnXnXnXnXnXnXnXnXnXnXnXnXnXnXnXnXnXnXnXnXnXnXnXnXnXnXnXnXnXnXnXnXnXnXnXnXnXnXnXnXnXnXnX",
"nXnXnXnXnXnXnXnXnX  N J Z u nXnXnXnXnXnXnXnXnXnXnXnXnXnXnXnXnXnXnXnXnXnXnXnXnXnXnXnXnXnXnXnXnXnXnXnXnXnXnXnXnXnXnXnXnXnXnXnXnXnX",
"nXnXnXnXnXnXnXnXnX  M :.r + < nXnXnXnXnXnXnXnXnXnXnXnXnXnXnXnXnXnXnXnXnXnXnXnXnXnXnXnXnXnXnXnXnXnXnXnXnXnXnXnXnXnXnXnXnXnXnXnXnX",
"nXnXnXnXnXnXnXnXnXnX  M :.:.J nXnXnXW.W.W.R.R.T.nXnXnXnXnXnXnXnXnXnXnXnXnXnXnXnXnXnXnXnXnXnXnXnXnXnXnXnXnXnXnXnXnXnXnXnXnXnXnXnX",
"nXnXnXnXnXnXnXnXnXnXnX1 *.:.;.D nX&XfXlXfX6X8X2XW.=.E.nXnXnXe nXnXnXnXnXnXnXnXnXnXnXnXnXnXnXnXnXnXnXnXnXnXnXnXnXnXnXnXnXnXnXnXnX",
"nXnXnXnXnXnXnXnXnXnXnX  4 M *.;.S Q.xXjXlXfX4X3X3X3X1X<X-.I.oXV V -.O nXnXnXnXnXnXnXnXnXnXnXnXnXnXnXnXnXnXnXnXnXnXnXnXnXnXnXnXnX",
"nXnXnXnXnXnXnXnXnXnXnXnX    & D =.&XzXjXlXfX3XOX#X#X#X#X<X#X#X,X<X*.nXnXnXnXnXnXnXnXnXnXnXnXnXnXnXnXnXnXnXnXnXnXnXnXnXnXnXnXnXnX",
"nXnXnXnXnXnXnXnXnXnXnXnXnXnXnXe U.6XlXjXfX7X4X3X1X#X#X#X#X#X<X#XV   nXnXnXnXnXnXnXnXnXnXnXnXnXnXnXnXnXnXnXnXnXnXnXnXnXnXnXnXnXnX",
"nXnXnXnXnXnXnXnXnXnXnXnXnXnXnXnX*.!.gX7X6X4X4X<X1X2X#X#X#XoXm e nXnXnXnXnXnXnXnXnXnXnXnXnXnXnXnXnXnXnXnXnXnXnXnXnXnXnXnXnXnXnXnX",
"nXnXnXnXnXnXnXnXnXnXnXnXnXnXnXnXnXL =.Q.1X<X,X#X#X<X#X#X#XoXnXnXnXnXnXnXnXnXnXnXnXnXnXnXnXnXnXnXnXnXnXnXnXnXnXnXnXnXnXnXnXnXnXnX",
"nXnXnXnXnXnXnXnXnXnXnXnXnXnXnXnXnXnXnXnXD OXoXOXoX@XW.1 1 < nXnXnXnXnXnXnXnXnXnXnXnXnXnXnXnXnXnXnXnXnXnXnXnXnXnXnXnXnXnXnXnXnXnX",
"nXnXnXnXnXnXnXnXnXnXnXnXnXnXnXnXnXnXnXnXnXO O O O O O nXnXnXnXnXnXnXnXnXnXnXnXnXnXnXnXnXnXnXnXnXnXnXnXnXnXnXnXnXnXnXnXnXnXnXnXnX"
};
