/* XPM */
static char *result[] = {
/* columns rows colors chars-per-pixel */
"16 16 126 2 ",
"   c #2D170A",
".  c #251D0E",
"X  c #362F17",
"o  c #3A2A15",
"O  c #393E24",
"+  c #54240C",
"@  c #503D1A",
"#  c #713212",
"$  c #793615",
"%  c #5D3422",
"&  c #1E5236",
"*  c #25593B",
"=  c #60471C",
"-  c #524822",
";  c #5D472C",
":  c #504E2F",
">  c #4F532B",
",  c #694F20",
"<  c #7C4221",
"1  c #725021",
"2  c #78652C",
"3  c #696430",
"4  c #7D6F34",
"5  c #266144",
"6  c #276646",
"7  c #307357",
"8  c #3E7A55",
"9  c #3B7D57",
"0  c #357859",
"q  c #357A59",
"w  c #377D5D",
"e  c #546945",
"r  c #49774A",
"t  c #4C7D56",
"y  c #A34316",
"u  c #AD4417",
"i  c #985B34",
"p  c #9A563A",
"a  c #847031",
"s  c #BD793D",
"d  c #C56233",
"f  c #807641",
"g  c #A66442",
"h  c #A86A4A",
"j  c #3D885C",
"k  c #3C8765",
"l  c #3C8D68",
"z  c #528C5B",
"x  c #668655",
"c  c #6E8D54",
"v  c #758750",
"b  c #6E935D",
"n  c #4D9467",
"m  c #42956F",
"M  c #5F9B65",
"N  c #56966B",
"B  c #5F9D6C",
"V  c #439A72",
"C  c #4B9C72",
"Z  c #529F71",
"A  c #58A16C",
"S  c #4BA478",
"D  c #4AA47A",
"F  c #57A070",
"G  c #57A571",
"H  c #5DAA73",
"J  c #6EA366",
"K  c #74B06E",
"L  c #64AD74",
"P  c #6FB475",
"I  c #62B27C",
"U  c #64B37C",
"Y  c #6FBA7E",
"T  c #70B374",
"R  c #7ABA77",
"E  c #71B778",
"W  c #79BB78",
"Q  c #79BC7B",
"!  c #7CBC78",
"~  c #7DBE7B",
"^  c #7FBE7A",
"/  c #7FBF7B",
"(  c #98803F",
")  c #A9903F",
"_  c #878C47",
"`  c #8F9851",
"'  c #909B53",
"]  c #AF9541",
"[  c #AF9F4A",
"{  c #B59E5B",
"}  c #92A659",
"|  c #BFA349",
" . c #BDA44A",
".. c #A0AB58",
"X. c #B8A351",
"o. c #BCA154",
"O. c #B9B258",
"+. c #B7A473",
"@. c #C0A145",
"#. c #CEB053",
"$. c #C8B957",
"%. c #C7BE5D",
"&. c #D6BF58",
"*. c #E1BE52",
"=. c #86C37B",
"-. c #84C27C",
";. c #85C47D",
":. c #8CC57B",
">. c #ACC078",
",. c #CFC05D",
"<. c #DFC45F",
"1. c #C4C161",
"2. c #CDC56D",
"3. c #D5D97F",
"4. c #E3C861",
"5. c #ECD874",
"6. c #E8D77A",
"7. c #E5DB7C",
"8. c #E9DC7E",
"9. c #F0DE7B",
"0. c #BDD685",
"q. c #D3DE88",
"w. c #ECEC92",
"e. c #F2EE95",
"r. c #F9F196",
"t. c None",
/* pixels */
"t.t.t.t.L E t.t.> t.t.t.t.t.t.t.",
"t.t.t.6 n W J c M 9 * t.t.t.t.t.",
"t.t.t.t.G ;.! -.Y l 5 & t.t.t.t.",
"t.t.t.t.t.b x t e : t.- t.t.t.t.",
"t.t.t.t.u #   . + y t., t.t.t.t.",
"t.t.t.t.d % o ; < $ t.= t.t.t.t.",
"t.K t.t.p g i h s 1 t.@ t.t.t.t.",
"Q / Z 0 f { o.+.#.2 O r t.t.t.t.",
"T H D B 2.9.5.<.$._ z R ^ P j t.",
"8 V N >.w.r.e.3...A =.:.~ F q t.",
"t.7 v 8.0.q.7.1.} S I U C t.t.t.",
"t.t.3 O.%.,.&.*.' w m k t.t.t.t.",
"t.t.X 4 @.[ ` ) t.t.t.t.t.t.t.t.",
"t.t.@ t.t.t.t.t.t.t.t.t.t.t.t.t.",
"t.t.t.( 6.4.| a t.t.t.t.t.t.t.t.",
"t.t.t.t.X. .] t.t.t.t.t.t.t.t.t."
};
