/* XPM */
static char *result[] = {
/* columns rows colors chars-per-pixel */
"16 16 124 2 ",
"   c #140A04",
".  c #2C190A",
"X  c #241F10",
"o  c #103926",
"O  c #4C2E19",
"+  c #42381C",
"@  c #4B3B1B",
"#  c #523E1A",
"$  c #7F3615",
"%  c #2A4B2E",
"&  c #3C4125",
"*  c #275339",
"=  c #3C5337",
"-  c #5A471F",
";  c #5E471D",
":  c #4F4420",
">  c #664E20",
",  c #68472C",
"<  c #714C27",
"1  c #6A5224",
"2  c #7E6B2F",
"3  c #6A6330",
"4  c #7A6336",
"5  c #336443",
"6  c #3B6847",
"7  c #357A56",
"8  c #487347",
"9  c #547047",
"0  c #8F3B14",
"q  c #84401B",
"w  c #B94C1E",
"e  c #8D4F2C",
"r  c #985333",
"t  c #8A692C",
"y  c #8C7639",
"u  c #A96237",
"i  c #C65F30",
"p  c #9C694C",
"a  c #AD6A4D",
"s  c #30835D",
"d  c #398060",
"f  c #3D8562",
"g  c #3B8765",
"h  c #3E8F6C",
"j  c #4B845A",
"k  c #6A844E",
"l  c #458E63",
"z  c #4A8F63",
"x  c #568D61",
"c  c #49966C",
"v  c #4A9B6F",
"b  c #569566",
"n  c #469972",
"m  c #6C9F61",
"M  c #5EA36B",
"N  c #4FA373",
"B  c #49A077",
"V  c #4BA478",
"C  c #4FA579",
"Z  c #5DAB78",
"A  c #67A467",
"S  c #65A96D",
"D  c #68AB6D",
"F  c #70A466",
"G  c #69AC71",
"H  c #69B176",
"J  c #6CB275",
"K  c #69B178",
"L  c #73B473",
"P  c #71B677",
"I  c #7CB773",
"U  c #78B775",
"Y  c #7BBA77",
"T  c #71B87B",
"R  c #74BA7C",
"E  c #79BB7A",
"W  c #7FBE79",
"Q  c #79BC7C",
"!  c #78BD7C",
"~  c #8F803A",
"^  c #A1893B",
"/  c #A88E3D",
"(  c #878745",
")  c #808A4B",
"_  c #958442",
"`  c #819452",
"'  c #BF844C",
"]  c #A99140",
"[  c #AF9541",
"{  c #96A757",
"}  c #B7A349",
"|  c #BDA249",
" . c #BFA953",
".. c #B8B356",
"X. c #BFA969",
"o. c #B5BD75",
"O. c #C2A84C",
"+. c #CEB65C",
"@. c #C8BB5A",
"#. c #CBBC59",
"$. c #D0BC57",
"%. c #D2BD57",
"&. c #D9BA51",
"*. c #D0B55C",
"=. c #C0AC61",
"-. c #CBBA61",
";. c #82C17B",
":. c #85C27C",
">. c #8AC47B",
",. c #AACB7B",
"<. c #BFC878",
"1. c #BED17E",
"2. c #D0C05C",
"3. c #C4D37C",
"4. c #E3C760",
"5. c #E7D673",
"6. c #E4D276",
"7. c #E6D978",
"8. c #F6EB8E",
"9. c #F8EC8E",
"0. c #E5EA92",
"q. c #E9EA92",
"w. c #EFED94",
"e. c None",
/* pixels */
"e.e.e.e.e.T e.e.3 & e.e.e.e.e.e.",
"e.e.e.e.l G I k F b 5 e.e.e.e.e.",
"e.e.e.e.s H ;.W ! v * % e.e.e.e.",
"e.e.e.e.e.4 9 6 = < e.- e.e.e.e.",
"e.e.e.e.w $   X . 0 e.> e.e.e.e.",
"e.e.e.e.i r O , e q e.; e.e.e.e.",
"e.A e.e.e.p u a ' t e.@ e.e.e.e.",
"J Y z e._ =.*.X.+./ + e.e.e.e.e.",
"E P C x <.9.8.5.#.} 8 S L D e.e.",
"M N c o.0.q.w.1...m U >.:.K 7 o ",
"e.g j -.3.,.7.2.{ V R Q Z f e.e.",
"e.e.e.( $.%.@.&.` h B n d e.e.e.",
"e.e.e.: ^ ] ) ~ e.e.e.e.e.e.e.e.",
"e.e.# 1 e.e.e.e.e.e.e.e.e.e.e.e.",
"e.e.e.y 6.4.| e.e.e.e.e.e.e.e.e.",
"e.e.e.e. .O.[ 2 e.e.e.e.e.e.e.e."
};
