/* XPM */
static char *result[] = {
/* columns rows colors chars-per-pixel */
"64 64 230 2 ",
"   c #010100",
".  c #0D0A05",
"X  c #070806",
"o  c #140703",
"O  c #07140C",
"+  c #1A150A",
"@  c #1F1A0B",
"#  c #151309",
"$  c #0B1B13",
"%  c #13191A",
"&  c #241C0C",
"*  c #291A0A",
"=  c #351809",
"-  c #2C0D05",
";  c #10251B",
":  c #2A230F",
">  c #25200E",
",  c #2C2512",
"<  c #2D2B1B",
"1  c #332B15",
"2  c #382D15",
"3  c #3C3217",
"4  c #152E22",
"5  c #183A29",
"6  c #0D3B29",
"7  c #3B3C28",
"8  c #333535",
"9  c #440800",
"0  c #491505",
"q  c #500900",
"w  c #671D05",
"e  c #46381B",
"r  c #48260F",
"t  c #77270B",
"y  c #7A3412",
"u  c #64260B",
"i  c #6B362C",
"p  c #49332E",
"a  c #16462C",
"s  c #1C4434",
"d  c #134A32",
"f  c #0C5B36",
"g  c #144F31",
"h  c #204936",
"j  c #334F30",
"k  c #0E6139",
"l  c #15673D",
"z  c #4E421C",
"x  c #52451E",
"c  c #5C4C25",
"v  c #564822",
"b  c #57552D",
"n  c #49422A",
"m  c #634C21",
"M  c #675826",
"N  c #64532A",
"B  c #6B5629",
"V  c #6B5828",
"C  c #725C2B",
"Z  c #775824",
"A  c #7D4421",
"S  c #566731",
"D  c #79672E",
"F  c #666335",
"G  c #7B6935",
"H  c #697033",
"J  c #60481C",
"K  c #255741",
"L  c #1D6E43",
"P  c #186741",
"I  c #1C734A",
"U  c #2B684C",
"Y  c #3B6743",
"T  c #26764B",
"R  c #316D52",
"E  c #297753",
"W  c #36795B",
"Q  c #35764C",
"!  c #4D4D4D",
"~  c #705853",
"^  c #507B4D",
"/  c #646C4E",
"(  c #7E7466",
")  c #596365",
"_  c #952C0C",
"`  c #972A09",
"'  c #993415",
"]  c #94320E",
"[  c #A43A17",
"{  c #801600",
"}  c #B44818",
"|  c #B04F1D",
" . c #BB5726",
".. c #B1572B",
"X. c #88682C",
"o. c #916E2E",
"O. c #97722E",
"+. c #876F34",
"@. c #877333",
"#. c #957935",
"$. c #AB7E32",
"%. c #A37A31",
"&. c #AE6123",
"*. c #9F4F23",
"=. c #C65B22",
"-. c #CB5D23",
";. c #C35627",
":. c #C45E31",
">. c #CE6536",
",. c #D46C39",
"<. c #D3692E",
"1. c #C0531D",
"2. c #89755D",
"3. c #AA6C58",
"4. c #DE7742",
"5. c #E27C44",
"6. c #2A855D",
"7. c #26825B",
"8. c #368358",
"9. c #3B8563",
"0. c #3C8A66",
"q. c #388C65",
"w. c #3C956C",
"e. c #3E9B72",
"r. c #298A63",
"t. c #428857",
"y. c #52975D",
"u. c #4D9058",
"i. c #6A8A44",
"p. c #738F58",
"a. c #42946D",
"s. c #499A6B",
"d. c #569A66",
"f. c #449D73",
"g. c #449771",
"h. c #4A956D",
"j. c #5BA269",
"k. c #45A47C",
"l. c #4AA57B",
"z. c #4CA97E",
"x. c #47A277",
"c. c #54AA7B",
"v. c #5CAE7B",
"b. c #53A472",
"n. c #58AC79",
"m. c #6BAB6C",
"M. c #7BAC6C",
"N. c #63B17B",
"B. c #6CB67B",
"V. c #69B175",
"C. c #74BA7C",
"Z. c #7BBD7B",
"A. c #79B774",
"S. c #67AE72",
"D. c #7DC07D",
"F. c #9B843A",
"G. c #AD8133",
"H. c #A78A3C",
"J. c #B18A3B",
"K. c #C7953E",
"L. c #9E8741",
"P. c #B59A45",
"I. c #AD9041",
"U. c #86A35D",
"Y. c #BDA549",
"T. c #B6B65D",
"R. c #ADAD58",
"E. c #928B79",
"W. c #A39571",
"Q. c #88AE69",
"!. c #8CB26B",
"~. c #97B468",
"^. c #81BF7B",
"/. c #87BA74",
"(. c #ACB964",
"). c #E78248",
"_. c #F18E54",
"`. c #F49156",
"'. c #F69458",
"]. c #DAB64E",
"[. c #C3BA5B",
"{. c #CBB756",
"}. c #DEBD52",
"|. c #D6BB54",
" X c #C5AB4F",
".X c #E1BE52",
"XX c #E3BD4F",
"oX c #C39F40",
"OX c #84C27B",
"+X c #8CC57B",
"@X c #8DC97E",
"#X c #90C77C",
"$X c #91C87D",
"%X c #B0C773",
"&X c #E4C254",
"*X c #E8C455",
"=X c #E4C65B",
"-X c #EBCB5B",
";X c #E8CD64",
":X c #EDD46B",
">X c #ECD165",
",X c #EAD672",
"<X c #F1DF7A",
"1X c #F3E17D",
"2X c #DFC45C",
"3X c #39A280",
"4X c #4DAC81",
"5X c #71BD80",
"6X c #8C8C8C",
"7X c #B1A78E",
"8X c #BBB5B4",
"9X c #9CA3A4",
"0X c #C2AF97",
"qX c #B5D585",
"wX c #A3CE81",
"eX c #C5DA85",
"rX c #D5E28C",
"tX c #DEE690",
"yX c #EAE68E",
"uX c #F5E787",
"iX c #EBEB92",
"pX c #F7EF94",
"aX c #F8EF94",
"sX c #F7F095",
"dX c #F9F096",
"fX c #F8F198",
"gX c #CCC9BF",
"hX c #CED1D0",
"jX c #EFEEEB",
"kX c None",
/* pixels */
"kXkXkXkXkXkXkXkXkXkXkXkXkXkXkXkXkXkXkXkXkXkXkXkXkXkXkXkXkXkXkXkXkXkXkXkXkXkXkXkXkXkXkXkXkXkXkXkXkXkXkXkXkXkXkXkXkXkXkXkXkXkXkXkX",
"kXkXkXkXkXkXkXkXkXkXkXkXkXkXkXkXkXkXkXkXkXkXkXkXkXkXkXkXkXkXkXkXC C B 1 # . kXkXkXkXkXkXkXkXkXkXkXkXkXkXkXkXkXkXkXkXkXkXkXkXkXkX",
"kXkXkXkXkXkXkXkXkXkXkXkXkXkXkXkXkXkXkXv.v.v.v.v.v.kXkXkXkXkXC C o.$.o.B N 2 @ . kXkXkXkXkXkXkXkXkXkXkXkXkXkXkXkXkXkXkXkXkXkXkXkX",
"kXkXkXkXkXkXkXkXkXkXkXkXkXkXkXT t.u.C.+X@X+X$X#XZ.j.8.I kXC o.$.$.@.H S n b N e . kXkXkXkXkXkXkXkXkXkXkXkXkXkXkXkXkXkXkXkXkXkXkX",
"kXkXkXkXkXkXkXkXkXkXkXkXkXI T s 5XB.B.B.Z.#X$X+X+X+XOXx.^ Z $.@.S ^ 7.E 6.8.^ F e z kXkXkXkXkXkXkXkXkXkXkXkXkXkXkXkXkXkXkXkXkXkX",
"kXkXkXkXkXkXkXkXkXkXkXkXkXkXkXkXkXl.l.4Xs.8.d.5X+X+X@XOXp.X.Z j r.b.5XC.v.4X4Xd.Y b & kXkXkXkXkXkXkXkXkXkXkXkXkXkXkXkXkXkXkXkXkX",
"kXkXkXkXkXkXkXkXkXkXkXkXkXkXkXkXkXkXL 4 h q.s.OX+X+X+X$Xp.e j d.5XOX#X#X^.v.4Xk.e.U g $ kXkXkXkXkXkXkXkXkXkXkXkXkXkXkXkXkXkXkXkX",
"kXkXkXkXkXkXkXkXkXkXkXkXkXkXkXkXkXI 0.W w.v.OX+X+X+X$XC.8.U d.+X@X@X+X#X#XN.l.k.l.e.e.P kXkXkXkXkXkXkXkXkXkXkXkXkXkXkXkXkXkXkXkX",
"kXkXkXkXkXkXkXkXkXkXkXkXkXkXkXkXkX5 4Xl.v.OX+X+X+X+X@Xd.t.OX+X+X+X+X+X+X+XN.l.z.E q.f.g.T kXkXkXkXkXkXkXkXkXkXkXkXkXkXkXkXkXkXkX",
"kXkXkXkXkXkXkXkXkXkXkXkXkXkXkXkXkXL x.l.v.+X+X+X+X+XC.V.+X+X+X+X+X+X+X+XN.l.l.4Xs   O a W P P L kXkXkXkXkXkXkXkXkXkXkXkXkXkXkXkX",
"kXkXkXkXkXkXkXkXkXkXkXkXkXkXkXkXkXkXT e.f.v.OX+X+XB.N.+X+X+X+X+X+XOX^.N.l.l.l.x.5   2 , # # U 9.k kXkXkXkXkXkXkXkXkXkXkXkXkXkXkX",
"kXkXkXkXkXkXkXkXkXkXkXkXkXkXkXkXkXkXkXk I e.N.$X+XZ.B.+X+X+X+XOXZ.N.l.l.l.z.x.l kXkXkX1 B B +     kXkXkXkXkXkXkXkXkXkXkXkXkXkXkX",
"kXkXkXkXkXkXkXkXkXkXkXkXkXkXkXkXkXkXkXkXkXI s.D.@X@X@X@X$XOXC.v.k.z.4Xe.E U g O kXkXkX  m X.2 . kXkXkXkXkXkXkXkXkXkXkXkXkXkXkXkX",
"kXkXkXkXkXkXkXkXkXkXkXkXkXkXkXkXkXkXkXkXkXu j a.C.C.S.j.D.4Xz.4Xe.U h a , u 0 kXkXkXkXkX> X.O.+ kXkXkXkXkXkXkXkXkXkXkXkXkXkXkXkX",
"kXkXkXkXkXkXkXkXkXkXkXkXkXkXkXkXkXkXkXkX{ ` *.b 5 5 j 3 s s h s 6 - w y *.-.} ` kXkXkXkX  Z G.* kXkXkXkXkXkXkXkXkXkXkXkXkXkXkXkX",
"kXkXkXkXkXkXkXkXkXkXkXkXkXkXkXkXkXkXkX` } | -.| t - o o           o = t } =.-.[ kXkXkXkXkXN O.X.B kXkXkXkXkXkXkXkXkXkXkXkXkXkXkX",
"kXkXkXkXkXkXkXkXkXkXkXkXkXkXkXkXkXkXkX` -.=.=.} w o                   X ] -.=.1.r kXkXkXkXc o.$.C kXkXkXkXkXkXkXkXkXkXkXkXkXkXkX",
"kXkXkXkXkXkXkXkXkXkXkXkXkXkXkXkXkXkX` 1.-.-.] o X           X X X       0 } =.-.0 kXkXkXkX. Z $., kXkXkXkXkXkXkXkXkXkXkXkXkXkXkX",
"kXkXkXkXkXkXkXkXkXkXkXkXkXkXkXkXkXkX' -.=.} 0         X X , c c c ,     9 } =. .r kXkXkXkX  Z G.* kXkXkXkXkXkXkXkXkXkXkXkXkXkXkX",
"kXkXkXkXkXkXkXkXkXkXkXkXkXkXkXkXkX_ ,.).-.y           1 N m N N N B ,   y =.-.r kXkXkXkXkX  Z $.* kXkXkXkXkXkXkXkXkXkXkXkXkXkXkX",
"kXkXkXkXkXkXkXkXkXkXkXkXkXkXkXkXkX' `._.,.q % 8   X 2 N N N n r v c # 0 } =.| = kXkXkXkXkX  Z G.: kXkXkXkXkXkXkXkXkXkXkXkXkXkXkX",
"kXkXkXkXkXkXkXkXkXkXkXkXkXkXkXkXkX_ 4._.4.t ~ 9X  , B N N v p ! 7 = = *.,.;.0   kXkXkXkXkX  Z $.* kXkXkXkXkXkXkXkXkXkXkXkXkXkXkX",
"kXkXkXkXkXkXkXkXkXkXkXkXkXkXkXkXkXkX[ `._.5...~ o # 1 < < # ) 0Xi t 5.'.).} -   kXkXkXkXkX2 o.$.* kXkXkXkXkXkXkXkXkXkXkXkXkXkXkX",
"kXkXkXkXkXkXkXV.kXkXkXkXkXkXkXkXkXkX_ :.`._.5.;.' 9 9 9 9 9 i 3. .5.'.).} ..r kXkXkXkXkX  Z $.J + kXkXkXkXkXkXkXkXkXkXkXkXkXkXkX",
"kXkXkXkXkXP c.A.k kXkXkXkXkXkXkXkXkXkX_ *. .'.`.5.>.>.>.4.:.:.4.'.5. ._ ..].x kXkXkXkXkX1 X.X.@ kXkXkXkXkXkXkXkXkXkXkXkXkXkXkXkX",
"kXkXkXkXkXm.D.+XkXkXkXkXkXkXkXkXkXkXkXkXp 3.' ' :.`._._._._.4...' ' ..K.].D & kXkXkXkX1 c C < kXkXkXkXkXkXkXkXkXkXkXkXkXkXkXkXkX",
"kXkXkXkXl #X+XM.  kXkXkXkXkXkXkXkXkXkXkX8 gX( = ' ` _ ' [ ' _ 3.8X2.$.=X*Xx kXkXkXkX  e B N # kXkXkXkXkXkXkXkXkXkXkXkXkXkXkXkXkX",
"kXkXkXP T +X+XM.X kXkXkXkXkXkXkXkXkXkXkX& E.hX( 6XB B 2.8X~ ! jXhXW.Y..X*Xc kXkXkXX 3 N c > kXkXkXkXkXkXkXkXkXkXkXkXkXkXkXkXkXkX",
"kXkXT n.OX+X+XA.T kXkXkXkXkXkXkXkXkXkXkXc / jX7XF.|.}.H.7X6X6XjXE.@.&X}.*XC kXkX. e N v & kXkXkXkXkXkXkXkXkXkXkXkXkXkXkXkXkXkXkX",
"kXkXZ.+X+X+X+X+XOX0.O kXkXkXkXkXkXkXkX+..XoX+.L.&X}.}.&XJ.W.hX%XJ.}.}.}.}.&Xx   n B v + kXkXkXkXkXkXkXkXkXkXkXkXkXkXkXkXkXkXkXkX",
"kXkXN.+XA.+X+X+XB.x.T 5 kXkXkXkXkXkXB L.}.].}.].}.].}.|.&XY.D P.*X.X}.}.}.*X@.D c 3 + kXkXkXkXkXkXkXkXkXkXkXkXkXkXkXkXkXkXkXkXkX",
"z.B.+XOXz.C.+XOXN.l.l.x.E 5 $ 5 kXD P.;X;X;X,X,X,X,X;X&X}.&X&X.XXX&X}.}.}.|.&X*Xz   kXkXkXkXkXkXkXkXkXkXkXkXkXkXkXkXkXkXkXkXkXkX",
"kXB.+XOXc.B.+X+XV.l.l.l.4Xg.R a.v {.1XuX1XuXfXfXfXfXpX<X:X}.}..XT.Q.T.XX}.}.}.*Xx kXkX  U a.y.y.y.y.y.y.l k f kXkXkXkXkXkXkXkXkX",
"l.C.+XOXc.+X+X^.k.l.l.l.l.l.b./ ~.%XsXsXfXsXpXpXpXpXpXpXpXuX;X.XQ.k.~.&X}.}.}.*Xx h 8.^ m.+X#X@X$X$X$X$Xm.j.j.L k k kXkXkXkXkXkX",
"c.OX+X+XC.N.+X^.l.l.l.l.k.0.5 !.+X$XeXfXsXsXfXpXpXpXpXpXpXpX<X=X[.T.{.}.}.}.&XD o R r.Q Q b.D.V.n.D.+X+X+X@X$Xm.m.a.l kXkXkXkXkX",
"kXv.OX+X/.T ^.c.l.l.l.z.h.b F wX+XwXyXaXpXsXpXpXpXpXpXpXpXpXpX,X}.XX}.}.}.&XC 6 f l j.s.S.A.N.C.OXN.c.OXN.v.OX+X+Xc.a.$ kXkXkXkX",
"kX+X+X+XA.T A.f.l.l.l.l.W n pXrX$XwXaXaXpXpXpXpXpXaXpXpXdXpXiX,X}.}.}.}.XX|.^ 6.l.V.+X+X+X+X+X/.+XOXOX+XOXOXv.c.T e.x.0.; kXkXkX",
"l A.+XOXz.g.T T l.l.l.h.G yXaXaXpXpXaXaXpXpXpXpXpXpXpXdXdXqX@X%X|.}.}.].Y.i.r.n.C.+X+X+X+X+X+X+X+X+X+X+X+X+XOXZ.l.T I I q.$ O kX",
"kXl A.C.l.l.l.l.l.k.l.9.< aXpXpXaXaXaXdXpXpXpXfXaXdXaXiXqX+X$XV.!.XX*Xi.l q.z.D.+X+X+X+X+X+X+X+X+X+X+X#X+XD.c.l.z.z.W W g d f kX",
"kXd x.z.l.l.l.z.f.w.g.Y F uXpXpXaXaXiXrXrXrXrXyXaXdXdXeXOXZ.C.B.R.&XY.u.w.z.x.B.+X+X+X+X+X+X+X+X+X+XZ.C.A.c.z.l.Q U O       kX  ",
"kXX a.U l.l.l.l.f.6.9.> =X:XpXpXaXiXqX+XOX+XOXqXaXpXdXtX%X~.Q.T.&X&Xi.7.z.l.l.C.#X+X+X+X+X+X+X+X+X#Xv.f.k.l.R g.O   kXkXkXkXkXkX",
"kXkXkXO l.z.l.l.l.z.t., .X.XuXfXdXrX+X$X+X+X/.qXpXpXdXuX;X&X.X.X}.&Xi.6.l.l.l.v.V.^.+X+X+X+X+X+X+XC.z.l.l.l.O kXkXkXkXkXkXkXkXkX",
"kXkXkXkX5 h f.z.l.l.0.: .X}.}.,XuXrX/.$X+X+XwXtXfXuX>X=X.X}.}.}.XX&Xi.6.z.l.l.l.l.C.#X+X+X#XB.N.N.l.l.l.z.l.kXkXkXkXkXkXkXkXkXkX",
"kXkXkXkXkXO f.l.l.l.0.* }.}.}.}.=X;X(.4Xv.v./.;X;X2X}.}.}.}.}.}.XX*Xi.6.l.l.l.l.l.c.v.v.v.v.l.l.l.l.l.l.h kXkXkXkXkXkXkXkXkXkXkX",
"kXkXkXkXkXX 4 l.a.4 9.X x [.M.}.}.}.|.[.[.[.{.}.}.}.}.}.}.}.}.}.}.}.U.f.l.l.l.l.l.l.l.l.f.l.l.l.l.l.f.l.$ kXkXkXkXkXkXkXkXkXkXkX",
"kXkXkXkXkXkXkXkXO kXO   : T.k.M..X}.}..XXX}.}.}.}.}..X}.}.}.}.}.&X~.K R z.z.l.l.l.l.l.l.l.l.l.l.l.l.4 kXkXkXkXkXkXkXkXkXkXkXkXkX",
"kXkXkXkXkXkXkXkXkXkXkXkX: R.v.Q..X}.}.}.}.}.}.}.}.|.[.|.}.}.}.}.&X~.q.8.0.g.z.z.l.l.l.l.l.l.z.4Xl.a.; kXkXkXkXkXkXkXkXkXkXkXkXkX",
"kXkXkXkXkXkXkXkXkXkXkXkXkX2 P..X}.}.}.}.}.}.}.}.|.!.k.Q.&X}.}.}.*XU.a     U 4Xz.k.z.z.l.4X0.W W g.4 kXkXkXkXkXkXkXkXkXkXkXkXkXkX",
"kXkXkXkXkXkXkXkXkXkXkXkX, v 2 I.*X&X}.}.}.}.}.&X~.k.k.Q.&X&X*XY.#.v kXkXkXh R R a.9.R g.9.;     kXkXkXkXkXkXkXkXkXkXkXkXkXkXkXkX",
"kXkXkXkXkXkXkXkXkXkX. 1 B c , > D F.*X*X&X&X*X*X[.!.!.%XP.D X.z   kXkXkXkXkX    h 4   Q 4 kXkXkXkXkXkXkXkXkXkXkXkXkXkXkXkXkXkXkX",
"kXkXkXkXkXkXkXkXkXkX. B v , kXkXkX> V V M M M M V V Z M z kXkXkXkXkXkXkXkXkXkXkXkXkXkXkXkXkXkXkXkXkXkXkXkXkXkXkXkXkXkXkXkXkXkXkX",
"kXkXkXkXkXkXkXkXkX+ m N z   kXkXkXkXkXkXkXkXkXkXkXkXkXkXkXkXkXkXkXkXkXkXkXkXkXkXkXkXkXkXkXkXkXkXkXkXkXkXkXkXkXkXkXkXkXkXkXkXkXkX",
"kXkXkXkXkXkXkXkXkX+ $.Z + kXkXkXkXkXkXkXkXkXkXkXkXkXkXkXkXkXkXkXkXkXkXkXkXkXkXkXkXkXkXkXkXkXkXkXkXkXkXkXkXkXkXkXkXkXkXkXkXkXkXkX",
"kXkXkXkXkXkXkXkXkX# %.X.  kXkXkXkXkXkXkXkXkXkXkXkXkXkXkXkXkXkXkXkXkXkXkXkXkXkXkXkXkXkXkXkXkXkXkXkXkXkXkXkXkXkXkXkXkXkXkXkXkXkXkX",
"kXkXkXkXkXkXkXkXkXkX& B O.O.N kXkXkXkXkXkXkXkXkXkXkXkXkXkXkXkXkXkXkXkXkXkXkXkXkXkXkXkXkXkXkXkXkXkXkXkXkXkXkXkXkXkXkXkXkXkXkXkXkX",
"kXkXkXkXkXkXkXkXkXkXkX& %.#.B kXkXJ.I.J.J.J.J.kXkXkXkXkXkXkXkXkXkXkXkXkXkXkXkXkXkXkXkXkXkXkXkXkXkXkXkXkXkXkXkXkXkXkXkXkXkXkXkXkX",
"kXkXkXkXkXkXkXkXkXkXkX. m G.O.N F.1XsXuX,X:X2XF.G kXkXkXkXkXkXkXkXkXkXkXkXkXkXkXkXkXkXkXkXkXkXkXkXkXkXkXkXkXkXkXkXkXkXkXkXkXkXkX",
"kXkXkXkXkXkXkXkXkXkXkXkX+ Z o.L.,XsXsXaX1X>X;X:X{.+.kXkXkXkXkXkXkXkXkXkXkXkXkXkXkXkXkXkXkXkXkXkXkXkXkXkXkXkXkXkXkXkXkXkXkXkXkXkX",
"kXkXkXkXkXkXkXkXkXkXkXkXkX# +.>XdXaXsXuX-X|.}.&X>X XF.D 3 kXkXkXkXkXkXkXkXkXkXkXkXkXkXkXkXkXkXkXkXkXkXkXkXkXkXkXkXkXkXkXkXkXkXkX",
"kXkXkXkXkXkXkXkXkXkXkXkXkXkXD P.uXaXpX1X>X-X&X&X}.}.}.*XP.M @.C kXkXkXkXkXkXkXkXkXkXkXkXkXkXkXkXkXkXkXkXkXkXkXkXkXkXkXkXkXkXkXkX",
"kXkXkXkXkXkXkXkXkXkXkXkXkXkXkXG :X1X1X:X>X;X;X}.}.}.}.}.&X-XH.x kXkXkXkXkXkXkXkXkXkXkXkXkXkXkXkXkXkXkXkXkXkXkXkXkXkXkXkXkXkXkXkX",
"kXkXkXkXkXkXkXkXkXkXkXkXkXkXkXkXF.*X&X=X&X}.2X}.}.}.}.=XF.3 , kXkXkXkXkXkXkXkXkXkXkXkXkXkXkXkXkXkXkXkXkXkXkXkXkXkXkXkXkXkXkXkXkX",
"kXkXkXkXkXkXkXkXkXkXkXkXkXkXkXkXkXc }.|.}.].].].|.}.#., > kXkXkXkXkXkXkXkXkXkXkXkXkXkXkXkXkXkXkXkXkXkXkXkXkXkXkXkXkXkXkXkXkXkXkX",
"kXkXkXkXkXkXkXkXkXkXkXkXkXkXkXkXkXkX+ c H.# @ @ @ @ + kXkXkXkXkXkXkXkXkXkXkXkXkXkXkXkXkXkXkXkXkXkXkXkXkXkXkXkXkXkXkXkXkXkXkXkXkX"
};
